ISO-10303-21;
HEADER;
/* Generated by software containing ST-Developer
 * from STEP Tools, Inc. (www.steptools.com) 
 */
/* OPTION: using custom renumber hook */

FILE_DESCRIPTION(
/* description */ ('STEP AP242 Edition 2',
'CAx-IF Rec.Pracs.---Representation and Presentation of Product Manufa
cturing Information (PMI)---4.0---2014-10-13',
'CAx-IF Rec.Pracs.---3D Tessellated Geometry---0.4---2014-09-14','2;1',
'CAx-IF Rec.Pracs.---User Defined Attributes---1.5---2016-08-15'),
/* implementation_level */ '2;1');

FILE_NAME(
/* name */ 'LADDER - LADDER',
/* time_stamp */ '2026-09-08T03:13:49Z',
/* author */ (''),
/* organization */ (''),
/* preprocessor_version */ 'ST-DEVELOPER v20',
/* originating_system */ 'ONSHAPE BY PTC INC, 1.220',
/* authorisation */ '  ');

FILE_SCHEMA (('AP242_MANAGED_MODEL_BASED_3D_ENGINEERING_MIM_LF { 1 0 10303 442 3 1 4 }'));
ENDSEC;

DATA;
#10=SHAPE_REPRESENTATION_RELATIONSHIP('','',#1075,#11);
#11=ADVANCED_BREP_SHAPE_REPRESENTATION('',(#1073),#1665);
#12=ORIENTED_EDGE('',*,*,#300,.F.);
#13=ORIENTED_EDGE('',*,*,#301,.T.);
#14=ORIENTED_EDGE('',*,*,#302,.T.);
#15=ORIENTED_EDGE('',*,*,#303,.T.);
#16=ORIENTED_EDGE('',*,*,#304,.F.);
#17=ORIENTED_EDGE('',*,*,#305,.T.);
#18=ORIENTED_EDGE('',*,*,#306,.F.);
#19=ORIENTED_EDGE('',*,*,#307,.F.);
#20=ORIENTED_EDGE('',*,*,#308,.F.);
#21=ORIENTED_EDGE('',*,*,#309,.F.);
#22=ORIENTED_EDGE('',*,*,#310,.T.);
#23=ORIENTED_EDGE('',*,*,#311,.T.);
#24=ORIENTED_EDGE('',*,*,#312,.F.);
#25=ORIENTED_EDGE('',*,*,#313,.T.);
#26=ORIENTED_EDGE('',*,*,#314,.T.);
#27=ORIENTED_EDGE('',*,*,#307,.T.);
#28=ORIENTED_EDGE('',*,*,#315,.F.);
#29=ORIENTED_EDGE('',*,*,#302,.F.);
#30=ORIENTED_EDGE('',*,*,#316,.T.);
#31=ORIENTED_EDGE('',*,*,#317,.F.);
#32=ORIENTED_EDGE('',*,*,#318,.F.);
#33=ORIENTED_EDGE('',*,*,#319,.T.);
#34=ORIENTED_EDGE('',*,*,#320,.T.);
#35=ORIENTED_EDGE('',*,*,#321,.F.);
#36=ORIENTED_EDGE('',*,*,#322,.F.);
#37=ORIENTED_EDGE('',*,*,#323,.T.);
#38=ORIENTED_EDGE('',*,*,#324,.T.);
#39=ORIENTED_EDGE('',*,*,#325,.F.);
#40=ORIENTED_EDGE('',*,*,#326,.F.);
#41=ORIENTED_EDGE('',*,*,#327,.T.);
#42=ORIENTED_EDGE('',*,*,#328,.T.);
#43=ORIENTED_EDGE('',*,*,#329,.F.);
#44=ORIENTED_EDGE('',*,*,#330,.F.);
#45=ORIENTED_EDGE('',*,*,#331,.T.);
#46=ORIENTED_EDGE('',*,*,#332,.T.);
#47=ORIENTED_EDGE('',*,*,#333,.F.);
#48=ORIENTED_EDGE('',*,*,#334,.F.);
#49=ORIENTED_EDGE('',*,*,#335,.T.);
#50=ORIENTED_EDGE('',*,*,#336,.T.);
#51=ORIENTED_EDGE('',*,*,#337,.F.);
#52=ORIENTED_EDGE('',*,*,#338,.F.);
#53=ORIENTED_EDGE('',*,*,#339,.T.);
#54=ORIENTED_EDGE('',*,*,#340,.T.);
#55=ORIENTED_EDGE('',*,*,#341,.F.);
#56=ORIENTED_EDGE('',*,*,#342,.F.);
#57=ORIENTED_EDGE('',*,*,#343,.T.);
#58=ORIENTED_EDGE('',*,*,#344,.T.);
#59=ORIENTED_EDGE('',*,*,#345,.F.);
#60=ORIENTED_EDGE('',*,*,#346,.F.);
#61=ORIENTED_EDGE('',*,*,#347,.T.);
#62=ORIENTED_EDGE('',*,*,#348,.T.);
#63=ORIENTED_EDGE('',*,*,#349,.F.);
#64=ORIENTED_EDGE('',*,*,#350,.F.);
#65=ORIENTED_EDGE('',*,*,#351,.T.);
#66=ORIENTED_EDGE('',*,*,#352,.T.);
#67=ORIENTED_EDGE('',*,*,#353,.F.);
#68=ORIENTED_EDGE('',*,*,#354,.F.);
#69=ORIENTED_EDGE('',*,*,#355,.T.);
#70=ORIENTED_EDGE('',*,*,#356,.T.);
#71=ORIENTED_EDGE('',*,*,#357,.F.);
#72=ORIENTED_EDGE('',*,*,#358,.F.);
#73=ORIENTED_EDGE('',*,*,#359,.T.);
#74=ORIENTED_EDGE('',*,*,#360,.T.);
#75=ORIENTED_EDGE('',*,*,#361,.F.);
#76=ORIENTED_EDGE('',*,*,#362,.F.);
#77=ORIENTED_EDGE('',*,*,#363,.T.);
#78=ORIENTED_EDGE('',*,*,#364,.T.);
#79=ORIENTED_EDGE('',*,*,#365,.F.);
#80=ORIENTED_EDGE('',*,*,#366,.F.);
#81=ORIENTED_EDGE('',*,*,#367,.T.);
#82=ORIENTED_EDGE('',*,*,#368,.T.);
#83=ORIENTED_EDGE('',*,*,#369,.F.);
#84=ORIENTED_EDGE('',*,*,#370,.F.);
#85=ORIENTED_EDGE('',*,*,#371,.T.);
#86=ORIENTED_EDGE('',*,*,#372,.T.);
#87=ORIENTED_EDGE('',*,*,#373,.F.);
#88=ORIENTED_EDGE('',*,*,#374,.F.);
#89=ORIENTED_EDGE('',*,*,#375,.T.);
#90=ORIENTED_EDGE('',*,*,#376,.T.);
#91=ORIENTED_EDGE('',*,*,#377,.F.);
#92=ORIENTED_EDGE('',*,*,#378,.F.);
#93=ORIENTED_EDGE('',*,*,#379,.T.);
#94=ORIENTED_EDGE('',*,*,#380,.T.);
#95=ORIENTED_EDGE('',*,*,#381,.F.);
#96=ORIENTED_EDGE('',*,*,#382,.F.);
#97=ORIENTED_EDGE('',*,*,#383,.T.);
#98=ORIENTED_EDGE('',*,*,#384,.T.);
#99=ORIENTED_EDGE('',*,*,#385,.F.);
#100=ORIENTED_EDGE('',*,*,#386,.F.);
#101=ORIENTED_EDGE('',*,*,#387,.T.);
#102=ORIENTED_EDGE('',*,*,#388,.T.);
#103=ORIENTED_EDGE('',*,*,#389,.F.);
#104=ORIENTED_EDGE('',*,*,#390,.F.);
#105=ORIENTED_EDGE('',*,*,#300,.T.);
#106=ORIENTED_EDGE('',*,*,#391,.T.);
#107=ORIENTED_EDGE('',*,*,#305,.F.);
#108=ORIENTED_EDGE('',*,*,#392,.F.);
#109=ORIENTED_EDGE('',*,*,#393,.F.);
#110=ORIENTED_EDGE('',*,*,#394,.T.);
#111=ORIENTED_EDGE('',*,*,#395,.F.);
#112=ORIENTED_EDGE('',*,*,#396,.F.);
#113=ORIENTED_EDGE('',*,*,#397,.T.);
#114=ORIENTED_EDGE('',*,*,#398,.T.);
#115=ORIENTED_EDGE('',*,*,#399,.T.);
#116=ORIENTED_EDGE('',*,*,#400,.F.);
#117=ORIENTED_EDGE('',*,*,#397,.F.);
#118=ORIENTED_EDGE('',*,*,#401,.F.);
#119=ORIENTED_EDGE('',*,*,#309,.T.);
#120=ORIENTED_EDGE('',*,*,#396,.T.);
#121=ORIENTED_EDGE('',*,*,#402,.F.);
#122=ORIENTED_EDGE('',*,*,#310,.F.);
#123=ORIENTED_EDGE('',*,*,#401,.T.);
#124=ORIENTED_EDGE('',*,*,#395,.T.);
#125=ORIENTED_EDGE('',*,*,#403,.T.);
#126=ORIENTED_EDGE('',*,*,#311,.F.);
#127=ORIENTED_EDGE('',*,*,#402,.T.);
#128=ORIENTED_EDGE('',*,*,#391,.F.);
#129=ORIENTED_EDGE('',*,*,#303,.F.);
#130=ORIENTED_EDGE('',*,*,#315,.T.);
#131=ORIENTED_EDGE('',*,*,#306,.T.);
#132=ORIENTED_EDGE('',*,*,#313,.F.);
#133=ORIENTED_EDGE('',*,*,#404,.F.);
#134=ORIENTED_EDGE('',*,*,#393,.T.);
#135=ORIENTED_EDGE('',*,*,#405,.T.);
#136=ORIENTED_EDGE('',*,*,#312,.T.);
#137=ORIENTED_EDGE('',*,*,#403,.F.);
#138=ORIENTED_EDGE('',*,*,#394,.F.);
#139=ORIENTED_EDGE('',*,*,#404,.T.);
#140=ORIENTED_EDGE('',*,*,#314,.F.);
#141=ORIENTED_EDGE('',*,*,#405,.F.);
#142=ORIENTED_EDGE('',*,*,#392,.T.);
#143=ORIENTED_EDGE('',*,*,#304,.T.);
#144=ORIENTED_EDGE('',*,*,#319,.F.);
#145=ORIENTED_EDGE('',*,*,#406,.F.);
#146=ORIENTED_EDGE('',*,*,#370,.T.);
#147=ORIENTED_EDGE('',*,*,#407,.T.);
#148=ORIENTED_EDGE('',*,*,#318,.T.);
#149=ORIENTED_EDGE('',*,*,#408,.F.);
#150=ORIENTED_EDGE('',*,*,#371,.F.);
#151=ORIENTED_EDGE('',*,*,#406,.T.);
#152=ORIENTED_EDGE('',*,*,#321,.T.);
#153=ORIENTED_EDGE('',*,*,#409,.F.);
#154=ORIENTED_EDGE('',*,*,#372,.F.);
#155=ORIENTED_EDGE('',*,*,#408,.T.);
#156=ORIENTED_EDGE('',*,*,#320,.F.);
#157=ORIENTED_EDGE('',*,*,#407,.F.);
#158=ORIENTED_EDGE('',*,*,#373,.T.);
#159=ORIENTED_EDGE('',*,*,#409,.T.);
#160=ORIENTED_EDGE('',*,*,#323,.F.);
#161=ORIENTED_EDGE('',*,*,#410,.F.);
#162=ORIENTED_EDGE('',*,*,#374,.T.);
#163=ORIENTED_EDGE('',*,*,#411,.T.);
#164=ORIENTED_EDGE('',*,*,#322,.T.);
#165=ORIENTED_EDGE('',*,*,#412,.F.);
#166=ORIENTED_EDGE('',*,*,#375,.F.);
#167=ORIENTED_EDGE('',*,*,#410,.T.);
#168=ORIENTED_EDGE('',*,*,#325,.T.);
#169=ORIENTED_EDGE('',*,*,#413,.F.);
#170=ORIENTED_EDGE('',*,*,#376,.F.);
#171=ORIENTED_EDGE('',*,*,#412,.T.);
#172=ORIENTED_EDGE('',*,*,#324,.F.);
#173=ORIENTED_EDGE('',*,*,#411,.F.);
#174=ORIENTED_EDGE('',*,*,#377,.T.);
#175=ORIENTED_EDGE('',*,*,#413,.T.);
#176=ORIENTED_EDGE('',*,*,#327,.F.);
#177=ORIENTED_EDGE('',*,*,#414,.F.);
#178=ORIENTED_EDGE('',*,*,#366,.T.);
#179=ORIENTED_EDGE('',*,*,#415,.T.);
#180=ORIENTED_EDGE('',*,*,#326,.T.);
#181=ORIENTED_EDGE('',*,*,#416,.F.);
#182=ORIENTED_EDGE('',*,*,#367,.F.);
#183=ORIENTED_EDGE('',*,*,#414,.T.);
#184=ORIENTED_EDGE('',*,*,#329,.T.);
#185=ORIENTED_EDGE('',*,*,#417,.F.);
#186=ORIENTED_EDGE('',*,*,#368,.F.);
#187=ORIENTED_EDGE('',*,*,#416,.T.);
#188=ORIENTED_EDGE('',*,*,#328,.F.);
#189=ORIENTED_EDGE('',*,*,#415,.F.);
#190=ORIENTED_EDGE('',*,*,#369,.T.);
#191=ORIENTED_EDGE('',*,*,#417,.T.);
#192=ORIENTED_EDGE('',*,*,#331,.F.);
#193=ORIENTED_EDGE('',*,*,#418,.F.);
#194=ORIENTED_EDGE('',*,*,#378,.T.);
#195=ORIENTED_EDGE('',*,*,#419,.T.);
#196=ORIENTED_EDGE('',*,*,#330,.T.);
#197=ORIENTED_EDGE('',*,*,#420,.F.);
#198=ORIENTED_EDGE('',*,*,#379,.F.);
#199=ORIENTED_EDGE('',*,*,#418,.T.);
#200=ORIENTED_EDGE('',*,*,#333,.T.);
#201=ORIENTED_EDGE('',*,*,#421,.F.);
#202=ORIENTED_EDGE('',*,*,#380,.F.);
#203=ORIENTED_EDGE('',*,*,#420,.T.);
#204=ORIENTED_EDGE('',*,*,#332,.F.);
#205=ORIENTED_EDGE('',*,*,#419,.F.);
#206=ORIENTED_EDGE('',*,*,#381,.T.);
#207=ORIENTED_EDGE('',*,*,#421,.T.);
#208=ORIENTED_EDGE('',*,*,#335,.F.);
#209=ORIENTED_EDGE('',*,*,#422,.F.);
#210=ORIENTED_EDGE('',*,*,#362,.T.);
#211=ORIENTED_EDGE('',*,*,#423,.T.);
#212=ORIENTED_EDGE('',*,*,#334,.T.);
#213=ORIENTED_EDGE('',*,*,#424,.F.);
#214=ORIENTED_EDGE('',*,*,#363,.F.);
#215=ORIENTED_EDGE('',*,*,#422,.T.);
#216=ORIENTED_EDGE('',*,*,#337,.T.);
#217=ORIENTED_EDGE('',*,*,#425,.F.);
#218=ORIENTED_EDGE('',*,*,#364,.F.);
#219=ORIENTED_EDGE('',*,*,#424,.T.);
#220=ORIENTED_EDGE('',*,*,#336,.F.);
#221=ORIENTED_EDGE('',*,*,#423,.F.);
#222=ORIENTED_EDGE('',*,*,#365,.T.);
#223=ORIENTED_EDGE('',*,*,#425,.T.);
#224=ORIENTED_EDGE('',*,*,#339,.F.);
#225=ORIENTED_EDGE('',*,*,#426,.F.);
#226=ORIENTED_EDGE('',*,*,#382,.T.);
#227=ORIENTED_EDGE('',*,*,#427,.T.);
#228=ORIENTED_EDGE('',*,*,#338,.T.);
#229=ORIENTED_EDGE('',*,*,#428,.F.);
#230=ORIENTED_EDGE('',*,*,#383,.F.);
#231=ORIENTED_EDGE('',*,*,#426,.T.);
#232=ORIENTED_EDGE('',*,*,#341,.T.);
#233=ORIENTED_EDGE('',*,*,#429,.F.);
#234=ORIENTED_EDGE('',*,*,#384,.F.);
#235=ORIENTED_EDGE('',*,*,#428,.T.);
#236=ORIENTED_EDGE('',*,*,#340,.F.);
#237=ORIENTED_EDGE('',*,*,#427,.F.);
#238=ORIENTED_EDGE('',*,*,#385,.T.);
#239=ORIENTED_EDGE('',*,*,#429,.T.);
#240=ORIENTED_EDGE('',*,*,#343,.F.);
#241=ORIENTED_EDGE('',*,*,#430,.F.);
#242=ORIENTED_EDGE('',*,*,#358,.T.);
#243=ORIENTED_EDGE('',*,*,#431,.T.);
#244=ORIENTED_EDGE('',*,*,#342,.T.);
#245=ORIENTED_EDGE('',*,*,#432,.F.);
#246=ORIENTED_EDGE('',*,*,#359,.F.);
#247=ORIENTED_EDGE('',*,*,#430,.T.);
#248=ORIENTED_EDGE('',*,*,#345,.T.);
#249=ORIENTED_EDGE('',*,*,#433,.F.);
#250=ORIENTED_EDGE('',*,*,#360,.F.);
#251=ORIENTED_EDGE('',*,*,#432,.T.);
#252=ORIENTED_EDGE('',*,*,#344,.F.);
#253=ORIENTED_EDGE('',*,*,#431,.F.);
#254=ORIENTED_EDGE('',*,*,#361,.T.);
#255=ORIENTED_EDGE('',*,*,#433,.T.);
#256=ORIENTED_EDGE('',*,*,#347,.F.);
#257=ORIENTED_EDGE('',*,*,#434,.F.);
#258=ORIENTED_EDGE('',*,*,#386,.T.);
#259=ORIENTED_EDGE('',*,*,#435,.T.);
#260=ORIENTED_EDGE('',*,*,#346,.T.);
#261=ORIENTED_EDGE('',*,*,#436,.F.);
#262=ORIENTED_EDGE('',*,*,#387,.F.);
#263=ORIENTED_EDGE('',*,*,#434,.T.);
#264=ORIENTED_EDGE('',*,*,#349,.T.);
#265=ORIENTED_EDGE('',*,*,#437,.F.);
#266=ORIENTED_EDGE('',*,*,#388,.F.);
#267=ORIENTED_EDGE('',*,*,#436,.T.);
#268=ORIENTED_EDGE('',*,*,#348,.F.);
#269=ORIENTED_EDGE('',*,*,#435,.F.);
#270=ORIENTED_EDGE('',*,*,#389,.T.);
#271=ORIENTED_EDGE('',*,*,#437,.T.);
#272=ORIENTED_EDGE('',*,*,#351,.F.);
#273=ORIENTED_EDGE('',*,*,#438,.F.);
#274=ORIENTED_EDGE('',*,*,#354,.T.);
#275=ORIENTED_EDGE('',*,*,#439,.T.);
#276=ORIENTED_EDGE('',*,*,#350,.T.);
#277=ORIENTED_EDGE('',*,*,#440,.F.);
#278=ORIENTED_EDGE('',*,*,#355,.F.);
#279=ORIENTED_EDGE('',*,*,#438,.T.);
#280=ORIENTED_EDGE('',*,*,#353,.T.);
#281=ORIENTED_EDGE('',*,*,#441,.F.);
#282=ORIENTED_EDGE('',*,*,#356,.F.);
#283=ORIENTED_EDGE('',*,*,#440,.T.);
#284=ORIENTED_EDGE('',*,*,#352,.F.);
#285=ORIENTED_EDGE('',*,*,#439,.F.);
#286=ORIENTED_EDGE('',*,*,#357,.T.);
#287=ORIENTED_EDGE('',*,*,#441,.T.);
#288=ORIENTED_EDGE('',*,*,#308,.T.);
#289=ORIENTED_EDGE('',*,*,#442,.F.);
#290=ORIENTED_EDGE('',*,*,#398,.F.);
#291=ORIENTED_EDGE('',*,*,#400,.T.);
#292=ORIENTED_EDGE('',*,*,#317,.T.);
#293=ORIENTED_EDGE('',*,*,#443,.F.);
#294=ORIENTED_EDGE('',*,*,#399,.F.);
#295=ORIENTED_EDGE('',*,*,#442,.T.);
#296=ORIENTED_EDGE('',*,*,#316,.F.);
#297=ORIENTED_EDGE('',*,*,#301,.F.);
#298=ORIENTED_EDGE('',*,*,#390,.T.);
#299=ORIENTED_EDGE('',*,*,#443,.T.);
#300=EDGE_CURVE('',#444,#445,#540,.T.);
#301=EDGE_CURVE('',#444,#446,#541,.T.);
#302=EDGE_CURVE('',#446,#447,#542,.T.);
#303=EDGE_CURVE('',#447,#445,#543,.T.);
#304=EDGE_CURVE('',#448,#449,#544,.T.);
#305=EDGE_CURVE('',#448,#450,#545,.T.);
#306=EDGE_CURVE('',#451,#450,#546,.T.);
#307=EDGE_CURVE('',#449,#451,#547,.T.);
#308=EDGE_CURVE('',#452,#453,#548,.T.);
#309=EDGE_CURVE('',#454,#452,#549,.T.);
#310=EDGE_CURVE('',#454,#455,#550,.T.);
#311=EDGE_CURVE('',#455,#456,#551,.T.);
#312=EDGE_CURVE('',#457,#456,#552,.T.);
#313=EDGE_CURVE('',#457,#458,#553,.T.);
#314=EDGE_CURVE('',#458,#449,#554,.T.);
#315=EDGE_CURVE('',#447,#451,#555,.T.);
#316=EDGE_CURVE('',#446,#459,#556,.T.);
#317=EDGE_CURVE('',#453,#459,#557,.T.);
#318=EDGE_CURVE('',#460,#461,#558,.T.);
#319=EDGE_CURVE('',#460,#462,#559,.T.);
#320=EDGE_CURVE('',#462,#463,#560,.T.);
#321=EDGE_CURVE('',#461,#463,#561,.T.);
#322=EDGE_CURVE('',#464,#465,#562,.T.);
#323=EDGE_CURVE('',#464,#466,#563,.T.);
#324=EDGE_CURVE('',#466,#467,#564,.T.);
#325=EDGE_CURVE('',#465,#467,#565,.T.);
#326=EDGE_CURVE('',#468,#469,#566,.T.);
#327=EDGE_CURVE('',#468,#470,#567,.T.);
#328=EDGE_CURVE('',#470,#471,#568,.T.);
#329=EDGE_CURVE('',#469,#471,#569,.T.);
#330=EDGE_CURVE('',#472,#473,#570,.T.);
#331=EDGE_CURVE('',#472,#474,#571,.T.);
#332=EDGE_CURVE('',#474,#475,#572,.T.);
#333=EDGE_CURVE('',#473,#475,#573,.T.);
#334=EDGE_CURVE('',#476,#477,#574,.T.);
#335=EDGE_CURVE('',#476,#478,#575,.T.);
#336=EDGE_CURVE('',#478,#479,#576,.T.);
#337=EDGE_CURVE('',#477,#479,#577,.T.);
#338=EDGE_CURVE('',#480,#481,#578,.T.);
#339=EDGE_CURVE('',#480,#482,#579,.T.);
#340=EDGE_CURVE('',#482,#483,#580,.T.);
#341=EDGE_CURVE('',#481,#483,#581,.T.);
#342=EDGE_CURVE('',#484,#485,#582,.T.);
#343=EDGE_CURVE('',#484,#486,#583,.T.);
#344=EDGE_CURVE('',#486,#487,#584,.T.);
#345=EDGE_CURVE('',#485,#487,#585,.T.);
#346=EDGE_CURVE('',#488,#489,#586,.T.);
#347=EDGE_CURVE('',#488,#490,#587,.T.);
#348=EDGE_CURVE('',#490,#491,#588,.T.);
#349=EDGE_CURVE('',#489,#491,#589,.T.);
#350=EDGE_CURVE('',#492,#493,#590,.T.);
#351=EDGE_CURVE('',#492,#494,#591,.T.);
#352=EDGE_CURVE('',#494,#495,#592,.T.);
#353=EDGE_CURVE('',#493,#495,#593,.T.);
#354=EDGE_CURVE('',#496,#497,#594,.T.);
#355=EDGE_CURVE('',#496,#498,#595,.T.);
#356=EDGE_CURVE('',#498,#499,#596,.T.);
#357=EDGE_CURVE('',#497,#499,#597,.T.);
#358=EDGE_CURVE('',#500,#501,#598,.T.);
#359=EDGE_CURVE('',#500,#502,#599,.T.);
#360=EDGE_CURVE('',#502,#503,#600,.T.);
#361=EDGE_CURVE('',#501,#503,#601,.T.);
#362=EDGE_CURVE('',#504,#505,#602,.T.);
#363=EDGE_CURVE('',#504,#506,#603,.T.);
#364=EDGE_CURVE('',#506,#507,#604,.T.);
#365=EDGE_CURVE('',#505,#507,#605,.T.);
#366=EDGE_CURVE('',#508,#509,#606,.T.);
#367=EDGE_CURVE('',#508,#510,#607,.T.);
#368=EDGE_CURVE('',#510,#511,#608,.T.);
#369=EDGE_CURVE('',#509,#511,#609,.T.);
#370=EDGE_CURVE('',#512,#513,#610,.T.);
#371=EDGE_CURVE('',#512,#514,#611,.T.);
#372=EDGE_CURVE('',#514,#515,#612,.T.);
#373=EDGE_CURVE('',#513,#515,#613,.T.);
#374=EDGE_CURVE('',#516,#517,#614,.T.);
#375=EDGE_CURVE('',#516,#518,#615,.T.);
#376=EDGE_CURVE('',#518,#519,#616,.T.);
#377=EDGE_CURVE('',#517,#519,#617,.T.);
#378=EDGE_CURVE('',#520,#521,#618,.T.);
#379=EDGE_CURVE('',#520,#522,#619,.T.);
#380=EDGE_CURVE('',#522,#523,#620,.T.);
#381=EDGE_CURVE('',#521,#523,#621,.T.);
#382=EDGE_CURVE('',#524,#525,#622,.T.);
#383=EDGE_CURVE('',#524,#526,#623,.T.);
#384=EDGE_CURVE('',#526,#527,#624,.T.);
#385=EDGE_CURVE('',#525,#527,#625,.T.);
#386=EDGE_CURVE('',#528,#529,#626,.T.);
#387=EDGE_CURVE('',#528,#530,#627,.T.);
#388=EDGE_CURVE('',#530,#531,#628,.T.);
#389=EDGE_CURVE('',#529,#531,#629,.T.);
#390=EDGE_CURVE('',#444,#532,#630,.T.);
#391=EDGE_CURVE('',#445,#450,#631,.T.);
#392=EDGE_CURVE('',#533,#448,#632,.T.);
#393=EDGE_CURVE('',#534,#533,#633,.T.);
#394=EDGE_CURVE('',#534,#535,#634,.T.);
#395=EDGE_CURVE('',#536,#535,#635,.T.);
#396=EDGE_CURVE('',#537,#536,#636,.T.);
#397=EDGE_CURVE('',#537,#538,#637,.T.);
#398=EDGE_CURVE('',#538,#539,#638,.T.);
#399=EDGE_CURVE('',#539,#532,#639,.T.);
#400=EDGE_CURVE('',#538,#452,#640,.T.);
#401=EDGE_CURVE('',#454,#537,#641,.T.);
#402=EDGE_CURVE('',#455,#536,#642,.T.);
#403=EDGE_CURVE('',#535,#456,#643,.T.);
#404=EDGE_CURVE('',#534,#457,#644,.T.);
#405=EDGE_CURVE('',#533,#458,#645,.T.);
#406=EDGE_CURVE('',#512,#460,#646,.T.);
#407=EDGE_CURVE('',#513,#462,#647,.T.);
#408=EDGE_CURVE('',#514,#461,#648,.T.);
#409=EDGE_CURVE('',#515,#463,#649,.T.);
#410=EDGE_CURVE('',#516,#464,#650,.T.);
#411=EDGE_CURVE('',#517,#466,#651,.T.);
#412=EDGE_CURVE('',#518,#465,#652,.T.);
#413=EDGE_CURVE('',#519,#467,#653,.T.);
#414=EDGE_CURVE('',#508,#468,#654,.T.);
#415=EDGE_CURVE('',#509,#470,#655,.T.);
#416=EDGE_CURVE('',#510,#469,#656,.T.);
#417=EDGE_CURVE('',#511,#471,#657,.T.);
#418=EDGE_CURVE('',#520,#472,#658,.T.);
#419=EDGE_CURVE('',#521,#474,#659,.T.);
#420=EDGE_CURVE('',#522,#473,#660,.T.);
#421=EDGE_CURVE('',#523,#475,#661,.T.);
#422=EDGE_CURVE('',#504,#476,#662,.T.);
#423=EDGE_CURVE('',#505,#478,#663,.T.);
#424=EDGE_CURVE('',#506,#477,#664,.T.);
#425=EDGE_CURVE('',#507,#479,#665,.T.);
#426=EDGE_CURVE('',#524,#480,#666,.T.);
#427=EDGE_CURVE('',#525,#482,#667,.T.);
#428=EDGE_CURVE('',#526,#481,#668,.T.);
#429=EDGE_CURVE('',#527,#483,#669,.T.);
#430=EDGE_CURVE('',#500,#484,#670,.T.);
#431=EDGE_CURVE('',#501,#486,#671,.T.);
#432=EDGE_CURVE('',#502,#485,#672,.T.);
#433=EDGE_CURVE('',#503,#487,#673,.T.);
#434=EDGE_CURVE('',#528,#488,#674,.T.);
#435=EDGE_CURVE('',#529,#490,#675,.T.);
#436=EDGE_CURVE('',#530,#489,#676,.T.);
#437=EDGE_CURVE('',#531,#491,#677,.T.);
#438=EDGE_CURVE('',#496,#492,#678,.T.);
#439=EDGE_CURVE('',#497,#494,#679,.T.);
#440=EDGE_CURVE('',#498,#493,#680,.T.);
#441=EDGE_CURVE('',#499,#495,#681,.T.);
#442=EDGE_CURVE('',#539,#453,#682,.T.);
#443=EDGE_CURVE('',#532,#459,#683,.T.);
#444=VERTEX_POINT('',#1376);
#445=VERTEX_POINT('',#1377);
#446=VERTEX_POINT('',#1379);
#447=VERTEX_POINT('',#1381);
#448=VERTEX_POINT('',#1385);
#449=VERTEX_POINT('',#1386);
#450=VERTEX_POINT('',#1388);
#451=VERTEX_POINT('',#1390);
#452=VERTEX_POINT('',#1394);
#453=VERTEX_POINT('',#1395);
#454=VERTEX_POINT('',#1397);
#455=VERTEX_POINT('',#1399);
#456=VERTEX_POINT('',#1401);
#457=VERTEX_POINT('',#1403);
#458=VERTEX_POINT('',#1405);
#459=VERTEX_POINT('',#1409);
#460=VERTEX_POINT('',#1412);
#461=VERTEX_POINT('',#1413);
#462=VERTEX_POINT('',#1415);
#463=VERTEX_POINT('',#1417);
#464=VERTEX_POINT('',#1420);
#465=VERTEX_POINT('',#1421);
#466=VERTEX_POINT('',#1423);
#467=VERTEX_POINT('',#1425);
#468=VERTEX_POINT('',#1428);
#469=VERTEX_POINT('',#1429);
#470=VERTEX_POINT('',#1431);
#471=VERTEX_POINT('',#1433);
#472=VERTEX_POINT('',#1436);
#473=VERTEX_POINT('',#1437);
#474=VERTEX_POINT('',#1439);
#475=VERTEX_POINT('',#1441);
#476=VERTEX_POINT('',#1444);
#477=VERTEX_POINT('',#1445);
#478=VERTEX_POINT('',#1447);
#479=VERTEX_POINT('',#1449);
#480=VERTEX_POINT('',#1452);
#481=VERTEX_POINT('',#1453);
#482=VERTEX_POINT('',#1455);
#483=VERTEX_POINT('',#1457);
#484=VERTEX_POINT('',#1460);
#485=VERTEX_POINT('',#1461);
#486=VERTEX_POINT('',#1463);
#487=VERTEX_POINT('',#1465);
#488=VERTEX_POINT('',#1468);
#489=VERTEX_POINT('',#1469);
#490=VERTEX_POINT('',#1471);
#491=VERTEX_POINT('',#1473);
#492=VERTEX_POINT('',#1476);
#493=VERTEX_POINT('',#1477);
#494=VERTEX_POINT('',#1479);
#495=VERTEX_POINT('',#1481);
#496=VERTEX_POINT('',#1485);
#497=VERTEX_POINT('',#1486);
#498=VERTEX_POINT('',#1488);
#499=VERTEX_POINT('',#1490);
#500=VERTEX_POINT('',#1493);
#501=VERTEX_POINT('',#1494);
#502=VERTEX_POINT('',#1496);
#503=VERTEX_POINT('',#1498);
#504=VERTEX_POINT('',#1501);
#505=VERTEX_POINT('',#1502);
#506=VERTEX_POINT('',#1504);
#507=VERTEX_POINT('',#1506);
#508=VERTEX_POINT('',#1509);
#509=VERTEX_POINT('',#1510);
#510=VERTEX_POINT('',#1512);
#511=VERTEX_POINT('',#1514);
#512=VERTEX_POINT('',#1517);
#513=VERTEX_POINT('',#1518);
#514=VERTEX_POINT('',#1520);
#515=VERTEX_POINT('',#1522);
#516=VERTEX_POINT('',#1525);
#517=VERTEX_POINT('',#1526);
#518=VERTEX_POINT('',#1528);
#519=VERTEX_POINT('',#1530);
#520=VERTEX_POINT('',#1533);
#521=VERTEX_POINT('',#1534);
#522=VERTEX_POINT('',#1536);
#523=VERTEX_POINT('',#1538);
#524=VERTEX_POINT('',#1541);
#525=VERTEX_POINT('',#1542);
#526=VERTEX_POINT('',#1544);
#527=VERTEX_POINT('',#1546);
#528=VERTEX_POINT('',#1549);
#529=VERTEX_POINT('',#1550);
#530=VERTEX_POINT('',#1552);
#531=VERTEX_POINT('',#1554);
#532=VERTEX_POINT('',#1557);
#533=VERTEX_POINT('',#1560);
#534=VERTEX_POINT('',#1562);
#535=VERTEX_POINT('',#1564);
#536=VERTEX_POINT('',#1566);
#537=VERTEX_POINT('',#1568);
#538=VERTEX_POINT('',#1570);
#539=VERTEX_POINT('',#1572);
#540=LINE('',#1375,#684);
#541=LINE('',#1378,#685);
#542=LINE('',#1380,#686);
#543=LINE('',#1382,#687);
#544=LINE('',#1384,#688);
#545=LINE('',#1387,#689);
#546=LINE('',#1389,#690);
#547=LINE('',#1391,#691);
#548=LINE('',#1393,#692);
#549=LINE('',#1396,#693);
#550=LINE('',#1398,#694);
#551=LINE('',#1400,#695);
#552=LINE('',#1402,#696);
#553=LINE('',#1404,#697);
#554=LINE('',#1406,#698);
#555=LINE('',#1407,#699);
#556=LINE('',#1408,#700);
#557=LINE('',#1410,#701);
#558=LINE('',#1411,#702);
#559=LINE('',#1414,#703);
#560=LINE('',#1416,#704);
#561=LINE('',#1418,#705);
#562=LINE('',#1419,#706);
#563=LINE('',#1422,#707);
#564=LINE('',#1424,#708);
#565=LINE('',#1426,#709);
#566=LINE('',#1427,#710);
#567=LINE('',#1430,#711);
#568=LINE('',#1432,#712);
#569=LINE('',#1434,#713);
#570=LINE('',#1435,#714);
#571=LINE('',#1438,#715);
#572=LINE('',#1440,#716);
#573=LINE('',#1442,#717);
#574=LINE('',#1443,#718);
#575=LINE('',#1446,#719);
#576=LINE('',#1448,#720);
#577=LINE('',#1450,#721);
#578=LINE('',#1451,#722);
#579=LINE('',#1454,#723);
#580=LINE('',#1456,#724);
#581=LINE('',#1458,#725);
#582=LINE('',#1459,#726);
#583=LINE('',#1462,#727);
#584=LINE('',#1464,#728);
#585=LINE('',#1466,#729);
#586=LINE('',#1467,#730);
#587=LINE('',#1470,#731);
#588=LINE('',#1472,#732);
#589=LINE('',#1474,#733);
#590=LINE('',#1475,#734);
#591=LINE('',#1478,#735);
#592=LINE('',#1480,#736);
#593=LINE('',#1482,#737);
#594=LINE('',#1484,#738);
#595=LINE('',#1487,#739);
#596=LINE('',#1489,#740);
#597=LINE('',#1491,#741);
#598=LINE('',#1492,#742);
#599=LINE('',#1495,#743);
#600=LINE('',#1497,#744);
#601=LINE('',#1499,#745);
#602=LINE('',#1500,#746);
#603=LINE('',#1503,#747);
#604=LINE('',#1505,#748);
#605=LINE('',#1507,#749);
#606=LINE('',#1508,#750);
#607=LINE('',#1511,#751);
#608=LINE('',#1513,#752);
#609=LINE('',#1515,#753);
#610=LINE('',#1516,#754);
#611=LINE('',#1519,#755);
#612=LINE('',#1521,#756);
#613=LINE('',#1523,#757);
#614=LINE('',#1524,#758);
#615=LINE('',#1527,#759);
#616=LINE('',#1529,#760);
#617=LINE('',#1531,#761);
#618=LINE('',#1532,#762);
#619=LINE('',#1535,#763);
#620=LINE('',#1537,#764);
#621=LINE('',#1539,#765);
#622=LINE('',#1540,#766);
#623=LINE('',#1543,#767);
#624=LINE('',#1545,#768);
#625=LINE('',#1547,#769);
#626=LINE('',#1548,#770);
#627=LINE('',#1551,#771);
#628=LINE('',#1553,#772);
#629=LINE('',#1555,#773);
#630=LINE('',#1556,#774);
#631=LINE('',#1558,#775);
#632=LINE('',#1559,#776);
#633=LINE('',#1561,#777);
#634=LINE('',#1563,#778);
#635=LINE('',#1565,#779);
#636=LINE('',#1567,#780);
#637=LINE('',#1569,#781);
#638=LINE('',#1571,#782);
#639=LINE('',#1573,#783);
#640=LINE('',#1575,#784);
#641=LINE('',#1576,#785);
#642=LINE('',#1578,#786);
#643=LINE('',#1580,#787);
#644=LINE('',#1583,#788);
#645=LINE('',#1584,#789);
#646=LINE('',#1588,#790);
#647=LINE('',#1589,#791);
#648=LINE('',#1591,#792);
#649=LINE('',#1593,#793);
#650=LINE('',#1596,#794);
#651=LINE('',#1597,#795);
#652=LINE('',#1599,#796);
#653=LINE('',#1601,#797);
#654=LINE('',#1604,#798);
#655=LINE('',#1605,#799);
#656=LINE('',#1607,#800);
#657=LINE('',#1609,#801);
#658=LINE('',#1612,#802);
#659=LINE('',#1613,#803);
#660=LINE('',#1615,#804);
#661=LINE('',#1617,#805);
#662=LINE('',#1620,#806);
#663=LINE('',#1621,#807);
#664=LINE('',#1623,#808);
#665=LINE('',#1625,#809);
#666=LINE('',#1628,#810);
#667=LINE('',#1629,#811);
#668=LINE('',#1631,#812);
#669=LINE('',#1633,#813);
#670=LINE('',#1636,#814);
#671=LINE('',#1637,#815);
#672=LINE('',#1639,#816);
#673=LINE('',#1641,#817);
#674=LINE('',#1644,#818);
#675=LINE('',#1645,#819);
#676=LINE('',#1647,#820);
#677=LINE('',#1649,#821);
#678=LINE('',#1652,#822);
#679=LINE('',#1653,#823);
#680=LINE('',#1655,#824);
#681=LINE('',#1657,#825);
#682=LINE('',#1660,#826);
#683=LINE('',#1662,#827);
#684=VECTOR('',#1131,1.);
#685=VECTOR('',#1132,1.);
#686=VECTOR('',#1133,1.);
#687=VECTOR('',#1134,1.);
#688=VECTOR('',#1137,1.);
#689=VECTOR('',#1138,1.);
#690=VECTOR('',#1139,1.);
#691=VECTOR('',#1140,1.);
#692=VECTOR('',#1143,1.);
#693=VECTOR('',#1144,1.);
#694=VECTOR('',#1145,1.);
#695=VECTOR('',#1146,1.);
#696=VECTOR('',#1147,1.);
#697=VECTOR('',#1148,1.);
#698=VECTOR('',#1149,1.);
#699=VECTOR('',#1150,1.);
#700=VECTOR('',#1151,1.);
#701=VECTOR('',#1152,1.);
#702=VECTOR('',#1153,1.);
#703=VECTOR('',#1154,1.);
#704=VECTOR('',#1155,1.);
#705=VECTOR('',#1156,1.);
#706=VECTOR('',#1157,1.);
#707=VECTOR('',#1158,1.);
#708=VECTOR('',#1159,1.);
#709=VECTOR('',#1160,1.);
#710=VECTOR('',#1161,1.);
#711=VECTOR('',#1162,1.);
#712=VECTOR('',#1163,1.);
#713=VECTOR('',#1164,1.);
#714=VECTOR('',#1165,1.);
#715=VECTOR('',#1166,1.);
#716=VECTOR('',#1167,1.);
#717=VECTOR('',#1168,1.);
#718=VECTOR('',#1169,1.);
#719=VECTOR('',#1170,1.);
#720=VECTOR('',#1171,1.);
#721=VECTOR('',#1172,1.);
#722=VECTOR('',#1173,1.);
#723=VECTOR('',#1174,1.);
#724=VECTOR('',#1175,1.);
#725=VECTOR('',#1176,1.);
#726=VECTOR('',#1177,1.);
#727=VECTOR('',#1178,1.);
#728=VECTOR('',#1179,1.);
#729=VECTOR('',#1180,1.);
#730=VECTOR('',#1181,1.);
#731=VECTOR('',#1182,1.);
#732=VECTOR('',#1183,1.);
#733=VECTOR('',#1184,1.);
#734=VECTOR('',#1185,1.);
#735=VECTOR('',#1186,1.);
#736=VECTOR('',#1187,1.);
#737=VECTOR('',#1188,1.);
#738=VECTOR('',#1191,1.);
#739=VECTOR('',#1192,1.);
#740=VECTOR('',#1193,1.);
#741=VECTOR('',#1194,1.);
#742=VECTOR('',#1195,1.);
#743=VECTOR('',#1196,1.);
#744=VECTOR('',#1197,1.);
#745=VECTOR('',#1198,1.);
#746=VECTOR('',#1199,1.);
#747=VECTOR('',#1200,1.);
#748=VECTOR('',#1201,1.);
#749=VECTOR('',#1202,1.);
#750=VECTOR('',#1203,1.);
#751=VECTOR('',#1204,1.);
#752=VECTOR('',#1205,1.);
#753=VECTOR('',#1206,1.);
#754=VECTOR('',#1207,1.);
#755=VECTOR('',#1208,1.);
#756=VECTOR('',#1209,1.);
#757=VECTOR('',#1210,1.);
#758=VECTOR('',#1211,1.);
#759=VECTOR('',#1212,1.);
#760=VECTOR('',#1213,1.);
#761=VECTOR('',#1214,1.);
#762=VECTOR('',#1215,1.);
#763=VECTOR('',#1216,1.);
#764=VECTOR('',#1217,1.);
#765=VECTOR('',#1218,1.);
#766=VECTOR('',#1219,1.);
#767=VECTOR('',#1220,1.);
#768=VECTOR('',#1221,1.);
#769=VECTOR('',#1222,1.);
#770=VECTOR('',#1223,1.);
#771=VECTOR('',#1224,1.);
#772=VECTOR('',#1225,1.);
#773=VECTOR('',#1226,1.);
#774=VECTOR('',#1227,1.);
#775=VECTOR('',#1228,1.);
#776=VECTOR('',#1229,1.);
#777=VECTOR('',#1230,1.);
#778=VECTOR('',#1231,1.);
#779=VECTOR('',#1232,1.);
#780=VECTOR('',#1233,1.);
#781=VECTOR('',#1234,1.);
#782=VECTOR('',#1235,1.);
#783=VECTOR('',#1236,1.);
#784=VECTOR('',#1239,1.);
#785=VECTOR('',#1240,1.);
#786=VECTOR('',#1243,1.);
#787=VECTOR('',#1246,1.);
#788=VECTOR('',#1251,1.);
#789=VECTOR('',#1252,1.);
#790=VECTOR('',#1259,1.);
#791=VECTOR('',#1260,1.);
#792=VECTOR('',#1263,1.);
#793=VECTOR('',#1266,1.);
#794=VECTOR('',#1271,1.);
#795=VECTOR('',#1272,1.);
#796=VECTOR('',#1275,1.);
#797=VECTOR('',#1278,1.);
#798=VECTOR('',#1283,1.);
#799=VECTOR('',#1284,1.);
#800=VECTOR('',#1287,1.);
#801=VECTOR('',#1290,1.);
#802=VECTOR('',#1295,1.);
#803=VECTOR('',#1296,1.);
#804=VECTOR('',#1299,1.);
#805=VECTOR('',#1302,1.);
#806=VECTOR('',#1307,1.);
#807=VECTOR('',#1308,1.);
#808=VECTOR('',#1311,1.);
#809=VECTOR('',#1314,1.);
#810=VECTOR('',#1319,1.);
#811=VECTOR('',#1320,1.);
#812=VECTOR('',#1323,1.);
#813=VECTOR('',#1326,1.);
#814=VECTOR('',#1331,1.);
#815=VECTOR('',#1332,1.);
#816=VECTOR('',#1335,1.);
#817=VECTOR('',#1338,1.);
#818=VECTOR('',#1343,1.);
#819=VECTOR('',#1344,1.);
#820=VECTOR('',#1347,1.);
#821=VECTOR('',#1350,1.);
#822=VECTOR('',#1355,1.);
#823=VECTOR('',#1356,1.);
#824=VECTOR('',#1359,1.);
#825=VECTOR('',#1362,1.);
#826=VECTOR('',#1367,1.);
#827=VECTOR('',#1370,1.);
#828=EDGE_LOOP('',(#12,#13,#14,#15));
#829=EDGE_LOOP('',(#16,#17,#18,#19));
#830=EDGE_LOOP('',(#20,#21,#22,#23,#24,#25,#26,#27,#28,#29,#30,#31));
#831=EDGE_LOOP('',(#32,#33,#34,#35));
#832=EDGE_LOOP('',(#36,#37,#38,#39));
#833=EDGE_LOOP('',(#40,#41,#42,#43));
#834=EDGE_LOOP('',(#44,#45,#46,#47));
#835=EDGE_LOOP('',(#48,#49,#50,#51));
#836=EDGE_LOOP('',(#52,#53,#54,#55));
#837=EDGE_LOOP('',(#56,#57,#58,#59));
#838=EDGE_LOOP('',(#60,#61,#62,#63));
#839=EDGE_LOOP('',(#64,#65,#66,#67));
#840=EDGE_LOOP('',(#68,#69,#70,#71));
#841=EDGE_LOOP('',(#72,#73,#74,#75));
#842=EDGE_LOOP('',(#76,#77,#78,#79));
#843=EDGE_LOOP('',(#80,#81,#82,#83));
#844=EDGE_LOOP('',(#84,#85,#86,#87));
#845=EDGE_LOOP('',(#88,#89,#90,#91));
#846=EDGE_LOOP('',(#92,#93,#94,#95));
#847=EDGE_LOOP('',(#96,#97,#98,#99));
#848=EDGE_LOOP('',(#100,#101,#102,#103));
#849=EDGE_LOOP('',(#104,#105,#106,#107,#108,#109,#110,#111,#112,#113,#114,
#115));
#850=EDGE_LOOP('',(#116,#117,#118,#119));
#851=EDGE_LOOP('',(#120,#121,#122,#123));
#852=EDGE_LOOP('',(#124,#125,#126,#127));
#853=EDGE_LOOP('',(#128,#129,#130,#131));
#854=EDGE_LOOP('',(#132,#133,#134,#135));
#855=EDGE_LOOP('',(#136,#137,#138,#139));
#856=EDGE_LOOP('',(#140,#141,#142,#143));
#857=EDGE_LOOP('',(#144,#145,#146,#147));
#858=EDGE_LOOP('',(#148,#149,#150,#151));
#859=EDGE_LOOP('',(#152,#153,#154,#155));
#860=EDGE_LOOP('',(#156,#157,#158,#159));
#861=EDGE_LOOP('',(#160,#161,#162,#163));
#862=EDGE_LOOP('',(#164,#165,#166,#167));
#863=EDGE_LOOP('',(#168,#169,#170,#171));
#864=EDGE_LOOP('',(#172,#173,#174,#175));
#865=EDGE_LOOP('',(#176,#177,#178,#179));
#866=EDGE_LOOP('',(#180,#181,#182,#183));
#867=EDGE_LOOP('',(#184,#185,#186,#187));
#868=EDGE_LOOP('',(#188,#189,#190,#191));
#869=EDGE_LOOP('',(#192,#193,#194,#195));
#870=EDGE_LOOP('',(#196,#197,#198,#199));
#871=EDGE_LOOP('',(#200,#201,#202,#203));
#872=EDGE_LOOP('',(#204,#205,#206,#207));
#873=EDGE_LOOP('',(#208,#209,#210,#211));
#874=EDGE_LOOP('',(#212,#213,#214,#215));
#875=EDGE_LOOP('',(#216,#217,#218,#219));
#876=EDGE_LOOP('',(#220,#221,#222,#223));
#877=EDGE_LOOP('',(#224,#225,#226,#227));
#878=EDGE_LOOP('',(#228,#229,#230,#231));
#879=EDGE_LOOP('',(#232,#233,#234,#235));
#880=EDGE_LOOP('',(#236,#237,#238,#239));
#881=EDGE_LOOP('',(#240,#241,#242,#243));
#882=EDGE_LOOP('',(#244,#245,#246,#247));
#883=EDGE_LOOP('',(#248,#249,#250,#251));
#884=EDGE_LOOP('',(#252,#253,#254,#255));
#885=EDGE_LOOP('',(#256,#257,#258,#259));
#886=EDGE_LOOP('',(#260,#261,#262,#263));
#887=EDGE_LOOP('',(#264,#265,#266,#267));
#888=EDGE_LOOP('',(#268,#269,#270,#271));
#889=EDGE_LOOP('',(#272,#273,#274,#275));
#890=EDGE_LOOP('',(#276,#277,#278,#279));
#891=EDGE_LOOP('',(#280,#281,#282,#283));
#892=EDGE_LOOP('',(#284,#285,#286,#287));
#893=EDGE_LOOP('',(#288,#289,#290,#291));
#894=EDGE_LOOP('',(#292,#293,#294,#295));
#895=EDGE_LOOP('',(#296,#297,#298,#299));
#896=FACE_BOUND('',#828,.T.);
#897=FACE_BOUND('',#829,.T.);
#898=FACE_BOUND('',#830,.T.);
#899=FACE_BOUND('',#831,.T.);
#900=FACE_BOUND('',#832,.T.);
#901=FACE_BOUND('',#833,.T.);
#902=FACE_BOUND('',#834,.T.);
#903=FACE_BOUND('',#835,.T.);
#904=FACE_BOUND('',#836,.T.);
#905=FACE_BOUND('',#837,.T.);
#906=FACE_BOUND('',#838,.T.);
#907=FACE_BOUND('',#839,.T.);
#908=FACE_BOUND('',#840,.T.);
#909=FACE_BOUND('',#841,.T.);
#910=FACE_BOUND('',#842,.T.);
#911=FACE_BOUND('',#843,.T.);
#912=FACE_BOUND('',#844,.T.);
#913=FACE_BOUND('',#845,.T.);
#914=FACE_BOUND('',#846,.T.);
#915=FACE_BOUND('',#847,.T.);
#916=FACE_BOUND('',#848,.T.);
#917=FACE_BOUND('',#849,.T.);
#918=FACE_BOUND('',#850,.T.);
#919=FACE_BOUND('',#851,.T.);
#920=FACE_BOUND('',#852,.T.);
#921=FACE_BOUND('',#853,.T.);
#922=FACE_BOUND('',#854,.T.);
#923=FACE_BOUND('',#855,.T.);
#924=FACE_BOUND('',#856,.T.);
#925=FACE_BOUND('',#857,.T.);
#926=FACE_BOUND('',#858,.T.);
#927=FACE_BOUND('',#859,.T.);
#928=FACE_BOUND('',#860,.T.);
#929=FACE_BOUND('',#861,.T.);
#930=FACE_BOUND('',#862,.T.);
#931=FACE_BOUND('',#863,.T.);
#932=FACE_BOUND('',#864,.T.);
#933=FACE_BOUND('',#865,.T.);
#934=FACE_BOUND('',#866,.T.);
#935=FACE_BOUND('',#867,.T.);
#936=FACE_BOUND('',#868,.T.);
#937=FACE_BOUND('',#869,.T.);
#938=FACE_BOUND('',#870,.T.);
#939=FACE_BOUND('',#871,.T.);
#940=FACE_BOUND('',#872,.T.);
#941=FACE_BOUND('',#873,.T.);
#942=FACE_BOUND('',#874,.T.);
#943=FACE_BOUND('',#875,.T.);
#944=FACE_BOUND('',#876,.T.);
#945=FACE_BOUND('',#877,.T.);
#946=FACE_BOUND('',#878,.T.);
#947=FACE_BOUND('',#879,.T.);
#948=FACE_BOUND('',#880,.T.);
#949=FACE_BOUND('',#881,.T.);
#950=FACE_BOUND('',#882,.T.);
#951=FACE_BOUND('',#883,.T.);
#952=FACE_BOUND('',#884,.T.);
#953=FACE_BOUND('',#885,.T.);
#954=FACE_BOUND('',#886,.T.);
#955=FACE_BOUND('',#887,.T.);
#956=FACE_BOUND('',#888,.T.);
#957=FACE_BOUND('',#889,.T.);
#958=FACE_BOUND('',#890,.T.);
#959=FACE_BOUND('',#891,.T.);
#960=FACE_BOUND('',#892,.T.);
#961=FACE_BOUND('',#893,.T.);
#962=FACE_BOUND('',#894,.T.);
#963=FACE_BOUND('',#895,.T.);
#964=PLANE('',#1077);
#965=PLANE('',#1078);
#966=PLANE('',#1079);
#967=PLANE('',#1080);
#968=PLANE('',#1081);
#969=PLANE('',#1082);
#970=PLANE('',#1083);
#971=PLANE('',#1084);
#972=PLANE('',#1085);
#973=PLANE('',#1086);
#974=PLANE('',#1087);
#975=PLANE('',#1088);
#976=PLANE('',#1089);
#977=PLANE('',#1090);
#978=PLANE('',#1091);
#979=PLANE('',#1092);
#980=PLANE('',#1093);
#981=PLANE('',#1094);
#982=PLANE('',#1095);
#983=PLANE('',#1096);
#984=PLANE('',#1097);
#985=PLANE('',#1098);
#986=PLANE('',#1099);
#987=PLANE('',#1100);
#988=PLANE('',#1101);
#989=PLANE('',#1102);
#990=PLANE('',#1103);
#991=PLANE('',#1104);
#992=PLANE('',#1105);
#993=PLANE('',#1106);
#994=PLANE('',#1107);
#995=PLANE('',#1108);
#996=PLANE('',#1109);
#997=PLANE('',#1110);
#998=PLANE('',#1111);
#999=PLANE('',#1112);
#1000=PLANE('',#1113);
#1001=PLANE('',#1114);
#1002=PLANE('',#1115);
#1003=PLANE('',#1116);
#1004=PLANE('',#1117);
#1005=PLANE('',#1118);
#1006=PLANE('',#1119);
#1007=PLANE('',#1120);
#1008=PLANE('',#1121);
#1009=PLANE('',#1122);
#1010=PLANE('',#1123);
#1011=PLANE('',#1124);
#1012=PLANE('',#1125);
#1013=PLANE('',#1126);
#1014=ADVANCED_FACE('',(#896),#964,.T.);
#1015=ADVANCED_FACE('',(#897),#965,.F.);
#1016=ADVANCED_FACE('',(#898,#899,#900,#901,#902,#903,#904,#905,#906,#907),
#966,.T.);
#1017=ADVANCED_FACE('',(#908,#909,#910,#911,#912,#913,#914,#915,#916,#917),
#967,.F.);
#1018=ADVANCED_FACE('',(#918),#968,.T.);
#1019=ADVANCED_FACE('',(#919),#969,.F.);
#1020=ADVANCED_FACE('',(#920),#970,.F.);
#1021=ADVANCED_FACE('',(#921),#971,.T.);
#1022=ADVANCED_FACE('',(#922),#972,.T.);
#1023=ADVANCED_FACE('',(#923),#973,.F.);
#1024=ADVANCED_FACE('',(#924),#974,.T.);
#1025=ADVANCED_FACE('',(#925),#975,.T.);
#1026=ADVANCED_FACE('',(#926),#976,.F.);
#1027=ADVANCED_FACE('',(#927),#977,.F.);
#1028=ADVANCED_FACE('',(#928),#978,.T.);
#1029=ADVANCED_FACE('',(#929),#979,.T.);
#1030=ADVANCED_FACE('',(#930),#980,.F.);
#1031=ADVANCED_FACE('',(#931),#981,.F.);
#1032=ADVANCED_FACE('',(#932),#982,.T.);
#1033=ADVANCED_FACE('',(#933),#983,.T.);
#1034=ADVANCED_FACE('',(#934),#984,.F.);
#1035=ADVANCED_FACE('',(#935),#985,.F.);
#1036=ADVANCED_FACE('',(#936),#986,.T.);
#1037=ADVANCED_FACE('',(#937),#987,.T.);
#1038=ADVANCED_FACE('',(#938),#988,.F.);
#1039=ADVANCED_FACE('',(#939),#989,.F.);
#1040=ADVANCED_FACE('',(#940),#990,.T.);
#1041=ADVANCED_FACE('',(#941),#991,.T.);
#1042=ADVANCED_FACE('',(#942),#992,.F.);
#1043=ADVANCED_FACE('',(#943),#993,.F.);
#1044=ADVANCED_FACE('',(#944),#994,.T.);
#1045=ADVANCED_FACE('',(#945),#995,.T.);
#1046=ADVANCED_FACE('',(#946),#996,.F.);
#1047=ADVANCED_FACE('',(#947),#997,.F.);
#1048=ADVANCED_FACE('',(#948),#998,.T.);
#1049=ADVANCED_FACE('',(#949),#999,.T.);
#1050=ADVANCED_FACE('',(#950),#1000,.F.);
#1051=ADVANCED_FACE('',(#951),#1001,.F.);
#1052=ADVANCED_FACE('',(#952),#1002,.T.);
#1053=ADVANCED_FACE('',(#953),#1003,.T.);
#1054=ADVANCED_FACE('',(#954),#1004,.F.);
#1055=ADVANCED_FACE('',(#955),#1005,.F.);
#1056=ADVANCED_FACE('',(#956),#1006,.T.);
#1057=ADVANCED_FACE('',(#957),#1007,.T.);
#1058=ADVANCED_FACE('',(#958),#1008,.F.);
#1059=ADVANCED_FACE('',(#959),#1009,.F.);
#1060=ADVANCED_FACE('',(#960),#1010,.T.);
#1061=ADVANCED_FACE('',(#961),#1011,.F.);
#1062=ADVANCED_FACE('',(#962),#1012,.F.);
#1063=ADVANCED_FACE('',(#963),#1013,.T.);
#1064=CLOSED_SHELL('',(#1014,#1015,#1016,#1017,#1018,#1019,#1020,#1021,
#1022,#1023,#1024,#1025,#1026,#1027,#1028,#1029,#1030,#1031,#1032,#1033,
#1034,#1035,#1036,#1037,#1038,#1039,#1040,#1041,#1042,#1043,#1044,#1045,
#1046,#1047,#1048,#1049,#1050,#1051,#1052,#1053,#1054,#1055,#1056,#1057,
#1058,#1059,#1060,#1061,#1062,#1063));
#1065=STYLED_ITEM('',(#1066),#1073);
#1066=PRESENTATION_STYLE_ASSIGNMENT((#1067));
#1067=SURFACE_STYLE_USAGE(.BOTH.,#1068);
#1068=SURFACE_SIDE_STYLE('',(#1069));
#1069=SURFACE_STYLE_FILL_AREA(#1070);
#1070=FILL_AREA_STYLE('',(#1071));
#1071=FILL_AREA_STYLE_COLOUR('',#1072);
#1072=COLOUR_RGB('',0.615686274509804,0.811764705882353,0.929411764705882);
#1073=MANIFOLD_SOLID_BREP('LADDER',#1064);
#1074=SHAPE_DEFINITION_REPRESENTATION(#1670,#1075);
#1075=SHAPE_REPRESENTATION('LADDER',(#1076),#1665);
#1076=AXIS2_PLACEMENT_3D('',#1373,#1127,#1128);
#1077=AXIS2_PLACEMENT_3D('',#1374,#1129,#1130);
#1078=AXIS2_PLACEMENT_3D('',#1383,#1135,#1136);
#1079=AXIS2_PLACEMENT_3D('',#1392,#1141,#1142);
#1080=AXIS2_PLACEMENT_3D('',#1483,#1189,#1190);
#1081=AXIS2_PLACEMENT_3D('',#1574,#1237,#1238);
#1082=AXIS2_PLACEMENT_3D('',#1577,#1241,#1242);
#1083=AXIS2_PLACEMENT_3D('',#1579,#1244,#1245);
#1084=AXIS2_PLACEMENT_3D('',#1581,#1247,#1248);
#1085=AXIS2_PLACEMENT_3D('',#1582,#1249,#1250);
#1086=AXIS2_PLACEMENT_3D('',#1585,#1253,#1254);
#1087=AXIS2_PLACEMENT_3D('',#1586,#1255,#1256);
#1088=AXIS2_PLACEMENT_3D('',#1587,#1257,#1258);
#1089=AXIS2_PLACEMENT_3D('',#1590,#1261,#1262);
#1090=AXIS2_PLACEMENT_3D('',#1592,#1264,#1265);
#1091=AXIS2_PLACEMENT_3D('',#1594,#1267,#1268);
#1092=AXIS2_PLACEMENT_3D('',#1595,#1269,#1270);
#1093=AXIS2_PLACEMENT_3D('',#1598,#1273,#1274);
#1094=AXIS2_PLACEMENT_3D('',#1600,#1276,#1277);
#1095=AXIS2_PLACEMENT_3D('',#1602,#1279,#1280);
#1096=AXIS2_PLACEMENT_3D('',#1603,#1281,#1282);
#1097=AXIS2_PLACEMENT_3D('',#1606,#1285,#1286);
#1098=AXIS2_PLACEMENT_3D('',#1608,#1288,#1289);
#1099=AXIS2_PLACEMENT_3D('',#1610,#1291,#1292);
#1100=AXIS2_PLACEMENT_3D('',#1611,#1293,#1294);
#1101=AXIS2_PLACEMENT_3D('',#1614,#1297,#1298);
#1102=AXIS2_PLACEMENT_3D('',#1616,#1300,#1301);
#1103=AXIS2_PLACEMENT_3D('',#1618,#1303,#1304);
#1104=AXIS2_PLACEMENT_3D('',#1619,#1305,#1306);
#1105=AXIS2_PLACEMENT_3D('',#1622,#1309,#1310);
#1106=AXIS2_PLACEMENT_3D('',#1624,#1312,#1313);
#1107=AXIS2_PLACEMENT_3D('',#1626,#1315,#1316);
#1108=AXIS2_PLACEMENT_3D('',#1627,#1317,#1318);
#1109=AXIS2_PLACEMENT_3D('',#1630,#1321,#1322);
#1110=AXIS2_PLACEMENT_3D('',#1632,#1324,#1325);
#1111=AXIS2_PLACEMENT_3D('',#1634,#1327,#1328);
#1112=AXIS2_PLACEMENT_3D('',#1635,#1329,#1330);
#1113=AXIS2_PLACEMENT_3D('',#1638,#1333,#1334);
#1114=AXIS2_PLACEMENT_3D('',#1640,#1336,#1337);
#1115=AXIS2_PLACEMENT_3D('',#1642,#1339,#1340);
#1116=AXIS2_PLACEMENT_3D('',#1643,#1341,#1342);
#1117=AXIS2_PLACEMENT_3D('',#1646,#1345,#1346);
#1118=AXIS2_PLACEMENT_3D('',#1648,#1348,#1349);
#1119=AXIS2_PLACEMENT_3D('',#1650,#1351,#1352);
#1120=AXIS2_PLACEMENT_3D('',#1651,#1353,#1354);
#1121=AXIS2_PLACEMENT_3D('',#1654,#1357,#1358);
#1122=AXIS2_PLACEMENT_3D('',#1656,#1360,#1361);
#1123=AXIS2_PLACEMENT_3D('',#1658,#1363,#1364);
#1124=AXIS2_PLACEMENT_3D('',#1659,#1365,#1366);
#1125=AXIS2_PLACEMENT_3D('',#1661,#1368,#1369);
#1126=AXIS2_PLACEMENT_3D('',#1663,#1371,#1372);
#1127=DIRECTION('',(0.,0.,1.));
#1128=DIRECTION('',(1.,0.,0.));
#1129=DIRECTION('',(0.,1.,0.));
#1130=DIRECTION('',(0.,0.,1.));
#1131=DIRECTION('',(1.,0.,0.));
#1132=DIRECTION('',(0.,0.,1.));
#1133=DIRECTION('',(1.,0.,0.));
#1134=DIRECTION('',(0.,0.,-1.));
#1135=DIRECTION('',(0.,1.,0.));
#1136=DIRECTION('',(0.,0.,1.));
#1137=DIRECTION('',(0.,0.,1.));
#1138=DIRECTION('',(1.,0.,0.));
#1139=DIRECTION('',(0.,0.,-1.));
#1140=DIRECTION('',(1.,0.,0.));
#1141=DIRECTION('',(0.,0.,1.));
#1142=DIRECTION('',(1.,0.,0.));
#1143=DIRECTION('',(0.,-1.,0.));
#1144=DIRECTION('',(1.,0.,0.));
#1145=DIRECTION('',(0.,-1.,0.));
#1146=DIRECTION('',(1.,0.,0.));
#1147=DIRECTION('',(1.73472347597681E-16,-1.,0.));
#1148=DIRECTION('',(1.,0.,0.));
#1149=DIRECTION('',(2.38524477946811E-16,-1.,0.));
#1150=DIRECTION('',(0.,-1.,0.));
#1151=DIRECTION('',(0.,-1.,0.));
#1152=DIRECTION('',(1.,0.,0.));
#1153=DIRECTION('',(3.46944695195362E-16,-1.,0.));
#1154=DIRECTION('',(1.,0.,0.));
#1155=DIRECTION('',(2.38524477946811E-16,-1.,0.));
#1156=DIRECTION('',(1.,0.,0.));
#1157=DIRECTION('',(1.7347234759768E-16,-1.,0.));
#1158=DIRECTION('',(1.,1.85863229568943E-16,0.));
#1159=DIRECTION('',(2.38524477946811E-16,-1.,0.));
#1160=DIRECTION('',(1.,2.47817639425258E-16,0.));
#1161=DIRECTION('',(3.46944695195361E-16,-1.,0.));
#1162=DIRECTION('',(1.,2.47817639425258E-16,0.));
#1163=DIRECTION('',(4.33680868994202E-17,-1.,0.));
#1164=DIRECTION('',(1.,1.85863229568943E-16,0.));
#1165=DIRECTION('',(1.7347234759768E-16,-1.,0.));
#1166=DIRECTION('',(1.,0.,0.));
#1167=DIRECTION('',(0.,-1.,0.));
#1168=DIRECTION('',(1.,2.47817639425258E-16,0.));
#1169=DIRECTION('',(3.46944695195362E-16,-1.,0.));
#1170=DIRECTION('',(1.,0.,0.));
#1171=DIRECTION('',(0.,-1.,0.));
#1172=DIRECTION('',(1.,0.,0.));
#1173=DIRECTION('',(0.,-1.,0.));
#1174=DIRECTION('',(1.,0.,0.));
#1175=DIRECTION('',(2.38524477946811E-16,-1.,0.));
#1176=DIRECTION('',(1.,0.,0.));
#1177=DIRECTION('',(1.7347234759768E-16,-1.,0.));
#1178=DIRECTION('',(1.,0.,0.));
#1179=DIRECTION('',(2.60208521396521E-16,-1.,0.));
#1180=DIRECTION('',(1.,0.,0.));
#1181=DIRECTION('',(3.46944695195362E-16,-1.,0.));
#1182=DIRECTION('',(1.,0.,0.));
#1183=DIRECTION('',(2.60208521396521E-16,-1.,0.));
#1184=DIRECTION('',(1.,0.,0.));
#1185=DIRECTION('',(0.,-1.,0.));
#1186=DIRECTION('',(1.,0.,0.));
#1187=DIRECTION('',(2.60208521396521E-16,-1.,0.));
#1188=DIRECTION('',(1.,0.,0.));
#1189=DIRECTION('',(0.,0.,1.));
#1190=DIRECTION('',(1.,0.,0.));
#1191=DIRECTION('',(1.,0.,0.));
#1192=DIRECTION('',(0.,-1.,0.));
#1193=DIRECTION('',(1.,0.,0.));
#1194=DIRECTION('',(2.60208521396521E-16,-1.,0.));
#1195=DIRECTION('',(1.,0.,0.));
#1196=DIRECTION('',(1.7347234759768E-16,-1.,0.));
#1197=DIRECTION('',(1.,0.,0.));
#1198=DIRECTION('',(2.60208521396521E-16,-1.,0.));
#1199=DIRECTION('',(1.,0.,0.));
#1200=DIRECTION('',(3.46944695195362E-16,-1.,0.));
#1201=DIRECTION('',(1.,0.,0.));
#1202=DIRECTION('',(0.,-1.,0.));
#1203=DIRECTION('',(1.,2.47817639425258E-16,0.));
#1204=DIRECTION('',(3.46944695195361E-16,-1.,0.));
#1205=DIRECTION('',(1.,1.85863229568943E-16,0.));
#1206=DIRECTION('',(4.33680868994202E-17,-1.,0.));
#1207=DIRECTION('',(1.,0.,0.));
#1208=DIRECTION('',(3.46944695195362E-16,-1.,0.));
#1209=DIRECTION('',(1.,0.,0.));
#1210=DIRECTION('',(2.38524477946811E-16,-1.,0.));
#1211=DIRECTION('',(1.,1.85863229568943E-16,0.));
#1212=DIRECTION('',(1.7347234759768E-16,-1.,0.));
#1213=DIRECTION('',(1.,2.47817639425258E-16,0.));
#1214=DIRECTION('',(2.38524477946811E-16,-1.,0.));
#1215=DIRECTION('',(1.,0.,0.));
#1216=DIRECTION('',(1.7347234759768E-16,-1.,0.));
#1217=DIRECTION('',(1.,2.47817639425258E-16,0.));
#1218=DIRECTION('',(0.,-1.,0.));
#1219=DIRECTION('',(1.,0.,0.));
#1220=DIRECTION('',(0.,-1.,0.));
#1221=DIRECTION('',(1.,0.,0.));
#1222=DIRECTION('',(2.38524477946811E-16,-1.,0.));
#1223=DIRECTION('',(1.,0.,0.));
#1224=DIRECTION('',(3.46944695195362E-16,-1.,0.));
#1225=DIRECTION('',(1.,0.,0.));
#1226=DIRECTION('',(2.60208521396521E-16,-1.,0.));
#1227=DIRECTION('',(0.,-1.,0.));
#1228=DIRECTION('',(0.,-1.,0.));
#1229=DIRECTION('',(2.38524477946811E-16,-1.,0.));
#1230=DIRECTION('',(1.,0.,0.));
#1231=DIRECTION('',(1.73472347597681E-16,-1.,0.));
#1232=DIRECTION('',(1.,0.,0.));
#1233=DIRECTION('',(0.,-1.,0.));
#1234=DIRECTION('',(1.,0.,0.));
#1235=DIRECTION('',(0.,-1.,0.));
#1236=DIRECTION('',(1.,0.,0.));
#1237=DIRECTION('',(0.,1.,0.));
#1238=DIRECTION('',(0.,0.,1.));
#1239=DIRECTION('',(0.,0.,1.));
#1240=DIRECTION('',(0.,0.,-1.));
#1241=DIRECTION('',(1.,0.,0.));
#1242=DIRECTION('',(0.,0.,-1.));
#1243=DIRECTION('',(0.,0.,-1.));
#1244=DIRECTION('',(0.,1.,0.));
#1245=DIRECTION('',(0.,0.,1.));
#1246=DIRECTION('',(0.,0.,1.));
#1247=DIRECTION('',(1.,0.,0.));
#1248=DIRECTION('',(0.,0.,-1.));
#1249=DIRECTION('',(0.,-1.,0.));
#1250=DIRECTION('',(0.,0.,-1.));
#1251=DIRECTION('',(0.,0.,1.));
#1252=DIRECTION('',(0.,0.,1.));
#1253=DIRECTION('',(-1.,-1.73472347597681E-16,0.));
#1254=DIRECTION('',(1.73472347597681E-16,-1.,0.));
#1255=DIRECTION('',(-1.,-2.38524477946811E-16,0.));
#1256=DIRECTION('',(2.38524477946811E-16,-1.,0.));
#1257=DIRECTION('',(0.,-1.,0.));
#1258=DIRECTION('',(0.,0.,-1.));
#1259=DIRECTION('',(0.,0.,1.));
#1260=DIRECTION('',(0.,0.,1.));
#1261=DIRECTION('',(-1.,-3.46944695195362E-16,0.));
#1262=DIRECTION('',(3.46944695195362E-16,-1.,0.));
#1263=DIRECTION('',(0.,0.,1.));
#1264=DIRECTION('',(0.,-1.,0.));
#1265=DIRECTION('',(0.,0.,-1.));
#1266=DIRECTION('',(0.,0.,1.));
#1267=DIRECTION('',(-1.,-2.38524477946811E-16,0.));
#1268=DIRECTION('',(2.38524477946811E-16,-1.,0.));
#1269=DIRECTION('',(1.85863229568943E-16,-1.,0.));
#1270=DIRECTION('',(1.,1.85863229568943E-16,0.));
#1271=DIRECTION('',(0.,0.,1.));
#1272=DIRECTION('',(0.,0.,1.));
#1273=DIRECTION('',(-1.,-1.73472347597681E-16,0.));
#1274=DIRECTION('',(1.73472347597681E-16,-1.,0.));
#1275=DIRECTION('',(0.,0.,1.));
#1276=DIRECTION('',(2.47817639425258E-16,-1.,0.));
#1277=DIRECTION('',(1.,2.47817639425258E-16,0.));
#1278=DIRECTION('',(0.,0.,1.));
#1279=DIRECTION('',(-1.,-2.38524477946811E-16,0.));
#1280=DIRECTION('',(2.38524477946811E-16,-1.,0.));
#1281=DIRECTION('',(2.47817639425258E-16,-1.,0.));
#1282=DIRECTION('',(1.,2.47817639425258E-16,0.));
#1283=DIRECTION('',(0.,0.,1.));
#1284=DIRECTION('',(0.,0.,1.));
#1285=DIRECTION('',(-1.,-3.46944695195361E-16,0.));
#1286=DIRECTION('',(3.46944695195361E-16,-1.,0.));
#1287=DIRECTION('',(0.,0.,1.));
#1288=DIRECTION('',(1.85863229568943E-16,-1.,0.));
#1289=DIRECTION('',(1.,1.85863229568943E-16,0.));
#1290=DIRECTION('',(0.,0.,1.));
#1291=DIRECTION('',(-1.,-4.33680868994202E-17,0.));
#1292=DIRECTION('',(4.33680868994202E-17,-1.,0.));
#1293=DIRECTION('',(0.,-1.,0.));
#1294=DIRECTION('',(0.,0.,-1.));
#1295=DIRECTION('',(0.,0.,1.));
#1296=DIRECTION('',(0.,0.,1.));
#1297=DIRECTION('',(-1.,-1.7347234759768E-16,0.));
#1298=DIRECTION('',(1.7347234759768E-16,-1.,0.));
#1299=DIRECTION('',(0.,0.,1.));
#1300=DIRECTION('',(2.47817639425258E-16,-1.,0.));
#1301=DIRECTION('',(1.,2.47817639425258E-16,0.));
#1302=DIRECTION('',(0.,0.,1.));
#1303=DIRECTION('',(-1.,0.,0.));
#1304=DIRECTION('',(0.,0.,1.));
#1305=DIRECTION('',(0.,-1.,0.));
#1306=DIRECTION('',(0.,0.,-1.));
#1307=DIRECTION('',(0.,0.,1.));
#1308=DIRECTION('',(0.,0.,1.));
#1309=DIRECTION('',(-1.,-3.46944695195362E-16,0.));
#1310=DIRECTION('',(3.46944695195362E-16,-1.,0.));
#1311=DIRECTION('',(0.,0.,1.));
#1312=DIRECTION('',(0.,-1.,0.));
#1313=DIRECTION('',(0.,0.,-1.));
#1314=DIRECTION('',(0.,0.,1.));
#1315=DIRECTION('',(-1.,0.,0.));
#1316=DIRECTION('',(0.,0.,1.));
#1317=DIRECTION('',(0.,-1.,0.));
#1318=DIRECTION('',(0.,0.,-1.));
#1319=DIRECTION('',(0.,0.,1.));
#1320=DIRECTION('',(0.,0.,1.));
#1321=DIRECTION('',(-1.,0.,0.));
#1322=DIRECTION('',(0.,0.,1.));
#1323=DIRECTION('',(0.,0.,1.));
#1324=DIRECTION('',(0.,-1.,0.));
#1325=DIRECTION('',(0.,0.,-1.));
#1326=DIRECTION('',(0.,0.,1.));
#1327=DIRECTION('',(-1.,-2.38524477946811E-16,0.));
#1328=DIRECTION('',(2.38524477946811E-16,-1.,0.));
#1329=DIRECTION('',(0.,-1.,0.));
#1330=DIRECTION('',(0.,0.,-1.));
#1331=DIRECTION('',(0.,0.,1.));
#1332=DIRECTION('',(0.,0.,1.));
#1333=DIRECTION('',(-1.,-1.7347234759768E-16,0.));
#1334=DIRECTION('',(1.7347234759768E-16,-1.,0.));
#1335=DIRECTION('',(0.,0.,1.));
#1336=DIRECTION('',(0.,-1.,0.));
#1337=DIRECTION('',(0.,0.,-1.));
#1338=DIRECTION('',(0.,0.,1.));
#1339=DIRECTION('',(-1.,-2.60208521396521E-16,0.));
#1340=DIRECTION('',(2.60208521396521E-16,-1.,0.));
#1341=DIRECTION('',(0.,-1.,0.));
#1342=DIRECTION('',(0.,0.,-1.));
#1343=DIRECTION('',(0.,0.,1.));
#1344=DIRECTION('',(0.,0.,1.));
#1345=DIRECTION('',(-1.,-3.46944695195362E-16,0.));
#1346=DIRECTION('',(3.46944695195362E-16,-1.,0.));
#1347=DIRECTION('',(0.,0.,1.));
#1348=DIRECTION('',(0.,-1.,0.));
#1349=DIRECTION('',(0.,0.,-1.));
#1350=DIRECTION('',(0.,0.,1.));
#1351=DIRECTION('',(-1.,-2.60208521396521E-16,0.));
#1352=DIRECTION('',(2.60208521396521E-16,-1.,0.));
#1353=DIRECTION('',(0.,-1.,0.));
#1354=DIRECTION('',(0.,0.,-1.));
#1355=DIRECTION('',(0.,0.,1.));
#1356=DIRECTION('',(0.,0.,1.));
#1357=DIRECTION('',(-1.,0.,0.));
#1358=DIRECTION('',(0.,0.,1.));
#1359=DIRECTION('',(0.,0.,1.));
#1360=DIRECTION('',(0.,-1.,0.));
#1361=DIRECTION('',(0.,0.,-1.));
#1362=DIRECTION('',(0.,0.,1.));
#1363=DIRECTION('',(-1.,-2.60208521396521E-16,0.));
#1364=DIRECTION('',(2.60208521396521E-16,-1.,0.));
#1365=DIRECTION('',(-1.,0.,0.));
#1366=DIRECTION('',(0.,0.,1.));
#1367=DIRECTION('',(0.,0.,1.));
#1368=DIRECTION('',(0.,-1.,0.));
#1369=DIRECTION('',(0.,0.,-1.));
#1370=DIRECTION('',(0.,0.,1.));
#1371=DIRECTION('',(-1.,0.,0.));
#1372=DIRECTION('',(0.,0.,1.));
#1373=CARTESIAN_POINT('',(0.,0.,0.));
#1374=CARTESIAN_POINT('',(-0.00599396647885443,0.0993371635200295,0.005));
#1375=CARTESIAN_POINT('',(-0.00599396647885443,0.0993371635200295,0.));
#1376=CARTESIAN_POINT('',(0.00100603352114558,0.0993371635200295,0.));
#1377=CARTESIAN_POINT('',(0.00400603352114559,0.0993371635200295,0.));
#1378=CARTESIAN_POINT('',(0.00100603352114558,0.0993371635200295,0.));
#1379=CARTESIAN_POINT('',(0.00100603352114558,0.0993371635200295,0.005));
#1380=CARTESIAN_POINT('',(-0.00599396647885443,0.0993371635200295,0.005));
#1381=CARTESIAN_POINT('',(0.00400603352114559,0.0993371635200295,0.005));
#1382=CARTESIAN_POINT('',(0.00400603352114559,0.0993371635200295,0.005));
#1383=CARTESIAN_POINT('',(-0.00599396647885442,-0.0406628364799705,0.005));
#1384=CARTESIAN_POINT('',(0.000971416027565155,-0.0406628364799705,0.));
#1385=CARTESIAN_POINT('',(0.000971416027565155,-0.0406628364799705,0.));
#1386=CARTESIAN_POINT('',(0.000971416027565155,-0.0406628364799705,0.005));
#1387=CARTESIAN_POINT('',(-0.00599396647885442,-0.0406628364799705,0.));
#1388=CARTESIAN_POINT('',(0.00400603352114559,-0.0406628364799705,0.));
#1389=CARTESIAN_POINT('',(0.00400603352114559,-0.0406628364799705,0.005));
#1390=CARTESIAN_POINT('',(0.00400603352114559,-0.0406628364799705,0.005));
#1391=CARTESIAN_POINT('',(-0.00599396647885442,-0.0406628364799705,0.005));
#1392=CARTESIAN_POINT('',(-0.00599396647885442,0.0293371635200295,0.005));
#1393=CARTESIAN_POINT('',(-0.0129939664788544,0.0943371635200295,0.005));
#1394=CARTESIAN_POINT('',(-0.0129939664788544,0.0993371635200295,0.005));
#1395=CARTESIAN_POINT('',(-0.0129939664788544,0.0893371635200295,0.005));
#1396=CARTESIAN_POINT('',(-0.00599396647885443,0.0993371635200295,0.005));
#1397=CARTESIAN_POINT('',(-0.0159939664788544,0.0993371635200295,0.005));
#1398=CARTESIAN_POINT('',(-0.0159939664788544,0.0293371635200295,0.005));
#1399=CARTESIAN_POINT('',(-0.0159939664788544,-0.0406628364799705,0.005));
#1400=CARTESIAN_POINT('',(-0.00599396647885442,-0.0406628364799705,0.005));
#1401=CARTESIAN_POINT('',(-0.0130285839724349,-0.0406628364799705,0.005));
#1402=CARTESIAN_POINT('',(-0.0130285839724349,-0.0356628364799705,0.005));
#1403=CARTESIAN_POINT('',(-0.0130285839724349,-0.0306628364799705,0.005));
#1404=CARTESIAN_POINT('',(-0.00602858397243485,-0.0306628364799705,0.005));
#1405=CARTESIAN_POINT('',(0.000971416027565153,-0.0306628364799705,0.005));
#1406=CARTESIAN_POINT('',(0.000971416027565154,-0.0356628364799705,0.005));
#1407=CARTESIAN_POINT('',(0.00400603352114559,0.0293371635200295,0.005));
#1408=CARTESIAN_POINT('',(0.00100603352114558,0.0943371635200295,0.005));
#1409=CARTESIAN_POINT('',(0.00100603352114558,0.0893371635200295,0.005));
#1410=CARTESIAN_POINT('',(-0.00599396647885442,0.0893371635200295,0.005));
#1411=CARTESIAN_POINT('',(-0.0130285839724349,-0.0226628364799705,0.005));
#1412=CARTESIAN_POINT('',(-0.0130285839724348,-0.0176628364799705,0.005));
#1413=CARTESIAN_POINT('',(-0.0130285839724349,-0.0276628364799705,0.005));
#1414=CARTESIAN_POINT('',(-0.00602858397243485,-0.0176628364799705,0.005));
#1415=CARTESIAN_POINT('',(0.00097141602756515,-0.0176628364799705,0.005));
#1416=CARTESIAN_POINT('',(0.000971416027565151,-0.0226628364799705,0.005));
#1417=CARTESIAN_POINT('',(0.000971416027565153,-0.0276628364799705,0.005));
#1418=CARTESIAN_POINT('',(-0.00602858397243485,-0.0276628364799705,0.005));
#1419=CARTESIAN_POINT('',(-0.0130285839724348,-0.00966283647997048,0.005));
#1420=CARTESIAN_POINT('',(-0.0130285839724348,-0.00466283647997048,0.005));
#1421=CARTESIAN_POINT('',(-0.0130285839724348,-0.0146628364799705,0.005));
#1422=CARTESIAN_POINT('',(-0.00602858397243485,-0.00466283647997048,0.005));
#1423=CARTESIAN_POINT('',(0.000971416027565149,-0.00466283647997048,0.005));
#1424=CARTESIAN_POINT('',(0.00097141602756515,-0.00966283647997047,0.005));
#1425=CARTESIAN_POINT('',(0.000971416027565152,-0.0146628364799705,0.005));
#1426=CARTESIAN_POINT('',(-0.00602858397243485,-0.0146628364799705,0.005));
#1427=CARTESIAN_POINT('',(-0.0129939664788544,0.00333716352002952,0.005));
#1428=CARTESIAN_POINT('',(-0.0129939664788544,0.00833716352002952,0.005));
#1429=CARTESIAN_POINT('',(-0.0129939664788544,-0.00166283647997048,0.005));
#1430=CARTESIAN_POINT('',(-0.00599396647885443,0.00833716352002953,0.005));
#1431=CARTESIAN_POINT('',(0.00100603352114558,0.00833716352002952,0.005));
#1432=CARTESIAN_POINT('',(0.00100603352114558,0.00333716352002952,0.005));
#1433=CARTESIAN_POINT('',(0.00100603352114558,-0.00166283647997048,0.005));
#1434=CARTESIAN_POINT('',(-0.00599396647885443,-0.00166283647997048,0.005));
#1435=CARTESIAN_POINT('',(-0.0129939664788544,0.0163371635200295,0.005));
#1436=CARTESIAN_POINT('',(-0.0129939664788544,0.0213371635200295,0.005));
#1437=CARTESIAN_POINT('',(-0.0129939664788544,0.0113371635200295,0.005));
#1438=CARTESIAN_POINT('',(-0.00599396647885443,0.0213371635200295,0.005));
#1439=CARTESIAN_POINT('',(0.00100603352114558,0.0213371635200295,0.005));
#1440=CARTESIAN_POINT('',(0.00100603352114558,0.0163371635200295,0.005));
#1441=CARTESIAN_POINT('',(0.00100603352114558,0.0113371635200295,0.005));
#1442=CARTESIAN_POINT('',(-0.00599396647885443,0.0113371635200295,0.005));
#1443=CARTESIAN_POINT('',(-0.0129939664788544,0.0293371635200295,0.005));
#1444=CARTESIAN_POINT('',(-0.0129939664788544,0.0343371635200295,0.005));
#1445=CARTESIAN_POINT('',(-0.0129939664788544,0.0243371635200295,0.005));
#1446=CARTESIAN_POINT('',(-0.00599396647885443,0.0343371635200295,0.005));
#1447=CARTESIAN_POINT('',(0.00100603352114558,0.0343371635200295,0.005));
#1448=CARTESIAN_POINT('',(0.00100603352114558,0.0293371635200295,0.005));
#1449=CARTESIAN_POINT('',(0.00100603352114558,0.0243371635200295,0.005));
#1450=CARTESIAN_POINT('',(-0.00599396647885443,0.0243371635200295,0.005));
#1451=CARTESIAN_POINT('',(-0.0129939664788544,0.0423371635200295,0.005));
#1452=CARTESIAN_POINT('',(-0.0129939664788544,0.0473371635200295,0.005));
#1453=CARTESIAN_POINT('',(-0.0129939664788544,0.0373371635200295,0.005));
#1454=CARTESIAN_POINT('',(-0.00599396647885443,0.0473371635200295,0.005));
#1455=CARTESIAN_POINT('',(0.00100603352114557,0.0473371635200295,0.005));
#1456=CARTESIAN_POINT('',(0.00100603352114557,0.0423371635200295,0.005));
#1457=CARTESIAN_POINT('',(0.00100603352114557,0.0373371635200295,0.005));
#1458=CARTESIAN_POINT('',(-0.00599396647885443,0.0373371635200295,0.005));
#1459=CARTESIAN_POINT('',(-0.0129939664788544,0.0553371635200295,0.005));
#1460=CARTESIAN_POINT('',(-0.0129939664788544,0.0603371635200295,0.005));
#1461=CARTESIAN_POINT('',(-0.0129939664788544,0.0503371635200295,0.005));
#1462=CARTESIAN_POINT('',(-0.00599396647885441,0.0603371635200295,0.005));
#1463=CARTESIAN_POINT('',(0.00100603352114559,0.0603371635200295,0.005));
#1464=CARTESIAN_POINT('',(0.00100603352114559,0.0553371635200295,0.005));
#1465=CARTESIAN_POINT('',(0.00100603352114559,0.0503371635200295,0.005));
#1466=CARTESIAN_POINT('',(-0.00599396647885441,0.0503371635200295,0.005));
#1467=CARTESIAN_POINT('',(-0.0129939664788544,0.0683371635200295,0.005));
#1468=CARTESIAN_POINT('',(-0.0129939664788544,0.0733371635200295,0.005));
#1469=CARTESIAN_POINT('',(-0.0129939664788544,0.0633371635200295,0.005));
#1470=CARTESIAN_POINT('',(-0.00599396647885441,0.0733371635200295,0.005));
#1471=CARTESIAN_POINT('',(0.00100603352114558,0.0733371635200295,0.005));
#1472=CARTESIAN_POINT('',(0.00100603352114559,0.0683371635200295,0.005));
#1473=CARTESIAN_POINT('',(0.00100603352114559,0.0633371635200295,0.005));
#1474=CARTESIAN_POINT('',(-0.00599396647885441,0.0633371635200295,0.005));
#1475=CARTESIAN_POINT('',(-0.0129939664788544,0.0813371635200295,0.005));
#1476=CARTESIAN_POINT('',(-0.0129939664788544,0.0863371635200295,0.005));
#1477=CARTESIAN_POINT('',(-0.0129939664788544,0.0763371635200295,0.005));
#1478=CARTESIAN_POINT('',(-0.00599396647885443,0.0863371635200295,0.005));
#1479=CARTESIAN_POINT('',(0.00100603352114558,0.0863371635200295,0.005));
#1480=CARTESIAN_POINT('',(0.00100603352114558,0.0813371635200295,0.005));
#1481=CARTESIAN_POINT('',(0.00100603352114558,0.0763371635200295,0.005));
#1482=CARTESIAN_POINT('',(-0.00599396647885442,0.0763371635200295,0.005));
#1483=CARTESIAN_POINT('',(-0.00599396647885442,0.0293371635200295,0.));
#1484=CARTESIAN_POINT('',(-0.00599396647885443,0.0863371635200295,0.));
#1485=CARTESIAN_POINT('',(-0.0129939664788544,0.0863371635200295,0.));
#1486=CARTESIAN_POINT('',(0.00100603352114558,0.0863371635200295,0.));
#1487=CARTESIAN_POINT('',(-0.0129939664788544,0.0813371635200295,0.));
#1488=CARTESIAN_POINT('',(-0.0129939664788544,0.0763371635200295,0.));
#1489=CARTESIAN_POINT('',(-0.00599396647885442,0.0763371635200295,0.));
#1490=CARTESIAN_POINT('',(0.00100603352114558,0.0763371635200295,0.));
#1491=CARTESIAN_POINT('',(0.00100603352114558,0.0813371635200295,0.));
#1492=CARTESIAN_POINT('',(-0.00599396647885441,0.0603371635200295,0.));
#1493=CARTESIAN_POINT('',(-0.0129939664788544,0.0603371635200295,0.));
#1494=CARTESIAN_POINT('',(0.00100603352114559,0.0603371635200295,0.));
#1495=CARTESIAN_POINT('',(-0.0129939664788544,0.0553371635200295,0.));
#1496=CARTESIAN_POINT('',(-0.0129939664788544,0.0503371635200295,0.));
#1497=CARTESIAN_POINT('',(-0.00599396647885441,0.0503371635200295,0.));
#1498=CARTESIAN_POINT('',(0.00100603352114559,0.0503371635200295,0.));
#1499=CARTESIAN_POINT('',(0.00100603352114559,0.0553371635200295,0.));
#1500=CARTESIAN_POINT('',(-0.00599396647885443,0.0343371635200295,0.));
#1501=CARTESIAN_POINT('',(-0.0129939664788544,0.0343371635200295,0.));
#1502=CARTESIAN_POINT('',(0.00100603352114558,0.0343371635200295,0.));
#1503=CARTESIAN_POINT('',(-0.0129939664788544,0.0293371635200295,0.));
#1504=CARTESIAN_POINT('',(-0.0129939664788544,0.0243371635200295,0.));
#1505=CARTESIAN_POINT('',(-0.00599396647885443,0.0243371635200295,0.));
#1506=CARTESIAN_POINT('',(0.00100603352114558,0.0243371635200295,0.));
#1507=CARTESIAN_POINT('',(0.00100603352114558,0.0293371635200295,0.));
#1508=CARTESIAN_POINT('',(-0.00599396647885443,0.00833716352002953,0.));
#1509=CARTESIAN_POINT('',(-0.0129939664788544,0.00833716352002952,0.));
#1510=CARTESIAN_POINT('',(0.00100603352114558,0.00833716352002952,0.));
#1511=CARTESIAN_POINT('',(-0.0129939664788544,0.00333716352002952,0.));
#1512=CARTESIAN_POINT('',(-0.0129939664788544,-0.00166283647997048,0.));
#1513=CARTESIAN_POINT('',(-0.00599396647885443,-0.00166283647997048,0.));
#1514=CARTESIAN_POINT('',(0.00100603352114558,-0.00166283647997048,0.));
#1515=CARTESIAN_POINT('',(0.00100603352114558,0.00333716352002952,0.));
#1516=CARTESIAN_POINT('',(-0.00602858397243485,-0.0176628364799705,0.));
#1517=CARTESIAN_POINT('',(-0.0130285839724348,-0.0176628364799705,0.));
#1518=CARTESIAN_POINT('',(0.000971416027565151,-0.0176628364799705,0.));
#1519=CARTESIAN_POINT('',(-0.0130285839724349,-0.0226628364799705,0.));
#1520=CARTESIAN_POINT('',(-0.0130285839724349,-0.0276628364799705,0.));
#1521=CARTESIAN_POINT('',(-0.00602858397243485,-0.0276628364799705,0.));
#1522=CARTESIAN_POINT('',(0.000971416027565153,-0.0276628364799705,0.));
#1523=CARTESIAN_POINT('',(0.000971416027565151,-0.0226628364799705,0.));
#1524=CARTESIAN_POINT('',(-0.00602858397243485,-0.00466283647997048,0.));
#1525=CARTESIAN_POINT('',(-0.0130285839724348,-0.00466283647997048,0.));
#1526=CARTESIAN_POINT('',(0.000971416027565149,-0.00466283647997047,0.));
#1527=CARTESIAN_POINT('',(-0.0130285839724348,-0.00966283647997048,0.));
#1528=CARTESIAN_POINT('',(-0.0130285839724348,-0.0146628364799705,0.));
#1529=CARTESIAN_POINT('',(-0.00602858397243485,-0.0146628364799705,0.));
#1530=CARTESIAN_POINT('',(0.000971416027565152,-0.0146628364799705,0.));
#1531=CARTESIAN_POINT('',(0.00097141602756515,-0.00966283647997047,0.));
#1532=CARTESIAN_POINT('',(-0.00599396647885443,0.0213371635200295,0.));
#1533=CARTESIAN_POINT('',(-0.0129939664788544,0.0213371635200295,0.));
#1534=CARTESIAN_POINT('',(0.00100603352114558,0.0213371635200295,0.));
#1535=CARTESIAN_POINT('',(-0.0129939664788544,0.0163371635200295,0.));
#1536=CARTESIAN_POINT('',(-0.0129939664788544,0.0113371635200295,0.));
#1537=CARTESIAN_POINT('',(-0.00599396647885443,0.0113371635200295,0.));
#1538=CARTESIAN_POINT('',(0.00100603352114558,0.0113371635200295,0.));
#1539=CARTESIAN_POINT('',(0.00100603352114558,0.0163371635200295,0.));
#1540=CARTESIAN_POINT('',(-0.00599396647885443,0.0473371635200295,0.));
#1541=CARTESIAN_POINT('',(-0.0129939664788544,0.0473371635200295,0.));
#1542=CARTESIAN_POINT('',(0.00100603352114557,0.0473371635200295,0.));
#1543=CARTESIAN_POINT('',(-0.0129939664788544,0.0423371635200295,0.));
#1544=CARTESIAN_POINT('',(-0.0129939664788544,0.0373371635200295,0.));
#1545=CARTESIAN_POINT('',(-0.00599396647885443,0.0373371635200295,0.));
#1546=CARTESIAN_POINT('',(0.00100603352114557,0.0373371635200295,0.));
#1547=CARTESIAN_POINT('',(0.00100603352114557,0.0423371635200295,0.));
#1548=CARTESIAN_POINT('',(-0.00599396647885441,0.0733371635200295,0.));
#1549=CARTESIAN_POINT('',(-0.0129939664788544,0.0733371635200295,0.));
#1550=CARTESIAN_POINT('',(0.00100603352114558,0.0733371635200295,0.));
#1551=CARTESIAN_POINT('',(-0.0129939664788544,0.0683371635200295,0.));
#1552=CARTESIAN_POINT('',(-0.0129939664788544,0.0633371635200295,0.));
#1553=CARTESIAN_POINT('',(-0.00599396647885441,0.0633371635200295,0.));
#1554=CARTESIAN_POINT('',(0.00100603352114559,0.0633371635200295,0.));
#1555=CARTESIAN_POINT('',(0.00100603352114559,0.0683371635200295,0.));
#1556=CARTESIAN_POINT('',(0.00100603352114558,0.0943371635200295,0.));
#1557=CARTESIAN_POINT('',(0.00100603352114558,0.0893371635200295,0.));
#1558=CARTESIAN_POINT('',(0.00400603352114559,0.0293371635200295,0.));
#1559=CARTESIAN_POINT('',(0.000971416027565154,-0.0356628364799705,0.));
#1560=CARTESIAN_POINT('',(0.000971416027565153,-0.0306628364799705,0.));
#1561=CARTESIAN_POINT('',(-0.00602858397243485,-0.0306628364799705,0.));
#1562=CARTESIAN_POINT('',(-0.0130285839724349,-0.0306628364799705,0.));
#1563=CARTESIAN_POINT('',(-0.0130285839724349,-0.0356628364799705,0.));
#1564=CARTESIAN_POINT('',(-0.0130285839724349,-0.0406628364799705,0.));
#1565=CARTESIAN_POINT('',(-0.00599396647885442,-0.0406628364799705,0.));
#1566=CARTESIAN_POINT('',(-0.0159939664788544,-0.0406628364799705,0.));
#1567=CARTESIAN_POINT('',(-0.0159939664788544,0.0293371635200295,0.));
#1568=CARTESIAN_POINT('',(-0.0159939664788544,0.0993371635200295,0.));
#1569=CARTESIAN_POINT('',(-0.00599396647885443,0.0993371635200295,0.));
#1570=CARTESIAN_POINT('',(-0.0129939664788544,0.0993371635200295,0.));
#1571=CARTESIAN_POINT('',(-0.0129939664788544,0.0943371635200295,0.));
#1572=CARTESIAN_POINT('',(-0.0129939664788544,0.0893371635200295,0.));
#1573=CARTESIAN_POINT('',(-0.00599396647885442,0.0893371635200295,0.));
#1574=CARTESIAN_POINT('',(-0.00599396647885443,0.0993371635200295,0.005));
#1575=CARTESIAN_POINT('',(-0.0129939664788544,0.0993371635200295,0.));
#1576=CARTESIAN_POINT('',(-0.0159939664788544,0.0993371635200295,0.005));
#1577=CARTESIAN_POINT('',(-0.0159939664788544,0.0293371635200295,0.005));
#1578=CARTESIAN_POINT('',(-0.0159939664788544,-0.0406628364799705,0.005));
#1579=CARTESIAN_POINT('',(-0.00599396647885442,-0.0406628364799705,0.005));
#1580=CARTESIAN_POINT('',(-0.0130285839724349,-0.0406628364799705,0.));
#1581=CARTESIAN_POINT('',(0.00400603352114559,0.0293371635200295,0.005));
#1582=CARTESIAN_POINT('',(-0.00602858397243485,-0.0306628364799705,0.));
#1583=CARTESIAN_POINT('',(-0.0130285839724349,-0.0306628364799705,0.));
#1584=CARTESIAN_POINT('',(0.000971416027565153,-0.0306628364799705,0.));
#1585=CARTESIAN_POINT('',(-0.0130285839724349,-0.0356628364799705,0.));
#1586=CARTESIAN_POINT('',(0.000971416027565154,-0.0356628364799705,0.));
#1587=CARTESIAN_POINT('',(-0.00602858397243485,-0.0176628364799705,0.));
#1588=CARTESIAN_POINT('',(-0.0130285839724348,-0.0176628364799705,0.));
#1589=CARTESIAN_POINT('',(0.00097141602756515,-0.0176628364799705,0.));
#1590=CARTESIAN_POINT('',(-0.0130285839724349,-0.0226628364799705,0.));
#1591=CARTESIAN_POINT('',(-0.0130285839724349,-0.0276628364799705,0.));
#1592=CARTESIAN_POINT('',(-0.00602858397243485,-0.0276628364799705,0.));
#1593=CARTESIAN_POINT('',(0.000971416027565153,-0.0276628364799705,0.));
#1594=CARTESIAN_POINT('',(0.000971416027565151,-0.0226628364799705,0.));
#1595=CARTESIAN_POINT('',(-0.00602858397243485,-0.00466283647997048,0.));
#1596=CARTESIAN_POINT('',(-0.0130285839724348,-0.00466283647997048,0.));
#1597=CARTESIAN_POINT('',(0.000971416027565149,-0.00466283647997048,0.));
#1598=CARTESIAN_POINT('',(-0.0130285839724348,-0.00966283647997048,0.));
#1599=CARTESIAN_POINT('',(-0.0130285839724348,-0.0146628364799705,0.));
#1600=CARTESIAN_POINT('',(-0.00602858397243485,-0.0146628364799705,0.));
#1601=CARTESIAN_POINT('',(0.000971416027565152,-0.0146628364799705,0.));
#1602=CARTESIAN_POINT('',(0.00097141602756515,-0.00966283647997047,0.));
#1603=CARTESIAN_POINT('',(-0.00599396647885443,0.00833716352002953,0.));
#1604=CARTESIAN_POINT('',(-0.0129939664788544,0.00833716352002952,0.));
#1605=CARTESIAN_POINT('',(0.00100603352114558,0.00833716352002952,0.));
#1606=CARTESIAN_POINT('',(-0.0129939664788544,0.00333716352002952,0.));
#1607=CARTESIAN_POINT('',(-0.0129939664788544,-0.00166283647997048,0.));
#1608=CARTESIAN_POINT('',(-0.00599396647885443,-0.00166283647997048,0.));
#1609=CARTESIAN_POINT('',(0.00100603352114558,-0.00166283647997048,0.));
#1610=CARTESIAN_POINT('',(0.00100603352114558,0.00333716352002952,0.));
#1611=CARTESIAN_POINT('',(-0.00599396647885443,0.0213371635200295,0.));
#1612=CARTESIAN_POINT('',(-0.0129939664788544,0.0213371635200295,0.));
#1613=CARTESIAN_POINT('',(0.00100603352114558,0.0213371635200295,0.));
#1614=CARTESIAN_POINT('',(-0.0129939664788544,0.0163371635200295,0.));
#1615=CARTESIAN_POINT('',(-0.0129939664788544,0.0113371635200295,0.));
#1616=CARTESIAN_POINT('',(-0.00599396647885443,0.0113371635200295,0.));
#1617=CARTESIAN_POINT('',(0.00100603352114558,0.0113371635200295,0.));
#1618=CARTESIAN_POINT('',(0.00100603352114558,0.0163371635200295,0.));
#1619=CARTESIAN_POINT('',(-0.00599396647885443,0.0343371635200295,0.));
#1620=CARTESIAN_POINT('',(-0.0129939664788544,0.0343371635200295,0.));
#1621=CARTESIAN_POINT('',(0.00100603352114558,0.0343371635200295,0.));
#1622=CARTESIAN_POINT('',(-0.0129939664788544,0.0293371635200295,0.));
#1623=CARTESIAN_POINT('',(-0.0129939664788544,0.0243371635200295,0.));
#1624=CARTESIAN_POINT('',(-0.00599396647885443,0.0243371635200295,0.));
#1625=CARTESIAN_POINT('',(0.00100603352114558,0.0243371635200295,0.));
#1626=CARTESIAN_POINT('',(0.00100603352114558,0.0293371635200295,0.));
#1627=CARTESIAN_POINT('',(-0.00599396647885443,0.0473371635200295,0.));
#1628=CARTESIAN_POINT('',(-0.0129939664788544,0.0473371635200295,0.));
#1629=CARTESIAN_POINT('',(0.00100603352114557,0.0473371635200295,0.));
#1630=CARTESIAN_POINT('',(-0.0129939664788544,0.0423371635200295,0.));
#1631=CARTESIAN_POINT('',(-0.0129939664788544,0.0373371635200295,0.));
#1632=CARTESIAN_POINT('',(-0.00599396647885443,0.0373371635200295,0.));
#1633=CARTESIAN_POINT('',(0.00100603352114557,0.0373371635200295,0.));
#1634=CARTESIAN_POINT('',(0.00100603352114557,0.0423371635200295,0.));
#1635=CARTESIAN_POINT('',(-0.00599396647885441,0.0603371635200295,0.));
#1636=CARTESIAN_POINT('',(-0.0129939664788544,0.0603371635200295,0.));
#1637=CARTESIAN_POINT('',(0.00100603352114559,0.0603371635200295,0.));
#1638=CARTESIAN_POINT('',(-0.0129939664788544,0.0553371635200295,0.));
#1639=CARTESIAN_POINT('',(-0.0129939664788544,0.0503371635200295,0.));
#1640=CARTESIAN_POINT('',(-0.00599396647885441,0.0503371635200295,0.));
#1641=CARTESIAN_POINT('',(0.00100603352114559,0.0503371635200295,0.));
#1642=CARTESIAN_POINT('',(0.00100603352114559,0.0553371635200295,0.));
#1643=CARTESIAN_POINT('',(-0.00599396647885441,0.0733371635200295,0.));
#1644=CARTESIAN_POINT('',(-0.0129939664788544,0.0733371635200295,0.));
#1645=CARTESIAN_POINT('',(0.00100603352114558,0.0733371635200295,0.));
#1646=CARTESIAN_POINT('',(-0.0129939664788544,0.0683371635200295,0.));
#1647=CARTESIAN_POINT('',(-0.0129939664788544,0.0633371635200295,0.));
#1648=CARTESIAN_POINT('',(-0.00599396647885441,0.0633371635200295,0.));
#1649=CARTESIAN_POINT('',(0.00100603352114559,0.0633371635200295,0.));
#1650=CARTESIAN_POINT('',(0.00100603352114559,0.0683371635200295,0.));
#1651=CARTESIAN_POINT('',(-0.00599396647885443,0.0863371635200295,0.));
#1652=CARTESIAN_POINT('',(-0.0129939664788544,0.0863371635200295,0.));
#1653=CARTESIAN_POINT('',(0.00100603352114558,0.0863371635200295,0.));
#1654=CARTESIAN_POINT('',(-0.0129939664788544,0.0813371635200295,0.));
#1655=CARTESIAN_POINT('',(-0.0129939664788544,0.0763371635200295,0.));
#1656=CARTESIAN_POINT('',(-0.00599396647885442,0.0763371635200295,0.));
#1657=CARTESIAN_POINT('',(0.00100603352114558,0.0763371635200295,0.));
#1658=CARTESIAN_POINT('',(0.00100603352114558,0.0813371635200295,0.));
#1659=CARTESIAN_POINT('',(-0.0129939664788544,0.0943371635200295,0.));
#1660=CARTESIAN_POINT('',(-0.0129939664788544,0.0893371635200295,0.));
#1661=CARTESIAN_POINT('',(-0.00599396647885442,0.0893371635200295,0.));
#1662=CARTESIAN_POINT('',(0.00100603352114558,0.0893371635200295,0.));
#1663=CARTESIAN_POINT('',(0.00100603352114558,0.0943371635200295,0.));
#1664=MECHANICAL_DESIGN_GEOMETRIC_PRESENTATION_REPRESENTATION('',(#1065),
#1665);
#1665=(
GEOMETRIC_REPRESENTATION_CONTEXT(3)
GLOBAL_UNCERTAINTY_ASSIGNED_CONTEXT((#1666))
GLOBAL_UNIT_ASSIGNED_CONTEXT((#1669,#1668,#1667))
REPRESENTATION_CONTEXT('LADDER','TOP_LEVEL_ASSEMBLY_PART')
);
#1666=UNCERTAINTY_MEASURE_WITH_UNIT(LENGTH_MEASURE(1.E-8),#1669,
'DISTANCE_ACCURACY_VALUE','Maximum Tolerance applied to model');
#1667=(
NAMED_UNIT(*)
SI_UNIT($,.STERADIAN.)
SOLID_ANGLE_UNIT()
);
#1668=(
NAMED_UNIT(*)
PLANE_ANGLE_UNIT()
SI_UNIT($,.RADIAN.)
);
#1669=(
LENGTH_UNIT()
NAMED_UNIT(*)
SI_UNIT($,.METRE.)
);
#1670=PRODUCT_DEFINITION_SHAPE('','',#1671);
#1671=PRODUCT_DEFINITION('','',#1673,#1672);
#1672=PRODUCT_DEFINITION_CONTEXT('',#1679,'design');
#1673=PRODUCT_DEFINITION_FORMATION_WITH_SPECIFIED_SOURCE('','',#1675,
 .NOT_KNOWN.);
#1674=PRODUCT_RELATED_PRODUCT_CATEGORY('','',(#1675));
#1675=PRODUCT('LADDER','LADDER','LADDER',(#1677));
#1676=PRODUCT_CATEGORY('','');
#1677=PRODUCT_CONTEXT('',#1679,'mechanical');
#1678=APPLICATION_PROTOCOL_DEFINITION('international standard',
'ap242_managed_model_based_3d_engineering',2020,#1679);
#1679=APPLICATION_CONTEXT('managed model based 3d engineering');
ENDSEC;
END-ISO-10303-21;
