ISO-10303-21;
HEADER;
/* Generated by software containing ST-Developer
 * from STEP Tools, Inc. (www.steptools.com) 
 */
/* OPTION: using custom renumber hook */

FILE_DESCRIPTION(
/* description */ ('STEP AP242 Edition 2',
'CAx-IF Rec.Pracs.---Representation and Presentation of Product Manufa
cturing Information (PMI)---4.0---2014-10-13',
'CAx-IF Rec.Pracs.---3D Tessellated Geometry---0.4---2014-09-14','2;1',
'CAx-IF Rec.Pracs.---User Defined Attributes---1.5---2016-08-15'),
/* implementation_level */ '2;1');

FILE_NAME(
/* name */ 'ARMCHAIR - Part 1',
/* time_stamp */ '2026-09-08T03:13:14Z',
/* author */ (''),
/* organization */ (''),
/* preprocessor_version */ 'ST-DEVELOPER v20',
/* originating_system */ 'ONSHAPE BY PTC INC, 1.220',
/* authorisation */ '  ');

FILE_SCHEMA (('AP242_MANAGED_MODEL_BASED_3D_ENGINEERING_MIM_LF { 1 0 10303 442 3 1 4 }'));
ENDSEC;

DATA;
#10=SHAPE_REPRESENTATION_RELATIONSHIP('','',#530,#11);
#11=ADVANCED_BREP_SHAPE_REPRESENTATION('',(#528),#978);
#12=TOROIDAL_SURFACE('',#576,0.005,0.005);
#13=TOROIDAL_SURFACE('',#580,0.005,0.005);
#14=(
BOUNDED_SURFACE()
B_SPLINE_SURFACE(3,2,((#913,#914,#915),(#916,#917,#918),(#919,#920,#921),
(#922,#923,#924),(#925,#926,#927),(#928,#929,#930),(#931,#932,#933)),
 .UNSPECIFIED.,.F.,.F.,.F.)
B_SPLINE_SURFACE_WITH_KNOTS((4,1,1,1,4),(3,3),(6.28318530717959,6.4832281129709,
6.68327091876221,6.88331372455352,7.08335653034483),(0.,1.),
 .UNSPECIFIED.)
GEOMETRIC_REPRESENTATION_ITEM()
RATIONAL_B_SPLINE_SURFACE(((1.,0.707106781186548,1.),(1.,0.707106781186872,
1.),(1.,0.716762620050509,1.),(1.,0.756263233960974,1.),(1.,0.811287249842562,
1.),(1.,0.851132265942702,1.),(1.,0.870278952534031,1.)))
REPRESENTATION_ITEM('')
SURFACE()
);
#15=(
BOUNDED_SURFACE()
B_SPLINE_SURFACE(3,2,((#937,#938,#939),(#940,#941,#942),(#943,#944,#945),
(#946,#947,#948),(#949,#950,#951),(#952,#953,#954),(#955,#956,#957)),
 .UNSPECIFIED.,.F.,.F.,.F.)
B_SPLINE_SURFACE_WITH_KNOTS((4,1,1,1,4),(3,3),(2.34142143042454,2.54146423621586,
2.74150704200717,2.94154984779848,3.14159265358979),(0.,1.),
 .UNSPECIFIED.)
GEOMETRIC_REPRESENTATION_ITEM()
RATIONAL_B_SPLINE_SURFACE(((1.,0.870278952534031,1.),(1.,0.851132265942579,
1.),(1.,0.811287249842619,1.),(1.,0.756263233960958,1.),(1.,0.716762620050513,
1.),(1.,0.707106781186871,1.),(1.,0.707106781186548,1.)))
REPRESENTATION_ITEM('')
SURFACE()
);
#16=ELLIPSE('',#566,0.0117924764150708,0.01);
#17=ELLIPSE('',#567,0.0117924764150708,0.01);
#18=ELLIPSE('',#569,0.0117924764150707,0.01);
#19=ELLIPSE('',#570,0.0117924764150708,0.01);
#20=SPHERICAL_SURFACE('',#560,0.00375);
#21=SPHERICAL_SURFACE('',#561,0.00375);
#22=SPHERICAL_SURFACE('',#584,0.005);
#23=SPHERICAL_SURFACE('',#588,0.005);
#24=CYLINDRICAL_SURFACE('',#552,0.00375);
#25=CYLINDRICAL_SURFACE('',#555,0.00375);
#26=CYLINDRICAL_SURFACE('',#558,0.00375);
#27=CYLINDRICAL_SURFACE('',#563,0.00375);
#28=CYLINDRICAL_SURFACE('',#564,0.01);
#29=CYLINDRICAL_SURFACE('',#568,0.01);
#30=CYLINDRICAL_SURFACE('',#571,0.01);
#31=CYLINDRICAL_SURFACE('',#573,0.005);
#32=CYLINDRICAL_SURFACE('',#578,0.005);
#33=CYLINDRICAL_SURFACE('',#582,0.005);
#34=CYLINDRICAL_SURFACE('',#586,0.005);
#35=B_SPLINE_CURVE_WITH_KNOTS('',3,(#801,#802,#803,#804),.UNSPECIFIED.,
 .F.,.F.,(4,4),(0.,0.00210219165671311),.UNSPECIFIED.);
#36=B_SPLINE_CURVE_WITH_KNOTS('',3,(#808,#809,#810,#811),.UNSPECIFIED.,
 .F.,.F.,(4,4),(0.,0.00281197197228781),.UNSPECIFIED.);
#37=B_SPLINE_CURVE_WITH_KNOTS('',3,(#817,#818,#819,#820,#821),
 .UNSPECIFIED.,.F.,.F.,(4,1,4),(0.,0.00140028779408469,0.00280057558816938),
 .UNSPECIFIED.);
#38=B_SPLINE_CURVE_WITH_KNOTS('',3,(#825,#826,#827,#828),.UNSPECIFIED.,
 .F.,.F.,(4,4),(0.,0.00281204781683771),.UNSPECIFIED.);
#39=B_SPLINE_CURVE_WITH_KNOTS('',3,(#837,#838,#839,#840),.UNSPECIFIED.,
 .F.,.F.,(4,4),(0.,0.00210060282849279),.UNSPECIFIED.);
#40=B_SPLINE_CURVE_WITH_KNOTS('',3,(#845,#846,#847,#848,#849),
 .UNSPECIFIED.,.F.,.F.,(4,1,4),(0.,0.0014002877940847,0.0028005755881694),
 .UNSPECIFIED.);
#41=B_SPLINE_CURVE_WITH_KNOTS('',3,(#871,#872,#873,#874,#875,#876),
 .UNSPECIFIED.,.F.,.F.,(4,1,1,4),(0.,0.00245603991465526,0.00491207982931052,
0.00982415965862104),.UNSPECIFIED.);
#42=B_SPLINE_CURVE_WITH_KNOTS('',3,(#883,#884,#885,#886,#887,#888),
 .UNSPECIFIED.,.F.,.F.,(4,1,1,4),(0.,0.00245603991465526,0.00491207982931052,
0.00982415965862103),.UNSPECIFIED.);
#43=B_SPLINE_CURVE_WITH_KNOTS('',3,(#892,#893,#894,#895,#896,#897,#898),
 .UNSPECIFIED.,.F.,.F.,(4,1,1,1,4),(0.,0.00225025892396573,0.00450051784793146,
0.0067507767718972,0.00900103569586293),.UNSPECIFIED.);
#44=B_SPLINE_CURVE_WITH_KNOTS('',3,(#903,#904,#905,#906,#907,#908,#909),
 .UNSPECIFIED.,.F.,.F.,(4,1,1,1,4),(0.,0.00225025892396573,0.00450051784793146,
0.0067507767718972,0.00900103569586293),.UNSPECIFIED.);
#45=CIRCLE('',#534,0.00375);
#46=CIRCLE('',#535,0.00375);
#47=CIRCLE('',#539,0.005);
#48=CIRCLE('',#540,0.005);
#49=CIRCLE('',#545,0.00958257569495584);
#50=CIRCLE('',#546,0.00958257569495584);
#51=CIRCLE('',#549,0.01);
#52=CIRCLE('',#551,0.01);
#53=CIRCLE('',#553,0.00375);
#54=CIRCLE('',#554,0.00375);
#55=CIRCLE('',#556,0.00375);
#56=CIRCLE('',#557,0.00375);
#57=CIRCLE('',#559,0.00375);
#58=CIRCLE('',#562,0.00375);
#59=CIRCLE('',#565,0.01);
#60=CIRCLE('',#572,0.01);
#61=CIRCLE('',#574,0.005);
#62=CIRCLE('',#575,0.005);
#63=CIRCLE('',#577,0.005);
#64=CIRCLE('',#579,0.005);
#65=CIRCLE('',#581,0.005);
#66=CIRCLE('',#583,0.005);
#67=CIRCLE('',#585,0.005);
#68=CIRCLE('',#587,0.005);
#69=ORIENTED_EDGE('',*,*,#219,.F.);
#70=ORIENTED_EDGE('',*,*,#220,.T.);
#71=ORIENTED_EDGE('',*,*,#221,.T.);
#72=ORIENTED_EDGE('',*,*,#222,.F.);
#73=ORIENTED_EDGE('',*,*,#223,.T.);
#74=ORIENTED_EDGE('',*,*,#224,.T.);
#75=ORIENTED_EDGE('',*,*,#225,.T.);
#76=ORIENTED_EDGE('',*,*,#226,.T.);
#77=ORIENTED_EDGE('',*,*,#227,.T.);
#78=ORIENTED_EDGE('',*,*,#222,.T.);
#79=ORIENTED_EDGE('',*,*,#228,.F.);
#80=ORIENTED_EDGE('',*,*,#229,.T.);
#81=ORIENTED_EDGE('',*,*,#230,.T.);
#82=ORIENTED_EDGE('',*,*,#231,.T.);
#83=ORIENTED_EDGE('',*,*,#232,.T.);
#84=ORIENTED_EDGE('',*,*,#233,.T.);
#85=ORIENTED_EDGE('',*,*,#234,.T.);
#86=ORIENTED_EDGE('',*,*,#235,.T.);
#87=ORIENTED_EDGE('',*,*,#236,.T.);
#88=ORIENTED_EDGE('',*,*,#237,.T.);
#89=ORIENTED_EDGE('',*,*,#238,.T.);
#90=ORIENTED_EDGE('',*,*,#239,.T.);
#91=ORIENTED_EDGE('',*,*,#240,.T.);
#92=ORIENTED_EDGE('',*,*,#241,.T.);
#93=ORIENTED_EDGE('',*,*,#242,.T.);
#94=ORIENTED_EDGE('',*,*,#243,.T.);
#95=ORIENTED_EDGE('',*,*,#244,.F.);
#96=ORIENTED_EDGE('',*,*,#245,.T.);
#97=ORIENTED_EDGE('',*,*,#246,.T.);
#98=ORIENTED_EDGE('',*,*,#247,.T.);
#99=ORIENTED_EDGE('',*,*,#248,.T.);
#100=ORIENTED_EDGE('',*,*,#249,.T.);
#101=ORIENTED_EDGE('',*,*,#248,.F.);
#102=ORIENTED_EDGE('',*,*,#250,.T.);
#103=ORIENTED_EDGE('',*,*,#251,.T.);
#104=ORIENTED_EDGE('',*,*,#252,.T.);
#105=ORIENTED_EDGE('',*,*,#253,.T.);
#106=ORIENTED_EDGE('',*,*,#254,.F.);
#107=ORIENTED_EDGE('',*,*,#255,.T.);
#108=ORIENTED_EDGE('',*,*,#256,.T.);
#109=ORIENTED_EDGE('',*,*,#257,.T.);
#110=ORIENTED_EDGE('',*,*,#258,.F.);
#111=ORIENTED_EDGE('',*,*,#253,.F.);
#112=ORIENTED_EDGE('',*,*,#259,.T.);
#113=ORIENTED_EDGE('',*,*,#260,.T.);
#114=ORIENTED_EDGE('',*,*,#261,.T.);
#115=ORIENTED_EDGE('',*,*,#244,.T.);
#116=ORIENTED_EDGE('',*,*,#262,.T.);
#117=ORIENTED_EDGE('',*,*,#257,.F.);
#118=ORIENTED_EDGE('',*,*,#263,.T.);
#119=ORIENTED_EDGE('',*,*,#249,.F.);
#120=ORIENTED_EDGE('',*,*,#254,.T.);
#121=ORIENTED_EDGE('',*,*,#258,.T.);
#122=ORIENTED_EDGE('',*,*,#262,.F.);
#123=ORIENTED_EDGE('',*,*,#264,.T.);
#124=ORIENTED_EDGE('',*,*,#265,.T.);
#125=ORIENTED_EDGE('',*,*,#228,.T.);
#126=ORIENTED_EDGE('',*,*,#221,.F.);
#127=ORIENTED_EDGE('',*,*,#266,.T.);
#128=ORIENTED_EDGE('',*,*,#227,.F.);
#129=ORIENTED_EDGE('',*,*,#267,.T.);
#130=ORIENTED_EDGE('',*,*,#268,.T.);
#131=ORIENTED_EDGE('',*,*,#269,.T.);
#132=ORIENTED_EDGE('',*,*,#219,.T.);
#133=ORIENTED_EDGE('',*,*,#264,.F.);
#134=ORIENTED_EDGE('',*,*,#270,.T.);
#135=ORIENTED_EDGE('',*,*,#271,.T.);
#136=ORIENTED_EDGE('',*,*,#232,.F.);
#137=ORIENTED_EDGE('',*,*,#272,.T.);
#138=ORIENTED_EDGE('',*,*,#237,.F.);
#139=ORIENTED_EDGE('',*,*,#273,.T.);
#140=ORIENTED_EDGE('',*,*,#274,.T.);
#141=ORIENTED_EDGE('',*,*,#268,.F.);
#142=ORIENTED_EDGE('',*,*,#275,.T.);
#143=ORIENTED_EDGE('',*,*,#276,.F.);
#144=ORIENTED_EDGE('',*,*,#267,.F.);
#145=ORIENTED_EDGE('',*,*,#226,.F.);
#146=ORIENTED_EDGE('',*,*,#277,.T.);
#147=ORIENTED_EDGE('',*,*,#234,.F.);
#148=ORIENTED_EDGE('',*,*,#275,.F.);
#149=ORIENTED_EDGE('',*,*,#276,.T.);
#150=ORIENTED_EDGE('',*,*,#278,.F.);
#151=ORIENTED_EDGE('',*,*,#272,.F.);
#152=ORIENTED_EDGE('',*,*,#265,.F.);
#153=ORIENTED_EDGE('',*,*,#278,.T.);
#154=ORIENTED_EDGE('',*,*,#231,.F.);
#155=ORIENTED_EDGE('',*,*,#279,.T.);
#156=ORIENTED_EDGE('',*,*,#229,.F.);
#157=ORIENTED_EDGE('',*,*,#236,.F.);
#158=ORIENTED_EDGE('',*,*,#280,.T.);
#159=ORIENTED_EDGE('',*,*,#255,.F.);
#160=ORIENTED_EDGE('',*,*,#281,.F.);
#161=ORIENTED_EDGE('',*,*,#259,.F.);
#162=ORIENTED_EDGE('',*,*,#252,.F.);
#163=ORIENTED_EDGE('',*,*,#282,.F.);
#164=ORIENTED_EDGE('',*,*,#273,.F.);
#165=ORIENTED_EDGE('',*,*,#281,.T.);
#166=ORIENTED_EDGE('',*,*,#269,.F.);
#167=ORIENTED_EDGE('',*,*,#274,.F.);
#168=ORIENTED_EDGE('',*,*,#282,.T.);
#169=ORIENTED_EDGE('',*,*,#251,.F.);
#170=ORIENTED_EDGE('',*,*,#283,.F.);
#171=ORIENTED_EDGE('',*,*,#270,.F.);
#172=ORIENTED_EDGE('',*,*,#266,.F.);
#173=ORIENTED_EDGE('',*,*,#220,.F.);
#174=ORIENTED_EDGE('',*,*,#250,.F.);
#175=ORIENTED_EDGE('',*,*,#247,.F.);
#176=ORIENTED_EDGE('',*,*,#284,.F.);
#177=ORIENTED_EDGE('',*,*,#271,.F.);
#178=ORIENTED_EDGE('',*,*,#283,.T.);
#179=ORIENTED_EDGE('',*,*,#246,.F.);
#180=ORIENTED_EDGE('',*,*,#285,.T.);
#181=ORIENTED_EDGE('',*,*,#233,.F.);
#182=ORIENTED_EDGE('',*,*,#284,.T.);
#183=ORIENTED_EDGE('',*,*,#225,.F.);
#184=ORIENTED_EDGE('',*,*,#286,.T.);
#185=ORIENTED_EDGE('',*,*,#238,.F.);
#186=ORIENTED_EDGE('',*,*,#287,.F.);
#187=ORIENTED_EDGE('',*,*,#235,.F.);
#188=ORIENTED_EDGE('',*,*,#277,.F.);
#189=ORIENTED_EDGE('',*,*,#287,.T.);
#190=ORIENTED_EDGE('',*,*,#243,.F.);
#191=ORIENTED_EDGE('',*,*,#288,.F.);
#192=ORIENTED_EDGE('',*,*,#263,.F.);
#193=ORIENTED_EDGE('',*,*,#256,.F.);
#194=ORIENTED_EDGE('',*,*,#280,.F.);
#195=ORIENTED_EDGE('',*,*,#288,.T.);
#196=ORIENTED_EDGE('',*,*,#242,.F.);
#197=ORIENTED_EDGE('',*,*,#289,.F.);
#198=ORIENTED_EDGE('',*,*,#260,.F.);
#199=ORIENTED_EDGE('',*,*,#289,.T.);
#200=ORIENTED_EDGE('',*,*,#241,.F.);
#201=ORIENTED_EDGE('',*,*,#290,.F.);
#202=ORIENTED_EDGE('',*,*,#285,.F.);
#203=ORIENTED_EDGE('',*,*,#245,.F.);
#204=ORIENTED_EDGE('',*,*,#261,.F.);
#205=ORIENTED_EDGE('',*,*,#240,.F.);
#206=ORIENTED_EDGE('',*,*,#291,.T.);
#207=ORIENTED_EDGE('',*,*,#223,.F.);
#208=ORIENTED_EDGE('',*,*,#279,.F.);
#209=ORIENTED_EDGE('',*,*,#230,.F.);
#210=ORIENTED_EDGE('',*,*,#290,.T.);
#211=ORIENTED_EDGE('',*,*,#292,.F.);
#212=ORIENTED_EDGE('',*,*,#291,.F.);
#213=ORIENTED_EDGE('',*,*,#293,.F.);
#214=ORIENTED_EDGE('',*,*,#224,.F.);
#215=ORIENTED_EDGE('',*,*,#292,.T.);
#216=ORIENTED_EDGE('',*,*,#239,.F.);
#217=ORIENTED_EDGE('',*,*,#293,.T.);
#218=ORIENTED_EDGE('',*,*,#286,.F.);
#219=EDGE_CURVE('',#294,#295,#340,.T.);
#220=EDGE_CURVE('',#294,#296,#341,.F.);
#221=EDGE_CURVE('',#296,#297,#342,.T.);
#222=EDGE_CURVE('',#295,#297,#343,.T.);
#223=EDGE_CURVE('',#298,#299,#344,.F.);
#224=EDGE_CURVE('',#299,#300,#345,.F.);
#225=EDGE_CURVE('',#300,#301,#346,.T.);
#226=EDGE_CURVE('',#301,#302,#45,.T.);
#227=EDGE_CURVE('',#302,#295,#347,.T.);
#228=EDGE_CURVE('',#303,#297,#348,.T.);
#229=EDGE_CURVE('',#303,#298,#46,.T.);
#230=EDGE_CURVE('',#304,#305,#349,.T.);
#231=EDGE_CURVE('',#305,#306,#350,.F.);
#232=EDGE_CURVE('',#306,#307,#351,.F.);
#233=EDGE_CURVE('',#307,#304,#352,.T.);
#234=EDGE_CURVE('',#308,#309,#353,.T.);
#235=EDGE_CURVE('',#309,#310,#354,.F.);
#236=EDGE_CURVE('',#310,#311,#355,.F.);
#237=EDGE_CURVE('',#311,#308,#356,.T.);
#238=EDGE_CURVE('',#312,#313,#357,.T.);
#239=EDGE_CURVE('',#313,#314,#358,.F.);
#240=EDGE_CURVE('',#314,#315,#359,.F.);
#241=EDGE_CURVE('',#315,#316,#47,.T.);
#242=EDGE_CURVE('',#316,#317,#360,.T.);
#243=EDGE_CURVE('',#317,#312,#48,.T.);
#244=EDGE_CURVE('',#318,#319,#361,.T.);
#245=EDGE_CURVE('',#318,#320,#35,.T.);
#246=EDGE_CURVE('',#320,#321,#362,.F.);
#247=EDGE_CURVE('',#321,#322,#36,.T.);
#248=EDGE_CURVE('',#322,#323,#363,.T.);
#249=EDGE_CURVE('',#323,#319,#364,.T.);
#250=EDGE_CURVE('',#322,#324,#37,.T.);
#251=EDGE_CURVE('',#324,#325,#365,.T.);
#252=EDGE_CURVE('',#325,#326,#38,.T.);
#253=EDGE_CURVE('',#326,#327,#366,.T.);
#254=EDGE_CURVE('',#323,#327,#367,.T.);
#255=EDGE_CURVE('',#328,#329,#368,.F.);
#256=EDGE_CURVE('',#329,#330,#39,.T.);
#257=EDGE_CURVE('',#330,#331,#369,.T.);
#258=EDGE_CURVE('',#327,#331,#370,.T.);
#259=EDGE_CURVE('',#326,#328,#40,.T.);
#260=EDGE_CURVE('',#332,#333,#371,.F.);
#261=EDGE_CURVE('',#333,#318,#49,.F.);
#262=EDGE_CURVE('',#319,#331,#372,.T.);
#263=EDGE_CURVE('',#330,#332,#50,.F.);
#264=EDGE_CURVE('',#334,#335,#373,.F.);
#265=EDGE_CURVE('',#335,#303,#374,.T.);
#266=EDGE_CURVE('',#296,#334,#51,.F.);
#267=EDGE_CURVE('',#302,#336,#375,.F.);
#268=EDGE_CURVE('',#336,#337,#376,.T.);
#269=EDGE_CURVE('',#337,#294,#52,.T.);
#270=EDGE_CURVE('',#334,#338,#41,.T.);
#271=EDGE_CURVE('',#338,#307,#53,.T.);
#272=EDGE_CURVE('',#306,#335,#54,.T.);
#273=EDGE_CURVE('',#311,#339,#55,.T.);
#274=EDGE_CURVE('',#339,#337,#42,.F.);
#275=EDGE_CURVE('',#336,#308,#56,.T.);
#276=EDGE_CURVE('',#336,#308,#57,.T.);
#277=EDGE_CURVE('',#301,#309,#43,.T.);
#278=EDGE_CURVE('',#335,#306,#58,.T.);
#279=EDGE_CURVE('',#305,#298,#44,.F.);
#280=EDGE_CURVE('',#310,#329,#59,.F.);
#281=EDGE_CURVE('',#311,#328,#16,.F.);
#282=EDGE_CURVE('',#339,#325,#17,.F.);
#283=EDGE_CURVE('',#338,#324,#18,.T.);
#284=EDGE_CURVE('',#307,#321,#19,.T.);
#285=EDGE_CURVE('',#320,#304,#60,.F.);
#286=EDGE_CURVE('',#300,#313,#61,.T.);
#287=EDGE_CURVE('',#310,#312,#62,.T.);
#288=EDGE_CURVE('',#332,#317,#63,.T.);
#289=EDGE_CURVE('',#333,#316,#64,.T.);
#290=EDGE_CURVE('',#304,#315,#65,.T.);
#291=EDGE_CURVE('',#314,#299,#66,.F.);
#292=EDGE_CURVE('',#299,#314,#67,.T.);
#293=EDGE_CURVE('',#300,#313,#68,.T.);
#294=VERTEX_POINT('',#745);
#295=VERTEX_POINT('',#746);
#296=VERTEX_POINT('',#748);
#297=VERTEX_POINT('',#750);
#298=VERTEX_POINT('',#754);
#299=VERTEX_POINT('',#755);
#300=VERTEX_POINT('',#757);
#301=VERTEX_POINT('',#759);
#302=VERTEX_POINT('',#761);
#303=VERTEX_POINT('',#764);
#304=VERTEX_POINT('',#768);
#305=VERTEX_POINT('',#769);
#306=VERTEX_POINT('',#771);
#307=VERTEX_POINT('',#773);
#308=VERTEX_POINT('',#777);
#309=VERTEX_POINT('',#778);
#310=VERTEX_POINT('',#780);
#311=VERTEX_POINT('',#782);
#312=VERTEX_POINT('',#786);
#313=VERTEX_POINT('',#787);
#314=VERTEX_POINT('',#789);
#315=VERTEX_POINT('',#791);
#316=VERTEX_POINT('',#793);
#317=VERTEX_POINT('',#795);
#318=VERTEX_POINT('',#799);
#319=VERTEX_POINT('',#800);
#320=VERTEX_POINT('',#805);
#321=VERTEX_POINT('',#807);
#322=VERTEX_POINT('',#812);
#323=VERTEX_POINT('',#814);
#324=VERTEX_POINT('',#822);
#325=VERTEX_POINT('',#824);
#326=VERTEX_POINT('',#829);
#327=VERTEX_POINT('',#831);
#328=VERTEX_POINT('',#835);
#329=VERTEX_POINT('',#836);
#330=VERTEX_POINT('',#841);
#331=VERTEX_POINT('',#843);
#332=VERTEX_POINT('',#852);
#333=VERTEX_POINT('',#853);
#334=VERTEX_POINT('',#860);
#335=VERTEX_POINT('',#861);
#336=VERTEX_POINT('',#866);
#337=VERTEX_POINT('',#868);
#338=VERTEX_POINT('',#877);
#339=VERTEX_POINT('',#882);
#340=LINE('',#744,#377);
#341=LINE('',#747,#378);
#342=LINE('',#749,#379);
#343=LINE('',#751,#380);
#344=LINE('',#753,#381);
#345=LINE('',#756,#382);
#346=LINE('',#758,#383);
#347=LINE('',#762,#384);
#348=LINE('',#763,#385);
#349=LINE('',#767,#386);
#350=LINE('',#770,#387);
#351=LINE('',#772,#388);
#352=LINE('',#774,#389);
#353=LINE('',#776,#390);
#354=LINE('',#779,#391);
#355=LINE('',#781,#392);
#356=LINE('',#783,#393);
#357=LINE('',#785,#394);
#358=LINE('',#788,#395);
#359=LINE('',#790,#396);
#360=LINE('',#794,#397);
#361=LINE('',#798,#398);
#362=LINE('',#806,#399);
#363=LINE('',#813,#400);
#364=LINE('',#815,#401);
#365=LINE('',#823,#402);
#366=LINE('',#830,#403);
#367=LINE('',#832,#404);
#368=LINE('',#834,#405);
#369=LINE('',#842,#406);
#370=LINE('',#844,#407);
#371=LINE('',#851,#408);
#372=LINE('',#855,#409);
#373=LINE('',#859,#410);
#374=LINE('',#862,#411);
#375=LINE('',#865,#412);
#376=LINE('',#867,#413);
#377=VECTOR('',#593,1.);
#378=VECTOR('',#594,1.);
#379=VECTOR('',#595,1.);
#380=VECTOR('',#596,1.);
#381=VECTOR('',#599,1.);
#382=VECTOR('',#600,1.);
#383=VECTOR('',#601,1.);
#384=VECTOR('',#604,1.);
#385=VECTOR('',#605,1.);
#386=VECTOR('',#610,1.);
#387=VECTOR('',#611,1.);
#388=VECTOR('',#612,1.);
#389=VECTOR('',#613,1.);
#390=VECTOR('',#616,1.);
#391=VECTOR('',#617,1.);
#392=VECTOR('',#618,1.);
#393=VECTOR('',#619,1.);
#394=VECTOR('',#622,1.);
#395=VECTOR('',#623,1.);
#396=VECTOR('',#624,1.);
#397=VECTOR('',#627,1.);
#398=VECTOR('',#632,1.);
#399=VECTOR('',#633,1.);
#400=VECTOR('',#634,1.);
#401=VECTOR('',#635,1.);
#402=VECTOR('',#638,1.);
#403=VECTOR('',#639,1.);
#404=VECTOR('',#640,1.);
#405=VECTOR('',#643,1.);
#406=VECTOR('',#644,1.);
#407=VECTOR('',#645,1.);
#408=VECTOR('',#648,1.);
#409=VECTOR('',#651,1.);
#410=VECTOR('',#658,1.);
#411=VECTOR('',#659,1.);
#412=VECTOR('',#664,1.);
#413=VECTOR('',#665,1.);
#414=EDGE_LOOP('',(#69,#70,#71,#72));
#415=EDGE_LOOP('',(#73,#74,#75,#76,#77,#78,#79,#80));
#416=EDGE_LOOP('',(#81,#82,#83,#84));
#417=EDGE_LOOP('',(#85,#86,#87,#88));
#418=EDGE_LOOP('',(#89,#90,#91,#92,#93,#94));
#419=EDGE_LOOP('',(#95,#96,#97,#98,#99,#100));
#420=EDGE_LOOP('',(#101,#102,#103,#104,#105,#106));
#421=EDGE_LOOP('',(#107,#108,#109,#110,#111,#112));
#422=EDGE_LOOP('',(#113,#114,#115,#116,#117,#118));
#423=EDGE_LOOP('',(#119,#120,#121,#122));
#424=EDGE_LOOP('',(#123,#124,#125,#126,#127));
#425=EDGE_LOOP('',(#128,#129,#130,#131,#132));
#426=EDGE_LOOP('',(#133,#134,#135,#136,#137));
#427=EDGE_LOOP('',(#138,#139,#140,#141,#142));
#428=EDGE_LOOP('',(#143,#144,#145,#146,#147));
#429=EDGE_LOOP('',(#148,#149));
#430=EDGE_LOOP('',(#150,#151));
#431=EDGE_LOOP('',(#152,#153,#154,#155,#156));
#432=EDGE_LOOP('',(#157,#158,#159,#160));
#433=EDGE_LOOP('',(#161,#162,#163,#164,#165));
#434=EDGE_LOOP('',(#166,#167,#168,#169,#170,#171,#172,#173));
#435=EDGE_LOOP('',(#174,#175,#176,#177,#178));
#436=EDGE_LOOP('',(#179,#180,#181,#182));
#437=EDGE_LOOP('',(#183,#184,#185,#186,#187,#188));
#438=EDGE_LOOP('',(#189,#190,#191,#192,#193,#194));
#439=EDGE_LOOP('',(#195,#196,#197,#198));
#440=EDGE_LOOP('',(#199,#200,#201,#202,#203,#204));
#441=EDGE_LOOP('',(#205,#206,#207,#208,#209,#210));
#442=EDGE_LOOP('',(#211,#212));
#443=EDGE_LOOP('',(#213,#214,#215,#216));
#444=EDGE_LOOP('',(#217,#218));
#445=FACE_BOUND('',#414,.T.);
#446=FACE_BOUND('',#415,.T.);
#447=FACE_BOUND('',#416,.T.);
#448=FACE_BOUND('',#417,.T.);
#449=FACE_BOUND('',#418,.T.);
#450=FACE_BOUND('',#419,.T.);
#451=FACE_BOUND('',#420,.T.);
#452=FACE_BOUND('',#421,.T.);
#453=FACE_BOUND('',#422,.T.);
#454=FACE_BOUND('',#423,.T.);
#455=FACE_BOUND('',#424,.T.);
#456=FACE_BOUND('',#425,.T.);
#457=FACE_BOUND('',#426,.T.);
#458=FACE_BOUND('',#427,.T.);
#459=FACE_BOUND('',#428,.T.);
#460=FACE_BOUND('',#429,.T.);
#461=FACE_BOUND('',#430,.T.);
#462=FACE_BOUND('',#431,.T.);
#463=FACE_BOUND('',#432,.T.);
#464=FACE_BOUND('',#433,.T.);
#465=FACE_BOUND('',#434,.T.);
#466=FACE_BOUND('',#435,.T.);
#467=FACE_BOUND('',#436,.T.);
#468=FACE_BOUND('',#437,.T.);
#469=FACE_BOUND('',#438,.T.);
#470=FACE_BOUND('',#439,.T.);
#471=FACE_BOUND('',#440,.T.);
#472=FACE_BOUND('',#441,.T.);
#473=FACE_BOUND('',#442,.T.);
#474=FACE_BOUND('',#443,.T.);
#475=FACE_BOUND('',#444,.T.);
#476=PLANE('',#532);
#477=PLANE('',#533);
#478=PLANE('',#536);
#479=PLANE('',#537);
#480=PLANE('',#538);
#481=PLANE('',#541);
#482=PLANE('',#542);
#483=PLANE('',#543);
#484=PLANE('',#544);
#485=PLANE('',#547);
#486=PLANE('',#548);
#487=PLANE('',#550);
#488=ADVANCED_FACE('',(#445),#476,.F.);
#489=ADVANCED_FACE('',(#446),#477,.F.);
#490=ADVANCED_FACE('',(#447),#478,.T.);
#491=ADVANCED_FACE('',(#448),#479,.F.);
#492=ADVANCED_FACE('',(#449),#480,.T.);
#493=ADVANCED_FACE('',(#450),#481,.F.);
#494=ADVANCED_FACE('',(#451),#482,.T.);
#495=ADVANCED_FACE('',(#452),#483,.T.);
#496=ADVANCED_FACE('',(#453),#484,.F.);
#497=ADVANCED_FACE('',(#454),#485,.T.);
#498=ADVANCED_FACE('',(#455),#486,.T.);
#499=ADVANCED_FACE('',(#456),#487,.F.);
#500=ADVANCED_FACE('',(#457),#24,.T.);
#501=ADVANCED_FACE('',(#458),#25,.T.);
#502=ADVANCED_FACE('',(#459),#26,.T.);
#503=ADVANCED_FACE('',(#460),#20,.T.);
#504=ADVANCED_FACE('',(#461),#21,.T.);
#505=ADVANCED_FACE('',(#462),#27,.T.);
#506=ADVANCED_FACE('',(#463),#28,.T.);
#507=ADVANCED_FACE('',(#464),#14,.T.);
#508=ADVANCED_FACE('',(#465),#29,.T.);
#509=ADVANCED_FACE('',(#466),#15,.T.);
#510=ADVANCED_FACE('',(#467),#30,.T.);
#511=ADVANCED_FACE('',(#468),#31,.T.);
#512=ADVANCED_FACE('',(#469),#12,.T.);
#513=ADVANCED_FACE('',(#470),#32,.T.);
#514=ADVANCED_FACE('',(#471),#13,.T.);
#515=ADVANCED_FACE('',(#472),#33,.T.);
#516=ADVANCED_FACE('',(#473),#22,.T.);
#517=ADVANCED_FACE('',(#474),#34,.T.);
#518=ADVANCED_FACE('',(#475),#23,.T.);
#519=CLOSED_SHELL('',(#488,#489,#490,#491,#492,#493,#494,#495,#496,#497,
#498,#499,#500,#501,#502,#503,#504,#505,#506,#507,#508,#509,#510,#511,#512,
#513,#514,#515,#516,#517,#518));
#520=STYLED_ITEM('',(#521),#528);
#521=PRESENTATION_STYLE_ASSIGNMENT((#522));
#522=SURFACE_STYLE_USAGE(.BOTH.,#523);
#523=SURFACE_SIDE_STYLE('',(#524));
#524=SURFACE_STYLE_FILL_AREA(#525);
#525=FILL_AREA_STYLE('',(#526));
#526=FILL_AREA_STYLE_COLOUR('',#527);
#527=COLOUR_RGB('',0.615686274509804,0.811764705882353,0.929411764705882);
#528=MANIFOLD_SOLID_BREP('Part 1',#519);
#529=SHAPE_DEFINITION_REPRESENTATION(#983,#530);
#530=SHAPE_REPRESENTATION('Part 1',(#531),#978);
#531=AXIS2_PLACEMENT_3D('',#742,#589,#590);
#532=AXIS2_PLACEMENT_3D('',#743,#591,#592);
#533=AXIS2_PLACEMENT_3D('',#752,#597,#598);
#534=AXIS2_PLACEMENT_3D('',#760,#602,#603);
#535=AXIS2_PLACEMENT_3D('',#765,#606,#607);
#536=AXIS2_PLACEMENT_3D('',#766,#608,#609);
#537=AXIS2_PLACEMENT_3D('',#775,#614,#615);
#538=AXIS2_PLACEMENT_3D('',#784,#620,#621);
#539=AXIS2_PLACEMENT_3D('',#792,#625,#626);
#540=AXIS2_PLACEMENT_3D('',#796,#628,#629);
#541=AXIS2_PLACEMENT_3D('',#797,#630,#631);
#542=AXIS2_PLACEMENT_3D('',#816,#636,#637);
#543=AXIS2_PLACEMENT_3D('',#833,#641,#642);
#544=AXIS2_PLACEMENT_3D('',#850,#646,#647);
#545=AXIS2_PLACEMENT_3D('',#854,#649,#650);
#546=AXIS2_PLACEMENT_3D('',#856,#652,#653);
#547=AXIS2_PLACEMENT_3D('',#857,#654,#655);
#548=AXIS2_PLACEMENT_3D('',#858,#656,#657);
#549=AXIS2_PLACEMENT_3D('',#863,#660,#661);
#550=AXIS2_PLACEMENT_3D('',#864,#662,#663);
#551=AXIS2_PLACEMENT_3D('',#869,#666,#667);
#552=AXIS2_PLACEMENT_3D('',#870,#668,#669);
#553=AXIS2_PLACEMENT_3D('',#878,#670,#671);
#554=AXIS2_PLACEMENT_3D('',#879,#672,#673);
#555=AXIS2_PLACEMENT_3D('',#880,#674,#675);
#556=AXIS2_PLACEMENT_3D('',#881,#676,#677);
#557=AXIS2_PLACEMENT_3D('',#889,#678,#679);
#558=AXIS2_PLACEMENT_3D('',#890,#680,#681);
#559=AXIS2_PLACEMENT_3D('',#891,#682,#683);
#560=AXIS2_PLACEMENT_3D('',#899,#684,#685);
#561=AXIS2_PLACEMENT_3D('',#900,#686,#687);
#562=AXIS2_PLACEMENT_3D('',#901,#688,#689);
#563=AXIS2_PLACEMENT_3D('',#902,#690,#691);
#564=AXIS2_PLACEMENT_3D('',#910,#692,#693);
#565=AXIS2_PLACEMENT_3D('',#911,#694,#695);
#566=AXIS2_PLACEMENT_3D('',#912,#696,#697);
#567=AXIS2_PLACEMENT_3D('',#934,#698,#699);
#568=AXIS2_PLACEMENT_3D('',#935,#700,#701);
#569=AXIS2_PLACEMENT_3D('',#936,#702,#703);
#570=AXIS2_PLACEMENT_3D('',#958,#704,#705);
#571=AXIS2_PLACEMENT_3D('',#959,#706,#707);
#572=AXIS2_PLACEMENT_3D('',#960,#708,#709);
#573=AXIS2_PLACEMENT_3D('',#961,#710,#711);
#574=AXIS2_PLACEMENT_3D('',#962,#712,#713);
#575=AXIS2_PLACEMENT_3D('',#963,#714,#715);
#576=AXIS2_PLACEMENT_3D('',#964,#716,#717);
#577=AXIS2_PLACEMENT_3D('',#965,#718,#719);
#578=AXIS2_PLACEMENT_3D('',#966,#720,#721);
#579=AXIS2_PLACEMENT_3D('',#967,#722,#723);
#580=AXIS2_PLACEMENT_3D('',#968,#724,#725);
#581=AXIS2_PLACEMENT_3D('',#969,#726,#727);
#582=AXIS2_PLACEMENT_3D('',#970,#728,#729);
#583=AXIS2_PLACEMENT_3D('',#971,#730,#731);
#584=AXIS2_PLACEMENT_3D('',#972,#732,#733);
#585=AXIS2_PLACEMENT_3D('',#973,#734,#735);
#586=AXIS2_PLACEMENT_3D('',#974,#736,#737);
#587=AXIS2_PLACEMENT_3D('',#975,#738,#739);
#588=AXIS2_PLACEMENT_3D('',#976,#740,#741);
#589=DIRECTION('',(0.,0.,1.));
#590=DIRECTION('',(1.,0.,0.));
#591=DIRECTION('',(0.,0.,1.));
#592=DIRECTION('',(1.,0.,0.));
#593=DIRECTION('',(1.,0.,0.));
#594=DIRECTION('',(0.,-1.,0.));
#595=DIRECTION('',(1.,0.,0.));
#596=DIRECTION('',(3.46944695195362E-16,1.,0.));
#597=DIRECTION('',(1.,-3.46944695195362E-16,0.));
#598=DIRECTION('',(3.46944695195362E-16,1.,0.));
#599=DIRECTION('',(0.,0.,1.));
#600=DIRECTION('',(3.46944695195362E-16,1.,0.));
#601=DIRECTION('',(0.,0.,1.));
#602=DIRECTION('',(1.,-3.46944695195362E-16,0.));
#603=DIRECTION('',(3.46944695195362E-16,1.,0.));
#604=DIRECTION('',(0.,0.,1.));
#605=DIRECTION('',(0.,0.,1.));
#606=DIRECTION('',(1.,-3.46944695195362E-16,0.));
#607=DIRECTION('',(3.46944695195362E-16,1.,0.));
#608=DIRECTION('',(0.,1.,0.));
#609=DIRECTION('',(0.,0.,1.));
#610=DIRECTION('',(0.,0.,-1.));
#611=DIRECTION('',(1.,0.,0.));
#612=DIRECTION('',(0.,0.,-1.));
#613=DIRECTION('',(1.,0.,0.));
#614=DIRECTION('',(0.,1.,0.));
#615=DIRECTION('',(0.,0.,1.));
#616=DIRECTION('',(1.,0.,0.));
#617=DIRECTION('',(0.,0.,-1.));
#618=DIRECTION('',(1.,0.,0.));
#619=DIRECTION('',(0.,0.,-1.));
#620=DIRECTION('',(1.,0.,0.));
#621=DIRECTION('',(0.,0.,-1.));
#622=DIRECTION('',(0.,0.,-1.));
#623=DIRECTION('',(0.,-1.,0.));
#624=DIRECTION('',(0.,0.,-1.));
#625=DIRECTION('',(1.,0.,0.));
#626=DIRECTION('',(0.,0.,-1.));
#627=DIRECTION('',(0.,-1.,0.));
#628=DIRECTION('',(1.,0.,0.));
#629=DIRECTION('',(0.,0.,-1.));
#630=DIRECTION('',(0.,1.,0.));
#631=DIRECTION('',(0.,0.,1.));
#632=DIRECTION('',(0.,0.,-1.));
#633=DIRECTION('',(1.,0.,0.));
#634=DIRECTION('',(0.,0.,-1.));
#635=DIRECTION('',(1.,0.,0.));
#636=DIRECTION('',(1.,0.,0.));
#637=DIRECTION('',(0.,0.,-1.));
#638=DIRECTION('',(0.,-1.,0.));
#639=DIRECTION('',(0.,0.,-1.));
#640=DIRECTION('',(0.,-1.,0.));
#641=DIRECTION('',(0.,1.,0.));
#642=DIRECTION('',(0.,0.,1.));
#643=DIRECTION('',(-1.,0.,0.));
#644=DIRECTION('',(0.,0.,-1.));
#645=DIRECTION('',(1.,0.,0.));
#646=DIRECTION('',(1.,0.,0.));
#647=DIRECTION('',(0.,0.,-1.));
#648=DIRECTION('',(0.,-1.,0.));
#649=DIRECTION('',(1.,0.,0.));
#650=DIRECTION('',(0.,0.,-1.));
#651=DIRECTION('',(0.,-1.,0.));
#652=DIRECTION('',(1.,0.,0.));
#653=DIRECTION('',(0.,0.,-1.));
#654=DIRECTION('',(0.,0.,1.));
#655=DIRECTION('',(1.,0.,0.));
#656=DIRECTION('',(0.,-1.,0.));
#657=DIRECTION('',(0.,0.,-1.));
#658=DIRECTION('',(0.,0.,1.));
#659=DIRECTION('',(1.,0.,0.));
#660=DIRECTION('',(0.,-1.,0.));
#661=DIRECTION('',(0.,0.,-1.));
#662=DIRECTION('',(0.,-1.,0.));
#663=DIRECTION('',(0.,0.,-1.));
#664=DIRECTION('',(1.,0.,0.));
#665=DIRECTION('',(0.,0.,1.));
#666=DIRECTION('',(0.,-1.,0.));
#667=DIRECTION('',(0.,0.,-1.));
#668=DIRECTION('',(0.,0.,1.));
#669=DIRECTION('',(1.,0.,0.));
#670=DIRECTION('',(0.,4.62592926927148E-16,-1.));
#671=DIRECTION('',(0.,1.,4.62592926927148E-16));
#672=DIRECTION('',(0.,0.,1.));
#673=DIRECTION('',(1.,0.,0.));
#674=DIRECTION('',(0.,0.,1.));
#675=DIRECTION('',(1.,0.,0.));
#676=DIRECTION('',(0.,0.,-1.));
#677=DIRECTION('',(-1.,0.,0.));
#678=DIRECTION('',(0.,0.,1.));
#679=DIRECTION('',(1.,0.,0.));
#680=DIRECTION('',(-1.,0.,0.));
#681=DIRECTION('',(0.,0.,1.));
#682=DIRECTION('',(-1.,0.,0.));
#683=DIRECTION('',(0.,0.,1.));
#684=DIRECTION('',(0.,0.,-1.));
#685=DIRECTION('',(-1.,0.,0.));
#686=DIRECTION('',(0.,0.,-1.));
#687=DIRECTION('',(-1.,0.,0.));
#688=DIRECTION('',(1.,0.,0.));
#689=DIRECTION('',(0.,0.,-1.));
#690=DIRECTION('',(1.,0.,0.));
#691=DIRECTION('',(0.,0.,-1.));
#692=DIRECTION('',(-1.,0.,0.));
#693=DIRECTION('',(0.,0.,1.));
#694=DIRECTION('',(1.,0.,0.));
#695=DIRECTION('',(0.,0.,-1.));
#696=DIRECTION('',(0.847998304005088,-0.52999894000318,0.));
#697=DIRECTION('',(-0.52999894000318,-0.847998304005088,0.));
#698=DIRECTION('',(0.52999894000318,-0.847998304005088,0.));
#699=DIRECTION('',(-0.847998304005088,-0.52999894000318,0.));
#700=DIRECTION('',(0.,-1.,0.));
#701=DIRECTION('',(0.,0.,-1.));
#702=DIRECTION('',(0.52999894000318,0.847998304005088,0.));
#703=DIRECTION('',(0.847998304005088,-0.52999894000318,0.));
#704=DIRECTION('',(0.847998304005088,0.52999894000318,0.));
#705=DIRECTION('',(0.52999894000318,-0.847998304005088,0.));
#706=DIRECTION('',(1.,0.,0.));
#707=DIRECTION('',(0.,0.,-1.));
#708=DIRECTION('',(1.,0.,0.));
#709=DIRECTION('',(0.,0.,-1.));
#710=DIRECTION('',(0.,0.,1.));
#711=DIRECTION('',(1.,0.,0.));
#712=DIRECTION('',(0.,0.,1.));
#713=DIRECTION('',(1.,0.,0.));
#714=DIRECTION('',(0.,0.,1.));
#715=DIRECTION('',(1.,0.,0.));
#716=DIRECTION('',(1.,0.,0.));
#717=DIRECTION('',(0.,0.,-1.));
#718=DIRECTION('',(0.,1.,0.));
#719=DIRECTION('',(0.,0.,1.));
#720=DIRECTION('',(0.,-1.,0.));
#721=DIRECTION('',(0.,0.,-1.));
#722=DIRECTION('',(0.,1.,0.));
#723=DIRECTION('',(0.,0.,1.));
#724=DIRECTION('',(1.,0.,0.));
#725=DIRECTION('',(0.,0.,-1.));
#726=DIRECTION('',(0.,0.,-1.));
#727=DIRECTION('',(-1.,0.,0.));
#728=DIRECTION('',(0.,0.,-1.));
#729=DIRECTION('',(-1.,0.,0.));
#730=DIRECTION('',(0.,0.,-1.));
#731=DIRECTION('',(-1.,0.,0.));
#732=DIRECTION('',(0.,0.,-1.));
#733=DIRECTION('',(-1.,0.,0.));
#734=DIRECTION('',(0.,-1.,0.));
#735=DIRECTION('',(0.,0.,-1.));
#736=DIRECTION('',(0.,-1.,0.));
#737=DIRECTION('',(0.,0.,-1.));
#738=DIRECTION('',(0.,-1.,0.));
#739=DIRECTION('',(0.,0.,-1.));
#740=DIRECTION('',(0.,0.,-1.));
#741=DIRECTION('',(-1.,0.,0.));
#742=CARTESIAN_POINT('',(0.,0.,0.));
#743=CARTESIAN_POINT('',(0.00125763193266411,0.0158724328008917,0.));
#744=CARTESIAN_POINT('',(-0.00374236806733588,0.0033724328008917,0.));
#745=CARTESIAN_POINT('',(-0.00874236806733589,0.0033724328008917,0.));
#746=CARTESIAN_POINT('',(0.0112576319326641,0.0033724328008917,0.));
#747=CARTESIAN_POINT('',(-0.00874236806733589,0.0158724328008917,0.));
#748=CARTESIAN_POINT('',(-0.00874236806733589,0.0283724328008917,0.));
#749=CARTESIAN_POINT('',(-0.00374236806733587,0.0283724328008917,0.));
#750=CARTESIAN_POINT('',(0.0112576319326641,0.0283724328008917,0.));
#751=CARTESIAN_POINT('',(0.0112576319326641,0.0158724328008917,0.));
#752=CARTESIAN_POINT('',(0.0112576319326641,0.0158724328008917,-0.035));
#753=CARTESIAN_POINT('',(0.0112576319326641,0.0308724328008917,-0.035));
#754=CARTESIAN_POINT('',(0.0112576319326641,0.0308724328008917,-0.00728553390593274));
#755=CARTESIAN_POINT('',(0.0112576319326641,0.0308724328008917,-0.03));
#756=CARTESIAN_POINT('',(0.0112576319326641,0.000872432800891698,-0.03));
#757=CARTESIAN_POINT('',(0.0112576319326641,0.000872432800891698,-0.03));
#758=CARTESIAN_POINT('',(0.0112576319326641,0.000872432800891698,-0.035));
#759=CARTESIAN_POINT('',(0.0112576319326641,0.000872432800891698,-0.00728553390593274));
#760=CARTESIAN_POINT('',(0.0112576319326641,-0.000377567199108304,-0.00375));
#761=CARTESIAN_POINT('',(0.0112576319326641,0.0033724328008917,-0.00375));
#762=CARTESIAN_POINT('',(0.0112576319326641,0.0033724328008917,-0.0075));
#763=CARTESIAN_POINT('',(0.0112576319326641,0.0283724328008917,-0.0075));
#764=CARTESIAN_POINT('',(0.0112576319326641,0.0283724328008917,-0.00375));
#765=CARTESIAN_POINT('',(0.0112576319326641,0.0321224328008917,-0.00375));
#766=CARTESIAN_POINT('',(0.00125763193266412,0.0358724328008917,0.02));
#767=CARTESIAN_POINT('',(0.0162576319326641,0.0358724328008917,0.02));
#768=CARTESIAN_POINT('',(0.0162576319326641,0.0358724328008917,0.01));
#769=CARTESIAN_POINT('',(0.0162576319326641,0.0358724328008917,-0.00375));
#770=CARTESIAN_POINT('',(0.00125763193266412,0.0358724328008917,-0.00375));
#771=CARTESIAN_POINT('',(-0.0149923680673359,0.0358724328008917,-0.00375));
#772=CARTESIAN_POINT('',(-0.0149923680673359,0.0358724328008917,0.02));
#773=CARTESIAN_POINT('',(-0.0149923680673359,0.0358724328008917,0.01));
#774=CARTESIAN_POINT('',(0.00125763193266412,0.0358724328008917,0.01));
#775=CARTESIAN_POINT('',(0.00125763193266412,-0.0041275671991083,0.02));
#776=CARTESIAN_POINT('',(0.0112576319326641,-0.0041275671991083,-0.00375));
#777=CARTESIAN_POINT('',(-0.0149923680673359,-0.0041275671991083,-0.00375));
#778=CARTESIAN_POINT('',(0.0162576319326641,-0.0041275671991083,-0.00375));
#779=CARTESIAN_POINT('',(0.0162576319326641,-0.0041275671991083,0.01));
#780=CARTESIAN_POINT('',(0.0162576319326641,-0.0041275671991083,0.01));
#781=CARTESIAN_POINT('',(-0.0149923680673359,-0.0041275671991083,0.01));
#782=CARTESIAN_POINT('',(-0.0149923680673359,-0.0041275671991083,0.01));
#783=CARTESIAN_POINT('',(-0.0149923680673359,-0.0041275671991083,0.02));
#784=CARTESIAN_POINT('',(0.0212576319326641,0.0158724328008917,0.02));
#785=CARTESIAN_POINT('',(0.0212576319326641,0.000872432800891696,-0.035));
#786=CARTESIAN_POINT('',(0.0212576319326641,0.000872432800891696,0.01));
#787=CARTESIAN_POINT('',(0.0212576319326641,0.000872432800891696,-0.03));
#788=CARTESIAN_POINT('',(0.0212576319326641,0.0158724328008917,-0.03));
#789=CARTESIAN_POINT('',(0.0212576319326641,0.0308724328008917,-0.03));
#790=CARTESIAN_POINT('',(0.0212576319326641,0.0308724328008917,0.02));
#791=CARTESIAN_POINT('',(0.0212576319326641,0.0308724328008917,0.01));
#792=CARTESIAN_POINT('',(0.0212576319326641,0.0258724328008917,0.01));
#793=CARTESIAN_POINT('',(0.0212576319326641,0.0258724328008917,0.015));
#794=CARTESIAN_POINT('',(0.0212576319326641,0.0158724328008917,0.015));
#795=CARTESIAN_POINT('',(0.0212576319326641,0.0058724328008917,0.015));
#796=CARTESIAN_POINT('',(0.0212576319326641,0.0058724328008917,0.01));
#797=CARTESIAN_POINT('',(0.00125763193266412,0.0328724328008917,0.02));
#798=CARTESIAN_POINT('',(0.0182576319326641,0.0328724328008917,0.02));
#799=CARTESIAN_POINT('',(0.0182576319326641,0.0328724328008917,0.0165441391297525));
#800=CARTESIAN_POINT('',(0.0182576319326641,0.0328724328008917,0.003));
#801=CARTESIAN_POINT('',(0.0182576319326641,0.0328724328008917,0.0165441391297525));
#802=CARTESIAN_POINT('',(0.0176593544579402,0.0328724328008917,0.0169264817699284));
#803=CARTESIAN_POINT('',(0.0169683841527795,0.0328724328008917,0.0171414284285429));
#804=CARTESIAN_POINT('',(0.0162576319326641,0.0328724328008917,0.0171414284285429));
#805=CARTESIAN_POINT('',(0.0162576319326641,0.0328724328008917,0.0171414284285429));
#806=CARTESIAN_POINT('',(0.00125763193266412,0.0328724328008917,0.0171414284285429));
#807=CARTESIAN_POINT('',(-0.0131173680673359,0.0328724328008917,0.0171414284285429));
#808=CARTESIAN_POINT('',(-0.0131173680673359,0.0328724328008917,0.0171414284285429));
#809=CARTESIAN_POINT('',(-0.0140708709644443,0.0328724328008917,0.0171414284285428));
#810=CARTESIAN_POINT('',(-0.0149762130105237,0.0328724328008917,0.0167752779220506));
#811=CARTESIAN_POINT('',(-0.0157423680673359,0.0328724328008917,0.0162289943281588));
#812=CARTESIAN_POINT('',(-0.0157423680673359,0.0328724328008917,0.0162289943281588));
#813=CARTESIAN_POINT('',(-0.0157423680673359,0.0328724328008917,0.02));
#814=CARTESIAN_POINT('',(-0.0157423680673359,0.0328724328008917,0.003));
#815=CARTESIAN_POINT('',(0.00125763193266412,0.0328724328008917,0.003));
#816=CARTESIAN_POINT('',(-0.0157423680673359,0.0158724328008917,0.02));
#817=CARTESIAN_POINT('',(-0.0157423680673359,0.0328724328008917,0.0162289943281588));
#818=CARTESIAN_POINT('',(-0.0157423680673359,0.0324858590901606,0.0165046289717268));
#819=CARTESIAN_POINT('',(-0.0157423680673359,0.0316648303469588,0.01694983808319));
#820=CARTESIAN_POINT('',(-0.0157423680673359,0.0307200012014824,0.0171414284285428));
#821=CARTESIAN_POINT('',(-0.0157423680673359,0.0302474328008917,0.0171414284285428));
#822=CARTESIAN_POINT('',(-0.0157423680673359,0.0302474328008917,0.0171414284285429));
#823=CARTESIAN_POINT('',(-0.0157423680673359,0.0158724328008917,0.0171414284285429));
#824=CARTESIAN_POINT('',(-0.0157423680673359,0.00149743280089169,0.0171414284285429));
#825=CARTESIAN_POINT('',(-0.0157423680673359,0.00149743280089169,0.0171414284285429));
#826=CARTESIAN_POINT('',(-0.0157423680673359,0.000543954687512136,0.0171414284285429));
#827=CARTESIAN_POINT('',(-0.0157423680673359,-0.000361380110780905,0.0167753007611497));
#828=CARTESIAN_POINT('',(-0.0157423680673359,-0.00112756719910831,0.0162289943281588));
#829=CARTESIAN_POINT('',(-0.0157423680673359,-0.0011275671991083,0.0162289943281588));
#830=CARTESIAN_POINT('',(-0.0157423680673359,-0.0011275671991083,0.02));
#831=CARTESIAN_POINT('',(-0.0157423680673359,-0.0011275671991083,0.003));
#832=CARTESIAN_POINT('',(-0.0157423680673359,0.0158724328008917,0.003));
#833=CARTESIAN_POINT('',(0.00125763193266412,-0.0011275671991083,0.02));
#834=CARTESIAN_POINT('',(0.00125763193266411,-0.0011275671991083,0.0171414284285429));
#835=CARTESIAN_POINT('',(-0.0131173680673359,-0.0011275671991083,0.0171414284285429));
#836=CARTESIAN_POINT('',(0.0162576319326641,-0.0011275671991083,0.0171414284285429));
#837=CARTESIAN_POINT('',(0.0162576319326641,-0.0011275671991083,0.0171414284285429));
#838=CARTESIAN_POINT('',(0.0169686140705792,-0.0011275671991083,0.0171414284285429));
#839=CARTESIAN_POINT('',(0.0176590058965663,-0.0011275671991083,0.0169267045258929));
#840=CARTESIAN_POINT('',(0.0182576319326641,-0.0011275671991083,0.0165441391297525));
#841=CARTESIAN_POINT('',(0.0182576319326641,-0.0011275671991083,0.0165441391297525));
#842=CARTESIAN_POINT('',(0.0182576319326641,-0.0011275671991083,0.02));
#843=CARTESIAN_POINT('',(0.0182576319326641,-0.0011275671991083,0.003));
#844=CARTESIAN_POINT('',(0.00125763193266412,-0.0011275671991083,0.003));
#845=CARTESIAN_POINT('',(-0.0157423680673359,-0.0011275671991083,0.0162289943281588));
#846=CARTESIAN_POINT('',(-0.0153557943566048,-0.0011275671991083,0.0165046289717268));
#847=CARTESIAN_POINT('',(-0.014534765613403,-0.0011275671991083,0.01694983808319));
#848=CARTESIAN_POINT('',(-0.0135899364679266,-0.0011275671991083,0.0171414284285429));
#849=CARTESIAN_POINT('',(-0.0131173680673359,-0.0011275671991083,0.0171414284285429));
#850=CARTESIAN_POINT('',(0.0182576319326641,0.0158724328008917,0.02));
#851=CARTESIAN_POINT('',(0.0182576319326641,0.0058724328008917,0.0195825756949559));
#852=CARTESIAN_POINT('',(0.0182576319326641,0.0058724328008917,0.0195825756949559));
#853=CARTESIAN_POINT('',(0.0182576319326641,0.0258724328008917,0.0195825756949559));
#854=CARTESIAN_POINT('',(0.0182576319326641,0.0258724328008917,0.01));
#855=CARTESIAN_POINT('',(0.0182576319326641,0.0158724328008917,0.003));
#856=CARTESIAN_POINT('',(0.0182576319326641,0.0058724328008917,0.01));
#857=CARTESIAN_POINT('',(0.00125763193266411,0.0158724328008917,0.003));
#858=CARTESIAN_POINT('',(-0.00374236806733587,0.0283724328008917,-0.0075));
#859=CARTESIAN_POINT('',(-0.0149923680673359,0.0283724328008917,-0.0075));
#860=CARTESIAN_POINT('',(-0.0149923680673359,0.0283724328008917,0.002193752502002));
#861=CARTESIAN_POINT('',(-0.0149923680673359,0.0283724328008917,-0.00375));
#862=CARTESIAN_POINT('',(-0.00374236806733587,0.0283724328008917,-0.00375));
#863=CARTESIAN_POINT('',(-0.00874236806733589,0.0283724328008917,0.01));
#864=CARTESIAN_POINT('',(-0.00374236806733588,0.0033724328008917,-0.0075));
#865=CARTESIAN_POINT('',(-0.0149923680673359,0.0033724328008917,-0.00375));
#866=CARTESIAN_POINT('',(-0.0149923680673359,0.0033724328008917,-0.00375));
#867=CARTESIAN_POINT('',(-0.0149923680673359,0.0033724328008917,-0.0075));
#868=CARTESIAN_POINT('',(-0.0149923680673359,0.0033724328008917,0.002193752502002));
#869=CARTESIAN_POINT('',(-0.00874236806733589,0.0033724328008917,0.01));
#870=CARTESIAN_POINT('',(-0.0149923680673359,0.0321224328008917,0.02));
#871=CARTESIAN_POINT('',(-0.0149923680673359,0.0283724328008917,0.002193752502002));
#872=CARTESIAN_POINT('',(-0.0156400468800301,0.0283724328008917,0.00271231056467895));
#873=CARTESIAN_POINT('',(-0.01677447225017,0.0286963125105976,0.00388862670948622));
#874=CARTESIAN_POINT('',(-0.0183157081418796,0.0299769209479294,0.00651086749121684));
#875=CARTESIAN_POINT('',(-0.0187423680673359,0.0312673496084413,0.0086036541491115));
#876=CARTESIAN_POINT('',(-0.0187423680673359,0.0321224328008917,0.01));
#877=CARTESIAN_POINT('',(-0.0187423680673359,0.0321224328008917,0.01));
#878=CARTESIAN_POINT('',(-0.0149923680673359,0.0321224328008917,0.01));
#879=CARTESIAN_POINT('',(-0.0149923680673359,0.0321224328008917,-0.00375));
#880=CARTESIAN_POINT('',(-0.0149923680673359,-0.000377567199108304,-0.0075));
#881=CARTESIAN_POINT('',(-0.0149923680673359,-0.000377567199108304,0.01));
#882=CARTESIAN_POINT('',(-0.0187423680673359,-0.000377567199108305,0.01));
#883=CARTESIAN_POINT('',(-0.0149923680673359,0.0033724328008917,0.00219375250200201));
#884=CARTESIAN_POINT('',(-0.0156400468800301,0.0033724328008917,0.00271231056467895));
#885=CARTESIAN_POINT('',(-0.01677447225017,0.00304855309118564,0.00388862670948615));
#886=CARTESIAN_POINT('',(-0.0183157081418796,0.00176794465385462,0.00651086749121722));
#887=CARTESIAN_POINT('',(-0.0187423680673359,0.000477515993339445,0.00860365414910985));
#888=CARTESIAN_POINT('',(-0.0187423680673359,-0.000377567199108304,0.01));
#889=CARTESIAN_POINT('',(-0.0149923680673359,-0.000377567199108304,-0.00375));
#890=CARTESIAN_POINT('',(-0.00374236806733588,-0.000377567199108305,-0.00375));
#891=CARTESIAN_POINT('',(-0.0149923680673359,-0.000377567199108304,-0.00375));
#892=CARTESIAN_POINT('',(0.0112576319326641,0.000872432800891698,-0.00728553390593274));
#893=CARTESIAN_POINT('',(0.0112576319326641,0.000154603753081883,-0.00753932479965224));
#894=CARTESIAN_POINT('',(0.0116122063658384,-0.00139987466853933,-0.00755862806045263));
#895=CARTESIAN_POINT('',(0.0129524831919611,-0.00304117910664514,-0.00656742131344991));
#896=CARTESIAN_POINT('',(0.014547309987445,-0.00393331779747517,-0.00523129930688311));
#897=CARTESIAN_POINT('',(0.0156906197490301,-0.0041275671991083,-0.00424104686179119));
#898=CARTESIAN_POINT('',(0.0162576319326641,-0.0041275671991083,-0.00375));
#899=CARTESIAN_POINT('',(-0.0149923680673359,-0.000377567199108304,-0.00375));
#900=CARTESIAN_POINT('',(-0.0149923680673359,0.0321224328008917,-0.00375));
#901=CARTESIAN_POINT('',(-0.0149923680673359,0.0321224328008917,-0.00375));
#902=CARTESIAN_POINT('',(-0.00374236806733587,0.0321224328008917,-0.00375));
#903=CARTESIAN_POINT('',(0.0112576319326641,0.0308724328008917,-0.00728553390593274));
#904=CARTESIAN_POINT('',(0.0112576319326641,0.0315902618487015,-0.00753932479965224));
#905=CARTESIAN_POINT('',(0.0116122063658397,0.0331447402703228,-0.00755862806045418));
#906=CARTESIAN_POINT('',(0.0129524831919564,0.0347860447084285,-0.00656742131344447));
#907=CARTESIAN_POINT('',(0.0145473099874626,0.0356781833992586,-0.00523129930690334));
#908=CARTESIAN_POINT('',(0.0156906197489924,0.0358724328008917,-0.00424104686174765));
#909=CARTESIAN_POINT('',(0.0162576319326641,0.0358724328008917,-0.00375));
#910=CARTESIAN_POINT('',(0.00125763193266411,0.0058724328008917,0.01));
#911=CARTESIAN_POINT('',(0.0162576319326641,0.0058724328008917,0.01));
#912=CARTESIAN_POINT('',(-0.00874236806733589,0.0058724328008917,0.01));
#913=CARTESIAN_POINT('',(-0.0149923680673359,-0.0041275671991083,0.01));
#914=CARTESIAN_POINT('',(-0.0187423680673359,-0.0041275671991083,0.01));
#915=CARTESIAN_POINT('',(-0.0187423680673359,-0.000377567199108302,0.01));
#916=CARTESIAN_POINT('',(-0.0149923680673355,-0.0041275671991083,0.0106668093583264));
#917=CARTESIAN_POINT('',(-0.0187423680673309,-0.0041275671991036,0.0109168628698324));
#918=CARTESIAN_POINT('',(-0.0187423680673359,-0.000377567199107941,0.0106668093583264));
#919=CARTESIAN_POINT('',(-0.0149087205781761,-0.00399373121645234,0.0120004075544414));
#920=CARTESIAN_POINT('',(-0.0185089559221651,-0.00389415505393747,0.0127127385520153));
#921=CARTESIAN_POINT('',(-0.0186085320846799,-0.0002939197099485,0.0120004075544414));
#922=CARTESIAN_POINT('',(-0.0145373120073492,-0.00339947750312964,0.0139210365102717));
#923=CARTESIAN_POINT('',(-0.0175775107471194,-0.0029627098788916,0.0150194240102311));
#924=CARTESIAN_POINT('',(-0.0180142783713573,7.74888608784247E-5,0.0139210365102717));
#925=CARTESIAN_POINT('',(-0.0139347767429533,-0.002435421080096,0.0156852780667231));
#926=CARTESIAN_POINT('',(-0.016306607744721,-0.00169180687649416,0.0167844054180481));
#927=CARTESIAN_POINT('',(-0.0170502219483235,0.000680024125274305,0.0156852780667232));
#928=CARTESIAN_POINT('',(-0.0133950293192427,-0.00157182520215946,0.0167102650843155));
#929=CARTESIAN_POINT('',(-0.0153249230589702,-0.000710122190741044,0.01766445354842));
#930=CARTESIAN_POINT('',(-0.0161866260703873,0.00121977154898488,0.0167102650843152));
#931=CARTESIAN_POINT('',(-0.0130960172620513,-0.00109340591065295,0.0171747537271147));
#932=CARTESIAN_POINT('',(-0.0148204955305557,-0.00020569466232809,0.0180366165329258));
#933=CARTESIAN_POINT('',(-0.0157082067788805,0.00151878360617629,0.0171747537271147));
#934=CARTESIAN_POINT('',(-0.00874236806733589,0.0058724328008917,0.01));
#935=CARTESIAN_POINT('',(-0.00874236806733589,0.0158724328008917,0.01));
#936=CARTESIAN_POINT('',(-0.00874236806733589,0.0258724328008917,0.01));
#937=CARTESIAN_POINT('',(-0.0130960172620513,0.0328382715124364,0.0171747537271147));
#938=CARTESIAN_POINT('',(-0.0148204955305557,0.0319505602641115,0.0180366165329258));
#939=CARTESIAN_POINT('',(-0.0157082067788805,0.0302260819956071,0.0171747537271147));
#940=CARTESIAN_POINT('',(-0.0133950293192433,0.0333166908039448,0.0167102650843136));
#941=CARTESIAN_POINT('',(-0.0153249230589667,0.0324549877925263,0.0176644535484209));
#942=CARTESIAN_POINT('',(-0.0161866260703872,0.0305250940528004,0.0167102650843154));
#943=CARTESIAN_POINT('',(-0.013934776742953,0.0341802866818785,0.0156852780667239));
#944=CARTESIAN_POINT('',(-0.0163066077447226,0.0334366724782768,0.0167844054180477));
#945=CARTESIAN_POINT('',(-0.0170502219483235,0.0310648414765084,0.0156852780667231));
#946=CARTESIAN_POINT('',(-0.0145373120073492,0.0351443431049133,0.0139210365102715));
#947=CARTESIAN_POINT('',(-0.0175775107471189,0.0347075754806744,0.0150194240102313));
#948=CARTESIAN_POINT('',(-0.0180142783713572,0.0316673767409046,0.0139210365102717));
#949=CARTESIAN_POINT('',(-0.0149087205781761,0.0357385968182357,0.0120004075544413));
#950=CARTESIAN_POINT('',(-0.0185089559221653,0.0356390206557243,0.0127127385520146));
#951=CARTESIAN_POINT('',(-0.0186085320846799,0.0320387853117343,0.0120004075544413));
#952=CARTESIAN_POINT('',(-0.0149923680673355,0.0358724328008917,0.0106668093583267));
#953=CARTESIAN_POINT('',(-0.0187423680673309,0.0358724328008794,0.010916862869834));
#954=CARTESIAN_POINT('',(-0.0187423680673359,0.0321224328008859,0.0106668093583267));
#955=CARTESIAN_POINT('',(-0.0149923680673359,0.0358724328008917,0.00999999999999999));
#956=CARTESIAN_POINT('',(-0.0187423680673359,0.0358724328008917,0.00999999999999999));
#957=CARTESIAN_POINT('',(-0.0187423680673359,0.0321224328008917,0.00999999999999999));
#958=CARTESIAN_POINT('',(-0.00874236806733589,0.0258724328008917,0.01));
#959=CARTESIAN_POINT('',(0.00125763193266412,0.0258724328008917,0.01));
#960=CARTESIAN_POINT('',(0.0162576319326641,0.0258724328008917,0.01));
#961=CARTESIAN_POINT('',(0.0162576319326641,0.000872432800891696,-0.035));
#962=CARTESIAN_POINT('',(0.0162576319326641,0.000872432800891696,-0.03));
#963=CARTESIAN_POINT('',(0.0162576319326641,0.000872432800891696,0.01));
#964=CARTESIAN_POINT('',(0.0162576319326641,0.0058724328008917,0.01));
#965=CARTESIAN_POINT('',(0.0162576319326641,0.0058724328008917,0.015));
#966=CARTESIAN_POINT('',(0.0162576319326641,0.0158724328008917,0.015));
#967=CARTESIAN_POINT('',(0.0162576319326641,0.0258724328008917,0.015));
#968=CARTESIAN_POINT('',(0.0162576319326641,0.0258724328008917,0.01));
#969=CARTESIAN_POINT('',(0.0162576319326641,0.0308724328008917,0.01));
#970=CARTESIAN_POINT('',(0.0162576319326641,0.0308724328008917,0.02));
#971=CARTESIAN_POINT('',(0.0162576319326641,0.0308724328008917,-0.03));
#972=CARTESIAN_POINT('',(0.0162576319326641,0.0308724328008917,-0.03));
#973=CARTESIAN_POINT('',(0.0162576319326641,0.0308724328008917,-0.03));
#974=CARTESIAN_POINT('',(0.0162576319326641,0.0158724328008917,-0.03));
#975=CARTESIAN_POINT('',(0.0162576319326641,0.000872432800891696,-0.03));
#976=CARTESIAN_POINT('',(0.0162576319326641,0.000872432800891696,-0.03));
#977=MECHANICAL_DESIGN_GEOMETRIC_PRESENTATION_REPRESENTATION('',(#520),
#978);
#978=(
GEOMETRIC_REPRESENTATION_CONTEXT(3)
GLOBAL_UNCERTAINTY_ASSIGNED_CONTEXT((#979))
GLOBAL_UNIT_ASSIGNED_CONTEXT((#982,#981,#980))
REPRESENTATION_CONTEXT('Part 1','TOP_LEVEL_ASSEMBLY_PART')
);
#979=UNCERTAINTY_MEASURE_WITH_UNIT(LENGTH_MEASURE(2.E-5),#982,
'DISTANCE_ACCURACY_VALUE','Maximum Tolerance applied to model');
#980=(
NAMED_UNIT(*)
SI_UNIT($,.STERADIAN.)
SOLID_ANGLE_UNIT()
);
#981=(
NAMED_UNIT(*)
PLANE_ANGLE_UNIT()
SI_UNIT($,.RADIAN.)
);
#982=(
LENGTH_UNIT()
NAMED_UNIT(*)
SI_UNIT($,.METRE.)
);
#983=PRODUCT_DEFINITION_SHAPE('','',#984);
#984=PRODUCT_DEFINITION('','',#986,#985);
#985=PRODUCT_DEFINITION_CONTEXT('',#992,'design');
#986=PRODUCT_DEFINITION_FORMATION_WITH_SPECIFIED_SOURCE('','',#988,
 .NOT_KNOWN.);
#987=PRODUCT_RELATED_PRODUCT_CATEGORY('','',(#988));
#988=PRODUCT('Part 1','Part 1','Part 1',(#990));
#989=PRODUCT_CATEGORY('','');
#990=PRODUCT_CONTEXT('',#992,'mechanical');
#991=APPLICATION_PROTOCOL_DEFINITION('international standard',
'ap242_managed_model_based_3d_engineering',2020,#992);
#992=APPLICATION_CONTEXT('managed model based 3d engineering');
ENDSEC;
END-ISO-10303-21;
