ISO-10303-21;
HEADER;
/* Generated by software containing ST-Developer
 * from STEP Tools, Inc. (www.steptools.com) 
 */
/* OPTION: using custom renumber hook */

FILE_DESCRIPTION(
/* description */ ('STEP AP242 Edition 2',
'CAx-IF Rec.Pracs.---Representation and Presentation of Product Manufa
cturing Information (PMI)---4.0---2014-10-13',
'CAx-IF Rec.Pracs.---3D Tessellated Geometry---0.4---2014-09-14','2;1',
'CAx-IF Rec.Pracs.---User Defined Attributes---1.5---2016-08-15'),
/* implementation_level */ '2;1');

FILE_NAME(
/* name */ 'CORNER BOOKSHELF',
/* time_stamp */ '2026-09-08T17:45:20Z',
/* author */ (''),
/* organization */ (''),
/* preprocessor_version */ 'ST-DEVELOPER v20',
/* originating_system */ 'ONSHAPE BY PTC INC, 1.220',
/* authorisation */ '  ');

FILE_SCHEMA (('AP242_MANAGED_MODEL_BASED_3D_ENGINEERING_MIM_LF { 1 0 10303 442 3 1 4 }'));
ENDSEC;

DATA;
#10=SHAPE_REPRESENTATION_RELATIONSHIP('','',#967,#11);
#11=ADVANCED_BREP_SHAPE_REPRESENTATION('',(#965),#1521);
#12=ORIENTED_EDGE('',*,*,#264,.F.);
#13=ORIENTED_EDGE('',*,*,#265,.T.);
#14=ORIENTED_EDGE('',*,*,#266,.T.);
#15=ORIENTED_EDGE('',*,*,#267,.F.);
#16=ORIENTED_EDGE('',*,*,#268,.T.);
#17=ORIENTED_EDGE('',*,*,#269,.F.);
#18=ORIENTED_EDGE('',*,*,#270,.T.);
#19=ORIENTED_EDGE('',*,*,#271,.T.);
#20=ORIENTED_EDGE('',*,*,#272,.F.);
#21=ORIENTED_EDGE('',*,*,#273,.F.);
#22=ORIENTED_EDGE('',*,*,#274,.F.);
#23=ORIENTED_EDGE('',*,*,#275,.F.);
#24=ORIENTED_EDGE('',*,*,#267,.T.);
#25=ORIENTED_EDGE('',*,*,#276,.T.);
#26=ORIENTED_EDGE('',*,*,#277,.F.);
#27=ORIENTED_EDGE('',*,*,#278,.T.);
#28=ORIENTED_EDGE('',*,*,#279,.T.);
#29=ORIENTED_EDGE('',*,*,#280,.F.);
#30=ORIENTED_EDGE('',*,*,#281,.F.);
#31=ORIENTED_EDGE('',*,*,#282,.T.);
#32=ORIENTED_EDGE('',*,*,#283,.T.);
#33=ORIENTED_EDGE('',*,*,#284,.F.);
#34=ORIENTED_EDGE('',*,*,#285,.F.);
#35=ORIENTED_EDGE('',*,*,#286,.T.);
#36=ORIENTED_EDGE('',*,*,#287,.T.);
#37=ORIENTED_EDGE('',*,*,#288,.F.);
#38=ORIENTED_EDGE('',*,*,#289,.F.);
#39=ORIENTED_EDGE('',*,*,#290,.T.);
#40=ORIENTED_EDGE('',*,*,#291,.T.);
#41=ORIENTED_EDGE('',*,*,#292,.F.);
#42=ORIENTED_EDGE('',*,*,#293,.T.);
#43=ORIENTED_EDGE('',*,*,#294,.T.);
#44=ORIENTED_EDGE('',*,*,#295,.F.);
#45=ORIENTED_EDGE('',*,*,#296,.F.);
#46=ORIENTED_EDGE('',*,*,#297,.T.);
#47=ORIENTED_EDGE('',*,*,#298,.T.);
#48=ORIENTED_EDGE('',*,*,#299,.F.);
#49=ORIENTED_EDGE('',*,*,#300,.F.);
#50=ORIENTED_EDGE('',*,*,#301,.T.);
#51=ORIENTED_EDGE('',*,*,#302,.F.);
#52=ORIENTED_EDGE('',*,*,#268,.F.);
#53=ORIENTED_EDGE('',*,*,#275,.T.);
#54=ORIENTED_EDGE('',*,*,#303,.T.);
#55=ORIENTED_EDGE('',*,*,#304,.T.);
#56=ORIENTED_EDGE('',*,*,#305,.F.);
#57=ORIENTED_EDGE('',*,*,#306,.F.);
#58=ORIENTED_EDGE('',*,*,#307,.T.);
#59=ORIENTED_EDGE('',*,*,#308,.T.);
#60=ORIENTED_EDGE('',*,*,#309,.F.);
#61=ORIENTED_EDGE('',*,*,#310,.F.);
#62=ORIENTED_EDGE('',*,*,#311,.F.);
#63=ORIENTED_EDGE('',*,*,#312,.F.);
#64=ORIENTED_EDGE('',*,*,#264,.T.);
#65=ORIENTED_EDGE('',*,*,#313,.T.);
#66=ORIENTED_EDGE('',*,*,#314,.F.);
#67=ORIENTED_EDGE('',*,*,#313,.F.);
#68=ORIENTED_EDGE('',*,*,#269,.T.);
#69=ORIENTED_EDGE('',*,*,#302,.T.);
#70=ORIENTED_EDGE('',*,*,#315,.T.);
#71=ORIENTED_EDGE('',*,*,#276,.F.);
#72=ORIENTED_EDGE('',*,*,#266,.F.);
#73=ORIENTED_EDGE('',*,*,#316,.T.);
#74=ORIENTED_EDGE('',*,*,#317,.T.);
#75=ORIENTED_EDGE('',*,*,#316,.F.);
#76=ORIENTED_EDGE('',*,*,#265,.F.);
#77=ORIENTED_EDGE('',*,*,#312,.T.);
#78=ORIENTED_EDGE('',*,*,#311,.T.);
#79=ORIENTED_EDGE('',*,*,#314,.T.);
#80=ORIENTED_EDGE('',*,*,#301,.F.);
#81=ORIENTED_EDGE('',*,*,#274,.T.);
#82=ORIENTED_EDGE('',*,*,#315,.F.);
#83=ORIENTED_EDGE('',*,*,#317,.F.);
#84=ORIENTED_EDGE('',*,*,#297,.F.);
#85=ORIENTED_EDGE('',*,*,#318,.F.);
#86=ORIENTED_EDGE('',*,*,#319,.T.);
#87=ORIENTED_EDGE('',*,*,#320,.T.);
#88=ORIENTED_EDGE('',*,*,#300,.T.);
#89=ORIENTED_EDGE('',*,*,#321,.F.);
#90=ORIENTED_EDGE('',*,*,#322,.F.);
#91=ORIENTED_EDGE('',*,*,#318,.T.);
#92=ORIENTED_EDGE('',*,*,#299,.T.);
#93=ORIENTED_EDGE('',*,*,#323,.F.);
#94=ORIENTED_EDGE('',*,*,#324,.F.);
#95=ORIENTED_EDGE('',*,*,#321,.T.);
#96=ORIENTED_EDGE('',*,*,#298,.F.);
#97=ORIENTED_EDGE('',*,*,#320,.F.);
#98=ORIENTED_EDGE('',*,*,#325,.T.);
#99=ORIENTED_EDGE('',*,*,#323,.T.);
#100=ORIENTED_EDGE('',*,*,#319,.F.);
#101=ORIENTED_EDGE('',*,*,#322,.T.);
#102=ORIENTED_EDGE('',*,*,#324,.T.);
#103=ORIENTED_EDGE('',*,*,#325,.F.);
#104=ORIENTED_EDGE('',*,*,#303,.F.);
#105=ORIENTED_EDGE('',*,*,#326,.F.);
#106=ORIENTED_EDGE('',*,*,#327,.T.);
#107=ORIENTED_EDGE('',*,*,#328,.T.);
#108=ORIENTED_EDGE('',*,*,#306,.T.);
#109=ORIENTED_EDGE('',*,*,#329,.F.);
#110=ORIENTED_EDGE('',*,*,#330,.F.);
#111=ORIENTED_EDGE('',*,*,#326,.T.);
#112=ORIENTED_EDGE('',*,*,#305,.T.);
#113=ORIENTED_EDGE('',*,*,#331,.F.);
#114=ORIENTED_EDGE('',*,*,#332,.F.);
#115=ORIENTED_EDGE('',*,*,#329,.T.);
#116=ORIENTED_EDGE('',*,*,#304,.F.);
#117=ORIENTED_EDGE('',*,*,#328,.F.);
#118=ORIENTED_EDGE('',*,*,#333,.T.);
#119=ORIENTED_EDGE('',*,*,#331,.T.);
#120=ORIENTED_EDGE('',*,*,#327,.F.);
#121=ORIENTED_EDGE('',*,*,#330,.T.);
#122=ORIENTED_EDGE('',*,*,#332,.T.);
#123=ORIENTED_EDGE('',*,*,#333,.F.);
#124=ORIENTED_EDGE('',*,*,#293,.F.);
#125=ORIENTED_EDGE('',*,*,#334,.F.);
#126=ORIENTED_EDGE('',*,*,#335,.T.);
#127=ORIENTED_EDGE('',*,*,#336,.T.);
#128=ORIENTED_EDGE('',*,*,#296,.T.);
#129=ORIENTED_EDGE('',*,*,#337,.F.);
#130=ORIENTED_EDGE('',*,*,#338,.F.);
#131=ORIENTED_EDGE('',*,*,#334,.T.);
#132=ORIENTED_EDGE('',*,*,#295,.T.);
#133=ORIENTED_EDGE('',*,*,#339,.F.);
#134=ORIENTED_EDGE('',*,*,#340,.F.);
#135=ORIENTED_EDGE('',*,*,#337,.T.);
#136=ORIENTED_EDGE('',*,*,#294,.F.);
#137=ORIENTED_EDGE('',*,*,#336,.F.);
#138=ORIENTED_EDGE('',*,*,#341,.T.);
#139=ORIENTED_EDGE('',*,*,#339,.T.);
#140=ORIENTED_EDGE('',*,*,#335,.F.);
#141=ORIENTED_EDGE('',*,*,#338,.T.);
#142=ORIENTED_EDGE('',*,*,#340,.T.);
#143=ORIENTED_EDGE('',*,*,#341,.F.);
#144=ORIENTED_EDGE('',*,*,#307,.F.);
#145=ORIENTED_EDGE('',*,*,#342,.F.);
#146=ORIENTED_EDGE('',*,*,#343,.T.);
#147=ORIENTED_EDGE('',*,*,#344,.T.);
#148=ORIENTED_EDGE('',*,*,#310,.T.);
#149=ORIENTED_EDGE('',*,*,#345,.F.);
#150=ORIENTED_EDGE('',*,*,#346,.F.);
#151=ORIENTED_EDGE('',*,*,#342,.T.);
#152=ORIENTED_EDGE('',*,*,#309,.T.);
#153=ORIENTED_EDGE('',*,*,#347,.F.);
#154=ORIENTED_EDGE('',*,*,#348,.F.);
#155=ORIENTED_EDGE('',*,*,#345,.T.);
#156=ORIENTED_EDGE('',*,*,#308,.F.);
#157=ORIENTED_EDGE('',*,*,#344,.F.);
#158=ORIENTED_EDGE('',*,*,#349,.T.);
#159=ORIENTED_EDGE('',*,*,#347,.T.);
#160=ORIENTED_EDGE('',*,*,#343,.F.);
#161=ORIENTED_EDGE('',*,*,#346,.T.);
#162=ORIENTED_EDGE('',*,*,#348,.T.);
#163=ORIENTED_EDGE('',*,*,#349,.F.);
#164=ORIENTED_EDGE('',*,*,#278,.F.);
#165=ORIENTED_EDGE('',*,*,#350,.F.);
#166=ORIENTED_EDGE('',*,*,#351,.T.);
#167=ORIENTED_EDGE('',*,*,#352,.T.);
#168=ORIENTED_EDGE('',*,*,#277,.T.);
#169=ORIENTED_EDGE('',*,*,#353,.F.);
#170=ORIENTED_EDGE('',*,*,#354,.F.);
#171=ORIENTED_EDGE('',*,*,#350,.T.);
#172=ORIENTED_EDGE('',*,*,#280,.T.);
#173=ORIENTED_EDGE('',*,*,#355,.F.);
#174=ORIENTED_EDGE('',*,*,#356,.F.);
#175=ORIENTED_EDGE('',*,*,#353,.T.);
#176=ORIENTED_EDGE('',*,*,#279,.F.);
#177=ORIENTED_EDGE('',*,*,#352,.F.);
#178=ORIENTED_EDGE('',*,*,#357,.T.);
#179=ORIENTED_EDGE('',*,*,#355,.T.);
#180=ORIENTED_EDGE('',*,*,#351,.F.);
#181=ORIENTED_EDGE('',*,*,#354,.T.);
#182=ORIENTED_EDGE('',*,*,#356,.T.);
#183=ORIENTED_EDGE('',*,*,#357,.F.);
#184=ORIENTED_EDGE('',*,*,#282,.F.);
#185=ORIENTED_EDGE('',*,*,#358,.F.);
#186=ORIENTED_EDGE('',*,*,#359,.T.);
#187=ORIENTED_EDGE('',*,*,#360,.T.);
#188=ORIENTED_EDGE('',*,*,#281,.T.);
#189=ORIENTED_EDGE('',*,*,#361,.F.);
#190=ORIENTED_EDGE('',*,*,#362,.F.);
#191=ORIENTED_EDGE('',*,*,#358,.T.);
#192=ORIENTED_EDGE('',*,*,#284,.T.);
#193=ORIENTED_EDGE('',*,*,#363,.F.);
#194=ORIENTED_EDGE('',*,*,#364,.F.);
#195=ORIENTED_EDGE('',*,*,#361,.T.);
#196=ORIENTED_EDGE('',*,*,#283,.F.);
#197=ORIENTED_EDGE('',*,*,#360,.F.);
#198=ORIENTED_EDGE('',*,*,#365,.T.);
#199=ORIENTED_EDGE('',*,*,#363,.T.);
#200=ORIENTED_EDGE('',*,*,#359,.F.);
#201=ORIENTED_EDGE('',*,*,#362,.T.);
#202=ORIENTED_EDGE('',*,*,#364,.T.);
#203=ORIENTED_EDGE('',*,*,#365,.F.);
#204=ORIENTED_EDGE('',*,*,#286,.F.);
#205=ORIENTED_EDGE('',*,*,#366,.F.);
#206=ORIENTED_EDGE('',*,*,#367,.T.);
#207=ORIENTED_EDGE('',*,*,#368,.T.);
#208=ORIENTED_EDGE('',*,*,#285,.T.);
#209=ORIENTED_EDGE('',*,*,#369,.F.);
#210=ORIENTED_EDGE('',*,*,#370,.F.);
#211=ORIENTED_EDGE('',*,*,#366,.T.);
#212=ORIENTED_EDGE('',*,*,#288,.T.);
#213=ORIENTED_EDGE('',*,*,#371,.F.);
#214=ORIENTED_EDGE('',*,*,#372,.F.);
#215=ORIENTED_EDGE('',*,*,#369,.T.);
#216=ORIENTED_EDGE('',*,*,#287,.F.);
#217=ORIENTED_EDGE('',*,*,#368,.F.);
#218=ORIENTED_EDGE('',*,*,#373,.T.);
#219=ORIENTED_EDGE('',*,*,#371,.T.);
#220=ORIENTED_EDGE('',*,*,#367,.F.);
#221=ORIENTED_EDGE('',*,*,#370,.T.);
#222=ORIENTED_EDGE('',*,*,#372,.T.);
#223=ORIENTED_EDGE('',*,*,#373,.F.);
#224=ORIENTED_EDGE('',*,*,#290,.F.);
#225=ORIENTED_EDGE('',*,*,#374,.F.);
#226=ORIENTED_EDGE('',*,*,#375,.T.);
#227=ORIENTED_EDGE('',*,*,#376,.T.);
#228=ORIENTED_EDGE('',*,*,#289,.T.);
#229=ORIENTED_EDGE('',*,*,#377,.F.);
#230=ORIENTED_EDGE('',*,*,#378,.F.);
#231=ORIENTED_EDGE('',*,*,#374,.T.);
#232=ORIENTED_EDGE('',*,*,#292,.T.);
#233=ORIENTED_EDGE('',*,*,#379,.F.);
#234=ORIENTED_EDGE('',*,*,#380,.F.);
#235=ORIENTED_EDGE('',*,*,#377,.T.);
#236=ORIENTED_EDGE('',*,*,#291,.F.);
#237=ORIENTED_EDGE('',*,*,#376,.F.);
#238=ORIENTED_EDGE('',*,*,#381,.T.);
#239=ORIENTED_EDGE('',*,*,#379,.T.);
#240=ORIENTED_EDGE('',*,*,#375,.F.);
#241=ORIENTED_EDGE('',*,*,#378,.T.);
#242=ORIENTED_EDGE('',*,*,#380,.T.);
#243=ORIENTED_EDGE('',*,*,#381,.F.);
#244=ORIENTED_EDGE('',*,*,#270,.F.);
#245=ORIENTED_EDGE('',*,*,#382,.F.);
#246=ORIENTED_EDGE('',*,*,#383,.T.);
#247=ORIENTED_EDGE('',*,*,#384,.T.);
#248=ORIENTED_EDGE('',*,*,#273,.T.);
#249=ORIENTED_EDGE('',*,*,#385,.F.);
#250=ORIENTED_EDGE('',*,*,#386,.F.);
#251=ORIENTED_EDGE('',*,*,#382,.T.);
#252=ORIENTED_EDGE('',*,*,#272,.T.);
#253=ORIENTED_EDGE('',*,*,#387,.F.);
#254=ORIENTED_EDGE('',*,*,#388,.F.);
#255=ORIENTED_EDGE('',*,*,#385,.T.);
#256=ORIENTED_EDGE('',*,*,#271,.F.);
#257=ORIENTED_EDGE('',*,*,#384,.F.);
#258=ORIENTED_EDGE('',*,*,#389,.T.);
#259=ORIENTED_EDGE('',*,*,#387,.T.);
#260=ORIENTED_EDGE('',*,*,#383,.F.);
#261=ORIENTED_EDGE('',*,*,#386,.T.);
#262=ORIENTED_EDGE('',*,*,#388,.T.);
#263=ORIENTED_EDGE('',*,*,#389,.F.);
#264=EDGE_CURVE('',#390,#391,#474,.T.);
#265=EDGE_CURVE('',#390,#392,#475,.T.);
#266=EDGE_CURVE('',#392,#393,#476,.T.);
#267=EDGE_CURVE('',#394,#393,#477,.T.);
#268=EDGE_CURVE('',#394,#395,#478,.T.);
#269=EDGE_CURVE('',#391,#395,#479,.T.);
#270=EDGE_CURVE('',#396,#397,#480,.T.);
#271=EDGE_CURVE('',#397,#398,#481,.T.);
#272=EDGE_CURVE('',#399,#398,#482,.T.);
#273=EDGE_CURVE('',#396,#399,#483,.T.);
#274=EDGE_CURVE('',#400,#401,#484,.T.);
#275=EDGE_CURVE('',#394,#400,#485,.T.);
#276=EDGE_CURVE('',#393,#401,#486,.T.);
#277=EDGE_CURVE('',#402,#403,#487,.T.);
#278=EDGE_CURVE('',#402,#404,#488,.T.);
#279=EDGE_CURVE('',#404,#405,#489,.T.);
#280=EDGE_CURVE('',#403,#405,#490,.T.);
#281=EDGE_CURVE('',#406,#407,#491,.T.);
#282=EDGE_CURVE('',#406,#408,#492,.T.);
#283=EDGE_CURVE('',#408,#409,#493,.T.);
#284=EDGE_CURVE('',#407,#409,#494,.T.);
#285=EDGE_CURVE('',#410,#411,#495,.T.);
#286=EDGE_CURVE('',#410,#412,#496,.T.);
#287=EDGE_CURVE('',#412,#413,#497,.T.);
#288=EDGE_CURVE('',#411,#413,#498,.T.);
#289=EDGE_CURVE('',#414,#415,#499,.T.);
#290=EDGE_CURVE('',#414,#416,#500,.T.);
#291=EDGE_CURVE('',#416,#417,#501,.T.);
#292=EDGE_CURVE('',#415,#417,#502,.T.);
#293=EDGE_CURVE('',#418,#419,#503,.T.);
#294=EDGE_CURVE('',#419,#420,#504,.T.);
#295=EDGE_CURVE('',#421,#420,#505,.T.);
#296=EDGE_CURVE('',#418,#421,#506,.T.);
#297=EDGE_CURVE('',#422,#423,#507,.T.);
#298=EDGE_CURVE('',#423,#424,#508,.T.);
#299=EDGE_CURVE('',#425,#424,#509,.T.);
#300=EDGE_CURVE('',#422,#425,#510,.T.);
#301=EDGE_CURVE('',#400,#426,#511,.T.);
#302=EDGE_CURVE('',#395,#426,#512,.T.);
#303=EDGE_CURVE('',#427,#428,#513,.T.);
#304=EDGE_CURVE('',#428,#429,#514,.T.);
#305=EDGE_CURVE('',#430,#429,#515,.T.);
#306=EDGE_CURVE('',#427,#430,#516,.T.);
#307=EDGE_CURVE('',#431,#432,#517,.T.);
#308=EDGE_CURVE('',#432,#433,#518,.T.);
#309=EDGE_CURVE('',#434,#433,#519,.T.);
#310=EDGE_CURVE('',#431,#434,#520,.T.);
#311=EDGE_CURVE('',#435,#436,#521,.T.);
#312=EDGE_CURVE('',#390,#435,#522,.T.);
#313=EDGE_CURVE('',#391,#436,#523,.T.);
#314=EDGE_CURVE('',#436,#426,#524,.T.);
#315=EDGE_CURVE('',#437,#401,#525,.T.);
#316=EDGE_CURVE('',#392,#437,#526,.T.);
#317=EDGE_CURVE('',#435,#437,#527,.T.);
#318=EDGE_CURVE('',#438,#422,#528,.T.);
#319=EDGE_CURVE('',#438,#439,#529,.T.);
#320=EDGE_CURVE('',#439,#423,#530,.T.);
#321=EDGE_CURVE('',#440,#425,#531,.T.);
#322=EDGE_CURVE('',#438,#440,#532,.T.);
#323=EDGE_CURVE('',#441,#424,#533,.T.);
#324=EDGE_CURVE('',#440,#441,#534,.T.);
#325=EDGE_CURVE('',#439,#441,#535,.T.);
#326=EDGE_CURVE('',#442,#427,#536,.T.);
#327=EDGE_CURVE('',#442,#443,#537,.T.);
#328=EDGE_CURVE('',#443,#428,#538,.T.);
#329=EDGE_CURVE('',#444,#430,#539,.T.);
#330=EDGE_CURVE('',#442,#444,#540,.T.);
#331=EDGE_CURVE('',#445,#429,#541,.T.);
#332=EDGE_CURVE('',#444,#445,#542,.T.);
#333=EDGE_CURVE('',#443,#445,#543,.T.);
#334=EDGE_CURVE('',#446,#418,#544,.T.);
#335=EDGE_CURVE('',#446,#447,#545,.T.);
#336=EDGE_CURVE('',#447,#419,#546,.T.);
#337=EDGE_CURVE('',#448,#421,#547,.T.);
#338=EDGE_CURVE('',#446,#448,#548,.T.);
#339=EDGE_CURVE('',#449,#420,#549,.T.);
#340=EDGE_CURVE('',#448,#449,#550,.T.);
#341=EDGE_CURVE('',#447,#449,#551,.T.);
#342=EDGE_CURVE('',#450,#431,#552,.T.);
#343=EDGE_CURVE('',#450,#451,#553,.T.);
#344=EDGE_CURVE('',#451,#432,#554,.T.);
#345=EDGE_CURVE('',#452,#434,#555,.T.);
#346=EDGE_CURVE('',#450,#452,#556,.T.);
#347=EDGE_CURVE('',#453,#433,#557,.T.);
#348=EDGE_CURVE('',#452,#453,#558,.T.);
#349=EDGE_CURVE('',#451,#453,#559,.T.);
#350=EDGE_CURVE('',#454,#402,#560,.T.);
#351=EDGE_CURVE('',#454,#455,#561,.T.);
#352=EDGE_CURVE('',#455,#404,#562,.T.);
#353=EDGE_CURVE('',#456,#403,#563,.T.);
#354=EDGE_CURVE('',#454,#456,#564,.T.);
#355=EDGE_CURVE('',#457,#405,#565,.T.);
#356=EDGE_CURVE('',#456,#457,#566,.T.);
#357=EDGE_CURVE('',#455,#457,#567,.T.);
#358=EDGE_CURVE('',#458,#406,#568,.T.);
#359=EDGE_CURVE('',#458,#459,#569,.T.);
#360=EDGE_CURVE('',#459,#408,#570,.T.);
#361=EDGE_CURVE('',#460,#407,#571,.T.);
#362=EDGE_CURVE('',#458,#460,#572,.T.);
#363=EDGE_CURVE('',#461,#409,#573,.T.);
#364=EDGE_CURVE('',#460,#461,#574,.T.);
#365=EDGE_CURVE('',#459,#461,#575,.T.);
#366=EDGE_CURVE('',#462,#410,#576,.T.);
#367=EDGE_CURVE('',#462,#463,#577,.T.);
#368=EDGE_CURVE('',#463,#412,#578,.T.);
#369=EDGE_CURVE('',#464,#411,#579,.T.);
#370=EDGE_CURVE('',#462,#464,#580,.T.);
#371=EDGE_CURVE('',#465,#413,#581,.T.);
#372=EDGE_CURVE('',#464,#465,#582,.T.);
#373=EDGE_CURVE('',#463,#465,#583,.T.);
#374=EDGE_CURVE('',#466,#414,#584,.T.);
#375=EDGE_CURVE('',#466,#467,#585,.T.);
#376=EDGE_CURVE('',#467,#416,#586,.T.);
#377=EDGE_CURVE('',#468,#415,#587,.T.);
#378=EDGE_CURVE('',#466,#468,#588,.T.);
#379=EDGE_CURVE('',#469,#417,#589,.T.);
#380=EDGE_CURVE('',#468,#469,#590,.T.);
#381=EDGE_CURVE('',#467,#469,#591,.T.);
#382=EDGE_CURVE('',#470,#396,#592,.T.);
#383=EDGE_CURVE('',#470,#471,#593,.T.);
#384=EDGE_CURVE('',#471,#397,#594,.T.);
#385=EDGE_CURVE('',#472,#399,#595,.T.);
#386=EDGE_CURVE('',#470,#472,#596,.T.);
#387=EDGE_CURVE('',#473,#398,#597,.T.);
#388=EDGE_CURVE('',#472,#473,#598,.T.);
#389=EDGE_CURVE('',#471,#473,#599,.T.);
#390=VERTEX_POINT('',#1259);
#391=VERTEX_POINT('',#1260);
#392=VERTEX_POINT('',#1262);
#393=VERTEX_POINT('',#1264);
#394=VERTEX_POINT('',#1266);
#395=VERTEX_POINT('',#1268);
#396=VERTEX_POINT('',#1271);
#397=VERTEX_POINT('',#1272);
#398=VERTEX_POINT('',#1274);
#399=VERTEX_POINT('',#1276);
#400=VERTEX_POINT('',#1280);
#401=VERTEX_POINT('',#1281);
#402=VERTEX_POINT('',#1285);
#403=VERTEX_POINT('',#1286);
#404=VERTEX_POINT('',#1288);
#405=VERTEX_POINT('',#1290);
#406=VERTEX_POINT('',#1293);
#407=VERTEX_POINT('',#1294);
#408=VERTEX_POINT('',#1296);
#409=VERTEX_POINT('',#1298);
#410=VERTEX_POINT('',#1301);
#411=VERTEX_POINT('',#1302);
#412=VERTEX_POINT('',#1304);
#413=VERTEX_POINT('',#1306);
#414=VERTEX_POINT('',#1309);
#415=VERTEX_POINT('',#1310);
#416=VERTEX_POINT('',#1312);
#417=VERTEX_POINT('',#1314);
#418=VERTEX_POINT('',#1318);
#419=VERTEX_POINT('',#1319);
#420=VERTEX_POINT('',#1321);
#421=VERTEX_POINT('',#1323);
#422=VERTEX_POINT('',#1326);
#423=VERTEX_POINT('',#1327);
#424=VERTEX_POINT('',#1329);
#425=VERTEX_POINT('',#1331);
#426=VERTEX_POINT('',#1334);
#427=VERTEX_POINT('',#1337);
#428=VERTEX_POINT('',#1338);
#429=VERTEX_POINT('',#1340);
#430=VERTEX_POINT('',#1342);
#431=VERTEX_POINT('',#1345);
#432=VERTEX_POINT('',#1346);
#433=VERTEX_POINT('',#1348);
#434=VERTEX_POINT('',#1350);
#435=VERTEX_POINT('',#1354);
#436=VERTEX_POINT('',#1355);
#437=VERTEX_POINT('',#1362);
#438=VERTEX_POINT('',#1369);
#439=VERTEX_POINT('',#1371);
#440=VERTEX_POINT('',#1375);
#441=VERTEX_POINT('',#1379);
#442=VERTEX_POINT('',#1386);
#443=VERTEX_POINT('',#1388);
#444=VERTEX_POINT('',#1392);
#445=VERTEX_POINT('',#1396);
#446=VERTEX_POINT('',#1403);
#447=VERTEX_POINT('',#1405);
#448=VERTEX_POINT('',#1409);
#449=VERTEX_POINT('',#1413);
#450=VERTEX_POINT('',#1420);
#451=VERTEX_POINT('',#1422);
#452=VERTEX_POINT('',#1426);
#453=VERTEX_POINT('',#1430);
#454=VERTEX_POINT('',#1437);
#455=VERTEX_POINT('',#1439);
#456=VERTEX_POINT('',#1443);
#457=VERTEX_POINT('',#1447);
#458=VERTEX_POINT('',#1454);
#459=VERTEX_POINT('',#1456);
#460=VERTEX_POINT('',#1460);
#461=VERTEX_POINT('',#1464);
#462=VERTEX_POINT('',#1471);
#463=VERTEX_POINT('',#1473);
#464=VERTEX_POINT('',#1477);
#465=VERTEX_POINT('',#1481);
#466=VERTEX_POINT('',#1488);
#467=VERTEX_POINT('',#1490);
#468=VERTEX_POINT('',#1494);
#469=VERTEX_POINT('',#1498);
#470=VERTEX_POINT('',#1505);
#471=VERTEX_POINT('',#1507);
#472=VERTEX_POINT('',#1511);
#473=VERTEX_POINT('',#1515);
#474=LINE('',#1258,#600);
#475=LINE('',#1261,#601);
#476=LINE('',#1263,#602);
#477=LINE('',#1265,#603);
#478=LINE('',#1267,#604);
#479=LINE('',#1269,#605);
#480=LINE('',#1270,#606);
#481=LINE('',#1273,#607);
#482=LINE('',#1275,#608);
#483=LINE('',#1277,#609);
#484=LINE('',#1279,#610);
#485=LINE('',#1282,#611);
#486=LINE('',#1283,#612);
#487=LINE('',#1284,#613);
#488=LINE('',#1287,#614);
#489=LINE('',#1289,#615);
#490=LINE('',#1291,#616);
#491=LINE('',#1292,#617);
#492=LINE('',#1295,#618);
#493=LINE('',#1297,#619);
#494=LINE('',#1299,#620);
#495=LINE('',#1300,#621);
#496=LINE('',#1303,#622);
#497=LINE('',#1305,#623);
#498=LINE('',#1307,#624);
#499=LINE('',#1308,#625);
#500=LINE('',#1311,#626);
#501=LINE('',#1313,#627);
#502=LINE('',#1315,#628);
#503=LINE('',#1317,#629);
#504=LINE('',#1320,#630);
#505=LINE('',#1322,#631);
#506=LINE('',#1324,#632);
#507=LINE('',#1325,#633);
#508=LINE('',#1328,#634);
#509=LINE('',#1330,#635);
#510=LINE('',#1332,#636);
#511=LINE('',#1333,#637);
#512=LINE('',#1335,#638);
#513=LINE('',#1336,#639);
#514=LINE('',#1339,#640);
#515=LINE('',#1341,#641);
#516=LINE('',#1343,#642);
#517=LINE('',#1344,#643);
#518=LINE('',#1347,#644);
#519=LINE('',#1349,#645);
#520=LINE('',#1351,#646);
#521=LINE('',#1353,#647);
#522=LINE('',#1356,#648);
#523=LINE('',#1357,#649);
#524=LINE('',#1359,#650);
#525=LINE('',#1361,#651);
#526=LINE('',#1363,#652);
#527=LINE('',#1365,#653);
#528=LINE('',#1368,#654);
#529=LINE('',#1370,#655);
#530=LINE('',#1372,#656);
#531=LINE('',#1374,#657);
#532=LINE('',#1376,#658);
#533=LINE('',#1378,#659);
#534=LINE('',#1380,#660);
#535=LINE('',#1382,#661);
#536=LINE('',#1385,#662);
#537=LINE('',#1387,#663);
#538=LINE('',#1389,#664);
#539=LINE('',#1391,#665);
#540=LINE('',#1393,#666);
#541=LINE('',#1395,#667);
#542=LINE('',#1397,#668);
#543=LINE('',#1399,#669);
#544=LINE('',#1402,#670);
#545=LINE('',#1404,#671);
#546=LINE('',#1406,#672);
#547=LINE('',#1408,#673);
#548=LINE('',#1410,#674);
#549=LINE('',#1412,#675);
#550=LINE('',#1414,#676);
#551=LINE('',#1416,#677);
#552=LINE('',#1419,#678);
#553=LINE('',#1421,#679);
#554=LINE('',#1423,#680);
#555=LINE('',#1425,#681);
#556=LINE('',#1427,#682);
#557=LINE('',#1429,#683);
#558=LINE('',#1431,#684);
#559=LINE('',#1433,#685);
#560=LINE('',#1436,#686);
#561=LINE('',#1438,#687);
#562=LINE('',#1440,#688);
#563=LINE('',#1442,#689);
#564=LINE('',#1444,#690);
#565=LINE('',#1446,#691);
#566=LINE('',#1448,#692);
#567=LINE('',#1450,#693);
#568=LINE('',#1453,#694);
#569=LINE('',#1455,#695);
#570=LINE('',#1457,#696);
#571=LINE('',#1459,#697);
#572=LINE('',#1461,#698);
#573=LINE('',#1463,#699);
#574=LINE('',#1465,#700);
#575=LINE('',#1467,#701);
#576=LINE('',#1470,#702);
#577=LINE('',#1472,#703);
#578=LINE('',#1474,#704);
#579=LINE('',#1476,#705);
#580=LINE('',#1478,#706);
#581=LINE('',#1480,#707);
#582=LINE('',#1482,#708);
#583=LINE('',#1484,#709);
#584=LINE('',#1487,#710);
#585=LINE('',#1489,#711);
#586=LINE('',#1491,#712);
#587=LINE('',#1493,#713);
#588=LINE('',#1495,#714);
#589=LINE('',#1497,#715);
#590=LINE('',#1499,#716);
#591=LINE('',#1501,#717);
#592=LINE('',#1504,#718);
#593=LINE('',#1506,#719);
#594=LINE('',#1508,#720);
#595=LINE('',#1510,#721);
#596=LINE('',#1512,#722);
#597=LINE('',#1514,#723);
#598=LINE('',#1516,#724);
#599=LINE('',#1518,#725);
#600=VECTOR('',#1026,1.);
#601=VECTOR('',#1027,1.);
#602=VECTOR('',#1028,1.);
#603=VECTOR('',#1029,1.);
#604=VECTOR('',#1030,1.);
#605=VECTOR('',#1031,1.);
#606=VECTOR('',#1032,1.);
#607=VECTOR('',#1033,1.);
#608=VECTOR('',#1034,1.);
#609=VECTOR('',#1035,1.);
#610=VECTOR('',#1038,1.);
#611=VECTOR('',#1039,1.);
#612=VECTOR('',#1040,1.);
#613=VECTOR('',#1041,1.);
#614=VECTOR('',#1042,1.);
#615=VECTOR('',#1043,1.);
#616=VECTOR('',#1044,1.);
#617=VECTOR('',#1045,1.);
#618=VECTOR('',#1046,1.);
#619=VECTOR('',#1047,1.);
#620=VECTOR('',#1048,1.);
#621=VECTOR('',#1049,1.);
#622=VECTOR('',#1050,1.);
#623=VECTOR('',#1051,1.);
#624=VECTOR('',#1052,1.);
#625=VECTOR('',#1053,1.);
#626=VECTOR('',#1054,1.);
#627=VECTOR('',#1055,1.);
#628=VECTOR('',#1056,1.);
#629=VECTOR('',#1059,1.);
#630=VECTOR('',#1060,1.);
#631=VECTOR('',#1061,1.);
#632=VECTOR('',#1062,1.);
#633=VECTOR('',#1063,1.);
#634=VECTOR('',#1064,1.);
#635=VECTOR('',#1065,1.);
#636=VECTOR('',#1066,1.);
#637=VECTOR('',#1067,1.);
#638=VECTOR('',#1068,1.);
#639=VECTOR('',#1069,1.);
#640=VECTOR('',#1070,1.);
#641=VECTOR('',#1071,1.);
#642=VECTOR('',#1072,1.);
#643=VECTOR('',#1073,1.);
#644=VECTOR('',#1074,1.);
#645=VECTOR('',#1075,1.);
#646=VECTOR('',#1076,1.);
#647=VECTOR('',#1079,1.);
#648=VECTOR('',#1080,1.);
#649=VECTOR('',#1081,1.);
#650=VECTOR('',#1084,1.);
#651=VECTOR('',#1087,1.);
#652=VECTOR('',#1088,1.);
#653=VECTOR('',#1091,1.);
#654=VECTOR('',#1096,1.);
#655=VECTOR('',#1097,1.);
#656=VECTOR('',#1098,1.);
#657=VECTOR('',#1101,1.);
#658=VECTOR('',#1102,1.);
#659=VECTOR('',#1105,1.);
#660=VECTOR('',#1106,1.);
#661=VECTOR('',#1109,1.);
#662=VECTOR('',#1114,1.);
#663=VECTOR('',#1115,1.);
#664=VECTOR('',#1116,1.);
#665=VECTOR('',#1119,1.);
#666=VECTOR('',#1120,1.);
#667=VECTOR('',#1123,1.);
#668=VECTOR('',#1124,1.);
#669=VECTOR('',#1127,1.);
#670=VECTOR('',#1132,1.);
#671=VECTOR('',#1133,1.);
#672=VECTOR('',#1134,1.);
#673=VECTOR('',#1137,1.);
#674=VECTOR('',#1138,1.);
#675=VECTOR('',#1141,1.);
#676=VECTOR('',#1142,1.);
#677=VECTOR('',#1145,1.);
#678=VECTOR('',#1150,1.);
#679=VECTOR('',#1151,1.);
#680=VECTOR('',#1152,1.);
#681=VECTOR('',#1155,1.);
#682=VECTOR('',#1156,1.);
#683=VECTOR('',#1159,1.);
#684=VECTOR('',#1160,1.);
#685=VECTOR('',#1163,1.);
#686=VECTOR('',#1168,1.);
#687=VECTOR('',#1169,1.);
#688=VECTOR('',#1170,1.);
#689=VECTOR('',#1173,1.);
#690=VECTOR('',#1174,1.);
#691=VECTOR('',#1177,1.);
#692=VECTOR('',#1178,1.);
#693=VECTOR('',#1181,1.);
#694=VECTOR('',#1186,1.);
#695=VECTOR('',#1187,1.);
#696=VECTOR('',#1188,1.);
#697=VECTOR('',#1191,1.);
#698=VECTOR('',#1192,1.);
#699=VECTOR('',#1195,1.);
#700=VECTOR('',#1196,1.);
#701=VECTOR('',#1199,1.);
#702=VECTOR('',#1204,1.);
#703=VECTOR('',#1205,1.);
#704=VECTOR('',#1206,1.);
#705=VECTOR('',#1209,1.);
#706=VECTOR('',#1210,1.);
#707=VECTOR('',#1213,1.);
#708=VECTOR('',#1214,1.);
#709=VECTOR('',#1217,1.);
#710=VECTOR('',#1222,1.);
#711=VECTOR('',#1223,1.);
#712=VECTOR('',#1224,1.);
#713=VECTOR('',#1227,1.);
#714=VECTOR('',#1228,1.);
#715=VECTOR('',#1231,1.);
#716=VECTOR('',#1232,1.);
#717=VECTOR('',#1235,1.);
#718=VECTOR('',#1240,1.);
#719=VECTOR('',#1241,1.);
#720=VECTOR('',#1242,1.);
#721=VECTOR('',#1245,1.);
#722=VECTOR('',#1246,1.);
#723=VECTOR('',#1249,1.);
#724=VECTOR('',#1250,1.);
#725=VECTOR('',#1253,1.);
#726=EDGE_LOOP('',(#12,#13,#14,#15,#16,#17));
#727=EDGE_LOOP('',(#18,#19,#20,#21));
#728=EDGE_LOOP('',(#22,#23,#24,#25));
#729=EDGE_LOOP('',(#26,#27,#28,#29));
#730=EDGE_LOOP('',(#30,#31,#32,#33));
#731=EDGE_LOOP('',(#34,#35,#36,#37));
#732=EDGE_LOOP('',(#38,#39,#40,#41));
#733=EDGE_LOOP('',(#42,#43,#44,#45));
#734=EDGE_LOOP('',(#46,#47,#48,#49));
#735=EDGE_LOOP('',(#50,#51,#52,#53));
#736=EDGE_LOOP('',(#54,#55,#56,#57));
#737=EDGE_LOOP('',(#58,#59,#60,#61));
#738=EDGE_LOOP('',(#62,#63,#64,#65));
#739=EDGE_LOOP('',(#66,#67,#68,#69));
#740=EDGE_LOOP('',(#70,#71,#72,#73));
#741=EDGE_LOOP('',(#74,#75,#76,#77));
#742=EDGE_LOOP('',(#78,#79,#80,#81,#82,#83));
#743=EDGE_LOOP('',(#84,#85,#86,#87));
#744=EDGE_LOOP('',(#88,#89,#90,#91));
#745=EDGE_LOOP('',(#92,#93,#94,#95));
#746=EDGE_LOOP('',(#96,#97,#98,#99));
#747=EDGE_LOOP('',(#100,#101,#102,#103));
#748=EDGE_LOOP('',(#104,#105,#106,#107));
#749=EDGE_LOOP('',(#108,#109,#110,#111));
#750=EDGE_LOOP('',(#112,#113,#114,#115));
#751=EDGE_LOOP('',(#116,#117,#118,#119));
#752=EDGE_LOOP('',(#120,#121,#122,#123));
#753=EDGE_LOOP('',(#124,#125,#126,#127));
#754=EDGE_LOOP('',(#128,#129,#130,#131));
#755=EDGE_LOOP('',(#132,#133,#134,#135));
#756=EDGE_LOOP('',(#136,#137,#138,#139));
#757=EDGE_LOOP('',(#140,#141,#142,#143));
#758=EDGE_LOOP('',(#144,#145,#146,#147));
#759=EDGE_LOOP('',(#148,#149,#150,#151));
#760=EDGE_LOOP('',(#152,#153,#154,#155));
#761=EDGE_LOOP('',(#156,#157,#158,#159));
#762=EDGE_LOOP('',(#160,#161,#162,#163));
#763=EDGE_LOOP('',(#164,#165,#166,#167));
#764=EDGE_LOOP('',(#168,#169,#170,#171));
#765=EDGE_LOOP('',(#172,#173,#174,#175));
#766=EDGE_LOOP('',(#176,#177,#178,#179));
#767=EDGE_LOOP('',(#180,#181,#182,#183));
#768=EDGE_LOOP('',(#184,#185,#186,#187));
#769=EDGE_LOOP('',(#188,#189,#190,#191));
#770=EDGE_LOOP('',(#192,#193,#194,#195));
#771=EDGE_LOOP('',(#196,#197,#198,#199));
#772=EDGE_LOOP('',(#200,#201,#202,#203));
#773=EDGE_LOOP('',(#204,#205,#206,#207));
#774=EDGE_LOOP('',(#208,#209,#210,#211));
#775=EDGE_LOOP('',(#212,#213,#214,#215));
#776=EDGE_LOOP('',(#216,#217,#218,#219));
#777=EDGE_LOOP('',(#220,#221,#222,#223));
#778=EDGE_LOOP('',(#224,#225,#226,#227));
#779=EDGE_LOOP('',(#228,#229,#230,#231));
#780=EDGE_LOOP('',(#232,#233,#234,#235));
#781=EDGE_LOOP('',(#236,#237,#238,#239));
#782=EDGE_LOOP('',(#240,#241,#242,#243));
#783=EDGE_LOOP('',(#244,#245,#246,#247));
#784=EDGE_LOOP('',(#248,#249,#250,#251));
#785=EDGE_LOOP('',(#252,#253,#254,#255));
#786=EDGE_LOOP('',(#256,#257,#258,#259));
#787=EDGE_LOOP('',(#260,#261,#262,#263));
#788=FACE_BOUND('',#726,.T.);
#789=FACE_BOUND('',#727,.T.);
#790=FACE_BOUND('',#728,.T.);
#791=FACE_BOUND('',#729,.T.);
#792=FACE_BOUND('',#730,.T.);
#793=FACE_BOUND('',#731,.T.);
#794=FACE_BOUND('',#732,.T.);
#795=FACE_BOUND('',#733,.T.);
#796=FACE_BOUND('',#734,.T.);
#797=FACE_BOUND('',#735,.T.);
#798=FACE_BOUND('',#736,.T.);
#799=FACE_BOUND('',#737,.T.);
#800=FACE_BOUND('',#738,.T.);
#801=FACE_BOUND('',#739,.T.);
#802=FACE_BOUND('',#740,.T.);
#803=FACE_BOUND('',#741,.T.);
#804=FACE_BOUND('',#742,.T.);
#805=FACE_BOUND('',#743,.T.);
#806=FACE_BOUND('',#744,.T.);
#807=FACE_BOUND('',#745,.T.);
#808=FACE_BOUND('',#746,.T.);
#809=FACE_BOUND('',#747,.T.);
#810=FACE_BOUND('',#748,.T.);
#811=FACE_BOUND('',#749,.T.);
#812=FACE_BOUND('',#750,.T.);
#813=FACE_BOUND('',#751,.T.);
#814=FACE_BOUND('',#752,.T.);
#815=FACE_BOUND('',#753,.T.);
#816=FACE_BOUND('',#754,.T.);
#817=FACE_BOUND('',#755,.T.);
#818=FACE_BOUND('',#756,.T.);
#819=FACE_BOUND('',#757,.T.);
#820=FACE_BOUND('',#758,.T.);
#821=FACE_BOUND('',#759,.T.);
#822=FACE_BOUND('',#760,.T.);
#823=FACE_BOUND('',#761,.T.);
#824=FACE_BOUND('',#762,.T.);
#825=FACE_BOUND('',#763,.T.);
#826=FACE_BOUND('',#764,.T.);
#827=FACE_BOUND('',#765,.T.);
#828=FACE_BOUND('',#766,.T.);
#829=FACE_BOUND('',#767,.T.);
#830=FACE_BOUND('',#768,.T.);
#831=FACE_BOUND('',#769,.T.);
#832=FACE_BOUND('',#770,.T.);
#833=FACE_BOUND('',#771,.T.);
#834=FACE_BOUND('',#772,.T.);
#835=FACE_BOUND('',#773,.T.);
#836=FACE_BOUND('',#774,.T.);
#837=FACE_BOUND('',#775,.T.);
#838=FACE_BOUND('',#776,.T.);
#839=FACE_BOUND('',#777,.T.);
#840=FACE_BOUND('',#778,.T.);
#841=FACE_BOUND('',#779,.T.);
#842=FACE_BOUND('',#780,.T.);
#843=FACE_BOUND('',#781,.T.);
#844=FACE_BOUND('',#782,.T.);
#845=FACE_BOUND('',#783,.T.);
#846=FACE_BOUND('',#784,.T.);
#847=FACE_BOUND('',#785,.T.);
#848=FACE_BOUND('',#786,.T.);
#849=FACE_BOUND('',#787,.T.);
#850=PLANE('',#969);
#851=PLANE('',#970);
#852=PLANE('',#971);
#853=PLANE('',#972);
#854=PLANE('',#973);
#855=PLANE('',#974);
#856=PLANE('',#975);
#857=PLANE('',#976);
#858=PLANE('',#977);
#859=PLANE('',#978);
#860=PLANE('',#979);
#861=PLANE('',#980);
#862=PLANE('',#981);
#863=PLANE('',#982);
#864=PLANE('',#983);
#865=PLANE('',#984);
#866=PLANE('',#985);
#867=PLANE('',#986);
#868=PLANE('',#987);
#869=PLANE('',#988);
#870=PLANE('',#989);
#871=PLANE('',#990);
#872=PLANE('',#991);
#873=PLANE('',#992);
#874=PLANE('',#993);
#875=PLANE('',#994);
#876=PLANE('',#995);
#877=PLANE('',#996);
#878=PLANE('',#997);
#879=PLANE('',#998);
#880=PLANE('',#999);
#881=PLANE('',#1000);
#882=PLANE('',#1001);
#883=PLANE('',#1002);
#884=PLANE('',#1003);
#885=PLANE('',#1004);
#886=PLANE('',#1005);
#887=PLANE('',#1006);
#888=PLANE('',#1007);
#889=PLANE('',#1008);
#890=PLANE('',#1009);
#891=PLANE('',#1010);
#892=PLANE('',#1011);
#893=PLANE('',#1012);
#894=PLANE('',#1013);
#895=PLANE('',#1014);
#896=PLANE('',#1015);
#897=PLANE('',#1016);
#898=PLANE('',#1017);
#899=PLANE('',#1018);
#900=PLANE('',#1019);
#901=PLANE('',#1020);
#902=PLANE('',#1021);
#903=ADVANCED_FACE('',(#788,#789),#850,.F.);
#904=ADVANCED_FACE('',(#790,#791,#792,#793,#794),#851,.T.);
#905=ADVANCED_FACE('',(#795,#796,#797,#798,#799),#852,.F.);
#906=ADVANCED_FACE('',(#800),#853,.T.);
#907=ADVANCED_FACE('',(#801),#854,.T.);
#908=ADVANCED_FACE('',(#802),#855,.F.);
#909=ADVANCED_FACE('',(#803),#856,.F.);
#910=ADVANCED_FACE('',(#804),#857,.T.);
#911=ADVANCED_FACE('',(#805),#858,.T.);
#912=ADVANCED_FACE('',(#806),#859,.F.);
#913=ADVANCED_FACE('',(#807),#860,.F.);
#914=ADVANCED_FACE('',(#808),#861,.T.);
#915=ADVANCED_FACE('',(#809),#862,.T.);
#916=ADVANCED_FACE('',(#810),#863,.T.);
#917=ADVANCED_FACE('',(#811),#864,.F.);
#918=ADVANCED_FACE('',(#812),#865,.F.);
#919=ADVANCED_FACE('',(#813),#866,.T.);
#920=ADVANCED_FACE('',(#814),#867,.T.);
#921=ADVANCED_FACE('',(#815),#868,.T.);
#922=ADVANCED_FACE('',(#816),#869,.F.);
#923=ADVANCED_FACE('',(#817),#870,.F.);
#924=ADVANCED_FACE('',(#818),#871,.T.);
#925=ADVANCED_FACE('',(#819),#872,.T.);
#926=ADVANCED_FACE('',(#820),#873,.T.);
#927=ADVANCED_FACE('',(#821),#874,.F.);
#928=ADVANCED_FACE('',(#822),#875,.F.);
#929=ADVANCED_FACE('',(#823),#876,.T.);
#930=ADVANCED_FACE('',(#824),#877,.T.);
#931=ADVANCED_FACE('',(#825),#878,.T.);
#932=ADVANCED_FACE('',(#826),#879,.F.);
#933=ADVANCED_FACE('',(#827),#880,.F.);
#934=ADVANCED_FACE('',(#828),#881,.T.);
#935=ADVANCED_FACE('',(#829),#882,.T.);
#936=ADVANCED_FACE('',(#830),#883,.T.);
#937=ADVANCED_FACE('',(#831),#884,.F.);
#938=ADVANCED_FACE('',(#832),#885,.F.);
#939=ADVANCED_FACE('',(#833),#886,.T.);
#940=ADVANCED_FACE('',(#834),#887,.T.);
#941=ADVANCED_FACE('',(#835),#888,.T.);
#942=ADVANCED_FACE('',(#836),#889,.F.);
#943=ADVANCED_FACE('',(#837),#890,.F.);
#944=ADVANCED_FACE('',(#838),#891,.T.);
#945=ADVANCED_FACE('',(#839),#892,.T.);
#946=ADVANCED_FACE('',(#840),#893,.T.);
#947=ADVANCED_FACE('',(#841),#894,.F.);
#948=ADVANCED_FACE('',(#842),#895,.F.);
#949=ADVANCED_FACE('',(#843),#896,.T.);
#950=ADVANCED_FACE('',(#844),#897,.T.);
#951=ADVANCED_FACE('',(#845),#898,.T.);
#952=ADVANCED_FACE('',(#846),#899,.F.);
#953=ADVANCED_FACE('',(#847),#900,.F.);
#954=ADVANCED_FACE('',(#848),#901,.T.);
#955=ADVANCED_FACE('',(#849),#902,.T.);
#956=CLOSED_SHELL('',(#903,#904,#905,#906,#907,#908,#909,#910,#911,#912,
#913,#914,#915,#916,#917,#918,#919,#920,#921,#922,#923,#924,#925,#926,#927,
#928,#929,#930,#931,#932,#933,#934,#935,#936,#937,#938,#939,#940,#941,#942,
#943,#944,#945,#946,#947,#948,#949,#950,#951,#952,#953,#954,#955));
#957=STYLED_ITEM('',(#958),#965);
#958=PRESENTATION_STYLE_ASSIGNMENT((#959));
#959=SURFACE_STYLE_USAGE(.BOTH.,#960);
#960=SURFACE_SIDE_STYLE('',(#961));
#961=SURFACE_STYLE_FILL_AREA(#962);
#962=FILL_AREA_STYLE('',(#963));
#963=FILL_AREA_STYLE_COLOUR('',#964);
#964=COLOUR_RGB('',0.615686274509804,0.811764705882353,0.929411764705882);
#965=MANIFOLD_SOLID_BREP('CORNER BOOKSHELF',#956);
#966=SHAPE_DEFINITION_REPRESENTATION(#1526,#967);
#967=SHAPE_REPRESENTATION('CORNER BOOKSHELF',(#968),#1521);
#968=AXIS2_PLACEMENT_3D('',#1256,#1022,#1023);
#969=AXIS2_PLACEMENT_3D('',#1257,#1024,#1025);
#970=AXIS2_PLACEMENT_3D('',#1278,#1036,#1037);
#971=AXIS2_PLACEMENT_3D('',#1316,#1057,#1058);
#972=AXIS2_PLACEMENT_3D('',#1352,#1077,#1078);
#973=AXIS2_PLACEMENT_3D('',#1358,#1082,#1083);
#974=AXIS2_PLACEMENT_3D('',#1360,#1085,#1086);
#975=AXIS2_PLACEMENT_3D('',#1364,#1089,#1090);
#976=AXIS2_PLACEMENT_3D('',#1366,#1092,#1093);
#977=AXIS2_PLACEMENT_3D('',#1367,#1094,#1095);
#978=AXIS2_PLACEMENT_3D('',#1373,#1099,#1100);
#979=AXIS2_PLACEMENT_3D('',#1377,#1103,#1104);
#980=AXIS2_PLACEMENT_3D('',#1381,#1107,#1108);
#981=AXIS2_PLACEMENT_3D('',#1383,#1110,#1111);
#982=AXIS2_PLACEMENT_3D('',#1384,#1112,#1113);
#983=AXIS2_PLACEMENT_3D('',#1390,#1117,#1118);
#984=AXIS2_PLACEMENT_3D('',#1394,#1121,#1122);
#985=AXIS2_PLACEMENT_3D('',#1398,#1125,#1126);
#986=AXIS2_PLACEMENT_3D('',#1400,#1128,#1129);
#987=AXIS2_PLACEMENT_3D('',#1401,#1130,#1131);
#988=AXIS2_PLACEMENT_3D('',#1407,#1135,#1136);
#989=AXIS2_PLACEMENT_3D('',#1411,#1139,#1140);
#990=AXIS2_PLACEMENT_3D('',#1415,#1143,#1144);
#991=AXIS2_PLACEMENT_3D('',#1417,#1146,#1147);
#992=AXIS2_PLACEMENT_3D('',#1418,#1148,#1149);
#993=AXIS2_PLACEMENT_3D('',#1424,#1153,#1154);
#994=AXIS2_PLACEMENT_3D('',#1428,#1157,#1158);
#995=AXIS2_PLACEMENT_3D('',#1432,#1161,#1162);
#996=AXIS2_PLACEMENT_3D('',#1434,#1164,#1165);
#997=AXIS2_PLACEMENT_3D('',#1435,#1166,#1167);
#998=AXIS2_PLACEMENT_3D('',#1441,#1171,#1172);
#999=AXIS2_PLACEMENT_3D('',#1445,#1175,#1176);
#1000=AXIS2_PLACEMENT_3D('',#1449,#1179,#1180);
#1001=AXIS2_PLACEMENT_3D('',#1451,#1182,#1183);
#1002=AXIS2_PLACEMENT_3D('',#1452,#1184,#1185);
#1003=AXIS2_PLACEMENT_3D('',#1458,#1189,#1190);
#1004=AXIS2_PLACEMENT_3D('',#1462,#1193,#1194);
#1005=AXIS2_PLACEMENT_3D('',#1466,#1197,#1198);
#1006=AXIS2_PLACEMENT_3D('',#1468,#1200,#1201);
#1007=AXIS2_PLACEMENT_3D('',#1469,#1202,#1203);
#1008=AXIS2_PLACEMENT_3D('',#1475,#1207,#1208);
#1009=AXIS2_PLACEMENT_3D('',#1479,#1211,#1212);
#1010=AXIS2_PLACEMENT_3D('',#1483,#1215,#1216);
#1011=AXIS2_PLACEMENT_3D('',#1485,#1218,#1219);
#1012=AXIS2_PLACEMENT_3D('',#1486,#1220,#1221);
#1013=AXIS2_PLACEMENT_3D('',#1492,#1225,#1226);
#1014=AXIS2_PLACEMENT_3D('',#1496,#1229,#1230);
#1015=AXIS2_PLACEMENT_3D('',#1500,#1233,#1234);
#1016=AXIS2_PLACEMENT_3D('',#1502,#1236,#1237);
#1017=AXIS2_PLACEMENT_3D('',#1503,#1238,#1239);
#1018=AXIS2_PLACEMENT_3D('',#1509,#1243,#1244);
#1019=AXIS2_PLACEMENT_3D('',#1513,#1247,#1248);
#1020=AXIS2_PLACEMENT_3D('',#1517,#1251,#1252);
#1021=AXIS2_PLACEMENT_3D('',#1519,#1254,#1255);
#1022=DIRECTION('',(0.,0.,1.));
#1023=DIRECTION('',(1.,0.,0.));
#1024=DIRECTION('',(0.,0.,1.));
#1025=DIRECTION('',(1.,0.,0.));
#1026=DIRECTION('',(0.,-1.,0.));
#1027=DIRECTION('',(1.,0.,0.));
#1028=DIRECTION('',(0.,-1.,0.));
#1029=DIRECTION('',(1.,0.,0.));
#1030=DIRECTION('',(5.78241158658936E-17,-1.,0.));
#1031=DIRECTION('',(1.,0.,0.));
#1032=DIRECTION('',(0.,1.,0.));
#1033=DIRECTION('',(-1.,0.,0.));
#1034=DIRECTION('',(0.,1.,0.));
#1035=DIRECTION('',(-1.,0.,0.));
#1036=DIRECTION('',(0.,-1.,0.));
#1037=DIRECTION('',(0.,0.,-1.));
#1038=DIRECTION('',(1.,0.,0.));
#1039=DIRECTION('',(0.,0.,1.));
#1040=DIRECTION('',(0.,0.,1.));
#1041=DIRECTION('',(6.03382078600628E-17,0.,-1.));
#1042=DIRECTION('',(1.,0.,0.));
#1043=DIRECTION('',(0.,0.,-1.));
#1044=DIRECTION('',(1.,0.,5.13992141030165E-16));
#1045=DIRECTION('',(0.,0.,-1.));
#1046=DIRECTION('',(1.,0.,0.));
#1047=DIRECTION('',(0.,0.,-1.));
#1048=DIRECTION('',(1.,0.,0.));
#1049=DIRECTION('',(2.41352831440252E-16,0.,-1.));
#1050=DIRECTION('',(1.,0.,2.56996070515082E-16));
#1051=DIRECTION('',(0.,0.,-1.));
#1052=DIRECTION('',(1.,0.,0.));
#1053=DIRECTION('',(2.41352831440252E-16,0.,-1.));
#1054=DIRECTION('',(1.,0.,1.84715925682715E-16));
#1055=DIRECTION('',(2.41352831440252E-16,0.,-1.));
#1056=DIRECTION('',(1.,0.,1.28498035257541E-16));
#1057=DIRECTION('',(-1.,-5.78241158658936E-17,0.));
#1058=DIRECTION('',(5.78241158658936E-17,-1.,0.));
#1059=DIRECTION('',(-5.78241158658936E-17,1.,2.56996070515082E-16));
#1060=DIRECTION('',(-2.79120281795251E-32,4.82705662880503E-16,-1.));
#1061=DIRECTION('',(-5.78241158658936E-17,1.,5.13992141030165E-16));
#1062=DIRECTION('',(-2.09340211346439E-32,3.62029247160378E-16,-1.));
#1063=DIRECTION('',(-5.78241158658936E-17,1.,2.56996070515082E-16));
#1064=DIRECTION('',(0.,0.,-1.));
#1065=DIRECTION('',(-5.78241158658936E-17,1.,0.));
#1066=DIRECTION('',(-6.97800704488129E-33,1.20676415720126E-16,-1.));
#1067=DIRECTION('',(5.78241158658936E-17,-1.,0.));
#1068=DIRECTION('',(0.,0.,1.));
#1069=DIRECTION('',(-5.78241158658936E-17,1.,2.56996070515082E-16));
#1070=DIRECTION('',(-2.79120281795251E-32,4.82705662880503E-16,-1.));
#1071=DIRECTION('',(-5.78241158658936E-17,1.,2.56996070515082E-16));
#1072=DIRECTION('',(-2.09340211346439E-32,3.62029247160377E-16,-1.));
#1073=DIRECTION('',(-5.78241158658936E-17,1.,3.05182833736661E-16));
#1074=DIRECTION('',(-1.39560140897626E-32,2.41352831440252E-16,-1.));
#1075=DIRECTION('',(-5.78241158658936E-17,1.,2.56996070515082E-16));
#1076=DIRECTION('',(-2.09340211346439E-32,3.62029247160377E-16,-1.));
#1077=DIRECTION('',(-1.,0.,0.));
#1078=DIRECTION('',(0.,0.,1.));
#1079=DIRECTION('',(0.,-1.,0.));
#1080=DIRECTION('',(0.,0.,1.));
#1081=DIRECTION('',(0.,0.,1.));
#1082=DIRECTION('',(0.,-1.,0.));
#1083=DIRECTION('',(0.,0.,-1.));
#1084=DIRECTION('',(1.,0.,0.));
#1085=DIRECTION('',(-1.,0.,0.));
#1086=DIRECTION('',(0.,0.,1.));
#1087=DIRECTION('',(0.,-1.,0.));
#1088=DIRECTION('',(0.,0.,1.));
#1089=DIRECTION('',(0.,-1.,0.));
#1090=DIRECTION('',(0.,0.,-1.));
#1091=DIRECTION('',(1.,0.,0.));
#1092=DIRECTION('',(0.,0.,1.));
#1093=DIRECTION('',(1.,0.,0.));
#1094=DIRECTION('',(-1.48605705585435E-32,2.56996070515082E-16,-1.));
#1095=DIRECTION('',(0.,1.,2.56996070515082E-16));
#1096=DIRECTION('',(1.,5.78241158658936E-17,0.));
#1097=DIRECTION('',(-5.78241158658936E-17,1.,2.56996070515082E-16));
#1098=DIRECTION('',(1.,5.78241158658936E-17,0.));
#1099=DIRECTION('',(5.78241158658936E-17,-1.,-1.20676415720126E-16));
#1100=DIRECTION('',(0.,1.20676415720126E-16,-1.));
#1101=DIRECTION('',(1.,5.78241158658936E-17,0.));
#1102=DIRECTION('',(-6.97800704488129E-33,1.20676415720126E-16,-1.));
#1103=DIRECTION('',(0.,0.,-1.));
#1104=DIRECTION('',(-1.,0.,0.));
#1105=DIRECTION('',(1.,5.78241158658936E-17,0.));
#1106=DIRECTION('',(-5.78241158658936E-17,1.,0.));
#1107=DIRECTION('',(5.78241158658936E-17,-1.,0.));
#1108=DIRECTION('',(1.,5.78241158658936E-17,0.));
#1109=DIRECTION('',(0.,0.,-1.));
#1110=DIRECTION('',(1.,5.78241158658936E-17,0.));
#1111=DIRECTION('',(-5.78241158658936E-17,1.,0.));
#1112=DIRECTION('',(-1.48605705585435E-32,2.56996070515082E-16,-1.));
#1113=DIRECTION('',(0.,1.,2.56996070515082E-16));
#1114=DIRECTION('',(1.,5.78241158658936E-17,0.));
#1115=DIRECTION('',(-5.78241158658936E-17,1.,2.56996070515082E-16));
#1116=DIRECTION('',(1.,5.78241158658936E-17,0.));
#1117=DIRECTION('',(5.78241158658936E-17,-1.,-3.62029247160377E-16));
#1118=DIRECTION('',(0.,3.62029247160377E-16,-1.));
#1119=DIRECTION('',(1.,5.78241158658936E-17,0.));
#1120=DIRECTION('',(-2.09340211346439E-32,3.62029247160377E-16,-1.));
#1121=DIRECTION('',(-1.48605705585435E-32,2.56996070515082E-16,-1.));
#1122=DIRECTION('',(0.,1.,2.56996070515082E-16));
#1123=DIRECTION('',(1.,5.78241158658936E-17,0.));
#1124=DIRECTION('',(-5.78241158658936E-17,1.,2.56996070515082E-16));
#1125=DIRECTION('',(5.78241158658936E-17,-1.,-4.82705662880503E-16));
#1126=DIRECTION('',(0.,4.82705662880503E-16,-1.));
#1127=DIRECTION('',(-2.79120281795251E-32,4.82705662880503E-16,-1.));
#1128=DIRECTION('',(1.,5.78241158658936E-17,0.));
#1129=DIRECTION('',(-5.78241158658936E-17,1.,0.));
#1130=DIRECTION('',(-1.48605705585435E-32,2.56996070515082E-16,-1.));
#1131=DIRECTION('',(0.,1.,2.56996070515082E-16));
#1132=DIRECTION('',(1.,5.78241158658936E-17,0.));
#1133=DIRECTION('',(-5.78241158658936E-17,1.,2.56996070515082E-16));
#1134=DIRECTION('',(1.,5.78241158658936E-17,0.));
#1135=DIRECTION('',(5.78241158658936E-17,-1.,-3.62029247160378E-16));
#1136=DIRECTION('',(0.,3.62029247160378E-16,-1.));
#1137=DIRECTION('',(1.,5.78241158658936E-17,0.));
#1138=DIRECTION('',(-2.09340211346439E-32,3.62029247160378E-16,-1.));
#1139=DIRECTION('',(-2.9721141117087E-32,5.13992141030165E-16,-1.));
#1140=DIRECTION('',(0.,1.,5.13992141030165E-16));
#1141=DIRECTION('',(1.,5.78241158658936E-17,0.));
#1142=DIRECTION('',(-5.78241158658936E-17,1.,5.13992141030165E-16));
#1143=DIRECTION('',(5.78241158658936E-17,-1.,-4.82705662880503E-16));
#1144=DIRECTION('',(0.,4.82705662880503E-16,-1.));
#1145=DIRECTION('',(-2.79120281795251E-32,4.82705662880503E-16,-1.));
#1146=DIRECTION('',(1.,5.78241158658936E-17,0.));
#1147=DIRECTION('',(-5.78241158658936E-17,1.,0.));
#1148=DIRECTION('',(-1.76469275382704E-32,3.05182833736661E-16,-1.));
#1149=DIRECTION('',(0.,1.,3.05182833736661E-16));
#1150=DIRECTION('',(1.,5.78241158658936E-17,0.));
#1151=DIRECTION('',(-5.78241158658936E-17,1.,3.05182833736661E-16));
#1152=DIRECTION('',(1.,5.78241158658936E-17,0.));
#1153=DIRECTION('',(5.78241158658936E-17,-1.,-3.62029247160377E-16));
#1154=DIRECTION('',(0.,3.62029247160377E-16,-1.));
#1155=DIRECTION('',(1.,5.78241158658936E-17,0.));
#1156=DIRECTION('',(-2.09340211346439E-32,3.62029247160377E-16,-1.));
#1157=DIRECTION('',(-1.48605705585435E-32,2.56996070515082E-16,-1.));
#1158=DIRECTION('',(0.,1.,2.56996070515082E-16));
#1159=DIRECTION('',(1.,5.78241158658936E-17,0.));
#1160=DIRECTION('',(-5.78241158658936E-17,1.,2.56996070515082E-16));
#1161=DIRECTION('',(5.78241158658936E-17,-1.,-2.41352831440252E-16));
#1162=DIRECTION('',(0.,2.41352831440252E-16,-1.));
#1163=DIRECTION('',(-1.39560140897626E-32,2.41352831440252E-16,-1.));
#1164=DIRECTION('',(1.,5.78241158658936E-17,0.));
#1165=DIRECTION('',(-5.78241158658936E-17,1.,0.));
#1166=DIRECTION('',(0.,0.,-1.));
#1167=DIRECTION('',(-1.,0.,0.));
#1168=DIRECTION('',(0.,-1.,0.));
#1169=DIRECTION('',(1.,0.,0.));
#1170=DIRECTION('',(0.,-1.,0.));
#1171=DIRECTION('',(-1.,0.,-6.03382078600628E-17));
#1172=DIRECTION('',(-6.03382078600628E-17,0.,1.));
#1173=DIRECTION('',(0.,-1.,0.));
#1174=DIRECTION('',(6.03382078600628E-17,0.,-1.));
#1175=DIRECTION('',(5.13992141030165E-16,0.,-1.));
#1176=DIRECTION('',(-1.,0.,-5.13992141030165E-16));
#1177=DIRECTION('',(0.,-1.,0.));
#1178=DIRECTION('',(1.,0.,5.13992141030165E-16));
#1179=DIRECTION('',(-1.,0.,0.));
#1180=DIRECTION('',(0.,0.,1.));
#1181=DIRECTION('',(0.,0.,-1.));
#1182=DIRECTION('',(0.,-1.,0.));
#1183=DIRECTION('',(1.,0.,0.));
#1184=DIRECTION('',(0.,0.,-1.));
#1185=DIRECTION('',(-1.,0.,0.));
#1186=DIRECTION('',(0.,-1.,0.));
#1187=DIRECTION('',(1.,0.,0.));
#1188=DIRECTION('',(0.,-1.,0.));
#1189=DIRECTION('',(-1.,0.,0.));
#1190=DIRECTION('',(0.,0.,1.));
#1191=DIRECTION('',(0.,-1.,0.));
#1192=DIRECTION('',(0.,0.,-1.));
#1193=DIRECTION('',(0.,0.,-1.));
#1194=DIRECTION('',(-1.,0.,0.));
#1195=DIRECTION('',(0.,-1.,0.));
#1196=DIRECTION('',(1.,0.,0.));
#1197=DIRECTION('',(-1.,0.,0.));
#1198=DIRECTION('',(0.,0.,1.));
#1199=DIRECTION('',(0.,0.,-1.));
#1200=DIRECTION('',(0.,-1.,0.));
#1201=DIRECTION('',(1.,0.,0.));
#1202=DIRECTION('',(2.56996070515082E-16,0.,-1.));
#1203=DIRECTION('',(-1.,0.,-2.56996070515082E-16));
#1204=DIRECTION('',(0.,-1.,0.));
#1205=DIRECTION('',(1.,0.,2.56996070515082E-16));
#1206=DIRECTION('',(0.,-1.,0.));
#1207=DIRECTION('',(-1.,0.,-2.41352831440252E-16));
#1208=DIRECTION('',(-2.41352831440252E-16,0.,1.));
#1209=DIRECTION('',(0.,-1.,0.));
#1210=DIRECTION('',(2.41352831440252E-16,0.,-1.));
#1211=DIRECTION('',(0.,0.,-1.));
#1212=DIRECTION('',(-1.,0.,0.));
#1213=DIRECTION('',(0.,-1.,0.));
#1214=DIRECTION('',(1.,0.,0.));
#1215=DIRECTION('',(-1.,0.,0.));
#1216=DIRECTION('',(0.,0.,1.));
#1217=DIRECTION('',(0.,0.,-1.));
#1218=DIRECTION('',(0.,-1.,0.));
#1219=DIRECTION('',(1.,0.,0.));
#1220=DIRECTION('',(1.84715925682715E-16,0.,-1.));
#1221=DIRECTION('',(-1.,0.,-1.84715925682715E-16));
#1222=DIRECTION('',(0.,-1.,0.));
#1223=DIRECTION('',(1.,0.,1.84715925682715E-16));
#1224=DIRECTION('',(0.,-1.,0.));
#1225=DIRECTION('',(-1.,0.,-2.41352831440252E-16));
#1226=DIRECTION('',(-2.41352831440252E-16,0.,1.));
#1227=DIRECTION('',(0.,-1.,0.));
#1228=DIRECTION('',(2.41352831440252E-16,0.,-1.));
#1229=DIRECTION('',(1.28498035257541E-16,0.,-1.));
#1230=DIRECTION('',(-1.,0.,-1.28498035257541E-16));
#1231=DIRECTION('',(0.,-1.,0.));
#1232=DIRECTION('',(1.,0.,1.28498035257541E-16));
#1233=DIRECTION('',(-1.,0.,-2.41352831440252E-16));
#1234=DIRECTION('',(-2.41352831440252E-16,0.,1.));
#1235=DIRECTION('',(2.41352831440252E-16,0.,-1.));
#1236=DIRECTION('',(0.,-1.,0.));
#1237=DIRECTION('',(1.,0.,0.));
#1238=DIRECTION('',(-1.,0.,0.));
#1239=DIRECTION('',(0.,0.,1.));
#1240=DIRECTION('',(0.,0.,-1.));
#1241=DIRECTION('',(0.,1.,0.));
#1242=DIRECTION('',(0.,0.,-1.));
#1243=DIRECTION('',(0.,-1.,0.));
#1244=DIRECTION('',(0.,0.,-1.));
#1245=DIRECTION('',(0.,0.,-1.));
#1246=DIRECTION('',(-1.,0.,0.));
#1247=DIRECTION('',(-1.,0.,0.));
#1248=DIRECTION('',(0.,0.,1.));
#1249=DIRECTION('',(0.,0.,-1.));
#1250=DIRECTION('',(0.,1.,0.));
#1251=DIRECTION('',(0.,-1.,0.));
#1252=DIRECTION('',(0.,0.,-1.));
#1253=DIRECTION('',(-1.,0.,0.));
#1254=DIRECTION('',(0.,0.,-1.));
#1255=DIRECTION('',(1.,0.,0.));
#1256=CARTESIAN_POINT('',(0.,0.,0.));
#1257=CARTESIAN_POINT('',(0.0067349935323,0.0268875729324029,-0.13));
#1258=CARTESIAN_POINT('',(-0.0332650064677,0.0568875729324029,-0.13));
#1259=CARTESIAN_POINT('',(-0.0332650064677,0.0668875729324029,-0.13));
#1260=CARTESIAN_POINT('',(-0.0332650064677,-0.0131124270675971,-0.13));
#1261=CARTESIAN_POINT('',(0.0067349935323,0.0668875729324029,-0.13));
#1262=CARTESIAN_POINT('',(0.0467349935323,0.0668875729324029,-0.13));
#1263=CARTESIAN_POINT('',(0.0467349935323,0.0568875729324029,-0.13));
#1264=CARTESIAN_POINT('',(0.0467349935323,0.0468875729324029,-0.13));
#1265=CARTESIAN_POINT('',(0.0167349935323,0.0468875729324029,-0.13));
#1266=CARTESIAN_POINT('',(-0.0132650064677,0.0468875729324029,-0.13));
#1267=CARTESIAN_POINT('',(-0.0132650064677,0.0168875729324029,-0.13));
#1268=CARTESIAN_POINT('',(-0.0132650064677,-0.0131124270675971,-0.13));
#1269=CARTESIAN_POINT('',(-0.0232650064677,-0.0131124270675971,-0.13));
#1270=CARTESIAN_POINT('',(-0.0157650064677,0.0568875729324029,-0.13));
#1271=CARTESIAN_POINT('',(-0.0157650064677,0.0493875729324029,-0.13));
#1272=CARTESIAN_POINT('',(-0.0157650064677,0.0643875729324029,-0.13));
#1273=CARTESIAN_POINT('',(-0.0232650064677,0.0643875729324029,-0.13));
#1274=CARTESIAN_POINT('',(-0.0307650064677,0.0643875729324029,-0.13));
#1275=CARTESIAN_POINT('',(-0.0307650064677,0.0568875729324029,-0.13));
#1276=CARTESIAN_POINT('',(-0.0307650064677,0.0493875729324029,-0.13));
#1277=CARTESIAN_POINT('',(-0.0232650064677,0.0493875729324029,-0.13));
#1278=CARTESIAN_POINT('',(0.0167349935323,0.0468875729324029,-0.13));
#1279=CARTESIAN_POINT('',(0.0167349935323,0.0468875729324029,0.));
#1280=CARTESIAN_POINT('',(-0.0132650064677,0.0468875729324029,0.));
#1281=CARTESIAN_POINT('',(0.0467349935323,0.0468875729324029,0.));
#1282=CARTESIAN_POINT('',(-0.0132650064677,0.0468875729324029,-0.13));
#1283=CARTESIAN_POINT('',(0.0467349935323,0.0468875729324029,-0.13));
#1284=CARTESIAN_POINT('',(-0.0102650064677,0.0468875729324029,-0.112625));
#1285=CARTESIAN_POINT('',(-0.0102650064677,0.0468875729324029,-0.09825));
#1286=CARTESIAN_POINT('',(-0.0102650064677,0.0468875729324029,-0.127));
#1287=CARTESIAN_POINT('',(0.0167349935323,0.0468875729324029,-0.09825));
#1288=CARTESIAN_POINT('',(0.0437349935323,0.0468875729324029,-0.09825));
#1289=CARTESIAN_POINT('',(0.0437349935323,0.0468875729324029,-0.112625));
#1290=CARTESIAN_POINT('',(0.0437349935323,0.0468875729324029,-0.127));
#1291=CARTESIAN_POINT('',(0.0167349935323,0.0468875729324029,-0.127));
#1292=CARTESIAN_POINT('',(-0.0102650064677,0.0468875729324029,-0.080875));
#1293=CARTESIAN_POINT('',(-0.0102650064677,0.0468875729324029,-0.0665));
#1294=CARTESIAN_POINT('',(-0.0102650064677,0.0468875729324029,-0.09525));
#1295=CARTESIAN_POINT('',(0.0167349935323,0.0468875729324029,-0.0665));
#1296=CARTESIAN_POINT('',(0.0437349935323,0.0468875729324029,-0.0665));
#1297=CARTESIAN_POINT('',(0.0437349935323,0.0468875729324029,-0.080875));
#1298=CARTESIAN_POINT('',(0.0437349935323,0.0468875729324029,-0.09525));
#1299=CARTESIAN_POINT('',(0.0167349935323,0.0468875729324029,-0.09525));
#1300=CARTESIAN_POINT('',(-0.0102650064677,0.0468875729324029,-0.049125));
#1301=CARTESIAN_POINT('',(-0.0102650064677,0.0468875729324029,-0.03475));
#1302=CARTESIAN_POINT('',(-0.0102650064677,0.0468875729324029,-0.0635));
#1303=CARTESIAN_POINT('',(0.0167349935323,0.0468875729324029,-0.03475));
#1304=CARTESIAN_POINT('',(0.0437349935323,0.0468875729324029,-0.03475));
#1305=CARTESIAN_POINT('',(0.0437349935323,0.0468875729324029,-0.049125));
#1306=CARTESIAN_POINT('',(0.0437349935323,0.0468875729324029,-0.0635));
#1307=CARTESIAN_POINT('',(0.0167349935323,0.0468875729324029,-0.0635));
#1308=CARTESIAN_POINT('',(-0.0102650064677,0.0468875729324029,-0.017375));
#1309=CARTESIAN_POINT('',(-0.0102650064677,0.0468875729324029,-0.003));
#1310=CARTESIAN_POINT('',(-0.0102650064677,0.0468875729324029,-0.03175));
#1311=CARTESIAN_POINT('',(0.0167349935323,0.0468875729324029,-0.003));
#1312=CARTESIAN_POINT('',(0.0437349935323,0.0468875729324029,-0.003));
#1313=CARTESIAN_POINT('',(0.0437349935323,0.0468875729324029,-0.017375));
#1314=CARTESIAN_POINT('',(0.0437349935323,0.0468875729324029,-0.03175));
#1315=CARTESIAN_POINT('',(0.0167349935323,0.0468875729324029,-0.03175));
#1316=CARTESIAN_POINT('',(-0.0132650064677,0.0168875729324029,-0.13));
#1317=CARTESIAN_POINT('',(-0.0132650064677,0.0168875729324029,-0.03475));
#1318=CARTESIAN_POINT('',(-0.0132650064677,-0.0101124270675971,-0.03475));
#1319=CARTESIAN_POINT('',(-0.0132650064677,0.0438875729324029,-0.03475));
#1320=CARTESIAN_POINT('',(-0.0132650064677,0.0438875729324029,-0.049125));
#1321=CARTESIAN_POINT('',(-0.0132650064677,0.0438875729324029,-0.0635));
#1322=CARTESIAN_POINT('',(-0.0132650064677,0.0168875729324029,-0.0635));
#1323=CARTESIAN_POINT('',(-0.0132650064677,-0.0101124270675971,-0.0635));
#1324=CARTESIAN_POINT('',(-0.0132650064677,-0.0101124270675971,-0.049125));
#1325=CARTESIAN_POINT('',(-0.0132650064677,0.0168875729324029,-0.09825));
#1326=CARTESIAN_POINT('',(-0.0132650064677,-0.0101124270675971,-0.09825));
#1327=CARTESIAN_POINT('',(-0.0132650064677,0.0438875729324029,-0.09825));
#1328=CARTESIAN_POINT('',(-0.0132650064677,0.0438875729324029,-0.112625));
#1329=CARTESIAN_POINT('',(-0.0132650064677,0.0438875729324029,-0.127));
#1330=CARTESIAN_POINT('',(-0.0132650064677,0.0168875729324029,-0.127));
#1331=CARTESIAN_POINT('',(-0.0132650064677,-0.0101124270675971,-0.127));
#1332=CARTESIAN_POINT('',(-0.0132650064677,-0.0101124270675971,-0.112625));
#1333=CARTESIAN_POINT('',(-0.0132650064677,0.0168875729324029,0.));
#1334=CARTESIAN_POINT('',(-0.0132650064677,-0.0131124270675971,0.));
#1335=CARTESIAN_POINT('',(-0.0132650064677,-0.0131124270675971,-0.13));
#1336=CARTESIAN_POINT('',(-0.0132650064677,0.0168875729324029,-0.0665));
#1337=CARTESIAN_POINT('',(-0.0132650064677,-0.0101124270675971,-0.0665));
#1338=CARTESIAN_POINT('',(-0.0132650064677,0.0438875729324029,-0.0665));
#1339=CARTESIAN_POINT('',(-0.0132650064677,0.0438875729324029,-0.080875));
#1340=CARTESIAN_POINT('',(-0.0132650064677,0.0438875729324029,-0.09525));
#1341=CARTESIAN_POINT('',(-0.0132650064677,0.0168875729324029,-0.09525));
#1342=CARTESIAN_POINT('',(-0.0132650064677,-0.0101124270675971,-0.09525));
#1343=CARTESIAN_POINT('',(-0.0132650064677,-0.0101124270675971,-0.080875));
#1344=CARTESIAN_POINT('',(-0.0132650064677,0.0168875729324029,-0.003));
#1345=CARTESIAN_POINT('',(-0.0132650064677,-0.0101124270675971,-0.003));
#1346=CARTESIAN_POINT('',(-0.0132650064677,0.0438875729324029,-0.003));
#1347=CARTESIAN_POINT('',(-0.0132650064677,0.0438875729324029,-0.017375));
#1348=CARTESIAN_POINT('',(-0.0132650064677,0.0438875729324029,-0.03175));
#1349=CARTESIAN_POINT('',(-0.0132650064677,0.0168875729324029,-0.03175));
#1350=CARTESIAN_POINT('',(-0.0132650064677,-0.0101124270675971,-0.03175));
#1351=CARTESIAN_POINT('',(-0.0132650064677,-0.0101124270675971,-0.017375));
#1352=CARTESIAN_POINT('',(-0.0332650064677,0.0568875729324029,-0.13));
#1353=CARTESIAN_POINT('',(-0.0332650064677,0.0568875729324029,0.));
#1354=CARTESIAN_POINT('',(-0.0332650064677,0.0668875729324029,0.));
#1355=CARTESIAN_POINT('',(-0.0332650064677,-0.0131124270675971,0.));
#1356=CARTESIAN_POINT('',(-0.0332650064677,0.0668875729324029,-0.13));
#1357=CARTESIAN_POINT('',(-0.0332650064677,-0.0131124270675971,-0.13));
#1358=CARTESIAN_POINT('',(-0.0232650064677,-0.0131124270675971,-0.13));
#1359=CARTESIAN_POINT('',(-0.0232650064677,-0.0131124270675971,0.));
#1360=CARTESIAN_POINT('',(0.0467349935323,0.0568875729324029,-0.13));
#1361=CARTESIAN_POINT('',(0.0467349935323,0.0568875729324029,0.));
#1362=CARTESIAN_POINT('',(0.0467349935323,0.0668875729324029,0.));
#1363=CARTESIAN_POINT('',(0.0467349935323,0.0668875729324029,-0.13));
#1364=CARTESIAN_POINT('',(0.0067349935323,0.0668875729324029,-0.13));
#1365=CARTESIAN_POINT('',(0.0067349935323,0.0668875729324029,0.));
#1366=CARTESIAN_POINT('',(0.0067349935323,0.0268875729324029,0.));
#1367=CARTESIAN_POINT('',(-0.0302650064677,0.0168875729324029,-0.09825));
#1368=CARTESIAN_POINT('',(-0.0302650064677,-0.0101124270675971,-0.09825));
#1369=CARTESIAN_POINT('',(-0.0302650064677,-0.0101124270675971,-0.09825));
#1370=CARTESIAN_POINT('',(-0.0302650064677,0.0168875729324029,-0.09825));
#1371=CARTESIAN_POINT('',(-0.0302650064677,0.0438875729324029,-0.09825));
#1372=CARTESIAN_POINT('',(-0.0302650064677,0.0438875729324029,-0.09825));
#1373=CARTESIAN_POINT('',(-0.0302650064677,-0.0101124270675971,-0.112625));
#1374=CARTESIAN_POINT('',(-0.0302650064677,-0.0101124270675971,-0.127));
#1375=CARTESIAN_POINT('',(-0.0302650064677,-0.0101124270675971,-0.127));
#1376=CARTESIAN_POINT('',(-0.0302650064677,-0.0101124270675971,-0.112625));
#1377=CARTESIAN_POINT('',(-0.0302650064677,0.0168875729324029,-0.127));
#1378=CARTESIAN_POINT('',(-0.0302650064677,0.0438875729324029,-0.127));
#1379=CARTESIAN_POINT('',(-0.0302650064677,0.0438875729324029,-0.127));
#1380=CARTESIAN_POINT('',(-0.0302650064677,0.0168875729324029,-0.127));
#1381=CARTESIAN_POINT('',(-0.0302650064677,0.0438875729324029,-0.112625));
#1382=CARTESIAN_POINT('',(-0.0302650064677,0.0438875729324029,-0.112625));
#1383=CARTESIAN_POINT('',(-0.0302650064677,0.0168875729324029,-0.065));
#1384=CARTESIAN_POINT('',(-0.0302650064677,0.0168875729324029,-0.0665));
#1385=CARTESIAN_POINT('',(-0.0302650064677,-0.0101124270675971,-0.0665));
#1386=CARTESIAN_POINT('',(-0.0302650064677,-0.0101124270675971,-0.0665));
#1387=CARTESIAN_POINT('',(-0.0302650064677,0.0168875729324029,-0.0665));
#1388=CARTESIAN_POINT('',(-0.0302650064677,0.0438875729324029,-0.0665));
#1389=CARTESIAN_POINT('',(-0.0302650064677,0.0438875729324029,-0.0665));
#1390=CARTESIAN_POINT('',(-0.0302650064677,-0.0101124270675971,-0.080875));
#1391=CARTESIAN_POINT('',(-0.0302650064677,-0.0101124270675971,-0.09525));
#1392=CARTESIAN_POINT('',(-0.0302650064677,-0.0101124270675971,-0.09525));
#1393=CARTESIAN_POINT('',(-0.0302650064677,-0.0101124270675971,-0.080875));
#1394=CARTESIAN_POINT('',(-0.0302650064677,0.0168875729324029,-0.09525));
#1395=CARTESIAN_POINT('',(-0.0302650064677,0.0438875729324029,-0.09525));
#1396=CARTESIAN_POINT('',(-0.0302650064677,0.0438875729324029,-0.09525));
#1397=CARTESIAN_POINT('',(-0.0302650064677,0.0168875729324029,-0.09525));
#1398=CARTESIAN_POINT('',(-0.0302650064677,0.0438875729324029,-0.080875));
#1399=CARTESIAN_POINT('',(-0.0302650064677,0.0438875729324029,-0.080875));
#1400=CARTESIAN_POINT('',(-0.0302650064677,0.0168875729324029,-0.065));
#1401=CARTESIAN_POINT('',(-0.0302650064677,0.0168875729324029,-0.03475));
#1402=CARTESIAN_POINT('',(-0.0302650064677,-0.0101124270675971,-0.03475));
#1403=CARTESIAN_POINT('',(-0.0302650064677,-0.0101124270675971,-0.03475));
#1404=CARTESIAN_POINT('',(-0.0302650064677,0.0168875729324029,-0.03475));
#1405=CARTESIAN_POINT('',(-0.0302650064677,0.0438875729324029,-0.03475));
#1406=CARTESIAN_POINT('',(-0.0302650064677,0.0438875729324029,-0.03475));
#1407=CARTESIAN_POINT('',(-0.0302650064677,-0.0101124270675971,-0.049125));
#1408=CARTESIAN_POINT('',(-0.0302650064677,-0.0101124270675971,-0.0635));
#1409=CARTESIAN_POINT('',(-0.0302650064677,-0.0101124270675971,-0.0635));
#1410=CARTESIAN_POINT('',(-0.0302650064677,-0.0101124270675971,-0.049125));
#1411=CARTESIAN_POINT('',(-0.0302650064677,0.0168875729324029,-0.0635));
#1412=CARTESIAN_POINT('',(-0.0302650064677,0.0438875729324029,-0.0635));
#1413=CARTESIAN_POINT('',(-0.0302650064677,0.0438875729324029,-0.0635));
#1414=CARTESIAN_POINT('',(-0.0302650064677,0.0168875729324029,-0.0635));
#1415=CARTESIAN_POINT('',(-0.0302650064677,0.0438875729324029,-0.049125));
#1416=CARTESIAN_POINT('',(-0.0302650064677,0.0438875729324029,-0.049125));
#1417=CARTESIAN_POINT('',(-0.0302650064677,0.0168875729324029,-0.065));
#1418=CARTESIAN_POINT('',(-0.0302650064677,0.0168875729324029,-0.003));
#1419=CARTESIAN_POINT('',(-0.0302650064677,-0.0101124270675971,-0.003));
#1420=CARTESIAN_POINT('',(-0.0302650064677,-0.0101124270675971,-0.003));
#1421=CARTESIAN_POINT('',(-0.0302650064677,0.0168875729324029,-0.003));
#1422=CARTESIAN_POINT('',(-0.0302650064677,0.0438875729324029,-0.003));
#1423=CARTESIAN_POINT('',(-0.0302650064677,0.0438875729324029,-0.003));
#1424=CARTESIAN_POINT('',(-0.0302650064677,-0.0101124270675971,-0.017375));
#1425=CARTESIAN_POINT('',(-0.0302650064677,-0.0101124270675971,-0.03175));
#1426=CARTESIAN_POINT('',(-0.0302650064677,-0.0101124270675971,-0.03175));
#1427=CARTESIAN_POINT('',(-0.0302650064677,-0.0101124270675971,-0.017375));
#1428=CARTESIAN_POINT('',(-0.0302650064677,0.0168875729324029,-0.03175));
#1429=CARTESIAN_POINT('',(-0.0302650064677,0.0438875729324029,-0.03175));
#1430=CARTESIAN_POINT('',(-0.0302650064677,0.0438875729324029,-0.03175));
#1431=CARTESIAN_POINT('',(-0.0302650064677,0.0168875729324029,-0.03175));
#1432=CARTESIAN_POINT('',(-0.0302650064677,0.0438875729324029,-0.017375));
#1433=CARTESIAN_POINT('',(-0.0302650064677,0.0438875729324029,-0.017375));
#1434=CARTESIAN_POINT('',(-0.0302650064677,0.0168875729324029,-0.065));
#1435=CARTESIAN_POINT('',(0.0167349935323,0.0638875729324029,-0.09825));
#1436=CARTESIAN_POINT('',(-0.0102650064677,0.0638875729324029,-0.09825));
#1437=CARTESIAN_POINT('',(-0.0102650064677,0.0638875729324029,-0.09825));
#1438=CARTESIAN_POINT('',(0.0167349935323,0.0638875729324029,-0.09825));
#1439=CARTESIAN_POINT('',(0.0437349935323,0.0638875729324029,-0.09825));
#1440=CARTESIAN_POINT('',(0.0437349935323,0.0638875729324029,-0.09825));
#1441=CARTESIAN_POINT('',(-0.0102650064677,0.0638875729324029,-0.112625));
#1442=CARTESIAN_POINT('',(-0.0102650064677,0.0638875729324029,-0.127));
#1443=CARTESIAN_POINT('',(-0.0102650064677,0.0638875729324029,-0.127));
#1444=CARTESIAN_POINT('',(-0.0102650064677,0.0638875729324029,-0.112625));
#1445=CARTESIAN_POINT('',(0.0167349935323,0.0638875729324029,-0.127));
#1446=CARTESIAN_POINT('',(0.0437349935323,0.0638875729324029,-0.127));
#1447=CARTESIAN_POINT('',(0.0437349935323,0.0638875729324029,-0.127));
#1448=CARTESIAN_POINT('',(0.0167349935323,0.0638875729324029,-0.127));
#1449=CARTESIAN_POINT('',(0.0437349935323,0.0638875729324029,-0.112625));
#1450=CARTESIAN_POINT('',(0.0437349935323,0.0638875729324029,-0.112625));
#1451=CARTESIAN_POINT('',(0.0167349935323,0.0638875729324029,-0.065));
#1452=CARTESIAN_POINT('',(0.0167349935323,0.0638875729324029,-0.0665));
#1453=CARTESIAN_POINT('',(-0.0102650064677,0.0638875729324029,-0.0665));
#1454=CARTESIAN_POINT('',(-0.0102650064677,0.0638875729324029,-0.0665));
#1455=CARTESIAN_POINT('',(0.0167349935323,0.0638875729324029,-0.0665));
#1456=CARTESIAN_POINT('',(0.0437349935323,0.0638875729324029,-0.0665));
#1457=CARTESIAN_POINT('',(0.0437349935323,0.0638875729324029,-0.0665));
#1458=CARTESIAN_POINT('',(-0.0102650064677,0.0638875729324029,-0.080875));
#1459=CARTESIAN_POINT('',(-0.0102650064677,0.0638875729324029,-0.09525));
#1460=CARTESIAN_POINT('',(-0.0102650064677,0.0638875729324029,-0.09525));
#1461=CARTESIAN_POINT('',(-0.0102650064677,0.0638875729324029,-0.080875));
#1462=CARTESIAN_POINT('',(0.0167349935323,0.0638875729324029,-0.09525));
#1463=CARTESIAN_POINT('',(0.0437349935323,0.0638875729324029,-0.09525));
#1464=CARTESIAN_POINT('',(0.0437349935323,0.0638875729324029,-0.09525));
#1465=CARTESIAN_POINT('',(0.0167349935323,0.0638875729324029,-0.09525));
#1466=CARTESIAN_POINT('',(0.0437349935323,0.0638875729324029,-0.080875));
#1467=CARTESIAN_POINT('',(0.0437349935323,0.0638875729324029,-0.080875));
#1468=CARTESIAN_POINT('',(0.0167349935323,0.0638875729324029,-0.065));
#1469=CARTESIAN_POINT('',(0.0167349935323,0.0638875729324029,-0.03475));
#1470=CARTESIAN_POINT('',(-0.0102650064677,0.0638875729324029,-0.03475));
#1471=CARTESIAN_POINT('',(-0.0102650064677,0.0638875729324029,-0.03475));
#1472=CARTESIAN_POINT('',(0.0167349935323,0.0638875729324029,-0.03475));
#1473=CARTESIAN_POINT('',(0.0437349935323,0.0638875729324029,-0.03475));
#1474=CARTESIAN_POINT('',(0.0437349935323,0.0638875729324029,-0.03475));
#1475=CARTESIAN_POINT('',(-0.0102650064677,0.0638875729324029,-0.049125));
#1476=CARTESIAN_POINT('',(-0.0102650064677,0.0638875729324029,-0.0635));
#1477=CARTESIAN_POINT('',(-0.0102650064677,0.0638875729324029,-0.0635));
#1478=CARTESIAN_POINT('',(-0.0102650064677,0.0638875729324029,-0.049125));
#1479=CARTESIAN_POINT('',(0.0167349935323,0.0638875729324029,-0.0635));
#1480=CARTESIAN_POINT('',(0.0437349935323,0.0638875729324029,-0.0635));
#1481=CARTESIAN_POINT('',(0.0437349935323,0.0638875729324029,-0.0635));
#1482=CARTESIAN_POINT('',(0.0167349935323,0.0638875729324029,-0.0635));
#1483=CARTESIAN_POINT('',(0.0437349935323,0.0638875729324029,-0.049125));
#1484=CARTESIAN_POINT('',(0.0437349935323,0.0638875729324029,-0.049125));
#1485=CARTESIAN_POINT('',(0.0167349935323,0.0638875729324029,-0.065));
#1486=CARTESIAN_POINT('',(0.0167349935323,0.0638875729324029,-0.003));
#1487=CARTESIAN_POINT('',(-0.0102650064677,0.0638875729324029,-0.003));
#1488=CARTESIAN_POINT('',(-0.0102650064677,0.0638875729324029,-0.003));
#1489=CARTESIAN_POINT('',(0.0167349935323,0.0638875729324029,-0.003));
#1490=CARTESIAN_POINT('',(0.0437349935323,0.0638875729324029,-0.003));
#1491=CARTESIAN_POINT('',(0.0437349935323,0.0638875729324029,-0.003));
#1492=CARTESIAN_POINT('',(-0.0102650064677,0.0638875729324029,-0.017375));
#1493=CARTESIAN_POINT('',(-0.0102650064677,0.0638875729324029,-0.03175));
#1494=CARTESIAN_POINT('',(-0.0102650064677,0.0638875729324029,-0.03175));
#1495=CARTESIAN_POINT('',(-0.0102650064677,0.0638875729324029,-0.017375));
#1496=CARTESIAN_POINT('',(0.0167349935323,0.0638875729324029,-0.03175));
#1497=CARTESIAN_POINT('',(0.0437349935323,0.0638875729324029,-0.03175));
#1498=CARTESIAN_POINT('',(0.0437349935323,0.0638875729324029,-0.03175));
#1499=CARTESIAN_POINT('',(0.0167349935323,0.0638875729324029,-0.03175));
#1500=CARTESIAN_POINT('',(0.0437349935323,0.0638875729324029,-0.017375));
#1501=CARTESIAN_POINT('',(0.0437349935323,0.0638875729324029,-0.017375));
#1502=CARTESIAN_POINT('',(0.0167349935323,0.0638875729324029,-0.065));
#1503=CARTESIAN_POINT('',(-0.0157650064677,0.0568875729324029,-0.000299999999999994));
#1504=CARTESIAN_POINT('',(-0.0157650064677,0.0493875729324029,-0.000299999999999994));
#1505=CARTESIAN_POINT('',(-0.0157650064677,0.0493875729324029,-0.000299999999999994));
#1506=CARTESIAN_POINT('',(-0.0157650064677,0.0568875729324029,-0.000299999999999994));
#1507=CARTESIAN_POINT('',(-0.0157650064677,0.0643875729324029,-0.000299999999999994));
#1508=CARTESIAN_POINT('',(-0.0157650064677,0.0643875729324029,-0.000299999999999994));
#1509=CARTESIAN_POINT('',(-0.0232650064677,0.0493875729324029,-0.000299999999999994));
#1510=CARTESIAN_POINT('',(-0.0307650064677,0.0493875729324029,-0.000299999999999994));
#1511=CARTESIAN_POINT('',(-0.0307650064677,0.0493875729324029,-0.000299999999999994));
#1512=CARTESIAN_POINT('',(-0.0232650064677,0.0493875729324029,-0.000299999999999994));
#1513=CARTESIAN_POINT('',(-0.0307650064677,0.0568875729324029,-0.000299999999999994));
#1514=CARTESIAN_POINT('',(-0.0307650064677,0.0643875729324029,-0.000299999999999994));
#1515=CARTESIAN_POINT('',(-0.0307650064677,0.0643875729324029,-0.000299999999999994));
#1516=CARTESIAN_POINT('',(-0.0307650064677,0.0568875729324029,-0.000299999999999994));
#1517=CARTESIAN_POINT('',(-0.0232650064677,0.0643875729324029,-0.000299999999999994));
#1518=CARTESIAN_POINT('',(-0.0232650064677,0.0643875729324029,-0.000299999999999994));
#1519=CARTESIAN_POINT('',(0.0067349935323,0.0268875729324029,-0.000299999999999994));
#1520=MECHANICAL_DESIGN_GEOMETRIC_PRESENTATION_REPRESENTATION('',(#957),
#1521);
#1521=(
GEOMETRIC_REPRESENTATION_CONTEXT(3)
GLOBAL_UNCERTAINTY_ASSIGNED_CONTEXT((#1522))
GLOBAL_UNIT_ASSIGNED_CONTEXT((#1525,#1524,#1523))
REPRESENTATION_CONTEXT('CORNER BOOKSHELF','TOP_LEVEL_ASSEMBLY_PART')
);
#1522=UNCERTAINTY_MEASURE_WITH_UNIT(LENGTH_MEASURE(1.E-8),#1525,
'DISTANCE_ACCURACY_VALUE','Maximum Tolerance applied to model');
#1523=(
NAMED_UNIT(*)
SI_UNIT($,.STERADIAN.)
SOLID_ANGLE_UNIT()
);
#1524=(
NAMED_UNIT(*)
PLANE_ANGLE_UNIT()
SI_UNIT($,.RADIAN.)
);
#1525=(
LENGTH_UNIT()
NAMED_UNIT(*)
SI_UNIT($,.METRE.)
);
#1526=PRODUCT_DEFINITION_SHAPE('','',#1527);
#1527=PRODUCT_DEFINITION('','',#1529,#1528);
#1528=PRODUCT_DEFINITION_CONTEXT('',#1535,'design');
#1529=PRODUCT_DEFINITION_FORMATION_WITH_SPECIFIED_SOURCE('','',#1531,
 .NOT_KNOWN.);
#1530=PRODUCT_RELATED_PRODUCT_CATEGORY('','',(#1531));
#1531=PRODUCT('CORNER BOOKSHELF','CORNER BOOKSHELF','CORNER BOOKSHELF',
(#1533));
#1532=PRODUCT_CATEGORY('','');
#1533=PRODUCT_CONTEXT('',#1535,'mechanical');
#1534=APPLICATION_PROTOCOL_DEFINITION('international standard',
'ap242_managed_model_based_3d_engineering',2020,#1535);
#1535=APPLICATION_CONTEXT('managed model based 3d engineering');
ENDSEC;
END-ISO-10303-21;
