ISO-10303-21;
HEADER;
/* Generated by software containing ST-Developer
 * from STEP Tools, Inc. (www.steptools.com) 
 */
/* OPTION: using custom renumber hook */

FILE_DESCRIPTION(
/* description */ ('STEP AP242 Edition 2',
'CAx-IF Rec.Pracs.---Representation and Presentation of Product Manufa
cturing Information (PMI)---4.0---2014-10-13',
'CAx-IF Rec.Pracs.---3D Tessellated Geometry---0.4---2014-09-14','2;1',
'CAx-IF Rec.Pracs.---User Defined Attributes---1.5---2016-08-15'),
/* implementation_level */ '2;1');

FILE_NAME(
/* name */ 'DRAWERS - Part 1',
/* time_stamp */ '2026-09-08T03:13:38Z',
/* author */ (''),
/* organization */ (''),
/* preprocessor_version */ 'ST-DEVELOPER v20',
/* originating_system */ 'ONSHAPE BY PTC INC, 1.220',
/* authorisation */ '  ');

FILE_SCHEMA (('AP242_MANAGED_MODEL_BASED_3D_ENGINEERING_MIM_LF { 1 0 10303 442 3 1 4 }'));
ENDSEC;

DATA;
#10=SHAPE_REPRESENTATION_RELATIONSHIP('','',#401,#11);
#11=ADVANCED_BREP_SHAPE_REPRESENTATION('',(#399),#633);
#12=SPHERICAL_SURFACE('',#420,0.0015);
#13=SPHERICAL_SURFACE('',#421,0.0015);
#14=CIRCLE('',#406,0.0015);
#15=CIRCLE('',#417,0.0015);
#16=ORIENTED_EDGE('',*,*,#116,.T.);
#17=ORIENTED_EDGE('',*,*,#117,.T.);
#18=ORIENTED_EDGE('',*,*,#118,.F.);
#19=ORIENTED_EDGE('',*,*,#119,.F.);
#20=ORIENTED_EDGE('',*,*,#120,.F.);
#21=ORIENTED_EDGE('',*,*,#121,.F.);
#22=ORIENTED_EDGE('',*,*,#122,.T.);
#23=ORIENTED_EDGE('',*,*,#123,.T.);
#24=ORIENTED_EDGE('',*,*,#124,.F.);
#25=ORIENTED_EDGE('',*,*,#118,.T.);
#26=ORIENTED_EDGE('',*,*,#125,.T.);
#27=ORIENTED_EDGE('',*,*,#123,.F.);
#28=ORIENTED_EDGE('',*,*,#126,.F.);
#29=ORIENTED_EDGE('',*,*,#127,.F.);
#30=ORIENTED_EDGE('',*,*,#128,.T.);
#31=ORIENTED_EDGE('',*,*,#129,.T.);
#32=ORIENTED_EDGE('',*,*,#130,.F.);
#33=ORIENTED_EDGE('',*,*,#131,.F.);
#34=ORIENTED_EDGE('',*,*,#130,.T.);
#35=ORIENTED_EDGE('',*,*,#132,.T.);
#36=ORIENTED_EDGE('',*,*,#133,.F.);
#37=ORIENTED_EDGE('',*,*,#134,.F.);
#38=ORIENTED_EDGE('',*,*,#135,.T.);
#39=ORIENTED_EDGE('',*,*,#133,.T.);
#40=ORIENTED_EDGE('',*,*,#136,.F.);
#41=ORIENTED_EDGE('',*,*,#129,.F.);
#42=ORIENTED_EDGE('',*,*,#137,.F.);
#43=ORIENTED_EDGE('',*,*,#138,.F.);
#44=ORIENTED_EDGE('',*,*,#139,.T.);
#45=ORIENTED_EDGE('',*,*,#140,.T.);
#46=ORIENTED_EDGE('',*,*,#141,.F.);
#47=ORIENTED_EDGE('',*,*,#136,.T.);
#48=ORIENTED_EDGE('',*,*,#132,.F.);
#49=ORIENTED_EDGE('',*,*,#142,.F.);
#50=ORIENTED_EDGE('',*,*,#143,.T.);
#51=ORIENTED_EDGE('',*,*,#144,.T.);
#52=ORIENTED_EDGE('',*,*,#145,.F.);
#53=ORIENTED_EDGE('',*,*,#126,.T.);
#54=ORIENTED_EDGE('',*,*,#122,.F.);
#55=ORIENTED_EDGE('',*,*,#146,.F.);
#56=ORIENTED_EDGE('',*,*,#119,.T.);
#57=ORIENTED_EDGE('',*,*,#147,.F.);
#58=ORIENTED_EDGE('',*,*,#148,.T.);
#59=ORIENTED_EDGE('',*,*,#149,.T.);
#60=ORIENTED_EDGE('',*,*,#150,.F.);
#61=ORIENTED_EDGE('',*,*,#151,.F.);
#62=ORIENTED_EDGE('',*,*,#144,.F.);
#63=ORIENTED_EDGE('',*,*,#152,.T.);
#64=ORIENTED_EDGE('',*,*,#150,.T.);
#65=ORIENTED_EDGE('',*,*,#143,.F.);
#66=ORIENTED_EDGE('',*,*,#153,.T.);
#67=ORIENTED_EDGE('',*,*,#147,.T.);
#68=ORIENTED_EDGE('',*,*,#152,.F.);
#69=ORIENTED_EDGE('',*,*,#116,.F.);
#70=ORIENTED_EDGE('',*,*,#146,.T.);
#71=ORIENTED_EDGE('',*,*,#121,.T.);
#72=ORIENTED_EDGE('',*,*,#154,.F.);
#73=ORIENTED_EDGE('',*,*,#127,.T.);
#74=ORIENTED_EDGE('',*,*,#131,.T.);
#75=ORIENTED_EDGE('',*,*,#135,.F.);
#76=ORIENTED_EDGE('',*,*,#155,.F.);
#77=ORIENTED_EDGE('',*,*,#156,.F.);
#78=ORIENTED_EDGE('',*,*,#157,.F.);
#79=ORIENTED_EDGE('',*,*,#145,.T.);
#80=ORIENTED_EDGE('',*,*,#151,.T.);
#81=ORIENTED_EDGE('',*,*,#149,.F.);
#82=ORIENTED_EDGE('',*,*,#157,.T.);
#83=ORIENTED_EDGE('',*,*,#148,.F.);
#84=ORIENTED_EDGE('',*,*,#153,.F.);
#85=ORIENTED_EDGE('',*,*,#142,.T.);
#86=ORIENTED_EDGE('',*,*,#125,.F.);
#87=ORIENTED_EDGE('',*,*,#117,.F.);
#88=ORIENTED_EDGE('',*,*,#154,.T.);
#89=ORIENTED_EDGE('',*,*,#120,.T.);
#90=ORIENTED_EDGE('',*,*,#124,.T.);
#91=ORIENTED_EDGE('',*,*,#156,.T.);
#92=ORIENTED_EDGE('',*,*,#158,.F.);
#93=ORIENTED_EDGE('',*,*,#140,.F.);
#94=ORIENTED_EDGE('',*,*,#159,.T.);
#95=ORIENTED_EDGE('',*,*,#160,.T.);
#96=ORIENTED_EDGE('',*,*,#161,.T.);
#97=ORIENTED_EDGE('',*,*,#162,.F.);
#98=ORIENTED_EDGE('',*,*,#163,.F.);
#99=ORIENTED_EDGE('',*,*,#138,.T.);
#100=ORIENTED_EDGE('',*,*,#164,.T.);
#101=ORIENTED_EDGE('',*,*,#160,.F.);
#102=ORIENTED_EDGE('',*,*,#165,.F.);
#103=ORIENTED_EDGE('',*,*,#162,.T.);
#104=ORIENTED_EDGE('',*,*,#159,.F.);
#105=ORIENTED_EDGE('',*,*,#139,.F.);
#106=ORIENTED_EDGE('',*,*,#163,.T.);
#107=ORIENTED_EDGE('',*,*,#165,.T.);
#108=ORIENTED_EDGE('',*,*,#128,.F.);
#109=ORIENTED_EDGE('',*,*,#155,.T.);
#110=ORIENTED_EDGE('',*,*,#134,.T.);
#111=ORIENTED_EDGE('',*,*,#141,.T.);
#112=ORIENTED_EDGE('',*,*,#158,.T.);
#113=ORIENTED_EDGE('',*,*,#164,.F.);
#114=ORIENTED_EDGE('',*,*,#161,.F.);
#115=ORIENTED_EDGE('',*,*,#137,.T.);
#116=EDGE_CURVE('',#166,#167,#200,.T.);
#117=EDGE_CURVE('',#167,#168,#201,.T.);
#118=EDGE_CURVE('',#169,#168,#202,.T.);
#119=EDGE_CURVE('',#166,#169,#203,.T.);
#120=EDGE_CURVE('',#170,#171,#204,.T.);
#121=EDGE_CURVE('',#172,#170,#205,.T.);
#122=EDGE_CURVE('',#172,#173,#206,.T.);
#123=EDGE_CURVE('',#173,#171,#207,.T.);
#124=EDGE_CURVE('',#174,#174,#14,.T.);
#125=EDGE_CURVE('',#168,#171,#208,.T.);
#126=EDGE_CURVE('',#169,#173,#209,.T.);
#127=EDGE_CURVE('',#175,#176,#210,.T.);
#128=EDGE_CURVE('',#175,#177,#211,.T.);
#129=EDGE_CURVE('',#177,#178,#212,.T.);
#130=EDGE_CURVE('',#176,#178,#213,.T.);
#131=EDGE_CURVE('',#176,#179,#214,.T.);
#132=EDGE_CURVE('',#178,#180,#215,.T.);
#133=EDGE_CURVE('',#179,#180,#216,.T.);
#134=EDGE_CURVE('',#181,#182,#217,.T.);
#135=EDGE_CURVE('',#181,#179,#218,.T.);
#136=EDGE_CURVE('',#182,#180,#219,.T.);
#137=EDGE_CURVE('',#183,#177,#220,.T.);
#138=EDGE_CURVE('',#184,#183,#221,.T.);
#139=EDGE_CURVE('',#184,#185,#222,.T.);
#140=EDGE_CURVE('',#185,#186,#223,.T.);
#141=EDGE_CURVE('',#182,#186,#224,.T.);
#142=EDGE_CURVE('',#187,#188,#225,.T.);
#143=EDGE_CURVE('',#187,#189,#226,.T.);
#144=EDGE_CURVE('',#189,#190,#227,.T.);
#145=EDGE_CURVE('',#188,#190,#228,.T.);
#146=EDGE_CURVE('',#166,#172,#229,.T.);
#147=EDGE_CURVE('',#191,#192,#230,.T.);
#148=EDGE_CURVE('',#191,#193,#231,.T.);
#149=EDGE_CURVE('',#193,#194,#232,.T.);
#150=EDGE_CURVE('',#192,#194,#233,.T.);
#151=EDGE_CURVE('',#190,#194,#234,.T.);
#152=EDGE_CURVE('',#189,#192,#235,.T.);
#153=EDGE_CURVE('',#187,#191,#236,.T.);
#154=EDGE_CURVE('',#167,#170,#237,.T.);
#155=EDGE_CURVE('',#175,#181,#238,.T.);
#156=EDGE_CURVE('',#195,#195,#15,.T.);
#157=EDGE_CURVE('',#188,#193,#239,.T.);
#158=EDGE_CURVE('',#186,#196,#240,.T.);
#159=EDGE_CURVE('',#185,#197,#241,.T.);
#160=EDGE_CURVE('',#197,#196,#242,.T.);
#161=EDGE_CURVE('',#183,#198,#243,.T.);
#162=EDGE_CURVE('',#199,#198,#244,.T.);
#163=EDGE_CURVE('',#184,#199,#245,.T.);
#164=EDGE_CURVE('',#198,#196,#246,.T.);
#165=EDGE_CURVE('',#199,#197,#247,.T.);
#166=VERTEX_POINT('',#528);
#167=VERTEX_POINT('',#529);
#168=VERTEX_POINT('',#531);
#169=VERTEX_POINT('',#533);
#170=VERTEX_POINT('',#537);
#171=VERTEX_POINT('',#538);
#172=VERTEX_POINT('',#540);
#173=VERTEX_POINT('',#542);
#174=VERTEX_POINT('',#546);
#175=VERTEX_POINT('',#551);
#176=VERTEX_POINT('',#552);
#177=VERTEX_POINT('',#554);
#178=VERTEX_POINT('',#556);
#179=VERTEX_POINT('',#560);
#180=VERTEX_POINT('',#562);
#181=VERTEX_POINT('',#566);
#182=VERTEX_POINT('',#567);
#183=VERTEX_POINT('',#572);
#184=VERTEX_POINT('',#574);
#185=VERTEX_POINT('',#576);
#186=VERTEX_POINT('',#578);
#187=VERTEX_POINT('',#582);
#188=VERTEX_POINT('',#583);
#189=VERTEX_POINT('',#585);
#190=VERTEX_POINT('',#587);
#191=VERTEX_POINT('',#593);
#192=VERTEX_POINT('',#594);
#193=VERTEX_POINT('',#596);
#194=VERTEX_POINT('',#598);
#195=VERTEX_POINT('',#609);
#196=VERTEX_POINT('',#617);
#197=VERTEX_POINT('',#619);
#198=VERTEX_POINT('',#623);
#199=VERTEX_POINT('',#625);
#200=LINE('',#527,#248);
#201=LINE('',#530,#249);
#202=LINE('',#532,#250);
#203=LINE('',#534,#251);
#204=LINE('',#536,#252);
#205=LINE('',#539,#253);
#206=LINE('',#541,#254);
#207=LINE('',#543,#255);
#208=LINE('',#547,#256);
#209=LINE('',#548,#257);
#210=LINE('',#550,#258);
#211=LINE('',#553,#259);
#212=LINE('',#555,#260);
#213=LINE('',#557,#261);
#214=LINE('',#559,#262);
#215=LINE('',#561,#263);
#216=LINE('',#563,#264);
#217=LINE('',#565,#265);
#218=LINE('',#568,#266);
#219=LINE('',#569,#267);
#220=LINE('',#571,#268);
#221=LINE('',#573,#269);
#222=LINE('',#575,#270);
#223=LINE('',#577,#271);
#224=LINE('',#579,#272);
#225=LINE('',#581,#273);
#226=LINE('',#584,#274);
#227=LINE('',#586,#275);
#228=LINE('',#588,#276);
#229=LINE('',#590,#277);
#230=LINE('',#592,#278);
#231=LINE('',#595,#279);
#232=LINE('',#597,#280);
#233=LINE('',#599,#281);
#234=LINE('',#601,#282);
#235=LINE('',#602,#283);
#236=LINE('',#604,#284);
#237=LINE('',#605,#285);
#238=LINE('',#606,#286);
#239=LINE('',#610,#287);
#240=LINE('',#616,#288);
#241=LINE('',#618,#289);
#242=LINE('',#620,#290);
#243=LINE('',#622,#291);
#244=LINE('',#624,#292);
#245=LINE('',#626,#293);
#246=LINE('',#628,#294);
#247=LINE('',#629,#295);
#248=VECTOR('',#431,1.);
#249=VECTOR('',#432,1.);
#250=VECTOR('',#433,1.);
#251=VECTOR('',#434,1.);
#252=VECTOR('',#437,1.);
#253=VECTOR('',#438,1.);
#254=VECTOR('',#439,1.);
#255=VECTOR('',#440,1.);
#256=VECTOR('',#445,1.);
#257=VECTOR('',#446,1.);
#258=VECTOR('',#449,1.);
#259=VECTOR('',#450,1.);
#260=VECTOR('',#451,1.);
#261=VECTOR('',#452,1.);
#262=VECTOR('',#455,1.);
#263=VECTOR('',#456,1.);
#264=VECTOR('',#457,1.);
#265=VECTOR('',#460,1.);
#266=VECTOR('',#461,1.);
#267=VECTOR('',#462,1.);
#268=VECTOR('',#465,1.);
#269=VECTOR('',#466,1.);
#270=VECTOR('',#467,1.);
#271=VECTOR('',#468,1.);
#272=VECTOR('',#469,1.);
#273=VECTOR('',#472,1.);
#274=VECTOR('',#473,1.);
#275=VECTOR('',#474,1.);
#276=VECTOR('',#475,1.);
#277=VECTOR('',#478,1.);
#278=VECTOR('',#481,1.);
#279=VECTOR('',#482,1.);
#280=VECTOR('',#483,1.);
#281=VECTOR('',#484,1.);
#282=VECTOR('',#487,1.);
#283=VECTOR('',#488,1.);
#284=VECTOR('',#491,1.);
#285=VECTOR('',#492,1.);
#286=VECTOR('',#493,1.);
#287=VECTOR('',#498,1.);
#288=VECTOR('',#509,1.);
#289=VECTOR('',#510,1.);
#290=VECTOR('',#511,1.);
#291=VECTOR('',#514,1.);
#292=VECTOR('',#515,1.);
#293=VECTOR('',#516,1.);
#294=VECTOR('',#519,1.);
#295=VECTOR('',#520,1.);
#296=EDGE_LOOP('',(#16,#17,#18,#19));
#297=EDGE_LOOP('',(#20,#21,#22,#23));
#298=EDGE_LOOP('',(#24));
#299=EDGE_LOOP('',(#25,#26,#27,#28));
#300=EDGE_LOOP('',(#29,#30,#31,#32));
#301=EDGE_LOOP('',(#33,#34,#35,#36));
#302=EDGE_LOOP('',(#37,#38,#39,#40));
#303=EDGE_LOOP('',(#41,#42,#43,#44,#45,#46,#47,#48));
#304=EDGE_LOOP('',(#49,#50,#51,#52));
#305=EDGE_LOOP('',(#53,#54,#55,#56));
#306=EDGE_LOOP('',(#57,#58,#59,#60));
#307=EDGE_LOOP('',(#61,#62,#63,#64));
#308=EDGE_LOOP('',(#65,#66,#67,#68));
#309=EDGE_LOOP('',(#69,#70,#71,#72));
#310=EDGE_LOOP('',(#73,#74,#75,#76));
#311=EDGE_LOOP('',(#77));
#312=EDGE_LOOP('',(#78,#79,#80,#81));
#313=EDGE_LOOP('',(#82,#83,#84,#85));
#314=EDGE_LOOP('',(#86,#87,#88,#89));
#315=EDGE_LOOP('',(#90));
#316=EDGE_LOOP('',(#91));
#317=EDGE_LOOP('',(#92,#93,#94,#95));
#318=EDGE_LOOP('',(#96,#97,#98,#99));
#319=EDGE_LOOP('',(#100,#101,#102,#103));
#320=EDGE_LOOP('',(#104,#105,#106,#107));
#321=EDGE_LOOP('',(#108,#109,#110,#111,#112,#113,#114,#115));
#322=FACE_BOUND('',#296,.T.);
#323=FACE_BOUND('',#297,.T.);
#324=FACE_BOUND('',#298,.T.);
#325=FACE_BOUND('',#299,.T.);
#326=FACE_BOUND('',#300,.T.);
#327=FACE_BOUND('',#301,.T.);
#328=FACE_BOUND('',#302,.T.);
#329=FACE_BOUND('',#303,.T.);
#330=FACE_BOUND('',#304,.T.);
#331=FACE_BOUND('',#305,.T.);
#332=FACE_BOUND('',#306,.T.);
#333=FACE_BOUND('',#307,.T.);
#334=FACE_BOUND('',#308,.T.);
#335=FACE_BOUND('',#309,.T.);
#336=FACE_BOUND('',#310,.T.);
#337=FACE_BOUND('',#311,.T.);
#338=FACE_BOUND('',#312,.T.);
#339=FACE_BOUND('',#313,.T.);
#340=FACE_BOUND('',#314,.T.);
#341=FACE_BOUND('',#315,.T.);
#342=FACE_BOUND('',#316,.T.);
#343=FACE_BOUND('',#317,.T.);
#344=FACE_BOUND('',#318,.T.);
#345=FACE_BOUND('',#319,.T.);
#346=FACE_BOUND('',#320,.T.);
#347=FACE_BOUND('',#321,.T.);
#348=PLANE('',#403);
#349=PLANE('',#404);
#350=PLANE('',#405);
#351=PLANE('',#407);
#352=PLANE('',#408);
#353=PLANE('',#409);
#354=PLANE('',#410);
#355=PLANE('',#411);
#356=PLANE('',#412);
#357=PLANE('',#413);
#358=PLANE('',#414);
#359=PLANE('',#415);
#360=PLANE('',#416);
#361=PLANE('',#418);
#362=PLANE('',#419);
#363=PLANE('',#422);
#364=PLANE('',#423);
#365=PLANE('',#424);
#366=PLANE('',#425);
#367=PLANE('',#426);
#368=ADVANCED_FACE('',(#322),#348,.T.);
#369=ADVANCED_FACE('',(#323),#349,.F.);
#370=ADVANCED_FACE('',(#324,#325),#350,.T.);
#371=ADVANCED_FACE('',(#326),#351,.F.);
#372=ADVANCED_FACE('',(#327),#352,.F.);
#373=ADVANCED_FACE('',(#328),#353,.T.);
#374=ADVANCED_FACE('',(#329),#354,.F.);
#375=ADVANCED_FACE('',(#330),#355,.T.);
#376=ADVANCED_FACE('',(#331),#356,.F.);
#377=ADVANCED_FACE('',(#332),#357,.F.);
#378=ADVANCED_FACE('',(#333),#358,.T.);
#379=ADVANCED_FACE('',(#334,#335,#336),#359,.T.);
#380=ADVANCED_FACE('',(#337,#338),#360,.T.);
#381=ADVANCED_FACE('',(#339),#361,.F.);
#382=ADVANCED_FACE('',(#340),#362,.T.);
#383=ADVANCED_FACE('',(#341),#12,.T.);
#384=ADVANCED_FACE('',(#342),#13,.T.);
#385=ADVANCED_FACE('',(#343),#363,.T.);
#386=ADVANCED_FACE('',(#344),#364,.F.);
#387=ADVANCED_FACE('',(#345),#365,.F.);
#388=ADVANCED_FACE('',(#346),#366,.T.);
#389=ADVANCED_FACE('',(#347),#367,.F.);
#390=CLOSED_SHELL('',(#368,#369,#370,#371,#372,#373,#374,#375,#376,#377,
#378,#379,#380,#381,#382,#383,#384,#385,#386,#387,#388,#389));
#391=STYLED_ITEM('',(#392),#399);
#392=PRESENTATION_STYLE_ASSIGNMENT((#393));
#393=SURFACE_STYLE_USAGE(.BOTH.,#394);
#394=SURFACE_SIDE_STYLE('',(#395));
#395=SURFACE_STYLE_FILL_AREA(#396);
#396=FILL_AREA_STYLE('',(#397));
#397=FILL_AREA_STYLE_COLOUR('',#398);
#398=COLOUR_RGB('',0.615686274509804,0.811764705882353,0.929411764705882);
#399=MANIFOLD_SOLID_BREP('Part 1',#390);
#400=SHAPE_DEFINITION_REPRESENTATION(#638,#401);
#401=SHAPE_REPRESENTATION('Part 1',(#402),#633);
#402=AXIS2_PLACEMENT_3D('',#525,#427,#428);
#403=AXIS2_PLACEMENT_3D('',#526,#429,#430);
#404=AXIS2_PLACEMENT_3D('',#535,#435,#436);
#405=AXIS2_PLACEMENT_3D('',#544,#441,#442);
#406=AXIS2_PLACEMENT_3D('',#545,#443,#444);
#407=AXIS2_PLACEMENT_3D('',#549,#447,#448);
#408=AXIS2_PLACEMENT_3D('',#558,#453,#454);
#409=AXIS2_PLACEMENT_3D('',#564,#458,#459);
#410=AXIS2_PLACEMENT_3D('',#570,#463,#464);
#411=AXIS2_PLACEMENT_3D('',#580,#470,#471);
#412=AXIS2_PLACEMENT_3D('',#589,#476,#477);
#413=AXIS2_PLACEMENT_3D('',#591,#479,#480);
#414=AXIS2_PLACEMENT_3D('',#600,#485,#486);
#415=AXIS2_PLACEMENT_3D('',#603,#489,#490);
#416=AXIS2_PLACEMENT_3D('',#607,#494,#495);
#417=AXIS2_PLACEMENT_3D('',#608,#496,#497);
#418=AXIS2_PLACEMENT_3D('',#611,#499,#500);
#419=AXIS2_PLACEMENT_3D('',#612,#501,#502);
#420=AXIS2_PLACEMENT_3D('',#613,#503,#504);
#421=AXIS2_PLACEMENT_3D('',#614,#505,#506);
#422=AXIS2_PLACEMENT_3D('',#615,#507,#508);
#423=AXIS2_PLACEMENT_3D('',#621,#512,#513);
#424=AXIS2_PLACEMENT_3D('',#627,#517,#518);
#425=AXIS2_PLACEMENT_3D('',#630,#521,#522);
#426=AXIS2_PLACEMENT_3D('',#631,#523,#524);
#427=DIRECTION('',(0.,0.,1.));
#428=DIRECTION('',(1.,0.,0.));
#429=DIRECTION('',(-1.,0.,0.));
#430=DIRECTION('',(0.,0.,1.));
#431=DIRECTION('',(0.,-1.,0.));
#432=DIRECTION('',(0.,0.,1.));
#433=DIRECTION('',(0.,-1.,0.));
#434=DIRECTION('',(0.,0.,1.));
#435=DIRECTION('',(-1.,-3.06127672231202E-16,0.));
#436=DIRECTION('',(3.06127672231202E-16,-1.,0.));
#437=DIRECTION('',(0.,0.,1.));
#438=DIRECTION('',(3.06127672231202E-16,-1.,0.));
#439=DIRECTION('',(0.,0.,1.));
#440=DIRECTION('',(3.06127672231202E-16,-1.,0.));
#441=DIRECTION('',(0.,0.,1.));
#442=DIRECTION('',(1.,0.,0.));
#443=DIRECTION('',(0.,0.,1.));
#444=DIRECTION('',(1.,0.,0.));
#445=DIRECTION('',(1.,0.,0.));
#446=DIRECTION('',(1.,0.,0.));
#447=DIRECTION('',(1.,0.,0.));
#448=DIRECTION('',(0.,0.,-1.));
#449=DIRECTION('',(0.,-1.,0.));
#450=DIRECTION('',(0.,0.,-1.));
#451=DIRECTION('',(0.,-1.,0.));
#452=DIRECTION('',(0.,0.,-1.));
#453=DIRECTION('',(0.,1.,0.));
#454=DIRECTION('',(0.,0.,1.));
#455=DIRECTION('',(1.,0.,0.));
#456=DIRECTION('',(1.,0.,0.));
#457=DIRECTION('',(0.,0.,-1.));
#458=DIRECTION('',(1.,0.,0.));
#459=DIRECTION('',(0.,0.,-1.));
#460=DIRECTION('',(0.,0.,-1.));
#461=DIRECTION('',(0.,-1.,0.));
#462=DIRECTION('',(0.,-1.,0.));
#463=DIRECTION('',(0.,0.,1.));
#464=DIRECTION('',(1.,0.,0.));
#465=DIRECTION('',(1.,0.,-1.22464679914735E-16));
#466=DIRECTION('',(0.,-1.,0.));
#467=DIRECTION('',(1.,0.,-1.22464679914735E-16));
#468=DIRECTION('',(0.,-1.,0.));
#469=DIRECTION('',(1.,0.,-1.22464679914735E-16));
#470=DIRECTION('',(-1.,0.,0.));
#471=DIRECTION('',(0.,0.,1.));
#472=DIRECTION('',(0.,0.,1.));
#473=DIRECTION('',(0.,-1.,0.));
#474=DIRECTION('',(0.,0.,1.));
#475=DIRECTION('',(0.,-1.,0.));
#476=DIRECTION('',(0.,-1.,0.));
#477=DIRECTION('',(0.,0.,-1.));
#478=DIRECTION('',(1.,0.,0.));
#479=DIRECTION('',(-1.,-3.06127672231202E-16,0.));
#480=DIRECTION('',(3.06127672231202E-16,-1.,0.));
#481=DIRECTION('',(3.06127672231202E-16,-1.,0.));
#482=DIRECTION('',(0.,0.,1.));
#483=DIRECTION('',(3.06127672231202E-16,-1.,0.));
#484=DIRECTION('',(0.,0.,1.));
#485=DIRECTION('',(0.,-1.,0.));
#486=DIRECTION('',(0.,0.,-1.));
#487=DIRECTION('',(1.,0.,0.));
#488=DIRECTION('',(1.,0.,0.));
#489=DIRECTION('',(0.,0.,1.));
#490=DIRECTION('',(1.,0.,0.));
#491=DIRECTION('',(1.,0.,0.));
#492=DIRECTION('',(1.,0.,0.));
#493=DIRECTION('',(1.,0.,0.));
#494=DIRECTION('',(0.,0.,1.));
#495=DIRECTION('',(1.,0.,0.));
#496=DIRECTION('',(0.,0.,1.));
#497=DIRECTION('',(1.,0.,0.));
#498=DIRECTION('',(1.,0.,0.));
#499=DIRECTION('',(0.,-1.,0.));
#500=DIRECTION('',(0.,0.,-1.));
#501=DIRECTION('',(0.,-1.,0.));
#502=DIRECTION('',(0.,0.,-1.));
#503=DIRECTION('',(0.,1.,0.));
#504=DIRECTION('',(1.,0.,0.));
#505=DIRECTION('',(0.,1.,0.));
#506=DIRECTION('',(1.,0.,0.));
#507=DIRECTION('',(1.,0.,-1.82602471155453E-16));
#508=DIRECTION('',(-1.82602471155453E-16,0.,-1.));
#509=DIRECTION('',(1.82602471155453E-16,0.,1.));
#510=DIRECTION('',(1.82602471155453E-16,0.,1.));
#511=DIRECTION('',(0.,-1.,0.));
#512=DIRECTION('',(1.,0.,-1.82602471155453E-16));
#513=DIRECTION('',(-1.82602471155453E-16,0.,-1.));
#514=DIRECTION('',(1.82602471155453E-16,0.,1.));
#515=DIRECTION('',(0.,-1.,0.));
#516=DIRECTION('',(1.82602471155453E-16,0.,1.));
#517=DIRECTION('',(-1.2303003375722E-16,0.,-1.));
#518=DIRECTION('',(-1.,0.,1.2303003375722E-16));
#519=DIRECTION('',(1.,0.,-1.2303003375722E-16));
#520=DIRECTION('',(1.,0.,-1.2303003375722E-16));
#521=DIRECTION('',(0.,1.,0.));
#522=DIRECTION('',(-1.,0.,0.));
#523=DIRECTION('',(0.,1.,0.));
#524=DIRECTION('',(-1.,0.,0.));
#525=CARTESIAN_POINT('',(0.,0.,0.));
#526=CARTESIAN_POINT('',(-0.0176787439234555,0.00365870300462374,0.018));
#527=CARTESIAN_POINT('',(-0.0176787439234555,0.00365870300462374,0.018));
#528=CARTESIAN_POINT('',(-0.0176787439234555,0.0311587030046237,0.018));
#529=CARTESIAN_POINT('',(-0.0176787439234555,0.0141587030046237,0.018));
#530=CARTESIAN_POINT('',(-0.0176787439234555,0.0141587030046237,0.018));
#531=CARTESIAN_POINT('',(-0.0176787439234555,0.0141587030046237,0.02));
#532=CARTESIAN_POINT('',(-0.0176787439234555,0.00365870300462374,0.02));
#533=CARTESIAN_POINT('',(-0.0176787439234555,0.0311587030046237,0.02));
#534=CARTESIAN_POINT('',(-0.0176787439234555,0.0311587030046237,0.018));
#535=CARTESIAN_POINT('',(0.00452125607654452,0.0226587030046237,0.018));
#536=CARTESIAN_POINT('',(0.00452125607654453,0.0141587030046237,0.018));
#537=CARTESIAN_POINT('',(0.00452125607654453,0.0141587030046237,0.018));
#538=CARTESIAN_POINT('',(0.00452125607654453,0.0141587030046237,0.02));
#539=CARTESIAN_POINT('',(0.00452125607654452,0.0226587030046237,0.018));
#540=CARTESIAN_POINT('',(0.00452125607654452,0.0311587030046237,0.018));
#541=CARTESIAN_POINT('',(0.00452125607654452,0.0311587030046237,0.018));
#542=CARTESIAN_POINT('',(0.00452125607654452,0.0311587030046237,0.02));
#543=CARTESIAN_POINT('',(0.00452125607654452,0.0226587030046237,0.02));
#544=CARTESIAN_POINT('',(-0.00657874392345548,0.0131587030046237,0.02));
#545=CARTESIAN_POINT('',(-0.00657874392345548,0.0226587030046237,0.02));
#546=CARTESIAN_POINT('',(-0.00507874392345548,0.0226587030046237,0.02));
#547=CARTESIAN_POINT('',(-0.00657874392345547,0.0141587030046237,0.02));
#548=CARTESIAN_POINT('',(-0.00657874392345548,0.0311587030046237,0.02));
#549=CARTESIAN_POINT('',(-0.0196787439234555,0.0131587030046237,0.02));
#550=CARTESIAN_POINT('',(-0.0196787439234555,0.0131587030046237,0.018));
#551=CARTESIAN_POINT('',(-0.0196787439234555,0.0331587030046238,0.018));
#552=CARTESIAN_POINT('',(-0.0196787439234555,-0.00684129699537627,0.018));
#553=CARTESIAN_POINT('',(-0.0196787439234555,0.0331587030046238,0.02));
#554=CARTESIAN_POINT('',(-0.0196787439234555,0.0331587030046238,0.));
#555=CARTESIAN_POINT('',(-0.0196787439234555,0.0131587030046237,0.));
#556=CARTESIAN_POINT('',(-0.0196787439234555,-0.00684129699537627,0.));
#557=CARTESIAN_POINT('',(-0.0196787439234555,-0.00684129699537627,0.02));
#558=CARTESIAN_POINT('',(-0.00657874392345548,-0.00684129699537627,0.02));
#559=CARTESIAN_POINT('',(-0.00657874392345548,-0.00684129699537627,0.018));
#560=CARTESIAN_POINT('',(0.00652125607654453,-0.00684129699537626,0.018));
#561=CARTESIAN_POINT('',(-0.00657874392345548,-0.00684129699537627,0.));
#562=CARTESIAN_POINT('',(0.00652125607654453,-0.00684129699537626,0.));
#563=CARTESIAN_POINT('',(0.00652125607654453,-0.00684129699537626,0.02));
#564=CARTESIAN_POINT('',(0.00652125607654453,0.0131587030046237,0.02));
#565=CARTESIAN_POINT('',(0.00652125607654453,0.0331587030046238,0.02));
#566=CARTESIAN_POINT('',(0.00652125607654453,0.0331587030046238,0.018));
#567=CARTESIAN_POINT('',(0.00652125607654453,0.0331587030046238,-3.11524369634982E-18));
#568=CARTESIAN_POINT('',(0.00652125607654453,0.0131587030046237,0.018));
#569=CARTESIAN_POINT('',(0.00652125607654453,0.0131587030046237,0.));
#570=CARTESIAN_POINT('',(-0.00657874392345548,0.0131587030046237,0.));
#571=CARTESIAN_POINT('',(-0.00657874392345548,0.0331587030046238,-1.51095638946679E-18));
#572=CARTESIAN_POINT('',(-0.0206787439234555,0.0331587030046238,0.));
#573=CARTESIAN_POINT('',(-0.0206787439234555,0.0351587030046238,0.));
#574=CARTESIAN_POINT('',(-0.0206787439234555,0.0351587030046238,0.));
#575=CARTESIAN_POINT('',(-0.00657874392345548,0.0351587030046238,-1.51095638946679E-18));
#576=CARTESIAN_POINT('',(0.00752125607654452,0.0351587030046238,-3.46944695195361E-18));
#577=CARTESIAN_POINT('',(0.00752125607654452,0.0351587030046238,-3.46944695195361E-18));
#578=CARTESIAN_POINT('',(0.00752125607654452,0.0331587030046238,-3.46944695195361E-18));
#579=CARTESIAN_POINT('',(-0.00657874392345548,0.0331587030046238,-1.51095638946679E-18));
#580=CARTESIAN_POINT('',(-0.0176787439234555,0.00365870300462374,0.018));
#581=CARTESIAN_POINT('',(-0.0176787439234555,0.0121587030046237,0.018));
#582=CARTESIAN_POINT('',(-0.0176787439234555,0.0121587030046237,0.018));
#583=CARTESIAN_POINT('',(-0.0176787439234555,0.0121587030046237,0.02));
#584=CARTESIAN_POINT('',(-0.0176787439234555,0.00365870300462374,0.018));
#585=CARTESIAN_POINT('',(-0.0176787439234555,-0.00484129699537626,0.018));
#586=CARTESIAN_POINT('',(-0.0176787439234555,-0.00484129699537626,0.018));
#587=CARTESIAN_POINT('',(-0.0176787439234555,-0.00484129699537626,0.02));
#588=CARTESIAN_POINT('',(-0.0176787439234555,0.00365870300462374,0.02));
#589=CARTESIAN_POINT('',(-0.00657874392345548,0.0311587030046237,0.018));
#590=CARTESIAN_POINT('',(-0.00657874392345548,0.0311587030046237,0.018));
#591=CARTESIAN_POINT('',(0.00452125607654452,0.0226587030046237,0.018));
#592=CARTESIAN_POINT('',(0.00452125607654452,0.0226587030046237,0.018));
#593=CARTESIAN_POINT('',(0.00452125607654453,0.0121587030046237,0.018));
#594=CARTESIAN_POINT('',(0.00452125607654453,-0.00484129699537627,0.018));
#595=CARTESIAN_POINT('',(0.00452125607654453,0.0121587030046237,0.018));
#596=CARTESIAN_POINT('',(0.00452125607654453,0.0121587030046237,0.02));
#597=CARTESIAN_POINT('',(0.00452125607654452,0.0226587030046237,0.02));
#598=CARTESIAN_POINT('',(0.00452125607654453,-0.00484129699537627,0.02));
#599=CARTESIAN_POINT('',(0.00452125607654453,-0.00484129699537627,0.018));
#600=CARTESIAN_POINT('',(-0.00657874392345547,-0.00484129699537627,0.018));
#601=CARTESIAN_POINT('',(-0.00657874392345547,-0.00484129699537627,0.02));
#602=CARTESIAN_POINT('',(-0.00657874392345547,-0.00484129699537627,0.018));
#603=CARTESIAN_POINT('',(-0.00657874392345548,0.0131587030046237,0.018));
#604=CARTESIAN_POINT('',(-0.00657874392345548,0.0121587030046237,0.018));
#605=CARTESIAN_POINT('',(-0.00657874392345547,0.0141587030046237,0.018));
#606=CARTESIAN_POINT('',(-0.00657874392345548,0.0331587030046238,0.018));
#607=CARTESIAN_POINT('',(-0.00657874392345548,0.0131587030046237,0.02));
#608=CARTESIAN_POINT('',(-0.00657874392345547,0.00365870300462374,0.02));
#609=CARTESIAN_POINT('',(-0.00507874392345547,0.00365870300462374,0.02));
#610=CARTESIAN_POINT('',(-0.00657874392345548,0.0121587030046237,0.02));
#611=CARTESIAN_POINT('',(-0.00657874392345548,0.0121587030046237,0.018));
#612=CARTESIAN_POINT('',(-0.00657874392345547,0.0141587030046237,0.018));
#613=CARTESIAN_POINT('',(-0.00657874392345548,0.0226587030046237,0.02));
#614=CARTESIAN_POINT('',(-0.00657874392345547,0.00365870300462374,0.02));
#615=CARTESIAN_POINT('',(0.00752125607654453,0.0351587030046238,0.0095));
#616=CARTESIAN_POINT('',(0.00752125607654453,0.0331587030046238,0.0095));
#617=CARTESIAN_POINT('',(0.00752125607654453,0.0331587030046238,0.019));
#618=CARTESIAN_POINT('',(0.00752125607654453,0.0351587030046238,0.0095));
#619=CARTESIAN_POINT('',(0.00752125607654453,0.0351587030046238,0.019));
#620=CARTESIAN_POINT('',(0.00752125607654453,0.0351587030046238,0.019));
#621=CARTESIAN_POINT('',(-0.0206787439234555,0.0351587030046238,0.0095));
#622=CARTESIAN_POINT('',(-0.0206787439234555,0.0331587030046238,0.0095));
#623=CARTESIAN_POINT('',(-0.0206787439234555,0.0331587030046238,0.019));
#624=CARTESIAN_POINT('',(-0.0206787439234555,0.0351587030046238,0.019));
#625=CARTESIAN_POINT('',(-0.0206787439234555,0.0351587030046238,0.019));
#626=CARTESIAN_POINT('',(-0.0206787439234555,0.0351587030046238,0.0095));
#627=CARTESIAN_POINT('',(-0.00657874392345548,0.0351587030046238,0.019));
#628=CARTESIAN_POINT('',(-0.00657874392345548,0.0331587030046238,0.019));
#629=CARTESIAN_POINT('',(-0.00657874392345548,0.0351587030046238,0.019));
#630=CARTESIAN_POINT('',(-0.00657874392345548,0.0351587030046238,0.0095));
#631=CARTESIAN_POINT('',(-0.00657874392345548,0.0331587030046238,0.0095));
#632=MECHANICAL_DESIGN_GEOMETRIC_PRESENTATION_REPRESENTATION('',(#391),
#633);
#633=(
GEOMETRIC_REPRESENTATION_CONTEXT(3)
GLOBAL_UNCERTAINTY_ASSIGNED_CONTEXT((#634))
GLOBAL_UNIT_ASSIGNED_CONTEXT((#637,#636,#635))
REPRESENTATION_CONTEXT('Part 1','TOP_LEVEL_ASSEMBLY_PART')
);
#634=UNCERTAINTY_MEASURE_WITH_UNIT(LENGTH_MEASURE(1.E-8),#637,
'DISTANCE_ACCURACY_VALUE','Maximum Tolerance applied to model');
#635=(
NAMED_UNIT(*)
SI_UNIT($,.STERADIAN.)
SOLID_ANGLE_UNIT()
);
#636=(
NAMED_UNIT(*)
PLANE_ANGLE_UNIT()
SI_UNIT($,.RADIAN.)
);
#637=(
LENGTH_UNIT()
NAMED_UNIT(*)
SI_UNIT($,.METRE.)
);
#638=PRODUCT_DEFINITION_SHAPE('','',#639);
#639=PRODUCT_DEFINITION('','',#641,#640);
#640=PRODUCT_DEFINITION_CONTEXT('',#647,'design');
#641=PRODUCT_DEFINITION_FORMATION_WITH_SPECIFIED_SOURCE('','',#643,
 .NOT_KNOWN.);
#642=PRODUCT_RELATED_PRODUCT_CATEGORY('','',(#643));
#643=PRODUCT('Part 1','Part 1','Part 1',(#645));
#644=PRODUCT_CATEGORY('','');
#645=PRODUCT_CONTEXT('',#647,'mechanical');
#646=APPLICATION_PROTOCOL_DEFINITION('international standard',
'ap242_managed_model_based_3d_engineering',2020,#647);
#647=APPLICATION_CONTEXT('managed model based 3d engineering');
ENDSEC;
END-ISO-10303-21;
