ISO-10303-21;
HEADER;
/* Generated by software containing ST-Developer
 * from STEP Tools, Inc. (www.steptools.com) 
 */
/* OPTION: using custom renumber hook */

FILE_DESCRIPTION(
/* description */ ('STEP AP242 Edition 2',
'CAx-IF Rec.Pracs.---Representation and Presentation of Product Manufa
cturing Information (PMI)---4.0---2014-10-13',
'CAx-IF Rec.Pracs.---3D Tessellated Geometry---0.4---2014-09-14','2;1',
'CAx-IF Rec.Pracs.---User Defined Attributes---1.5---2016-08-15'),
/* implementation_level */ '2;1');

FILE_NAME(
/* name */ 'TOP - TOP',
/* time_stamp */ '2026-09-08T23:50:06Z',
/* author */ (''),
/* organization */ (''),
/* preprocessor_version */ 'ST-DEVELOPER v20',
/* originating_system */ 'ONSHAPE BY PTC INC, 1.220',
/* authorisation */ '  ');

FILE_SCHEMA (('AP242_MANAGED_MODEL_BASED_3D_ENGINEERING_MIM_LF { 1 0 10303 442 3 1 4 }'));
ENDSEC;

DATA;
#10=SHAPE_REPRESENTATION_RELATIONSHIP('','',#218,#11);
#11=ADVANCED_BREP_SHAPE_REPRESENTATION('',(#216),#344);
#12=CIRCLE('',#225,0.03);
#13=CIRCLE('',#226,0.03);
#14=CYLINDRICAL_SURFACE('',#224,0.03);
#15=ORIENTED_EDGE('',*,*,#69,.F.);
#16=ORIENTED_EDGE('',*,*,#70,.T.);
#17=ORIENTED_EDGE('',*,*,#71,.T.);
#18=ORIENTED_EDGE('',*,*,#72,.F.);
#19=ORIENTED_EDGE('',*,*,#73,.F.);
#20=ORIENTED_EDGE('',*,*,#74,.T.);
#21=ORIENTED_EDGE('',*,*,#72,.T.);
#22=ORIENTED_EDGE('',*,*,#75,.F.);
#23=ORIENTED_EDGE('',*,*,#76,.F.);
#24=ORIENTED_EDGE('',*,*,#77,.T.);
#25=ORIENTED_EDGE('',*,*,#73,.T.);
#26=ORIENTED_EDGE('',*,*,#78,.F.);
#27=ORIENTED_EDGE('',*,*,#79,.F.);
#28=ORIENTED_EDGE('',*,*,#80,.T.);
#29=ORIENTED_EDGE('',*,*,#81,.T.);
#30=ORIENTED_EDGE('',*,*,#82,.F.);
#31=ORIENTED_EDGE('',*,*,#83,.F.);
#32=ORIENTED_EDGE('',*,*,#79,.T.);
#33=ORIENTED_EDGE('',*,*,#84,.T.);
#34=ORIENTED_EDGE('',*,*,#85,.F.);
#35=ORIENTED_EDGE('',*,*,#86,.F.);
#36=ORIENTED_EDGE('',*,*,#82,.T.);
#37=ORIENTED_EDGE('',*,*,#87,.F.);
#38=ORIENTED_EDGE('',*,*,#88,.T.);
#39=ORIENTED_EDGE('',*,*,#89,.F.);
#40=ORIENTED_EDGE('',*,*,#85,.T.);
#41=ORIENTED_EDGE('',*,*,#90,.T.);
#42=ORIENTED_EDGE('',*,*,#70,.F.);
#43=ORIENTED_EDGE('',*,*,#91,.F.);
#44=ORIENTED_EDGE('',*,*,#80,.F.);
#45=ORIENTED_EDGE('',*,*,#83,.T.);
#46=ORIENTED_EDGE('',*,*,#86,.T.);
#47=ORIENTED_EDGE('',*,*,#89,.T.);
#48=ORIENTED_EDGE('',*,*,#92,.F.);
#49=ORIENTED_EDGE('',*,*,#81,.F.);
#50=ORIENTED_EDGE('',*,*,#78,.T.);
#51=ORIENTED_EDGE('',*,*,#75,.T.);
#52=ORIENTED_EDGE('',*,*,#71,.F.);
#53=ORIENTED_EDGE('',*,*,#90,.F.);
#54=ORIENTED_EDGE('',*,*,#84,.F.);
#55=ORIENTED_EDGE('',*,*,#91,.T.);
#56=ORIENTED_EDGE('',*,*,#93,.F.);
#57=ORIENTED_EDGE('',*,*,#94,.F.);
#58=ORIENTED_EDGE('',*,*,#76,.T.);
#59=ORIENTED_EDGE('',*,*,#92,.T.);
#60=ORIENTED_EDGE('',*,*,#88,.F.);
#61=ORIENTED_EDGE('',*,*,#95,.F.);
#62=ORIENTED_EDGE('',*,*,#93,.T.);
#63=ORIENTED_EDGE('',*,*,#74,.F.);
#64=ORIENTED_EDGE('',*,*,#77,.F.);
#65=ORIENTED_EDGE('',*,*,#94,.T.);
#66=ORIENTED_EDGE('',*,*,#95,.T.);
#67=ORIENTED_EDGE('',*,*,#87,.T.);
#68=ORIENTED_EDGE('',*,*,#69,.T.);
#69=EDGE_CURVE('',#96,#97,#114,.T.);
#70=EDGE_CURVE('',#96,#98,#115,.T.);
#71=EDGE_CURVE('',#98,#99,#116,.T.);
#72=EDGE_CURVE('',#97,#99,#117,.T.);
#73=EDGE_CURVE('',#100,#101,#118,.T.);
#74=EDGE_CURVE('',#100,#97,#119,.T.);
#75=EDGE_CURVE('',#101,#99,#120,.T.);
#76=EDGE_CURVE('',#102,#103,#121,.T.);
#77=EDGE_CURVE('',#102,#100,#122,.T.);
#78=EDGE_CURVE('',#104,#101,#123,.T.);
#79=EDGE_CURVE('',#105,#104,#124,.T.);
#80=EDGE_CURVE('',#105,#103,#125,.T.);
#81=EDGE_CURVE('',#104,#106,#126,.T.);
#82=EDGE_CURVE('',#107,#106,#127,.T.);
#83=EDGE_CURVE('',#105,#107,#128,.T.);
#84=EDGE_CURVE('',#106,#108,#12,.T.);
#85=EDGE_CURVE('',#109,#108,#129,.T.);
#86=EDGE_CURVE('',#107,#109,#13,.T.);
#87=EDGE_CURVE('',#110,#96,#130,.T.);
#88=EDGE_CURVE('',#110,#111,#131,.T.);
#89=EDGE_CURVE('',#109,#111,#132,.T.);
#90=EDGE_CURVE('',#108,#98,#133,.T.);
#91=EDGE_CURVE('',#103,#112,#134,.T.);
#92=EDGE_CURVE('',#112,#111,#135,.T.);
#93=EDGE_CURVE('',#113,#112,#136,.T.);
#94=EDGE_CURVE('',#102,#113,#137,.T.);
#95=EDGE_CURVE('',#113,#110,#138,.T.);
#96=VERTEX_POINT('',#289);
#97=VERTEX_POINT('',#290);
#98=VERTEX_POINT('',#292);
#99=VERTEX_POINT('',#294);
#100=VERTEX_POINT('',#298);
#101=VERTEX_POINT('',#299);
#102=VERTEX_POINT('',#304);
#103=VERTEX_POINT('',#305);
#104=VERTEX_POINT('',#308);
#105=VERTEX_POINT('',#310);
#106=VERTEX_POINT('',#314);
#107=VERTEX_POINT('',#316);
#108=VERTEX_POINT('',#320);
#109=VERTEX_POINT('',#322);
#110=VERTEX_POINT('',#326);
#111=VERTEX_POINT('',#328);
#112=VERTEX_POINT('',#333);
#113=VERTEX_POINT('',#338);
#114=LINE('',#288,#139);
#115=LINE('',#291,#140);
#116=LINE('',#293,#141);
#117=LINE('',#295,#142);
#118=LINE('',#297,#143);
#119=LINE('',#300,#144);
#120=LINE('',#301,#145);
#121=LINE('',#303,#146);
#122=LINE('',#306,#147);
#123=LINE('',#307,#148);
#124=LINE('',#309,#149);
#125=LINE('',#311,#150);
#126=LINE('',#313,#151);
#127=LINE('',#315,#152);
#128=LINE('',#317,#153);
#129=LINE('',#321,#154);
#130=LINE('',#325,#155);
#131=LINE('',#327,#156);
#132=LINE('',#329,#157);
#133=LINE('',#330,#158);
#134=LINE('',#332,#159);
#135=LINE('',#334,#160);
#136=LINE('',#337,#161);
#137=LINE('',#339,#162);
#138=LINE('',#341,#163);
#139=VECTOR('',#237,1.);
#140=VECTOR('',#238,1.);
#141=VECTOR('',#239,1.);
#142=VECTOR('',#240,1.);
#143=VECTOR('',#243,1.);
#144=VECTOR('',#244,1.);
#145=VECTOR('',#245,1.);
#146=VECTOR('',#248,1.);
#147=VECTOR('',#249,1.);
#148=VECTOR('',#250,1.);
#149=VECTOR('',#251,1.);
#150=VECTOR('',#252,1.);
#151=VECTOR('',#255,1.);
#152=VECTOR('',#256,1.);
#153=VECTOR('',#257,1.);
#154=VECTOR('',#262,1.);
#155=VECTOR('',#267,1.);
#156=VECTOR('',#268,1.);
#157=VECTOR('',#269,1.);
#158=VECTOR('',#270,1.);
#159=VECTOR('',#273,1.);
#160=VECTOR('',#274,1.);
#161=VECTOR('',#279,1.);
#162=VECTOR('',#280,1.);
#163=VECTOR('',#283,1.);
#164=EDGE_LOOP('',(#15,#16,#17,#18));
#165=EDGE_LOOP('',(#19,#20,#21,#22));
#166=EDGE_LOOP('',(#23,#24,#25,#26,#27,#28));
#167=EDGE_LOOP('',(#29,#30,#31,#32));
#168=EDGE_LOOP('',(#33,#34,#35,#36));
#169=EDGE_LOOP('',(#37,#38,#39,#40,#41,#42));
#170=EDGE_LOOP('',(#43,#44,#45,#46,#47,#48));
#171=EDGE_LOOP('',(#49,#50,#51,#52,#53,#54));
#172=EDGE_LOOP('',(#55,#56,#57,#58));
#173=EDGE_LOOP('',(#59,#60,#61,#62));
#174=EDGE_LOOP('',(#63,#64,#65,#66,#67,#68));
#175=FACE_BOUND('',#164,.T.);
#176=FACE_BOUND('',#165,.T.);
#177=FACE_BOUND('',#166,.T.);
#178=FACE_BOUND('',#167,.T.);
#179=FACE_BOUND('',#168,.T.);
#180=FACE_BOUND('',#169,.T.);
#181=FACE_BOUND('',#170,.T.);
#182=FACE_BOUND('',#171,.T.);
#183=FACE_BOUND('',#172,.T.);
#184=FACE_BOUND('',#173,.T.);
#185=FACE_BOUND('',#174,.T.);
#186=PLANE('',#220);
#187=PLANE('',#221);
#188=PLANE('',#222);
#189=PLANE('',#223);
#190=PLANE('',#227);
#191=PLANE('',#228);
#192=PLANE('',#229);
#193=PLANE('',#230);
#194=PLANE('',#231);
#195=PLANE('',#232);
#196=ADVANCED_FACE('',(#175),#186,.F.);
#197=ADVANCED_FACE('',(#176),#187,.T.);
#198=ADVANCED_FACE('',(#177),#188,.T.);
#199=ADVANCED_FACE('',(#178),#189,.F.);
#200=ADVANCED_FACE('',(#179),#14,.T.);
#201=ADVANCED_FACE('',(#180),#190,.F.);
#202=ADVANCED_FACE('',(#181),#191,.T.);
#203=ADVANCED_FACE('',(#182),#192,.F.);
#204=ADVANCED_FACE('',(#183),#193,.F.);
#205=ADVANCED_FACE('',(#184),#194,.F.);
#206=ADVANCED_FACE('',(#185),#195,.T.);
#207=CLOSED_SHELL('',(#196,#197,#198,#199,#200,#201,#202,#203,#204,#205,
#206));
#208=STYLED_ITEM('',(#209),#216);
#209=PRESENTATION_STYLE_ASSIGNMENT((#210));
#210=SURFACE_STYLE_USAGE(.BOTH.,#211);
#211=SURFACE_SIDE_STYLE('',(#212));
#212=SURFACE_STYLE_FILL_AREA(#213);
#213=FILL_AREA_STYLE('',(#214));
#214=FILL_AREA_STYLE_COLOUR('',#215);
#215=COLOUR_RGB('',0.615686274509804,0.811764705882353,0.929411764705882);
#216=MANIFOLD_SOLID_BREP('TOP',#207);
#217=SHAPE_DEFINITION_REPRESENTATION(#349,#218);
#218=SHAPE_REPRESENTATION('TOP',(#219),#344);
#219=AXIS2_PLACEMENT_3D('',#286,#233,#234);
#220=AXIS2_PLACEMENT_3D('',#287,#235,#236);
#221=AXIS2_PLACEMENT_3D('',#296,#241,#242);
#222=AXIS2_PLACEMENT_3D('',#302,#246,#247);
#223=AXIS2_PLACEMENT_3D('',#312,#253,#254);
#224=AXIS2_PLACEMENT_3D('',#318,#258,#259);
#225=AXIS2_PLACEMENT_3D('',#319,#260,#261);
#226=AXIS2_PLACEMENT_3D('',#323,#263,#264);
#227=AXIS2_PLACEMENT_3D('',#324,#265,#266);
#228=AXIS2_PLACEMENT_3D('',#331,#271,#272);
#229=AXIS2_PLACEMENT_3D('',#335,#275,#276);
#230=AXIS2_PLACEMENT_3D('',#336,#277,#278);
#231=AXIS2_PLACEMENT_3D('',#340,#281,#282);
#232=AXIS2_PLACEMENT_3D('',#342,#284,#285);
#233=DIRECTION('',(0.,0.,1.));
#234=DIRECTION('',(1.,0.,0.));
#235=DIRECTION('',(0.,1.,0.));
#236=DIRECTION('',(0.,0.,1.));
#237=DIRECTION('',(1.,0.,0.));
#238=DIRECTION('',(0.,0.,-1.));
#239=DIRECTION('',(1.,0.,0.));
#240=DIRECTION('',(0.,0.,-1.));
#241=DIRECTION('',(1.,0.,0.));
#242=DIRECTION('',(0.,0.,-1.));
#243=DIRECTION('',(0.,0.,-1.));
#244=DIRECTION('',(0.,-1.,0.));
#245=DIRECTION('',(0.,-1.,0.));
#246=DIRECTION('',(0.,1.,0.));
#247=DIRECTION('',(0.,0.,1.));
#248=DIRECTION('',(0.,0.,1.));
#249=DIRECTION('',(1.,0.,0.));
#250=DIRECTION('',(1.,0.,0.));
#251=DIRECTION('',(0.,0.,-1.));
#252=DIRECTION('',(1.,0.,0.));
#253=DIRECTION('',(1.,0.,0.));
#254=DIRECTION('',(0.,0.,-1.));
#255=DIRECTION('',(0.,-1.,0.));
#256=DIRECTION('',(0.,0.,-1.));
#257=DIRECTION('',(0.,-1.,0.));
#258=DIRECTION('',(0.,0.,-1.));
#259=DIRECTION('',(-1.,0.,0.));
#260=DIRECTION('',(0.,0.,1.));
#261=DIRECTION('',(1.,0.,0.));
#262=DIRECTION('',(0.,0.,-1.));
#263=DIRECTION('',(0.,0.,1.));
#264=DIRECTION('',(1.,0.,0.));
#265=DIRECTION('',(1.,0.,0.));
#266=DIRECTION('',(0.,0.,-1.));
#267=DIRECTION('',(0.,-1.,0.));
#268=DIRECTION('',(0.,0.,1.));
#269=DIRECTION('',(0.,-1.,0.));
#270=DIRECTION('',(0.,-1.,0.));
#271=DIRECTION('',(0.,0.,1.));
#272=DIRECTION('',(1.,0.,0.));
#273=DIRECTION('',(3.02788097625043E-16,-1.,0.));
#274=DIRECTION('',(-1.,-2.01858731750028E-16,0.));
#275=DIRECTION('',(0.,0.,1.));
#276=DIRECTION('',(1.,0.,0.));
#277=DIRECTION('',(-1.,-3.02788097625043E-16,0.));
#278=DIRECTION('',(3.02788097625043E-16,-1.,0.));
#279=DIRECTION('',(0.,0.,1.));
#280=DIRECTION('',(3.02788097625043E-16,-1.,0.));
#281=DIRECTION('',(-2.01858731750028E-16,1.,0.));
#282=DIRECTION('',(-1.,-2.01858731750028E-16,0.));
#283=DIRECTION('',(-1.,-2.01858731750028E-16,0.));
#284=DIRECTION('',(0.,0.,1.));
#285=DIRECTION('',(1.,0.,0.));
#286=CARTESIAN_POINT('',(0.,0.,0.));
#287=CARTESIAN_POINT('',(0.0140032544732094,-0.0717788767809785,0.0025));
#288=CARTESIAN_POINT('',(0.0140032544732094,-0.0717788767809785,0.001));
#289=CARTESIAN_POINT('',(-0.0559967455267906,-0.0717788767809785,0.001));
#290=CARTESIAN_POINT('',(0.0840032544732094,-0.0717788767809785,0.001));
#291=CARTESIAN_POINT('',(-0.0559967455267906,-0.0717788767809785,0.0025));
#292=CARTESIAN_POINT('',(-0.0559967455267906,-0.0717788767809785,0.));
#293=CARTESIAN_POINT('',(0.0140032544732094,-0.0717788767809785,0.));
#294=CARTESIAN_POINT('',(0.0840032544732094,-0.0717788767809785,0.));
#295=CARTESIAN_POINT('',(0.0840032544732094,-0.0717788767809785,0.0025));
#296=CARTESIAN_POINT('',(0.0840032544732094,-0.00177887678097846,0.0025));
#297=CARTESIAN_POINT('',(0.0840032544732094,0.0682211232190216,0.0025));
#298=CARTESIAN_POINT('',(0.0840032544732094,0.0682211232190216,0.001));
#299=CARTESIAN_POINT('',(0.0840032544732094,0.0682211232190216,0.));
#300=CARTESIAN_POINT('',(0.0840032544732094,-0.00177887678097846,0.001));
#301=CARTESIAN_POINT('',(0.0840032544732094,-0.00177887678097846,0.));
#302=CARTESIAN_POINT('',(0.0140032544732093,0.0682211232190216,0.0025));
#303=CARTESIAN_POINT('',(0.0815032544732094,0.0682211232190216,0.001));
#304=CARTESIAN_POINT('',(0.0815032544732094,0.0682211232190216,0.001));
#305=CARTESIAN_POINT('',(0.0815032544732094,0.0682211232190216,0.0025));
#306=CARTESIAN_POINT('',(0.0140032544732093,0.0682211232190216,0.001));
#307=CARTESIAN_POINT('',(0.0140032544732093,0.0682211232190216,0.));
#308=CARTESIAN_POINT('',(-0.0559967455267906,0.0682211232190216,0.));
#309=CARTESIAN_POINT('',(-0.0559967455267906,0.0682211232190216,0.0025));
#310=CARTESIAN_POINT('',(-0.0559967455267906,0.0682211232190216,0.0025));
#311=CARTESIAN_POINT('',(0.0140032544732093,0.0682211232190216,0.0025));
#312=CARTESIAN_POINT('',(-0.0559967455267906,0.0482211232190215,0.0025));
#313=CARTESIAN_POINT('',(-0.0559967455267906,0.0482211232190215,0.));
#314=CARTESIAN_POINT('',(-0.0559967455267907,0.0282211232190216,0.));
#315=CARTESIAN_POINT('',(-0.0559967455267907,0.0282211232190216,0.0025));
#316=CARTESIAN_POINT('',(-0.0559967455267907,0.0282211232190216,0.0025));
#317=CARTESIAN_POINT('',(-0.0559967455267906,0.0482211232190215,0.0025));
#318=CARTESIAN_POINT('',(-0.0559967455267906,-0.00177887678097846,0.0025));
#319=CARTESIAN_POINT('',(-0.0559967455267906,-0.00177887678097846,0.));
#320=CARTESIAN_POINT('',(-0.0559967455267906,-0.0317788767809785,0.));
#321=CARTESIAN_POINT('',(-0.0559967455267906,-0.0317788767809785,0.0025));
#322=CARTESIAN_POINT('',(-0.0559967455267906,-0.0317788767809785,0.0025));
#323=CARTESIAN_POINT('',(-0.0559967455267906,-0.00177887678097846,0.0025));
#324=CARTESIAN_POINT('',(-0.0559967455267906,-0.0517788767809785,0.0025));
#325=CARTESIAN_POINT('',(-0.0559967455267906,-0.0517788767809785,0.001));
#326=CARTESIAN_POINT('',(-0.0559967455267906,-0.0692788767809785,0.001));
#327=CARTESIAN_POINT('',(-0.0559967455267906,-0.0692788767809785,0.001));
#328=CARTESIAN_POINT('',(-0.0559967455267906,-0.0692788767809785,0.0025));
#329=CARTESIAN_POINT('',(-0.0559967455267906,-0.0517788767809785,0.0025));
#330=CARTESIAN_POINT('',(-0.0559967455267906,-0.0517788767809785,0.));
#331=CARTESIAN_POINT('',(-0.000996745526790632,-0.00177887678097846,0.0025));
#332=CARTESIAN_POINT('',(0.0815032544732094,-0.00052887678097846,0.0025));
#333=CARTESIAN_POINT('',(0.0815032544732094,-0.0692788767809785,0.0025));
#334=CARTESIAN_POINT('',(0.0127532544732094,-0.0692788767809785,0.0025));
#335=CARTESIAN_POINT('',(-0.000996745526790632,-0.00177887678097846,0.));
#336=CARTESIAN_POINT('',(0.0815032544732094,-0.00052887678097846,0.001));
#337=CARTESIAN_POINT('',(0.0815032544732094,-0.0692788767809785,0.001));
#338=CARTESIAN_POINT('',(0.0815032544732094,-0.0692788767809785,0.001));
#339=CARTESIAN_POINT('',(0.0815032544732094,-0.00052887678097846,0.001));
#340=CARTESIAN_POINT('',(0.0127532544732094,-0.0692788767809785,0.001));
#341=CARTESIAN_POINT('',(0.0127532544732094,-0.0692788767809785,0.001));
#342=CARTESIAN_POINT('',(-0.000996745526790632,-0.00177887678097846,0.001));
#343=MECHANICAL_DESIGN_GEOMETRIC_PRESENTATION_REPRESENTATION('',(#208),
#344);
#344=(
GEOMETRIC_REPRESENTATION_CONTEXT(3)
GLOBAL_UNCERTAINTY_ASSIGNED_CONTEXT((#345))
GLOBAL_UNIT_ASSIGNED_CONTEXT((#348,#347,#346))
REPRESENTATION_CONTEXT('TOP','TOP_LEVEL_ASSEMBLY_PART')
);
#345=UNCERTAINTY_MEASURE_WITH_UNIT(LENGTH_MEASURE(1.E-8),#348,
'DISTANCE_ACCURACY_VALUE','Maximum Tolerance applied to model');
#346=(
NAMED_UNIT(*)
SI_UNIT($,.STERADIAN.)
SOLID_ANGLE_UNIT()
);
#347=(
NAMED_UNIT(*)
PLANE_ANGLE_UNIT()
SI_UNIT($,.RADIAN.)
);
#348=(
LENGTH_UNIT()
NAMED_UNIT(*)
SI_UNIT($,.METRE.)
);
#349=PRODUCT_DEFINITION_SHAPE('','',#350);
#350=PRODUCT_DEFINITION('','',#352,#351);
#351=PRODUCT_DEFINITION_CONTEXT('',#358,'design');
#352=PRODUCT_DEFINITION_FORMATION_WITH_SPECIFIED_SOURCE('','',#354,
 .NOT_KNOWN.);
#353=PRODUCT_RELATED_PRODUCT_CATEGORY('','',(#354));
#354=PRODUCT('TOP','TOP','TOP',(#356));
#355=PRODUCT_CATEGORY('','');
#356=PRODUCT_CONTEXT('',#358,'mechanical');
#357=APPLICATION_PROTOCOL_DEFINITION('international standard',
'ap242_managed_model_based_3d_engineering',2020,#358);
#358=APPLICATION_CONTEXT('managed model based 3d engineering');
ENDSEC;
END-ISO-10303-21;
