ISO-10303-21;
HEADER;
/* Generated by software containing ST-Developer
 * from STEP Tools, Inc. (www.steptools.com) 
 */
/* OPTION: using custom renumber hook */

FILE_DESCRIPTION(
/* description */ ('STEP AP242 Edition 2',
'CAx-IF Rec.Pracs.---Representation and Presentation of Product Manufa
cturing Information (PMI)---4.0---2014-10-13',
'CAx-IF Rec.Pracs.---3D Tessellated Geometry---0.4---2014-09-14','2;1',
'CAx-IF Rec.Pracs.---User Defined Attributes---1.5---2016-08-15'),
/* implementation_level */ '2;1');

FILE_NAME(
/* name */ 'TALLER BOOKSHELF - TALLER BOOKSHELF',
/* time_stamp */ '2026-09-08T03:12:18Z',
/* author */ (''),
/* organization */ (''),
/* preprocessor_version */ 'ST-DEVELOPER v20',
/* originating_system */ 'ONSHAPE BY PTC INC, 1.220',
/* authorisation */ '  ');

FILE_SCHEMA (('AP242_MANAGED_MODEL_BASED_3D_ENGINEERING_MIM_LF { 1 0 10303 442 3 1 4 }'));
ENDSEC;

DATA;
#10=SHAPE_REPRESENTATION_RELATIONSHIP('','',#565,#11);
#11=ADVANCED_BREP_SHAPE_REPRESENTATION('',(#563),#887);
#12=ORIENTED_EDGE('',*,*,#156,.F.);
#13=ORIENTED_EDGE('',*,*,#157,.T.);
#14=ORIENTED_EDGE('',*,*,#158,.T.);
#15=ORIENTED_EDGE('',*,*,#159,.F.);
#16=ORIENTED_EDGE('',*,*,#160,.F.);
#17=ORIENTED_EDGE('',*,*,#161,.T.);
#18=ORIENTED_EDGE('',*,*,#162,.T.);
#19=ORIENTED_EDGE('',*,*,#163,.F.);
#20=ORIENTED_EDGE('',*,*,#164,.F.);
#21=ORIENTED_EDGE('',*,*,#165,.T.);
#22=ORIENTED_EDGE('',*,*,#166,.T.);
#23=ORIENTED_EDGE('',*,*,#167,.F.);
#24=ORIENTED_EDGE('',*,*,#168,.F.);
#25=ORIENTED_EDGE('',*,*,#169,.T.);
#26=ORIENTED_EDGE('',*,*,#170,.T.);
#27=ORIENTED_EDGE('',*,*,#171,.F.);
#28=ORIENTED_EDGE('',*,*,#172,.F.);
#29=ORIENTED_EDGE('',*,*,#173,.T.);
#30=ORIENTED_EDGE('',*,*,#174,.T.);
#31=ORIENTED_EDGE('',*,*,#175,.F.);
#32=ORIENTED_EDGE('',*,*,#176,.F.);
#33=ORIENTED_EDGE('',*,*,#177,.T.);
#34=ORIENTED_EDGE('',*,*,#178,.T.);
#35=ORIENTED_EDGE('',*,*,#179,.F.);
#36=ORIENTED_EDGE('',*,*,#180,.F.);
#37=ORIENTED_EDGE('',*,*,#181,.F.);
#38=ORIENTED_EDGE('',*,*,#156,.T.);
#39=ORIENTED_EDGE('',*,*,#182,.T.);
#40=ORIENTED_EDGE('',*,*,#183,.T.);
#41=ORIENTED_EDGE('',*,*,#184,.F.);
#42=ORIENTED_EDGE('',*,*,#157,.F.);
#43=ORIENTED_EDGE('',*,*,#181,.T.);
#44=ORIENTED_EDGE('',*,*,#185,.T.);
#45=ORIENTED_EDGE('',*,*,#186,.F.);
#46=ORIENTED_EDGE('',*,*,#158,.F.);
#47=ORIENTED_EDGE('',*,*,#184,.T.);
#48=ORIENTED_EDGE('',*,*,#187,.F.);
#49=ORIENTED_EDGE('',*,*,#182,.F.);
#50=ORIENTED_EDGE('',*,*,#159,.T.);
#51=ORIENTED_EDGE('',*,*,#186,.T.);
#52=ORIENTED_EDGE('',*,*,#180,.T.);
#53=ORIENTED_EDGE('',*,*,#187,.T.);
#54=ORIENTED_EDGE('',*,*,#185,.F.);
#55=ORIENTED_EDGE('',*,*,#183,.F.);
#56=ORIENTED_EDGE('',*,*,#161,.F.);
#57=ORIENTED_EDGE('',*,*,#188,.F.);
#58=ORIENTED_EDGE('',*,*,#189,.T.);
#59=ORIENTED_EDGE('',*,*,#190,.T.);
#60=ORIENTED_EDGE('',*,*,#160,.T.);
#61=ORIENTED_EDGE('',*,*,#191,.F.);
#62=ORIENTED_EDGE('',*,*,#192,.F.);
#63=ORIENTED_EDGE('',*,*,#188,.T.);
#64=ORIENTED_EDGE('',*,*,#163,.T.);
#65=ORIENTED_EDGE('',*,*,#193,.F.);
#66=ORIENTED_EDGE('',*,*,#194,.F.);
#67=ORIENTED_EDGE('',*,*,#191,.T.);
#68=ORIENTED_EDGE('',*,*,#162,.F.);
#69=ORIENTED_EDGE('',*,*,#190,.F.);
#70=ORIENTED_EDGE('',*,*,#195,.T.);
#71=ORIENTED_EDGE('',*,*,#193,.T.);
#72=ORIENTED_EDGE('',*,*,#189,.F.);
#73=ORIENTED_EDGE('',*,*,#192,.T.);
#74=ORIENTED_EDGE('',*,*,#194,.T.);
#75=ORIENTED_EDGE('',*,*,#195,.F.);
#76=ORIENTED_EDGE('',*,*,#165,.F.);
#77=ORIENTED_EDGE('',*,*,#196,.F.);
#78=ORIENTED_EDGE('',*,*,#197,.T.);
#79=ORIENTED_EDGE('',*,*,#198,.T.);
#80=ORIENTED_EDGE('',*,*,#164,.T.);
#81=ORIENTED_EDGE('',*,*,#199,.F.);
#82=ORIENTED_EDGE('',*,*,#200,.F.);
#83=ORIENTED_EDGE('',*,*,#196,.T.);
#84=ORIENTED_EDGE('',*,*,#167,.T.);
#85=ORIENTED_EDGE('',*,*,#201,.F.);
#86=ORIENTED_EDGE('',*,*,#202,.F.);
#87=ORIENTED_EDGE('',*,*,#199,.T.);
#88=ORIENTED_EDGE('',*,*,#166,.F.);
#89=ORIENTED_EDGE('',*,*,#198,.F.);
#90=ORIENTED_EDGE('',*,*,#203,.T.);
#91=ORIENTED_EDGE('',*,*,#201,.T.);
#92=ORIENTED_EDGE('',*,*,#197,.F.);
#93=ORIENTED_EDGE('',*,*,#200,.T.);
#94=ORIENTED_EDGE('',*,*,#202,.T.);
#95=ORIENTED_EDGE('',*,*,#203,.F.);
#96=ORIENTED_EDGE('',*,*,#169,.F.);
#97=ORIENTED_EDGE('',*,*,#204,.F.);
#98=ORIENTED_EDGE('',*,*,#205,.T.);
#99=ORIENTED_EDGE('',*,*,#206,.T.);
#100=ORIENTED_EDGE('',*,*,#168,.T.);
#101=ORIENTED_EDGE('',*,*,#207,.F.);
#102=ORIENTED_EDGE('',*,*,#208,.F.);
#103=ORIENTED_EDGE('',*,*,#204,.T.);
#104=ORIENTED_EDGE('',*,*,#171,.T.);
#105=ORIENTED_EDGE('',*,*,#209,.F.);
#106=ORIENTED_EDGE('',*,*,#210,.F.);
#107=ORIENTED_EDGE('',*,*,#207,.T.);
#108=ORIENTED_EDGE('',*,*,#170,.F.);
#109=ORIENTED_EDGE('',*,*,#206,.F.);
#110=ORIENTED_EDGE('',*,*,#211,.T.);
#111=ORIENTED_EDGE('',*,*,#209,.T.);
#112=ORIENTED_EDGE('',*,*,#205,.F.);
#113=ORIENTED_EDGE('',*,*,#208,.T.);
#114=ORIENTED_EDGE('',*,*,#210,.T.);
#115=ORIENTED_EDGE('',*,*,#211,.F.);
#116=ORIENTED_EDGE('',*,*,#173,.F.);
#117=ORIENTED_EDGE('',*,*,#212,.F.);
#118=ORIENTED_EDGE('',*,*,#213,.T.);
#119=ORIENTED_EDGE('',*,*,#214,.T.);
#120=ORIENTED_EDGE('',*,*,#172,.T.);
#121=ORIENTED_EDGE('',*,*,#215,.F.);
#122=ORIENTED_EDGE('',*,*,#216,.F.);
#123=ORIENTED_EDGE('',*,*,#212,.T.);
#124=ORIENTED_EDGE('',*,*,#175,.T.);
#125=ORIENTED_EDGE('',*,*,#217,.F.);
#126=ORIENTED_EDGE('',*,*,#218,.F.);
#127=ORIENTED_EDGE('',*,*,#215,.T.);
#128=ORIENTED_EDGE('',*,*,#174,.F.);
#129=ORIENTED_EDGE('',*,*,#214,.F.);
#130=ORIENTED_EDGE('',*,*,#219,.T.);
#131=ORIENTED_EDGE('',*,*,#217,.T.);
#132=ORIENTED_EDGE('',*,*,#213,.F.);
#133=ORIENTED_EDGE('',*,*,#216,.T.);
#134=ORIENTED_EDGE('',*,*,#218,.T.);
#135=ORIENTED_EDGE('',*,*,#219,.F.);
#136=ORIENTED_EDGE('',*,*,#177,.F.);
#137=ORIENTED_EDGE('',*,*,#220,.F.);
#138=ORIENTED_EDGE('',*,*,#221,.T.);
#139=ORIENTED_EDGE('',*,*,#222,.T.);
#140=ORIENTED_EDGE('',*,*,#176,.T.);
#141=ORIENTED_EDGE('',*,*,#223,.F.);
#142=ORIENTED_EDGE('',*,*,#224,.F.);
#143=ORIENTED_EDGE('',*,*,#220,.T.);
#144=ORIENTED_EDGE('',*,*,#179,.T.);
#145=ORIENTED_EDGE('',*,*,#225,.F.);
#146=ORIENTED_EDGE('',*,*,#226,.F.);
#147=ORIENTED_EDGE('',*,*,#223,.T.);
#148=ORIENTED_EDGE('',*,*,#178,.F.);
#149=ORIENTED_EDGE('',*,*,#222,.F.);
#150=ORIENTED_EDGE('',*,*,#227,.T.);
#151=ORIENTED_EDGE('',*,*,#225,.T.);
#152=ORIENTED_EDGE('',*,*,#221,.F.);
#153=ORIENTED_EDGE('',*,*,#224,.T.);
#154=ORIENTED_EDGE('',*,*,#226,.T.);
#155=ORIENTED_EDGE('',*,*,#227,.F.);
#156=EDGE_CURVE('',#228,#229,#276,.T.);
#157=EDGE_CURVE('',#228,#230,#277,.T.);
#158=EDGE_CURVE('',#230,#231,#278,.T.);
#159=EDGE_CURVE('',#229,#231,#279,.T.);
#160=EDGE_CURVE('',#232,#233,#280,.T.);
#161=EDGE_CURVE('',#232,#234,#281,.T.);
#162=EDGE_CURVE('',#234,#235,#282,.T.);
#163=EDGE_CURVE('',#233,#235,#283,.T.);
#164=EDGE_CURVE('',#236,#237,#284,.T.);
#165=EDGE_CURVE('',#236,#238,#285,.T.);
#166=EDGE_CURVE('',#238,#239,#286,.T.);
#167=EDGE_CURVE('',#237,#239,#287,.T.);
#168=EDGE_CURVE('',#240,#241,#288,.T.);
#169=EDGE_CURVE('',#240,#242,#289,.T.);
#170=EDGE_CURVE('',#242,#243,#290,.T.);
#171=EDGE_CURVE('',#241,#243,#291,.T.);
#172=EDGE_CURVE('',#244,#245,#292,.T.);
#173=EDGE_CURVE('',#244,#246,#293,.T.);
#174=EDGE_CURVE('',#246,#247,#294,.T.);
#175=EDGE_CURVE('',#245,#247,#295,.T.);
#176=EDGE_CURVE('',#248,#249,#296,.T.);
#177=EDGE_CURVE('',#248,#250,#297,.T.);
#178=EDGE_CURVE('',#250,#251,#298,.T.);
#179=EDGE_CURVE('',#249,#251,#299,.T.);
#180=EDGE_CURVE('',#252,#253,#300,.T.);
#181=EDGE_CURVE('',#228,#252,#301,.T.);
#182=EDGE_CURVE('',#229,#253,#302,.T.);
#183=EDGE_CURVE('',#252,#254,#303,.T.);
#184=EDGE_CURVE('',#230,#254,#304,.T.);
#185=EDGE_CURVE('',#254,#255,#305,.T.);
#186=EDGE_CURVE('',#231,#255,#306,.T.);
#187=EDGE_CURVE('',#253,#255,#307,.T.);
#188=EDGE_CURVE('',#256,#232,#308,.T.);
#189=EDGE_CURVE('',#256,#257,#309,.T.);
#190=EDGE_CURVE('',#257,#234,#310,.T.);
#191=EDGE_CURVE('',#258,#233,#311,.T.);
#192=EDGE_CURVE('',#256,#258,#312,.T.);
#193=EDGE_CURVE('',#259,#235,#313,.T.);
#194=EDGE_CURVE('',#258,#259,#314,.T.);
#195=EDGE_CURVE('',#257,#259,#315,.T.);
#196=EDGE_CURVE('',#260,#236,#316,.T.);
#197=EDGE_CURVE('',#260,#261,#317,.T.);
#198=EDGE_CURVE('',#261,#238,#318,.T.);
#199=EDGE_CURVE('',#262,#237,#319,.T.);
#200=EDGE_CURVE('',#260,#262,#320,.T.);
#201=EDGE_CURVE('',#263,#239,#321,.T.);
#202=EDGE_CURVE('',#262,#263,#322,.T.);
#203=EDGE_CURVE('',#261,#263,#323,.T.);
#204=EDGE_CURVE('',#264,#240,#324,.T.);
#205=EDGE_CURVE('',#264,#265,#325,.T.);
#206=EDGE_CURVE('',#265,#242,#326,.T.);
#207=EDGE_CURVE('',#266,#241,#327,.T.);
#208=EDGE_CURVE('',#264,#266,#328,.T.);
#209=EDGE_CURVE('',#267,#243,#329,.T.);
#210=EDGE_CURVE('',#266,#267,#330,.T.);
#211=EDGE_CURVE('',#265,#267,#331,.T.);
#212=EDGE_CURVE('',#268,#244,#332,.T.);
#213=EDGE_CURVE('',#268,#269,#333,.T.);
#214=EDGE_CURVE('',#269,#246,#334,.T.);
#215=EDGE_CURVE('',#270,#245,#335,.T.);
#216=EDGE_CURVE('',#268,#270,#336,.T.);
#217=EDGE_CURVE('',#271,#247,#337,.T.);
#218=EDGE_CURVE('',#270,#271,#338,.T.);
#219=EDGE_CURVE('',#269,#271,#339,.T.);
#220=EDGE_CURVE('',#272,#248,#340,.T.);
#221=EDGE_CURVE('',#272,#273,#341,.T.);
#222=EDGE_CURVE('',#273,#250,#342,.T.);
#223=EDGE_CURVE('',#274,#249,#343,.T.);
#224=EDGE_CURVE('',#272,#274,#344,.T.);
#225=EDGE_CURVE('',#275,#251,#345,.T.);
#226=EDGE_CURVE('',#274,#275,#346,.T.);
#227=EDGE_CURVE('',#273,#275,#347,.T.);
#228=VERTEX_POINT('',#737);
#229=VERTEX_POINT('',#738);
#230=VERTEX_POINT('',#740);
#231=VERTEX_POINT('',#742);
#232=VERTEX_POINT('',#745);
#233=VERTEX_POINT('',#746);
#234=VERTEX_POINT('',#748);
#235=VERTEX_POINT('',#750);
#236=VERTEX_POINT('',#753);
#237=VERTEX_POINT('',#754);
#238=VERTEX_POINT('',#756);
#239=VERTEX_POINT('',#758);
#240=VERTEX_POINT('',#761);
#241=VERTEX_POINT('',#762);
#242=VERTEX_POINT('',#764);
#243=VERTEX_POINT('',#766);
#244=VERTEX_POINT('',#769);
#245=VERTEX_POINT('',#770);
#246=VERTEX_POINT('',#772);
#247=VERTEX_POINT('',#774);
#248=VERTEX_POINT('',#777);
#249=VERTEX_POINT('',#778);
#250=VERTEX_POINT('',#780);
#251=VERTEX_POINT('',#782);
#252=VERTEX_POINT('',#786);
#253=VERTEX_POINT('',#787);
#254=VERTEX_POINT('',#792);
#255=VERTEX_POINT('',#796);
#256=VERTEX_POINT('',#803);
#257=VERTEX_POINT('',#805);
#258=VERTEX_POINT('',#809);
#259=VERTEX_POINT('',#813);
#260=VERTEX_POINT('',#820);
#261=VERTEX_POINT('',#822);
#262=VERTEX_POINT('',#826);
#263=VERTEX_POINT('',#830);
#264=VERTEX_POINT('',#837);
#265=VERTEX_POINT('',#839);
#266=VERTEX_POINT('',#843);
#267=VERTEX_POINT('',#847);
#268=VERTEX_POINT('',#854);
#269=VERTEX_POINT('',#856);
#270=VERTEX_POINT('',#860);
#271=VERTEX_POINT('',#864);
#272=VERTEX_POINT('',#871);
#273=VERTEX_POINT('',#873);
#274=VERTEX_POINT('',#877);
#275=VERTEX_POINT('',#881);
#276=LINE('',#736,#348);
#277=LINE('',#739,#349);
#278=LINE('',#741,#350);
#279=LINE('',#743,#351);
#280=LINE('',#744,#352);
#281=LINE('',#747,#353);
#282=LINE('',#749,#354);
#283=LINE('',#751,#355);
#284=LINE('',#752,#356);
#285=LINE('',#755,#357);
#286=LINE('',#757,#358);
#287=LINE('',#759,#359);
#288=LINE('',#760,#360);
#289=LINE('',#763,#361);
#290=LINE('',#765,#362);
#291=LINE('',#767,#363);
#292=LINE('',#768,#364);
#293=LINE('',#771,#365);
#294=LINE('',#773,#366);
#295=LINE('',#775,#367);
#296=LINE('',#776,#368);
#297=LINE('',#779,#369);
#298=LINE('',#781,#370);
#299=LINE('',#783,#371);
#300=LINE('',#785,#372);
#301=LINE('',#788,#373);
#302=LINE('',#789,#374);
#303=LINE('',#791,#375);
#304=LINE('',#793,#376);
#305=LINE('',#795,#377);
#306=LINE('',#797,#378);
#307=LINE('',#799,#379);
#308=LINE('',#802,#380);
#309=LINE('',#804,#381);
#310=LINE('',#806,#382);
#311=LINE('',#808,#383);
#312=LINE('',#810,#384);
#313=LINE('',#812,#385);
#314=LINE('',#814,#386);
#315=LINE('',#816,#387);
#316=LINE('',#819,#388);
#317=LINE('',#821,#389);
#318=LINE('',#823,#390);
#319=LINE('',#825,#391);
#320=LINE('',#827,#392);
#321=LINE('',#829,#393);
#322=LINE('',#831,#394);
#323=LINE('',#833,#395);
#324=LINE('',#836,#396);
#325=LINE('',#838,#397);
#326=LINE('',#840,#398);
#327=LINE('',#842,#399);
#328=LINE('',#844,#400);
#329=LINE('',#846,#401);
#330=LINE('',#848,#402);
#331=LINE('',#850,#403);
#332=LINE('',#853,#404);
#333=LINE('',#855,#405);
#334=LINE('',#857,#406);
#335=LINE('',#859,#407);
#336=LINE('',#861,#408);
#337=LINE('',#863,#409);
#338=LINE('',#865,#410);
#339=LINE('',#867,#411);
#340=LINE('',#870,#412);
#341=LINE('',#872,#413);
#342=LINE('',#874,#414);
#343=LINE('',#876,#415);
#344=LINE('',#878,#416);
#345=LINE('',#880,#417);
#346=LINE('',#882,#418);
#347=LINE('',#884,#419);
#348=VECTOR('',#602,1.);
#349=VECTOR('',#603,1.);
#350=VECTOR('',#604,1.);
#351=VECTOR('',#605,1.);
#352=VECTOR('',#606,1.);
#353=VECTOR('',#607,1.);
#354=VECTOR('',#608,1.);
#355=VECTOR('',#609,1.);
#356=VECTOR('',#610,1.);
#357=VECTOR('',#611,1.);
#358=VECTOR('',#612,1.);
#359=VECTOR('',#613,1.);
#360=VECTOR('',#614,1.);
#361=VECTOR('',#615,1.);
#362=VECTOR('',#616,1.);
#363=VECTOR('',#617,1.);
#364=VECTOR('',#618,1.);
#365=VECTOR('',#619,1.);
#366=VECTOR('',#620,1.);
#367=VECTOR('',#621,1.);
#368=VECTOR('',#622,1.);
#369=VECTOR('',#623,1.);
#370=VECTOR('',#624,1.);
#371=VECTOR('',#625,1.);
#372=VECTOR('',#628,1.);
#373=VECTOR('',#629,1.);
#374=VECTOR('',#630,1.);
#375=VECTOR('',#633,1.);
#376=VECTOR('',#634,1.);
#377=VECTOR('',#637,1.);
#378=VECTOR('',#638,1.);
#379=VECTOR('',#641,1.);
#380=VECTOR('',#646,1.);
#381=VECTOR('',#647,1.);
#382=VECTOR('',#648,1.);
#383=VECTOR('',#651,1.);
#384=VECTOR('',#652,1.);
#385=VECTOR('',#655,1.);
#386=VECTOR('',#656,1.);
#387=VECTOR('',#659,1.);
#388=VECTOR('',#664,1.);
#389=VECTOR('',#665,1.);
#390=VECTOR('',#666,1.);
#391=VECTOR('',#669,1.);
#392=VECTOR('',#670,1.);
#393=VECTOR('',#673,1.);
#394=VECTOR('',#674,1.);
#395=VECTOR('',#677,1.);
#396=VECTOR('',#682,1.);
#397=VECTOR('',#683,1.);
#398=VECTOR('',#684,1.);
#399=VECTOR('',#687,1.);
#400=VECTOR('',#688,1.);
#401=VECTOR('',#691,1.);
#402=VECTOR('',#692,1.);
#403=VECTOR('',#695,1.);
#404=VECTOR('',#700,1.);
#405=VECTOR('',#701,1.);
#406=VECTOR('',#702,1.);
#407=VECTOR('',#705,1.);
#408=VECTOR('',#706,1.);
#409=VECTOR('',#709,1.);
#410=VECTOR('',#710,1.);
#411=VECTOR('',#713,1.);
#412=VECTOR('',#718,1.);
#413=VECTOR('',#719,1.);
#414=VECTOR('',#720,1.);
#415=VECTOR('',#723,1.);
#416=VECTOR('',#724,1.);
#417=VECTOR('',#727,1.);
#418=VECTOR('',#728,1.);
#419=VECTOR('',#731,1.);
#420=EDGE_LOOP('',(#12,#13,#14,#15));
#421=EDGE_LOOP('',(#16,#17,#18,#19));
#422=EDGE_LOOP('',(#20,#21,#22,#23));
#423=EDGE_LOOP('',(#24,#25,#26,#27));
#424=EDGE_LOOP('',(#28,#29,#30,#31));
#425=EDGE_LOOP('',(#32,#33,#34,#35));
#426=EDGE_LOOP('',(#36,#37,#38,#39));
#427=EDGE_LOOP('',(#40,#41,#42,#43));
#428=EDGE_LOOP('',(#44,#45,#46,#47));
#429=EDGE_LOOP('',(#48,#49,#50,#51));
#430=EDGE_LOOP('',(#52,#53,#54,#55));
#431=EDGE_LOOP('',(#56,#57,#58,#59));
#432=EDGE_LOOP('',(#60,#61,#62,#63));
#433=EDGE_LOOP('',(#64,#65,#66,#67));
#434=EDGE_LOOP('',(#68,#69,#70,#71));
#435=EDGE_LOOP('',(#72,#73,#74,#75));
#436=EDGE_LOOP('',(#76,#77,#78,#79));
#437=EDGE_LOOP('',(#80,#81,#82,#83));
#438=EDGE_LOOP('',(#84,#85,#86,#87));
#439=EDGE_LOOP('',(#88,#89,#90,#91));
#440=EDGE_LOOP('',(#92,#93,#94,#95));
#441=EDGE_LOOP('',(#96,#97,#98,#99));
#442=EDGE_LOOP('',(#100,#101,#102,#103));
#443=EDGE_LOOP('',(#104,#105,#106,#107));
#444=EDGE_LOOP('',(#108,#109,#110,#111));
#445=EDGE_LOOP('',(#112,#113,#114,#115));
#446=EDGE_LOOP('',(#116,#117,#118,#119));
#447=EDGE_LOOP('',(#120,#121,#122,#123));
#448=EDGE_LOOP('',(#124,#125,#126,#127));
#449=EDGE_LOOP('',(#128,#129,#130,#131));
#450=EDGE_LOOP('',(#132,#133,#134,#135));
#451=EDGE_LOOP('',(#136,#137,#138,#139));
#452=EDGE_LOOP('',(#140,#141,#142,#143));
#453=EDGE_LOOP('',(#144,#145,#146,#147));
#454=EDGE_LOOP('',(#148,#149,#150,#151));
#455=EDGE_LOOP('',(#152,#153,#154,#155));
#456=FACE_BOUND('',#420,.T.);
#457=FACE_BOUND('',#421,.T.);
#458=FACE_BOUND('',#422,.T.);
#459=FACE_BOUND('',#423,.T.);
#460=FACE_BOUND('',#424,.T.);
#461=FACE_BOUND('',#425,.T.);
#462=FACE_BOUND('',#426,.T.);
#463=FACE_BOUND('',#427,.T.);
#464=FACE_BOUND('',#428,.T.);
#465=FACE_BOUND('',#429,.T.);
#466=FACE_BOUND('',#430,.T.);
#467=FACE_BOUND('',#431,.T.);
#468=FACE_BOUND('',#432,.T.);
#469=FACE_BOUND('',#433,.T.);
#470=FACE_BOUND('',#434,.T.);
#471=FACE_BOUND('',#435,.T.);
#472=FACE_BOUND('',#436,.T.);
#473=FACE_BOUND('',#437,.T.);
#474=FACE_BOUND('',#438,.T.);
#475=FACE_BOUND('',#439,.T.);
#476=FACE_BOUND('',#440,.T.);
#477=FACE_BOUND('',#441,.T.);
#478=FACE_BOUND('',#442,.T.);
#479=FACE_BOUND('',#443,.T.);
#480=FACE_BOUND('',#444,.T.);
#481=FACE_BOUND('',#445,.T.);
#482=FACE_BOUND('',#446,.T.);
#483=FACE_BOUND('',#447,.T.);
#484=FACE_BOUND('',#448,.T.);
#485=FACE_BOUND('',#449,.T.);
#486=FACE_BOUND('',#450,.T.);
#487=FACE_BOUND('',#451,.T.);
#488=FACE_BOUND('',#452,.T.);
#489=FACE_BOUND('',#453,.T.);
#490=FACE_BOUND('',#454,.T.);
#491=FACE_BOUND('',#455,.T.);
#492=PLANE('',#567);
#493=PLANE('',#568);
#494=PLANE('',#569);
#495=PLANE('',#570);
#496=PLANE('',#571);
#497=PLANE('',#572);
#498=PLANE('',#573);
#499=PLANE('',#574);
#500=PLANE('',#575);
#501=PLANE('',#576);
#502=PLANE('',#577);
#503=PLANE('',#578);
#504=PLANE('',#579);
#505=PLANE('',#580);
#506=PLANE('',#581);
#507=PLANE('',#582);
#508=PLANE('',#583);
#509=PLANE('',#584);
#510=PLANE('',#585);
#511=PLANE('',#586);
#512=PLANE('',#587);
#513=PLANE('',#588);
#514=PLANE('',#589);
#515=PLANE('',#590);
#516=PLANE('',#591);
#517=PLANE('',#592);
#518=PLANE('',#593);
#519=PLANE('',#594);
#520=PLANE('',#595);
#521=PLANE('',#596);
#522=PLANE('',#597);
#523=ADVANCED_FACE('',(#456,#457,#458,#459,#460,#461),#492,.T.);
#524=ADVANCED_FACE('',(#462),#493,.T.);
#525=ADVANCED_FACE('',(#463),#494,.F.);
#526=ADVANCED_FACE('',(#464),#495,.F.);
#527=ADVANCED_FACE('',(#465),#496,.T.);
#528=ADVANCED_FACE('',(#466),#497,.F.);
#529=ADVANCED_FACE('',(#467),#498,.T.);
#530=ADVANCED_FACE('',(#468),#499,.F.);
#531=ADVANCED_FACE('',(#469),#500,.F.);
#532=ADVANCED_FACE('',(#470),#501,.T.);
#533=ADVANCED_FACE('',(#471),#502,.T.);
#534=ADVANCED_FACE('',(#472),#503,.T.);
#535=ADVANCED_FACE('',(#473),#504,.F.);
#536=ADVANCED_FACE('',(#474),#505,.F.);
#537=ADVANCED_FACE('',(#475),#506,.T.);
#538=ADVANCED_FACE('',(#476),#507,.T.);
#539=ADVANCED_FACE('',(#477),#508,.T.);
#540=ADVANCED_FACE('',(#478),#509,.F.);
#541=ADVANCED_FACE('',(#479),#510,.F.);
#542=ADVANCED_FACE('',(#480),#511,.T.);
#543=ADVANCED_FACE('',(#481),#512,.T.);
#544=ADVANCED_FACE('',(#482),#513,.T.);
#545=ADVANCED_FACE('',(#483),#514,.F.);
#546=ADVANCED_FACE('',(#484),#515,.F.);
#547=ADVANCED_FACE('',(#485),#516,.T.);
#548=ADVANCED_FACE('',(#486),#517,.T.);
#549=ADVANCED_FACE('',(#487),#518,.T.);
#550=ADVANCED_FACE('',(#488),#519,.F.);
#551=ADVANCED_FACE('',(#489),#520,.F.);
#552=ADVANCED_FACE('',(#490),#521,.T.);
#553=ADVANCED_FACE('',(#491),#522,.T.);
#554=CLOSED_SHELL('',(#523,#524,#525,#526,#527,#528,#529,#530,#531,#532,
#533,#534,#535,#536,#537,#538,#539,#540,#541,#542,#543,#544,#545,#546,#547,
#548,#549,#550,#551,#552,#553));
#555=STYLED_ITEM('',(#556),#563);
#556=PRESENTATION_STYLE_ASSIGNMENT((#557));
#557=SURFACE_STYLE_USAGE(.BOTH.,#558);
#558=SURFACE_SIDE_STYLE('',(#559));
#559=SURFACE_STYLE_FILL_AREA(#560);
#560=FILL_AREA_STYLE('',(#561));
#561=FILL_AREA_STYLE_COLOUR('',#562);
#562=COLOUR_RGB('',0.615686274509804,0.811764705882353,0.929411764705882);
#563=MANIFOLD_SOLID_BREP('TALLER BOOKSHELF',#554);
#564=SHAPE_DEFINITION_REPRESENTATION(#892,#565);
#565=SHAPE_REPRESENTATION('TALLER BOOKSHELF',(#566),#887);
#566=AXIS2_PLACEMENT_3D('',#734,#598,#599);
#567=AXIS2_PLACEMENT_3D('',#735,#600,#601);
#568=AXIS2_PLACEMENT_3D('',#784,#626,#627);
#569=AXIS2_PLACEMENT_3D('',#790,#631,#632);
#570=AXIS2_PLACEMENT_3D('',#794,#635,#636);
#571=AXIS2_PLACEMENT_3D('',#798,#639,#640);
#572=AXIS2_PLACEMENT_3D('',#800,#642,#643);
#573=AXIS2_PLACEMENT_3D('',#801,#644,#645);
#574=AXIS2_PLACEMENT_3D('',#807,#649,#650);
#575=AXIS2_PLACEMENT_3D('',#811,#653,#654);
#576=AXIS2_PLACEMENT_3D('',#815,#657,#658);
#577=AXIS2_PLACEMENT_3D('',#817,#660,#661);
#578=AXIS2_PLACEMENT_3D('',#818,#662,#663);
#579=AXIS2_PLACEMENT_3D('',#824,#667,#668);
#580=AXIS2_PLACEMENT_3D('',#828,#671,#672);
#581=AXIS2_PLACEMENT_3D('',#832,#675,#676);
#582=AXIS2_PLACEMENT_3D('',#834,#678,#679);
#583=AXIS2_PLACEMENT_3D('',#835,#680,#681);
#584=AXIS2_PLACEMENT_3D('',#841,#685,#686);
#585=AXIS2_PLACEMENT_3D('',#845,#689,#690);
#586=AXIS2_PLACEMENT_3D('',#849,#693,#694);
#587=AXIS2_PLACEMENT_3D('',#851,#696,#697);
#588=AXIS2_PLACEMENT_3D('',#852,#698,#699);
#589=AXIS2_PLACEMENT_3D('',#858,#703,#704);
#590=AXIS2_PLACEMENT_3D('',#862,#707,#708);
#591=AXIS2_PLACEMENT_3D('',#866,#711,#712);
#592=AXIS2_PLACEMENT_3D('',#868,#714,#715);
#593=AXIS2_PLACEMENT_3D('',#869,#716,#717);
#594=AXIS2_PLACEMENT_3D('',#875,#721,#722);
#595=AXIS2_PLACEMENT_3D('',#879,#725,#726);
#596=AXIS2_PLACEMENT_3D('',#883,#729,#730);
#597=AXIS2_PLACEMENT_3D('',#885,#732,#733);
#598=DIRECTION('',(0.,0.,1.));
#599=DIRECTION('',(1.,0.,0.));
#600=DIRECTION('',(0.,0.,1.));
#601=DIRECTION('',(1.,0.,0.));
#602=DIRECTION('',(1.,0.,0.));
#603=DIRECTION('',(0.,-1.,0.));
#604=DIRECTION('',(1.,0.,0.));
#605=DIRECTION('',(5.83100328059431E-17,-1.,0.));
#606=DIRECTION('',(0.,-1.,0.));
#607=DIRECTION('',(1.,0.,0.));
#608=DIRECTION('',(8.5877399800832E-17,-1.,0.));
#609=DIRECTION('',(1.,0.,0.));
#610=DIRECTION('',(0.,-1.,0.));
#611=DIRECTION('',(1.,1.71754799601664E-16,0.));
#612=DIRECTION('',(0.,-1.,0.));
#613=DIRECTION('',(1.,1.71754799601664E-16,0.));
#614=DIRECTION('',(0.,-1.,0.));
#615=DIRECTION('',(1.,3.43509599203328E-16,0.));
#616=DIRECTION('',(0.,-1.,0.));
#617=DIRECTION('',(1.,1.71754799601664E-16,0.));
#618=DIRECTION('',(0.,-1.,0.));
#619=DIRECTION('',(1.,0.,0.));
#620=DIRECTION('',(0.,-1.,0.));
#621=DIRECTION('',(1.,0.,0.));
#622=DIRECTION('',(0.,-1.,0.));
#623=DIRECTION('',(1.,0.,0.));
#624=DIRECTION('',(0.,-1.,0.));
#625=DIRECTION('',(1.,0.,0.));
#626=DIRECTION('',(0.,1.,0.));
#627=DIRECTION('',(0.,0.,1.));
#628=DIRECTION('',(1.,0.,0.));
#629=DIRECTION('',(0.,0.,-1.));
#630=DIRECTION('',(0.,0.,-1.));
#631=DIRECTION('',(1.,0.,0.));
#632=DIRECTION('',(0.,0.,-1.));
#633=DIRECTION('',(0.,-1.,0.));
#634=DIRECTION('',(0.,0.,-1.));
#635=DIRECTION('',(0.,1.,0.));
#636=DIRECTION('',(0.,0.,1.));
#637=DIRECTION('',(1.,0.,0.));
#638=DIRECTION('',(0.,0.,-1.));
#639=DIRECTION('',(1.,5.83100328059431E-17,0.));
#640=DIRECTION('',(-5.83100328059431E-17,1.,0.));
#641=DIRECTION('',(5.83100328059431E-17,-1.,0.));
#642=DIRECTION('',(0.,0.,1.));
#643=DIRECTION('',(1.,0.,0.));
#644=DIRECTION('',(0.,-1.,0.));
#645=DIRECTION('',(0.,0.,-1.));
#646=DIRECTION('',(0.,0.,1.));
#647=DIRECTION('',(1.,0.,0.));
#648=DIRECTION('',(0.,0.,1.));
#649=DIRECTION('',(-1.,0.,0.));
#650=DIRECTION('',(0.,0.,1.));
#651=DIRECTION('',(0.,0.,1.));
#652=DIRECTION('',(0.,-1.,0.));
#653=DIRECTION('',(0.,-1.,0.));
#654=DIRECTION('',(0.,0.,-1.));
#655=DIRECTION('',(0.,0.,1.));
#656=DIRECTION('',(1.,0.,0.));
#657=DIRECTION('',(-1.,-8.5877399800832E-17,0.));
#658=DIRECTION('',(8.5877399800832E-17,-1.,0.));
#659=DIRECTION('',(8.5877399800832E-17,-1.,0.));
#660=DIRECTION('',(0.,0.,1.));
#661=DIRECTION('',(1.,0.,0.));
#662=DIRECTION('',(1.71754799601664E-16,-1.,0.));
#663=DIRECTION('',(1.,1.71754799601664E-16,0.));
#664=DIRECTION('',(0.,0.,1.));
#665=DIRECTION('',(1.,1.71754799601664E-16,0.));
#666=DIRECTION('',(0.,0.,1.));
#667=DIRECTION('',(-1.,0.,0.));
#668=DIRECTION('',(0.,0.,1.));
#669=DIRECTION('',(0.,0.,1.));
#670=DIRECTION('',(0.,-1.,0.));
#671=DIRECTION('',(1.71754799601664E-16,-1.,0.));
#672=DIRECTION('',(1.,1.71754799601664E-16,0.));
#673=DIRECTION('',(0.,0.,1.));
#674=DIRECTION('',(1.,1.71754799601664E-16,0.));
#675=DIRECTION('',(-1.,0.,0.));
#676=DIRECTION('',(0.,0.,1.));
#677=DIRECTION('',(0.,-1.,0.));
#678=DIRECTION('',(0.,0.,1.));
#679=DIRECTION('',(1.,0.,0.));
#680=DIRECTION('',(3.43509599203328E-16,-1.,0.));
#681=DIRECTION('',(1.,3.43509599203328E-16,0.));
#682=DIRECTION('',(0.,0.,1.));
#683=DIRECTION('',(1.,3.43509599203328E-16,0.));
#684=DIRECTION('',(0.,0.,1.));
#685=DIRECTION('',(-1.,0.,0.));
#686=DIRECTION('',(0.,0.,1.));
#687=DIRECTION('',(0.,0.,1.));
#688=DIRECTION('',(0.,-1.,0.));
#689=DIRECTION('',(1.71754799601664E-16,-1.,0.));
#690=DIRECTION('',(1.,1.71754799601664E-16,0.));
#691=DIRECTION('',(0.,0.,1.));
#692=DIRECTION('',(1.,1.71754799601664E-16,0.));
#693=DIRECTION('',(-1.,0.,0.));
#694=DIRECTION('',(0.,0.,1.));
#695=DIRECTION('',(0.,-1.,0.));
#696=DIRECTION('',(0.,0.,1.));
#697=DIRECTION('',(1.,0.,0.));
#698=DIRECTION('',(0.,-1.,0.));
#699=DIRECTION('',(0.,0.,-1.));
#700=DIRECTION('',(0.,0.,1.));
#701=DIRECTION('',(1.,0.,0.));
#702=DIRECTION('',(0.,0.,1.));
#703=DIRECTION('',(-1.,0.,0.));
#704=DIRECTION('',(0.,0.,1.));
#705=DIRECTION('',(0.,0.,1.));
#706=DIRECTION('',(0.,-1.,0.));
#707=DIRECTION('',(0.,-1.,0.));
#708=DIRECTION('',(0.,0.,-1.));
#709=DIRECTION('',(0.,0.,1.));
#710=DIRECTION('',(1.,0.,0.));
#711=DIRECTION('',(-1.,0.,0.));
#712=DIRECTION('',(0.,0.,1.));
#713=DIRECTION('',(0.,-1.,0.));
#714=DIRECTION('',(0.,0.,1.));
#715=DIRECTION('',(1.,0.,0.));
#716=DIRECTION('',(0.,-1.,0.));
#717=DIRECTION('',(0.,0.,-1.));
#718=DIRECTION('',(0.,0.,1.));
#719=DIRECTION('',(1.,0.,0.));
#720=DIRECTION('',(0.,0.,1.));
#721=DIRECTION('',(-1.,0.,0.));
#722=DIRECTION('',(0.,0.,1.));
#723=DIRECTION('',(0.,0.,1.));
#724=DIRECTION('',(0.,-1.,0.));
#725=DIRECTION('',(0.,-1.,0.));
#726=DIRECTION('',(0.,0.,-1.));
#727=DIRECTION('',(0.,0.,1.));
#728=DIRECTION('',(1.,0.,0.));
#729=DIRECTION('',(-1.,0.,0.));
#730=DIRECTION('',(0.,0.,1.));
#731=DIRECTION('',(0.,-1.,0.));
#732=DIRECTION('',(0.,0.,1.));
#733=DIRECTION('',(1.,0.,0.));
#734=CARTESIAN_POINT('',(0.,0.,0.));
#735=CARTESIAN_POINT('',(-0.0167377184998244,0.0199821541585176,0.02));
#736=CARTESIAN_POINT('',(-0.0167377184998244,0.0794821541585176,0.02));
#737=CARTESIAN_POINT('',(-0.0298377184998244,0.0794821541585176,0.02));
#738=CARTESIAN_POINT('',(-0.00363771849982441,0.0794821541585176,0.02));
#739=CARTESIAN_POINT('',(-0.0298377184998244,0.0199821541585176,0.02));
#740=CARTESIAN_POINT('',(-0.0298377184998244,-0.0395178458414824,0.02));
#741=CARTESIAN_POINT('',(-0.0167377184998244,-0.0395178458414824,0.02));
#742=CARTESIAN_POINT('',(-0.00363771849982441,-0.0395178458414824,0.02));
#743=CARTESIAN_POINT('',(-0.00363771849982441,0.0199821541585176,0.02));
#744=CARTESIAN_POINT('',(-0.0268377184998244,-0.0264178458414824,0.02));
#745=CARTESIAN_POINT('',(-0.0268377184998244,-0.0163178458414824,0.02));
#746=CARTESIAN_POINT('',(-0.0268377184998244,-0.0365178458414824,0.02));
#747=CARTESIAN_POINT('',(-0.0167377184998244,-0.0163178458414824,0.02));
#748=CARTESIAN_POINT('',(-0.00663771849982441,-0.0163178458414824,0.02));
#749=CARTESIAN_POINT('',(-0.0066377184998244,-0.0264178458414824,0.02));
#750=CARTESIAN_POINT('',(-0.0066377184998244,-0.0365178458414824,0.02));
#751=CARTESIAN_POINT('',(-0.0167377184998244,-0.0365178458414824,0.02));
#752=CARTESIAN_POINT('',(-0.0268377184998244,-0.00321784584148237,0.02));
#753=CARTESIAN_POINT('',(-0.0268377184998244,0.00688215415851763,0.02));
#754=CARTESIAN_POINT('',(-0.0268377184998244,-0.0133178458414824,0.02));
#755=CARTESIAN_POINT('',(-0.0167377184998244,0.00688215415851763,0.02));
#756=CARTESIAN_POINT('',(-0.00663771849982441,0.00688215415851764,0.02));
#757=CARTESIAN_POINT('',(-0.00663771849982441,-0.00321784584148237,0.02));
#758=CARTESIAN_POINT('',(-0.00663771849982441,-0.0133178458414824,0.02));
#759=CARTESIAN_POINT('',(-0.0167377184998244,-0.0133178458414824,0.02));
#760=CARTESIAN_POINT('',(-0.0268377184998244,0.0199821541585176,0.02));
#761=CARTESIAN_POINT('',(-0.0268377184998244,0.0300821541585177,0.02));
#762=CARTESIAN_POINT('',(-0.0268377184998244,0.00988215415851763,0.02));
#763=CARTESIAN_POINT('',(-0.0167377184998244,0.0300821541585177,0.02));
#764=CARTESIAN_POINT('',(-0.00663771849982441,0.0300821541585177,0.02));
#765=CARTESIAN_POINT('',(-0.00663771849982441,0.0199821541585176,0.02));
#766=CARTESIAN_POINT('',(-0.00663771849982441,0.00988215415851763,0.02));
#767=CARTESIAN_POINT('',(-0.0167377184998244,0.00988215415851763,0.02));
#768=CARTESIAN_POINT('',(-0.0268377184998244,0.0431821541585177,0.02));
#769=CARTESIAN_POINT('',(-0.0268377184998244,0.0532821541585176,0.02));
#770=CARTESIAN_POINT('',(-0.0268377184998244,0.0330821541585176,0.02));
#771=CARTESIAN_POINT('',(-0.0167377184998244,0.0532821541585176,0.02));
#772=CARTESIAN_POINT('',(-0.00663771849982441,0.0532821541585176,0.02));
#773=CARTESIAN_POINT('',(-0.00663771849982441,0.0431821541585177,0.02));
#774=CARTESIAN_POINT('',(-0.00663771849982441,0.0330821541585176,0.02));
#775=CARTESIAN_POINT('',(-0.0167377184998244,0.0330821541585176,0.02));
#776=CARTESIAN_POINT('',(-0.0268377184998244,0.0663821541585176,0.02));
#777=CARTESIAN_POINT('',(-0.0268377184998244,0.0764821541585176,0.02));
#778=CARTESIAN_POINT('',(-0.0268377184998244,0.0562821541585176,0.02));
#779=CARTESIAN_POINT('',(-0.0167377184998244,0.0764821541585176,0.02));
#780=CARTESIAN_POINT('',(-0.00663771849982441,0.0764821541585176,0.02));
#781=CARTESIAN_POINT('',(-0.00663771849982441,0.0663821541585176,0.02));
#782=CARTESIAN_POINT('',(-0.00663771849982441,0.0562821541585176,0.02));
#783=CARTESIAN_POINT('',(-0.0167377184998244,0.0562821541585176,0.02));
#784=CARTESIAN_POINT('',(-0.0167377184998244,0.0794821541585176,0.02));
#785=CARTESIAN_POINT('',(-0.0167377184998244,0.0794821541585176,0.));
#786=CARTESIAN_POINT('',(-0.0298377184998244,0.0794821541585176,0.));
#787=CARTESIAN_POINT('',(-0.00363771849982441,0.0794821541585176,0.));
#788=CARTESIAN_POINT('',(-0.0298377184998244,0.0794821541585176,0.02));
#789=CARTESIAN_POINT('',(-0.00363771849982441,0.0794821541585176,0.02));
#790=CARTESIAN_POINT('',(-0.0298377184998244,0.0199821541585176,0.02));
#791=CARTESIAN_POINT('',(-0.0298377184998244,0.0199821541585176,0.));
#792=CARTESIAN_POINT('',(-0.0298377184998244,-0.0395178458414824,0.));
#793=CARTESIAN_POINT('',(-0.0298377184998244,-0.0395178458414824,0.02));
#794=CARTESIAN_POINT('',(-0.0167377184998244,-0.0395178458414824,0.02));
#795=CARTESIAN_POINT('',(-0.0167377184998244,-0.0395178458414824,0.));
#796=CARTESIAN_POINT('',(-0.00363771849982441,-0.0395178458414824,0.));
#797=CARTESIAN_POINT('',(-0.00363771849982441,-0.0395178458414824,0.02));
#798=CARTESIAN_POINT('',(-0.00363771849982441,0.0199821541585176,0.02));
#799=CARTESIAN_POINT('',(-0.00363771849982441,0.0199821541585176,0.));
#800=CARTESIAN_POINT('',(-0.0167377184998244,0.0199821541585176,0.));
#801=CARTESIAN_POINT('',(-0.0167377184998244,-0.0163178458414824,0.003));
#802=CARTESIAN_POINT('',(-0.0268377184998244,-0.0163178458414824,0.003));
#803=CARTESIAN_POINT('',(-0.0268377184998244,-0.0163178458414824,0.003));
#804=CARTESIAN_POINT('',(-0.0167377184998244,-0.0163178458414824,0.003));
#805=CARTESIAN_POINT('',(-0.00663771849982441,-0.0163178458414824,0.003));
#806=CARTESIAN_POINT('',(-0.00663771849982441,-0.0163178458414824,0.003));
#807=CARTESIAN_POINT('',(-0.0268377184998244,-0.0264178458414824,0.003));
#808=CARTESIAN_POINT('',(-0.0268377184998244,-0.0365178458414824,0.003));
#809=CARTESIAN_POINT('',(-0.0268377184998244,-0.0365178458414824,0.003));
#810=CARTESIAN_POINT('',(-0.0268377184998244,-0.0264178458414824,0.003));
#811=CARTESIAN_POINT('',(-0.0167377184998244,-0.0365178458414824,0.003));
#812=CARTESIAN_POINT('',(-0.0066377184998244,-0.0365178458414824,0.003));
#813=CARTESIAN_POINT('',(-0.0066377184998244,-0.0365178458414824,0.003));
#814=CARTESIAN_POINT('',(-0.0167377184998244,-0.0365178458414824,0.003));
#815=CARTESIAN_POINT('',(-0.0066377184998244,-0.0264178458414824,0.003));
#816=CARTESIAN_POINT('',(-0.0066377184998244,-0.0264178458414824,0.003));
#817=CARTESIAN_POINT('',(-0.0167377184998244,0.0199821541585176,0.003));
#818=CARTESIAN_POINT('',(-0.0167377184998244,0.00688215415851763,0.003));
#819=CARTESIAN_POINT('',(-0.0268377184998244,0.00688215415851763,0.003));
#820=CARTESIAN_POINT('',(-0.0268377184998244,0.00688215415851763,0.003));
#821=CARTESIAN_POINT('',(-0.0167377184998244,0.00688215415851763,0.003));
#822=CARTESIAN_POINT('',(-0.00663771849982441,0.00688215415851764,0.003));
#823=CARTESIAN_POINT('',(-0.00663771849982441,0.00688215415851764,0.003));
#824=CARTESIAN_POINT('',(-0.0268377184998244,-0.00321784584148237,0.003));
#825=CARTESIAN_POINT('',(-0.0268377184998244,-0.0133178458414824,0.003));
#826=CARTESIAN_POINT('',(-0.0268377184998244,-0.0133178458414824,0.003));
#827=CARTESIAN_POINT('',(-0.0268377184998244,-0.00321784584148237,0.003));
#828=CARTESIAN_POINT('',(-0.0167377184998244,-0.0133178458414824,0.003));
#829=CARTESIAN_POINT('',(-0.00663771849982441,-0.0133178458414824,0.003));
#830=CARTESIAN_POINT('',(-0.00663771849982441,-0.0133178458414824,0.003));
#831=CARTESIAN_POINT('',(-0.0167377184998244,-0.0133178458414824,0.003));
#832=CARTESIAN_POINT('',(-0.00663771849982441,-0.00321784584148237,0.003));
#833=CARTESIAN_POINT('',(-0.00663771849982441,-0.00321784584148237,0.003));
#834=CARTESIAN_POINT('',(-0.0167377184998244,0.0199821541585176,0.003));
#835=CARTESIAN_POINT('',(-0.0167377184998244,0.0300821541585177,0.003));
#836=CARTESIAN_POINT('',(-0.0268377184998244,0.0300821541585177,0.003));
#837=CARTESIAN_POINT('',(-0.0268377184998244,0.0300821541585177,0.003));
#838=CARTESIAN_POINT('',(-0.0167377184998244,0.0300821541585177,0.003));
#839=CARTESIAN_POINT('',(-0.00663771849982441,0.0300821541585177,0.003));
#840=CARTESIAN_POINT('',(-0.00663771849982441,0.0300821541585177,0.003));
#841=CARTESIAN_POINT('',(-0.0268377184998244,0.0199821541585176,0.003));
#842=CARTESIAN_POINT('',(-0.0268377184998244,0.00988215415851763,0.003));
#843=CARTESIAN_POINT('',(-0.0268377184998244,0.00988215415851763,0.003));
#844=CARTESIAN_POINT('',(-0.0268377184998244,0.0199821541585176,0.003));
#845=CARTESIAN_POINT('',(-0.0167377184998244,0.00988215415851763,0.003));
#846=CARTESIAN_POINT('',(-0.00663771849982441,0.00988215415851763,0.003));
#847=CARTESIAN_POINT('',(-0.00663771849982441,0.00988215415851763,0.003));
#848=CARTESIAN_POINT('',(-0.0167377184998244,0.00988215415851763,0.003));
#849=CARTESIAN_POINT('',(-0.00663771849982441,0.0199821541585176,0.003));
#850=CARTESIAN_POINT('',(-0.00663771849982441,0.0199821541585176,0.003));
#851=CARTESIAN_POINT('',(-0.0167377184998244,0.0199821541585176,0.003));
#852=CARTESIAN_POINT('',(-0.0167377184998244,0.0532821541585176,0.003));
#853=CARTESIAN_POINT('',(-0.0268377184998244,0.0532821541585176,0.003));
#854=CARTESIAN_POINT('',(-0.0268377184998244,0.0532821541585176,0.003));
#855=CARTESIAN_POINT('',(-0.0167377184998244,0.0532821541585176,0.003));
#856=CARTESIAN_POINT('',(-0.00663771849982441,0.0532821541585176,0.003));
#857=CARTESIAN_POINT('',(-0.00663771849982441,0.0532821541585176,0.003));
#858=CARTESIAN_POINT('',(-0.0268377184998244,0.0431821541585177,0.003));
#859=CARTESIAN_POINT('',(-0.0268377184998244,0.0330821541585176,0.003));
#860=CARTESIAN_POINT('',(-0.0268377184998244,0.0330821541585176,0.003));
#861=CARTESIAN_POINT('',(-0.0268377184998244,0.0431821541585177,0.003));
#862=CARTESIAN_POINT('',(-0.0167377184998244,0.0330821541585176,0.003));
#863=CARTESIAN_POINT('',(-0.00663771849982441,0.0330821541585176,0.003));
#864=CARTESIAN_POINT('',(-0.00663771849982441,0.0330821541585176,0.003));
#865=CARTESIAN_POINT('',(-0.0167377184998244,0.0330821541585176,0.003));
#866=CARTESIAN_POINT('',(-0.00663771849982441,0.0431821541585177,0.003));
#867=CARTESIAN_POINT('',(-0.00663771849982441,0.0431821541585177,0.003));
#868=CARTESIAN_POINT('',(-0.0167377184998244,0.0199821541585176,0.003));
#869=CARTESIAN_POINT('',(-0.0167377184998244,0.0764821541585176,0.003));
#870=CARTESIAN_POINT('',(-0.0268377184998244,0.0764821541585176,0.003));
#871=CARTESIAN_POINT('',(-0.0268377184998244,0.0764821541585176,0.003));
#872=CARTESIAN_POINT('',(-0.0167377184998244,0.0764821541585176,0.003));
#873=CARTESIAN_POINT('',(-0.00663771849982441,0.0764821541585176,0.003));
#874=CARTESIAN_POINT('',(-0.00663771849982441,0.0764821541585176,0.003));
#875=CARTESIAN_POINT('',(-0.0268377184998244,0.0663821541585176,0.003));
#876=CARTESIAN_POINT('',(-0.0268377184998244,0.0562821541585176,0.003));
#877=CARTESIAN_POINT('',(-0.0268377184998244,0.0562821541585176,0.003));
#878=CARTESIAN_POINT('',(-0.0268377184998244,0.0663821541585176,0.003));
#879=CARTESIAN_POINT('',(-0.0167377184998244,0.0562821541585176,0.003));
#880=CARTESIAN_POINT('',(-0.00663771849982441,0.0562821541585176,0.003));
#881=CARTESIAN_POINT('',(-0.00663771849982441,0.0562821541585176,0.003));
#882=CARTESIAN_POINT('',(-0.0167377184998244,0.0562821541585176,0.003));
#883=CARTESIAN_POINT('',(-0.00663771849982441,0.0663821541585176,0.003));
#884=CARTESIAN_POINT('',(-0.00663771849982441,0.0663821541585176,0.003));
#885=CARTESIAN_POINT('',(-0.0167377184998244,0.0199821541585176,0.003));
#886=MECHANICAL_DESIGN_GEOMETRIC_PRESENTATION_REPRESENTATION('',(#555),
#887);
#887=(
GEOMETRIC_REPRESENTATION_CONTEXT(3)
GLOBAL_UNCERTAINTY_ASSIGNED_CONTEXT((#888))
GLOBAL_UNIT_ASSIGNED_CONTEXT((#891,#890,#889))
REPRESENTATION_CONTEXT('TALLER BOOKSHELF','TOP_LEVEL_ASSEMBLY_PART')
);
#888=UNCERTAINTY_MEASURE_WITH_UNIT(LENGTH_MEASURE(1.E-8),#891,
'DISTANCE_ACCURACY_VALUE','Maximum Tolerance applied to model');
#889=(
NAMED_UNIT(*)
SI_UNIT($,.STERADIAN.)
SOLID_ANGLE_UNIT()
);
#890=(
NAMED_UNIT(*)
PLANE_ANGLE_UNIT()
SI_UNIT($,.RADIAN.)
);
#891=(
LENGTH_UNIT()
NAMED_UNIT(*)
SI_UNIT($,.METRE.)
);
#892=PRODUCT_DEFINITION_SHAPE('','',#893);
#893=PRODUCT_DEFINITION('','',#895,#894);
#894=PRODUCT_DEFINITION_CONTEXT('',#901,'design');
#895=PRODUCT_DEFINITION_FORMATION_WITH_SPECIFIED_SOURCE('','',#897,
 .NOT_KNOWN.);
#896=PRODUCT_RELATED_PRODUCT_CATEGORY('','',(#897));
#897=PRODUCT('TALLER BOOKSHELF','TALLER BOOKSHELF','TALLER BOOKSHELF',(#899));
#898=PRODUCT_CATEGORY('','');
#899=PRODUCT_CONTEXT('',#901,'mechanical');
#900=APPLICATION_PROTOCOL_DEFINITION('international standard',
'ap242_managed_model_based_3d_engineering',2020,#901);
#901=APPLICATION_CONTEXT('managed model based 3d engineering');
ENDSEC;
END-ISO-10303-21;
