ISO-10303-21;
HEADER;
/* Generated by software containing ST-Developer
 * from STEP Tools, Inc. (www.steptools.com) 
 */
/* OPTION: using custom renumber hook */

FILE_DESCRIPTION(
/* description */ ('STEP AP242 Edition 2',
'CAx-IF Rec.Pracs.---Representation and Presentation of Product Manufa
cturing Information (PMI)---4.0---2014-10-13',
'CAx-IF Rec.Pracs.---3D Tessellated Geometry---0.4---2014-09-14','2;1',
'CAx-IF Rec.Pracs.---User Defined Attributes---1.5---2016-08-15'),
/* implementation_level */ '2;1');

FILE_NAME(
/* name */ 'TOP - TOP',
/* time_stamp */ '2026-09-08T03:11:13Z',
/* author */ (''),
/* organization */ (''),
/* preprocessor_version */ 'ST-DEVELOPER v20',
/* originating_system */ 'ONSHAPE BY PTC INC, 1.220',
/* authorisation */ '  ');

FILE_SCHEMA (('AP242_MANAGED_MODEL_BASED_3D_ENGINEERING_MIM_LF { 1 0 10303 442 3 1 4 }'));
ENDSEC;

DATA;
#10=SHAPE_REPRESENTATION_RELATIONSHIP('','',#191,#11);
#11=ADVANCED_BREP_SHAPE_REPRESENTATION('',(#189),#302);
#12=CIRCLE('',#197,0.07);
#13=CIRCLE('',#198,0.07);
#14=CYLINDRICAL_SURFACE('',#196,0.07);
#15=ORIENTED_EDGE('',*,*,#61,.F.);
#16=ORIENTED_EDGE('',*,*,#62,.T.);
#17=ORIENTED_EDGE('',*,*,#63,.T.);
#18=ORIENTED_EDGE('',*,*,#64,.F.);
#19=ORIENTED_EDGE('',*,*,#65,.F.);
#20=ORIENTED_EDGE('',*,*,#66,.T.);
#21=ORIENTED_EDGE('',*,*,#67,.T.);
#22=ORIENTED_EDGE('',*,*,#63,.F.);
#23=ORIENTED_EDGE('',*,*,#68,.F.);
#24=ORIENTED_EDGE('',*,*,#69,.T.);
#25=ORIENTED_EDGE('',*,*,#61,.T.);
#26=ORIENTED_EDGE('',*,*,#70,.F.);
#27=ORIENTED_EDGE('',*,*,#71,.F.);
#28=ORIENTED_EDGE('',*,*,#72,.T.);
#29=ORIENTED_EDGE('',*,*,#73,.T.);
#30=ORIENTED_EDGE('',*,*,#66,.F.);
#31=ORIENTED_EDGE('',*,*,#74,.F.);
#32=ORIENTED_EDGE('',*,*,#75,.F.);
#33=ORIENTED_EDGE('',*,*,#71,.T.);
#34=ORIENTED_EDGE('',*,*,#76,.F.);
#35=ORIENTED_EDGE('',*,*,#72,.F.);
#36=ORIENTED_EDGE('',*,*,#75,.T.);
#37=ORIENTED_EDGE('',*,*,#77,.T.);
#38=ORIENTED_EDGE('',*,*,#78,.F.);
#39=ORIENTED_EDGE('',*,*,#64,.T.);
#40=ORIENTED_EDGE('',*,*,#67,.F.);
#41=ORIENTED_EDGE('',*,*,#73,.F.);
#42=ORIENTED_EDGE('',*,*,#70,.T.);
#43=ORIENTED_EDGE('',*,*,#76,.T.);
#44=ORIENTED_EDGE('',*,*,#79,.F.);
#45=ORIENTED_EDGE('',*,*,#80,.F.);
#46=ORIENTED_EDGE('',*,*,#68,.T.);
#47=ORIENTED_EDGE('',*,*,#78,.T.);
#48=ORIENTED_EDGE('',*,*,#81,.F.);
#49=ORIENTED_EDGE('',*,*,#82,.F.);
#50=ORIENTED_EDGE('',*,*,#79,.T.);
#51=ORIENTED_EDGE('',*,*,#77,.F.);
#52=ORIENTED_EDGE('',*,*,#74,.T.);
#53=ORIENTED_EDGE('',*,*,#83,.T.);
#54=ORIENTED_EDGE('',*,*,#81,.T.);
#55=ORIENTED_EDGE('',*,*,#62,.F.);
#56=ORIENTED_EDGE('',*,*,#69,.F.);
#57=ORIENTED_EDGE('',*,*,#80,.T.);
#58=ORIENTED_EDGE('',*,*,#82,.T.);
#59=ORIENTED_EDGE('',*,*,#83,.F.);
#60=ORIENTED_EDGE('',*,*,#65,.T.);
#61=EDGE_CURVE('',#84,#85,#99,.T.);
#62=EDGE_CURVE('',#84,#86,#100,.T.);
#63=EDGE_CURVE('',#86,#87,#101,.T.);
#64=EDGE_CURVE('',#85,#87,#102,.T.);
#65=EDGE_CURVE('',#88,#86,#103,.T.);
#66=EDGE_CURVE('',#88,#89,#104,.T.);
#67=EDGE_CURVE('',#89,#87,#105,.T.);
#68=EDGE_CURVE('',#90,#91,#106,.T.);
#69=EDGE_CURVE('',#90,#84,#107,.T.);
#70=EDGE_CURVE('',#92,#85,#108,.T.);
#71=EDGE_CURVE('',#93,#92,#109,.T.);
#72=EDGE_CURVE('',#93,#91,#110,.T.);
#73=EDGE_CURVE('',#92,#89,#12,.T.);
#74=EDGE_CURVE('',#94,#88,#111,.T.);
#75=EDGE_CURVE('',#93,#94,#13,.T.);
#76=EDGE_CURVE('',#91,#95,#112,.T.);
#77=EDGE_CURVE('',#94,#96,#113,.T.);
#78=EDGE_CURVE('',#95,#96,#114,.T.);
#79=EDGE_CURVE('',#97,#95,#115,.T.);
#80=EDGE_CURVE('',#90,#97,#116,.T.);
#81=EDGE_CURVE('',#98,#96,#117,.T.);
#82=EDGE_CURVE('',#97,#98,#118,.T.);
#83=EDGE_CURVE('',#88,#98,#119,.T.);
#84=VERTEX_POINT('',#255);
#85=VERTEX_POINT('',#256);
#86=VERTEX_POINT('',#258);
#87=VERTEX_POINT('',#260);
#88=VERTEX_POINT('',#264);
#89=VERTEX_POINT('',#266);
#90=VERTEX_POINT('',#270);
#91=VERTEX_POINT('',#271);
#92=VERTEX_POINT('',#274);
#93=VERTEX_POINT('',#276);
#94=VERTEX_POINT('',#281);
#95=VERTEX_POINT('',#285);
#96=VERTEX_POINT('',#287);
#97=VERTEX_POINT('',#292);
#98=VERTEX_POINT('',#296);
#99=LINE('',#254,#120);
#100=LINE('',#257,#121);
#101=LINE('',#259,#122);
#102=LINE('',#261,#123);
#103=LINE('',#263,#124);
#104=LINE('',#265,#125);
#105=LINE('',#267,#126);
#106=LINE('',#269,#127);
#107=LINE('',#272,#128);
#108=LINE('',#273,#129);
#109=LINE('',#275,#130);
#110=LINE('',#277,#131);
#111=LINE('',#280,#132);
#112=LINE('',#284,#133);
#113=LINE('',#286,#134);
#114=LINE('',#288,#135);
#115=LINE('',#291,#136);
#116=LINE('',#293,#137);
#117=LINE('',#295,#138);
#118=LINE('',#297,#139);
#119=LINE('',#299,#140);
#120=VECTOR('',#209,1.);
#121=VECTOR('',#210,1.);
#122=VECTOR('',#211,1.);
#123=VECTOR('',#212,1.);
#124=VECTOR('',#215,1.);
#125=VECTOR('',#216,1.);
#126=VECTOR('',#217,1.);
#127=VECTOR('',#220,1.);
#128=VECTOR('',#221,1.);
#129=VECTOR('',#222,1.);
#130=VECTOR('',#223,1.);
#131=VECTOR('',#224,1.);
#132=VECTOR('',#229,1.);
#133=VECTOR('',#234,1.);
#134=VECTOR('',#235,1.);
#135=VECTOR('',#236,1.);
#136=VECTOR('',#241,1.);
#137=VECTOR('',#242,1.);
#138=VECTOR('',#245,1.);
#139=VECTOR('',#246,1.);
#140=VECTOR('',#249,1.);
#141=EDGE_LOOP('',(#15,#16,#17,#18));
#142=EDGE_LOOP('',(#19,#20,#21,#22));
#143=EDGE_LOOP('',(#23,#24,#25,#26,#27,#28));
#144=EDGE_LOOP('',(#29,#30,#31,#32,#33));
#145=EDGE_LOOP('',(#34,#35,#36,#37,#38));
#146=EDGE_LOOP('',(#39,#40,#41,#42));
#147=EDGE_LOOP('',(#43,#44,#45,#46));
#148=EDGE_LOOP('',(#47,#48,#49,#50));
#149=EDGE_LOOP('',(#51,#52,#53,#54));
#150=EDGE_LOOP('',(#55,#56,#57,#58,#59,#60));
#151=FACE_BOUND('',#141,.T.);
#152=FACE_BOUND('',#142,.T.);
#153=FACE_BOUND('',#143,.T.);
#154=FACE_BOUND('',#144,.T.);
#155=FACE_BOUND('',#145,.T.);
#156=FACE_BOUND('',#146,.T.);
#157=FACE_BOUND('',#147,.T.);
#158=FACE_BOUND('',#148,.T.);
#159=FACE_BOUND('',#149,.T.);
#160=FACE_BOUND('',#150,.T.);
#161=PLANE('',#193);
#162=PLANE('',#194);
#163=PLANE('',#195);
#164=PLANE('',#199);
#165=PLANE('',#200);
#166=PLANE('',#201);
#167=PLANE('',#202);
#168=PLANE('',#203);
#169=PLANE('',#204);
#170=ADVANCED_FACE('',(#151),#161,.T.);
#171=ADVANCED_FACE('',(#152),#162,.F.);
#172=ADVANCED_FACE('',(#153),#163,.T.);
#173=ADVANCED_FACE('',(#154),#14,.T.);
#174=ADVANCED_FACE('',(#155),#164,.T.);
#175=ADVANCED_FACE('',(#156),#165,.F.);
#176=ADVANCED_FACE('',(#157),#166,.F.);
#177=ADVANCED_FACE('',(#158),#167,.F.);
#178=ADVANCED_FACE('',(#159),#168,.T.);
#179=ADVANCED_FACE('',(#160),#169,.T.);
#180=CLOSED_SHELL('',(#170,#171,#172,#173,#174,#175,#176,#177,#178,#179));
#181=STYLED_ITEM('',(#182),#189);
#182=PRESENTATION_STYLE_ASSIGNMENT((#183));
#183=SURFACE_STYLE_USAGE(.BOTH.,#184);
#184=SURFACE_SIDE_STYLE('',(#185));
#185=SURFACE_STYLE_FILL_AREA(#186);
#186=FILL_AREA_STYLE('',(#187));
#187=FILL_AREA_STYLE_COLOUR('',#188);
#188=COLOUR_RGB('',0.615686274509804,0.811764705882353,0.929411764705882);
#189=MANIFOLD_SOLID_BREP('TOP',#180);
#190=SHAPE_DEFINITION_REPRESENTATION(#307,#191);
#191=SHAPE_REPRESENTATION('TOP',(#192),#302);
#192=AXIS2_PLACEMENT_3D('',#252,#205,#206);
#193=AXIS2_PLACEMENT_3D('',#253,#207,#208);
#194=AXIS2_PLACEMENT_3D('',#262,#213,#214);
#195=AXIS2_PLACEMENT_3D('',#268,#218,#219);
#196=AXIS2_PLACEMENT_3D('',#278,#225,#226);
#197=AXIS2_PLACEMENT_3D('',#279,#227,#228);
#198=AXIS2_PLACEMENT_3D('',#282,#230,#231);
#199=AXIS2_PLACEMENT_3D('',#283,#232,#233);
#200=AXIS2_PLACEMENT_3D('',#289,#237,#238);
#201=AXIS2_PLACEMENT_3D('',#290,#239,#240);
#202=AXIS2_PLACEMENT_3D('',#294,#243,#244);
#203=AXIS2_PLACEMENT_3D('',#298,#247,#248);
#204=AXIS2_PLACEMENT_3D('',#300,#250,#251);
#205=DIRECTION('',(0.,0.,1.));
#206=DIRECTION('',(1.,0.,0.));
#207=DIRECTION('',(1.,0.,0.));
#208=DIRECTION('',(0.,0.,-1.));
#209=DIRECTION('',(0.,0.,-1.));
#210=DIRECTION('',(0.,-1.,0.));
#211=DIRECTION('',(0.,0.,-1.));
#212=DIRECTION('',(0.,-1.,0.));
#213=DIRECTION('',(0.,1.,0.));
#214=DIRECTION('',(0.,0.,1.));
#215=DIRECTION('',(1.,0.,0.));
#216=DIRECTION('',(0.,0.,-1.));
#217=DIRECTION('',(1.,0.,0.));
#218=DIRECTION('',(0.,1.,0.));
#219=DIRECTION('',(0.,0.,1.));
#220=DIRECTION('',(0.,0.,1.));
#221=DIRECTION('',(1.,0.,0.));
#222=DIRECTION('',(1.,0.,0.));
#223=DIRECTION('',(0.,0.,-1.));
#224=DIRECTION('',(1.,0.,0.));
#225=DIRECTION('',(0.,0.,-1.));
#226=DIRECTION('',(-1.,0.,0.));
#227=DIRECTION('',(0.,0.,1.));
#228=DIRECTION('',(1.,0.,0.));
#229=DIRECTION('',(0.,0.,-1.));
#230=DIRECTION('',(0.,0.,1.));
#231=DIRECTION('',(1.,0.,0.));
#232=DIRECTION('',(0.,0.,1.));
#233=DIRECTION('',(1.,0.,0.));
#234=DIRECTION('',(3.02788097625043E-16,-1.,0.));
#235=DIRECTION('',(0.,1.,0.));
#236=DIRECTION('',(-1.,-2.01858731750028E-16,0.));
#237=DIRECTION('',(0.,0.,1.));
#238=DIRECTION('',(1.,0.,0.));
#239=DIRECTION('',(-1.,-3.02788097625043E-16,0.));
#240=DIRECTION('',(3.02788097625043E-16,-1.,0.));
#241=DIRECTION('',(0.,0.,1.));
#242=DIRECTION('',(3.02788097625043E-16,-1.,0.));
#243=DIRECTION('',(-2.01858731750028E-16,1.,0.));
#244=DIRECTION('',(-1.,-2.01858731750028E-16,0.));
#245=DIRECTION('',(0.,0.,1.));
#246=DIRECTION('',(-1.,-2.01858731750028E-16,0.));
#247=DIRECTION('',(1.,0.,0.));
#248=DIRECTION('',(0.,0.,-1.));
#249=DIRECTION('',(0.,1.,0.));
#250=DIRECTION('',(0.,0.,1.));
#251=DIRECTION('',(1.,0.,0.));
#252=CARTESIAN_POINT('',(0.,0.,0.));
#253=CARTESIAN_POINT('',(0.0840032544732094,-0.00177887678097846,0.0025));
#254=CARTESIAN_POINT('',(0.0840032544732094,0.0682211232190216,0.0025));
#255=CARTESIAN_POINT('',(0.0840032544732094,0.0682211232190216,0.001));
#256=CARTESIAN_POINT('',(0.0840032544732094,0.0682211232190216,0.));
#257=CARTESIAN_POINT('',(0.0840032544732094,-0.00177887678097846,0.001));
#258=CARTESIAN_POINT('',(0.0840032544732094,-0.0717788767809785,0.001));
#259=CARTESIAN_POINT('',(0.0840032544732094,-0.0717788767809785,0.0025));
#260=CARTESIAN_POINT('',(0.0840032544732094,-0.0717788767809785,0.));
#261=CARTESIAN_POINT('',(0.0840032544732094,-0.00177887678097846,0.));
#262=CARTESIAN_POINT('',(0.0140032544732094,-0.0717788767809785,0.0025));
#263=CARTESIAN_POINT('',(0.0140032544732094,-0.0717788767809785,0.001));
#264=CARTESIAN_POINT('',(-0.0559967455267906,-0.0717788767809785,0.001));
#265=CARTESIAN_POINT('',(-0.0559967455267906,-0.0717788767809785,0.0025));
#266=CARTESIAN_POINT('',(-0.0559967455267906,-0.0717788767809785,0.));
#267=CARTESIAN_POINT('',(0.0140032544732094,-0.0717788767809785,0.));
#268=CARTESIAN_POINT('',(0.0140032544732093,0.0682211232190216,0.0025));
#269=CARTESIAN_POINT('',(0.0815032544732094,0.0682211232190216,0.001));
#270=CARTESIAN_POINT('',(0.0815032544732094,0.0682211232190216,0.001));
#271=CARTESIAN_POINT('',(0.0815032544732094,0.0682211232190216,0.0025));
#272=CARTESIAN_POINT('',(0.0140032544732093,0.0682211232190216,0.001));
#273=CARTESIAN_POINT('',(0.0140032544732093,0.0682211232190216,0.));
#274=CARTESIAN_POINT('',(-0.0559967455267907,0.0682211232190216,0.));
#275=CARTESIAN_POINT('',(-0.0559967455267907,0.0682211232190216,0.0025));
#276=CARTESIAN_POINT('',(-0.0559967455267907,0.0682211232190216,0.0025));
#277=CARTESIAN_POINT('',(0.0140032544732093,0.0682211232190216,0.0025));
#278=CARTESIAN_POINT('',(-0.0559967455267907,-0.00177887678097846,0.0025));
#279=CARTESIAN_POINT('',(-0.0559967455267907,-0.00177887678097846,0.));
#280=CARTESIAN_POINT('',(-0.0559967455267906,-0.0717788767809785,0.0025));
#281=CARTESIAN_POINT('',(-0.0559967455267906,-0.0717788767809785,0.0025));
#282=CARTESIAN_POINT('',(-0.0559967455267907,-0.00177887678097846,0.0025));
#283=CARTESIAN_POINT('',(-0.0209967455267906,-0.00177887678097846,0.0025));
#284=CARTESIAN_POINT('',(0.0815032544732094,-0.00052887678097846,0.0025));
#285=CARTESIAN_POINT('',(0.0815032544732094,-0.0692788767809785,0.0025));
#286=CARTESIAN_POINT('',(-0.0559967455267906,-0.0705288767809785,0.0025));
#287=CARTESIAN_POINT('',(-0.0559967455267906,-0.0692788767809785,0.0025));
#288=CARTESIAN_POINT('',(0.0127532544732094,-0.0692788767809785,0.0025));
#289=CARTESIAN_POINT('',(-0.0209967455267906,-0.00177887678097846,0.));
#290=CARTESIAN_POINT('',(0.0815032544732094,-0.00052887678097846,0.001));
#291=CARTESIAN_POINT('',(0.0815032544732094,-0.0692788767809785,0.001));
#292=CARTESIAN_POINT('',(0.0815032544732094,-0.0692788767809785,0.001));
#293=CARTESIAN_POINT('',(0.0815032544732094,-0.00052887678097846,0.001));
#294=CARTESIAN_POINT('',(0.0127532544732094,-0.0692788767809785,0.001));
#295=CARTESIAN_POINT('',(-0.0559967455267906,-0.0692788767809785,0.001));
#296=CARTESIAN_POINT('',(-0.0559967455267906,-0.0692788767809785,0.001));
#297=CARTESIAN_POINT('',(0.0127532544732094,-0.0692788767809785,0.001));
#298=CARTESIAN_POINT('',(-0.0559967455267906,-0.0705288767809785,0.001));
#299=CARTESIAN_POINT('',(-0.0559967455267906,-0.0705288767809785,0.001));
#300=CARTESIAN_POINT('',(-0.0209967455267906,-0.00177887678097846,0.001));
#301=MECHANICAL_DESIGN_GEOMETRIC_PRESENTATION_REPRESENTATION('',(#181),
#302);
#302=(
GEOMETRIC_REPRESENTATION_CONTEXT(3)
GLOBAL_UNCERTAINTY_ASSIGNED_CONTEXT((#303))
GLOBAL_UNIT_ASSIGNED_CONTEXT((#306,#305,#304))
REPRESENTATION_CONTEXT('TOP','TOP_LEVEL_ASSEMBLY_PART')
);
#303=UNCERTAINTY_MEASURE_WITH_UNIT(LENGTH_MEASURE(1.E-8),#306,
'DISTANCE_ACCURACY_VALUE','Maximum Tolerance applied to model');
#304=(
NAMED_UNIT(*)
SI_UNIT($,.STERADIAN.)
SOLID_ANGLE_UNIT()
);
#305=(
NAMED_UNIT(*)
PLANE_ANGLE_UNIT()
SI_UNIT($,.RADIAN.)
);
#306=(
LENGTH_UNIT()
NAMED_UNIT(*)
SI_UNIT($,.METRE.)
);
#307=PRODUCT_DEFINITION_SHAPE('','',#308);
#308=PRODUCT_DEFINITION('','',#310,#309);
#309=PRODUCT_DEFINITION_CONTEXT('',#316,'design');
#310=PRODUCT_DEFINITION_FORMATION_WITH_SPECIFIED_SOURCE('','',#312,
 .NOT_KNOWN.);
#311=PRODUCT_RELATED_PRODUCT_CATEGORY('','',(#312));
#312=PRODUCT('TOP','TOP','TOP',(#314));
#313=PRODUCT_CATEGORY('','');
#314=PRODUCT_CONTEXT('',#316,'mechanical');
#315=APPLICATION_PROTOCOL_DEFINITION('international standard',
'ap242_managed_model_based_3d_engineering',2020,#316);
#316=APPLICATION_CONTEXT('managed model based 3d engineering');
ENDSEC;
END-ISO-10303-21;
